<?xml version="1.0" encoding="UTF-8" standalone="no"?>
<!DOCTYPE svg PUBLIC "-//W3C//DTD SVG 1.1//EN" "http://www.w3.org/Graphics/SVG/1.1/DTD/svg11.dtd">
<svg width="100%" height="100%" viewBox="0 0 134 190" version="1.1" xmlns="http://www.w3.org/2000/svg" xmlns:xlink="http://www.w3.org/1999/xlink" xml:space="preserve" xmlns:serif="http://www.serif.com/" style="fill-rule:evenodd;clip-rule:evenodd;">
    <g transform="matrix(1,0,0,1,-136,-1437)">
        <g id="herzzwei" transform="matrix(1.0231,0,0,0.854373,136.606,612.581)">
            <rect x="0" y="965.48" width="129.704" height="221.683" style="fill:none;"/>
            <g transform="matrix(0.977423,0,0,1.17045,-119.351,541.591)">
                <g transform="matrix(1,0,0,-1,0.23105,912.915)">
                    <path d="M125.785,370.437C125.785,367.605 128.102,365.289 130.934,365.289L245.527,365.289C248.352,365.289 250.668,367.605 250.668,370.437L250.668,541.675C250.668,544.508 248.352,546.824 245.527,546.824L130.934,546.824C128.102,546.824 125.785,544.508 125.785,541.675L125.785,370.437Z" style="fill:white;fill-rule:nonzero;stroke:black;stroke-width:1px;"/>
                </g>
                <g transform="matrix(1,0,0,-1,0.23105,806.568)">
                    <path d="M141.77,405.825C141.762,402.293 137.336,399.723 136.039,396.926C134.73,399.715 130.297,402.262 130.27,405.793C130.262,407.457 131.551,408.817 133.133,408.817C134.723,408.817 136.02,407.473 136.02,405.809C136.02,407.481 137.301,408.832 138.883,408.832C140.473,408.84 141.762,407.489 141.77,405.825Z" style="fill:rgb(230,24,10);fill-rule:nonzero;"/>
                </g>
                <g transform="matrix(1,0,0,-1,0.23105,1017.76)">
                    <path d="M235.434,505.539C235.441,509.07 239.867,511.641 241.164,514.438C242.477,511.649 246.906,509.098 246.938,505.566C246.941,503.902 245.652,502.547 244.07,502.547C242.48,502.547 241.184,503.887 241.184,505.555C241.184,503.883 239.902,502.531 238.32,502.531C236.73,502.523 235.441,503.875 235.434,505.539Z" style="fill:rgb(230,24,10);fill-rule:nonzero;"/>
                </g>
                <g transform="matrix(1,0,0,-1,0.23105,1031.63)">
                    <path d="M174.801,508.355C174.816,516.828 185.434,523 188.547,529.711C191.695,523.02 202.328,516.902 202.402,508.426C202.418,504.43 199.324,501.176 195.527,501.176C191.715,501.176 188.602,504.394 188.602,508.391C188.602,504.379 185.523,501.137 181.727,501.137C177.914,501.121 174.816,504.359 174.801,508.355Z" style="fill:rgb(230,24,10);fill-rule:nonzero;"/>
                </g>
                <g transform="matrix(1,0,0,-1,0.23105,786.478)">
                    <path d="M202.402,399.899C202.383,391.426 191.77,385.254 188.656,378.543C185.508,385.235 174.871,391.352 174.801,399.828C174.781,403.824 177.879,407.078 181.672,407.078C185.488,407.078 188.602,403.86 188.602,399.864C188.602,403.875 191.68,407.117 195.473,407.117C199.289,407.133 202.383,403.895 202.402,399.899Z" style="fill:rgb(230,24,10);fill-rule:nonzero;"/>
                </g>
                <g transform="matrix(0.53388,0,0,1,61.4412,2.5544)">
                    <g transform="matrix(34.0888,0,0,34.0888,128.783,390.56)">
                        <path d="M0.414,0L0.024,0L0.024,-0.011C0.144,-0.153 0.216,-0.249 0.242,-0.298C0.267,-0.347 0.28,-0.395 0.28,-0.442C0.28,-0.476 0.27,-0.504 0.249,-0.527C0.227,-0.55 0.201,-0.561 0.171,-0.561C0.121,-0.561 0.082,-0.536 0.054,-0.486L0.036,-0.492C0.054,-0.555 0.08,-0.601 0.116,-0.631C0.152,-0.661 0.193,-0.676 0.24,-0.676C0.274,-0.676 0.304,-0.668 0.332,-0.652C0.36,-0.637 0.381,-0.615 0.397,-0.588C0.413,-0.561 0.42,-0.535 0.42,-0.512C0.42,-0.468 0.408,-0.424 0.384,-0.38C0.351,-0.32 0.28,-0.236 0.169,-0.128L0.312,-0.128C0.347,-0.128 0.37,-0.129 0.381,-0.132C0.391,-0.135 0.4,-0.14 0.407,-0.147C0.414,-0.154 0.423,-0.169 0.434,-0.191L0.451,-0.191L0.414,0Z" style="fill:rgb(230,24,10);fill-rule:nonzero;"/>
                    </g>
                </g>
                <g transform="matrix(-0.53388,0,0,-1,114.542,-0.444624)">
                    <g transform="matrix(34.0888,0,0,34.0888,-248.42,-520.804)">
                        <path d="M0.414,0L0.024,0L0.024,-0.011C0.144,-0.153 0.216,-0.249 0.242,-0.298C0.267,-0.347 0.28,-0.395 0.28,-0.442C0.28,-0.476 0.27,-0.504 0.249,-0.527C0.227,-0.55 0.201,-0.561 0.171,-0.561C0.121,-0.561 0.082,-0.536 0.054,-0.486L0.036,-0.492C0.054,-0.555 0.08,-0.601 0.116,-0.631C0.152,-0.661 0.193,-0.676 0.24,-0.676C0.274,-0.676 0.304,-0.668 0.332,-0.652C0.36,-0.637 0.381,-0.615 0.397,-0.588C0.413,-0.561 0.42,-0.535 0.42,-0.512C0.42,-0.468 0.408,-0.424 0.384,-0.38C0.351,-0.32 0.28,-0.236 0.169,-0.128L0.312,-0.128C0.347,-0.128 0.37,-0.129 0.381,-0.132C0.391,-0.135 0.4,-0.14 0.407,-0.147C0.414,-0.154 0.423,-0.169 0.434,-0.191L0.451,-0.191L0.414,0Z" style="fill:rgb(230,24,10);fill-rule:nonzero;"/>
                    </g>
                </g>
            </g>
        </g>
    </g>
</svg>
