<?xml version="1.0" encoding="UTF-8" standalone="no"?>
<!DOCTYPE svg PUBLIC "-//W3C//DTD SVG 1.1//EN" "http://www.w3.org/Graphics/SVG/1.1/DTD/svg11.dtd">
<svg width="100%" height="100%" viewBox="0 0 134 190" version="1.1" xmlns="http://www.w3.org/2000/svg" xmlns:xlink="http://www.w3.org/1999/xlink" xml:space="preserve" xmlns:serif="http://www.serif.com/" style="fill-rule:evenodd;clip-rule:evenodd;">
    <g transform="matrix(1,0,0,1,-534,-1437)">
        <g id="herzfünf" transform="matrix(1.0231,0,0,0.854373,534.707,612.581)">
            <rect x="0" y="965.48" width="129.704" height="221.683" style="fill:none;"/>
            <g transform="matrix(0.977423,0,0,1.17045,-487.746,541.591)">
                <g transform="matrix(1,0,0,-1,0.23105,912.915)">
                    <path d="M502.688,370.437C502.688,367.605 505.004,365.289 507.84,365.289L622.43,365.289C625.258,365.289 627.574,367.605 627.574,370.437L627.574,541.675C627.574,544.508 625.258,546.824 622.43,546.824L507.84,546.824C505.004,546.824 502.688,544.508 502.688,541.675L502.688,370.437Z" style="fill:white;fill-rule:nonzero;stroke:black;stroke-width:1px;"/>
                </g>
                <g transform="matrix(1,0,0,-1,0.23105,806.568)">
                    <path d="M518.672,405.825C518.664,402.293 514.242,399.723 512.945,396.926C511.633,399.715 507.203,402.262 507.172,405.793C507.164,407.457 508.453,408.817 510.035,408.817C511.625,408.817 512.922,407.473 512.922,405.809C512.922,407.481 514.203,408.832 515.785,408.832C517.375,408.84 518.664,407.489 518.672,405.825Z" style="fill:rgb(230,24,10);fill-rule:nonzero;"/>
                </g>
                <g transform="matrix(1,0,0,-1,0.23105,1017.76)">
                    <path d="M612.34,505.539C612.348,509.07 616.77,511.641 618.066,514.438C619.379,511.649 623.809,509.098 623.84,505.566C623.848,503.902 622.559,502.547 620.977,502.547C619.387,502.547 618.09,503.887 618.09,505.555C618.09,503.883 616.809,502.531 615.227,502.531C613.637,502.523 612.348,503.875 612.34,505.539Z" style="fill:rgb(230,24,10);fill-rule:nonzero;"/>
                </g>
                <g transform="matrix(0.53388,0,0,1,237.124,2.5544)">
                    <g transform="matrix(34.0888,0,0,34.0888,505.687,390.56)">
                        <path d="M0.152,-0.662L0.462,-0.662L0.413,-0.536L0.152,-0.536L0.127,-0.47C0.24,-0.466 0.326,-0.438 0.387,-0.386C0.437,-0.344 0.461,-0.291 0.461,-0.227C0.461,-0.186 0.45,-0.147 0.427,-0.108C0.404,-0.069 0.371,-0.039 0.329,-0.018C0.287,0.003 0.241,0.014 0.191,0.014C0.137,0.014 0.095,0.004 0.066,-0.017C0.046,-0.031 0.036,-0.047 0.036,-0.065C0.036,-0.079 0.041,-0.092 0.052,-0.103C0.063,-0.113 0.075,-0.119 0.089,-0.119C0.102,-0.119 0.114,-0.116 0.127,-0.111C0.14,-0.106 0.163,-0.092 0.194,-0.07C0.214,-0.056 0.231,-0.047 0.246,-0.042C0.256,-0.038 0.267,-0.036 0.28,-0.036C0.306,-0.036 0.329,-0.045 0.348,-0.065C0.367,-0.084 0.376,-0.108 0.376,-0.135C0.376,-0.193 0.347,-0.239 0.29,-0.275C0.233,-0.311 0.16,-0.329 0.073,-0.329C0.064,-0.329 0.051,-0.328 0.034,-0.328L0.152,-0.662Z" style="fill:rgb(230,24,10);fill-rule:nonzero;"/>
                    </g>
                </g>
                <g transform="matrix(1,0,0,-1,0.23105,786.478)">
                    <path d="M549.371,399.899C549.352,391.426 538.738,385.254 535.625,378.543C532.477,385.235 521.84,391.352 521.77,399.828C521.75,403.824 524.844,407.078 528.641,407.078C532.457,407.078 535.57,403.86 535.57,399.864C535.57,403.875 538.645,407.117 542.441,407.117C546.258,407.133 549.352,403.895 549.371,399.899Z" style="fill:rgb(230,24,10);fill-rule:nonzero;"/>
                </g>
                <g transform="matrix(1,0,0,-1,0.23105,1031.63)">
                    <path d="M521.77,508.355C521.785,516.828 532.402,523 535.516,529.711C538.664,523.02 549.297,516.902 549.371,508.426C549.387,504.43 546.293,501.176 542.496,501.176C538.684,501.176 535.57,504.394 535.57,508.391C535.57,504.379 532.492,501.137 528.695,501.137C524.883,501.121 521.785,504.359 521.77,508.355Z" style="fill:rgb(230,24,10);fill-rule:nonzero;"/>
                </g>
                <g transform="matrix(1,0,0,-1,0.23105,786.478)">
                    <path d="M609.242,399.899C609.223,391.426 598.605,385.254 595.496,378.543C592.348,385.235 581.711,391.352 581.641,399.828C581.621,403.824 584.715,407.078 588.512,407.078C592.328,407.078 595.441,403.86 595.441,399.864C595.441,403.875 598.516,407.117 602.312,407.117C606.129,407.133 609.223,403.895 609.242,399.899Z" style="fill:rgb(230,24,10);fill-rule:nonzero;"/>
                </g>
                <g transform="matrix(1,0,0,-1,0.23105,1031.63)">
                    <path d="M581.641,508.355C581.656,516.828 592.273,523 595.387,529.711C598.535,523.02 609.168,516.902 609.242,508.426C609.258,504.43 606.164,501.176 602.367,501.176C598.555,501.176 595.441,504.394 595.441,508.391C595.441,504.379 592.363,501.137 588.566,501.137C584.754,501.121 581.656,504.359 581.641,508.355Z" style="fill:rgb(230,24,10);fill-rule:nonzero;"/>
                </g>
                <g transform="matrix(1,0,0,-1,0.23105,901.849)">
                    <path d="M579.305,457.586C579.289,449.113 568.672,442.942 565.559,436.227C562.41,442.922 551.777,449.039 551.703,457.516C551.688,461.508 554.781,464.766 558.578,464.766C562.391,464.766 565.504,461.547 565.504,457.551C565.504,461.563 568.582,464.801 572.379,464.801C576.191,464.82 579.289,461.582 579.305,457.586Z" style="fill:rgb(230,24,10);fill-rule:nonzero;"/>
                </g>
                <g transform="matrix(-0.53388,0,0,-1,290.224,-0.444624)">
                    <g transform="matrix(34.0888,0,0,34.0888,-625.324,-520.804)">
                        <path d="M0.152,-0.662L0.462,-0.662L0.413,-0.536L0.152,-0.536L0.127,-0.47C0.24,-0.466 0.326,-0.438 0.387,-0.386C0.437,-0.344 0.461,-0.291 0.461,-0.227C0.461,-0.186 0.45,-0.147 0.427,-0.108C0.404,-0.069 0.371,-0.039 0.329,-0.018C0.287,0.003 0.241,0.014 0.191,0.014C0.137,0.014 0.095,0.004 0.066,-0.017C0.046,-0.031 0.036,-0.047 0.036,-0.065C0.036,-0.079 0.041,-0.092 0.052,-0.103C0.063,-0.113 0.075,-0.119 0.089,-0.119C0.102,-0.119 0.114,-0.116 0.127,-0.111C0.14,-0.106 0.163,-0.092 0.194,-0.07C0.214,-0.056 0.231,-0.047 0.246,-0.042C0.256,-0.038 0.267,-0.036 0.28,-0.036C0.306,-0.036 0.329,-0.045 0.348,-0.065C0.367,-0.084 0.376,-0.108 0.376,-0.135C0.376,-0.193 0.347,-0.239 0.29,-0.275C0.233,-0.311 0.16,-0.329 0.073,-0.329C0.064,-0.329 0.051,-0.328 0.034,-0.328L0.152,-0.662Z" style="fill:rgb(230,24,10);fill-rule:nonzero;"/>
                    </g>
                </g>
            </g>
        </g>
    </g>
</svg>
