<?xml version="1.0" encoding="UTF-8" standalone="no"?>
<!DOCTYPE svg PUBLIC "-//W3C//DTD SVG 1.1//EN" "http://www.w3.org/Graphics/SVG/1.1/DTD/svg11.dtd">
<svg width="100%" height="100%" viewBox="0 0 134 190" version="1.1" xmlns="http://www.w3.org/2000/svg" xmlns:xlink="http://www.w3.org/1999/xlink" xml:space="preserve" xmlns:serif="http://www.serif.com/" style="fill-rule:evenodd;clip-rule:evenodd;">
    <g transform="matrix(1,0,0,1,-269,-1437)">
        <g id="herzdrei" transform="matrix(1.0231,0,0,0.854373,269.306,612.581)">
            <rect x="0" y="965.48" width="129.704" height="221.683" style="fill:none;"/>
            <g transform="matrix(0.977423,0,0,1.17045,-242.149,541.591)">
                <g transform="matrix(1,0,0,-1,0.23105,912.915)">
                    <path d="M251.418,370.437C251.418,367.605 253.734,365.289 256.57,365.289L371.16,365.289C373.988,365.289 376.305,367.605 376.305,370.437L376.305,541.675C376.305,544.508 373.988,546.824 371.16,546.824L256.57,546.824C253.734,546.824 251.418,544.508 251.418,541.675L251.418,370.437Z" style="fill:white;fill-rule:nonzero;stroke:black;stroke-width:1px;"/>
                </g>
                <g transform="matrix(1,0,0,-1,0.23105,806.568)">
                    <path d="M267.402,405.825C267.395,402.293 262.973,399.723 261.676,396.926C260.363,399.715 255.934,402.262 255.902,405.793C255.895,407.457 257.184,408.817 258.766,408.817C260.355,408.817 261.652,407.473 261.652,405.809C261.652,407.481 262.934,408.832 264.516,408.832C266.105,408.84 267.395,407.489 267.402,405.825Z" style="fill:rgb(230,24,10);fill-rule:nonzero;"/>
                </g>
                <g transform="matrix(1,0,0,-1,0.23105,1017.76)">
                    <path d="M361.07,505.539C361.078,509.07 365.5,511.641 366.797,514.438C368.109,511.649 372.539,509.098 372.57,505.566C372.578,503.902 371.289,502.547 369.707,502.547C368.117,502.547 366.82,503.887 366.82,505.555C366.82,503.883 365.539,502.531 363.957,502.531C362.367,502.523 361.078,503.875 361.07,505.539Z" style="fill:rgb(230,24,10);fill-rule:nonzero;"/>
                </g>
                <g transform="matrix(1,0,0,-1,0.23105,1031.63)">
                    <path d="M300.434,508.355C300.453,516.828 311.07,523 314.184,529.711C317.332,523.02 327.965,516.902 328.035,508.426C328.055,504.43 324.961,501.176 321.164,501.176C317.348,501.176 314.234,504.394 314.234,508.391C314.234,504.379 311.16,501.137 307.363,501.137C303.547,501.121 300.453,504.359 300.434,508.355Z" style="fill:rgb(230,24,10);fill-rule:nonzero;"/>
                </g>
                <g transform="matrix(1,0,0,-1,0.23105,901.849)">
                    <path d="M328.035,457.586C328.02,449.113 317.402,442.942 314.289,436.227C311.141,442.922 300.508,449.039 300.434,457.516C300.418,461.508 303.512,464.766 307.309,464.766C311.121,464.766 314.234,461.547 314.234,457.551C314.234,461.563 317.312,464.801 321.109,464.801C324.922,464.82 328.02,461.582 328.035,457.586Z" style="fill:rgb(230,24,10);fill-rule:nonzero;"/>
                </g>
                <g transform="matrix(1,0,0,-1,0.23105,786.478)">
                    <path d="M328.035,399.899C328.02,391.426 317.402,385.254 314.289,378.543C311.141,385.235 300.508,391.352 300.434,399.828C300.418,403.824 303.512,407.078 307.309,407.078C311.121,407.078 314.234,403.86 314.234,399.864C314.234,403.875 317.312,407.117 321.109,407.117C324.922,407.133 328.02,403.895 328.035,399.899Z" style="fill:rgb(230,24,10);fill-rule:nonzero;"/>
                </g>
                <g transform="matrix(19.4626,0,0,34.0888,256.016,393.115)">
                    <path d="M0.148,-0.332L0.148,-0.349C0.185,-0.36 0.211,-0.37 0.225,-0.379C0.239,-0.388 0.252,-0.403 0.262,-0.422C0.273,-0.441 0.278,-0.46 0.278,-0.479C0.278,-0.507 0.268,-0.53 0.248,-0.549C0.229,-0.568 0.204,-0.578 0.175,-0.578C0.129,-0.578 0.09,-0.554 0.059,-0.506L0.041,-0.512C0.064,-0.567 0.094,-0.607 0.131,-0.635C0.167,-0.662 0.208,-0.676 0.253,-0.676C0.299,-0.676 0.337,-0.662 0.366,-0.634C0.396,-0.606 0.411,-0.573 0.411,-0.536C0.411,-0.511 0.404,-0.488 0.39,-0.465C0.377,-0.442 0.355,-0.423 0.325,-0.405C0.363,-0.387 0.392,-0.364 0.412,-0.337C0.432,-0.309 0.442,-0.275 0.442,-0.234C0.442,-0.165 0.417,-0.107 0.367,-0.058C0.317,-0.01 0.25,0.014 0.167,0.014C0.111,0.014 0.07,0.005 0.044,-0.014C0.025,-0.027 0.016,-0.043 0.016,-0.064C0.016,-0.079 0.021,-0.092 0.032,-0.102C0.043,-0.113 0.055,-0.118 0.069,-0.118C0.08,-0.118 0.09,-0.116 0.1,-0.111C0.105,-0.109 0.123,-0.094 0.155,-0.069C0.187,-0.043 0.216,-0.03 0.244,-0.03C0.268,-0.03 0.289,-0.039 0.306,-0.058C0.323,-0.077 0.332,-0.102 0.332,-0.131C0.332,-0.175 0.316,-0.217 0.285,-0.254C0.254,-0.292 0.208,-0.318 0.148,-0.332Z" style="fill:rgb(230,24,10);fill-rule:nonzero;"/>
                </g>
                <g transform="matrix(-0.53388,0,0,-1,173.102,-0.444624)">
                    <g transform="matrix(34.0888,0,0,34.0888,-374.055,-520.804)">
                        <path d="M0.148,-0.332L0.148,-0.349C0.185,-0.36 0.211,-0.37 0.225,-0.379C0.239,-0.388 0.252,-0.403 0.262,-0.422C0.273,-0.441 0.278,-0.46 0.278,-0.479C0.278,-0.507 0.268,-0.53 0.248,-0.549C0.229,-0.568 0.204,-0.578 0.175,-0.578C0.129,-0.578 0.09,-0.554 0.059,-0.506L0.041,-0.512C0.064,-0.567 0.094,-0.607 0.131,-0.635C0.167,-0.662 0.208,-0.676 0.253,-0.676C0.299,-0.676 0.337,-0.662 0.366,-0.634C0.396,-0.606 0.411,-0.573 0.411,-0.536C0.411,-0.511 0.404,-0.488 0.39,-0.465C0.377,-0.442 0.355,-0.423 0.325,-0.405C0.363,-0.387 0.392,-0.364 0.412,-0.337C0.432,-0.309 0.442,-0.275 0.442,-0.234C0.442,-0.165 0.417,-0.107 0.367,-0.058C0.317,-0.01 0.25,0.014 0.167,0.014C0.111,0.014 0.07,0.005 0.044,-0.014C0.025,-0.027 0.016,-0.043 0.016,-0.064C0.016,-0.079 0.021,-0.092 0.032,-0.102C0.043,-0.113 0.055,-0.118 0.069,-0.118C0.08,-0.118 0.09,-0.116 0.1,-0.111C0.105,-0.109 0.123,-0.094 0.155,-0.069C0.187,-0.043 0.216,-0.03 0.244,-0.03C0.268,-0.03 0.289,-0.039 0.306,-0.058C0.323,-0.077 0.332,-0.102 0.332,-0.131C0.332,-0.175 0.316,-0.217 0.285,-0.254C0.254,-0.292 0.208,-0.318 0.148,-0.332Z" style="fill:rgb(230,24,10);fill-rule:nonzero;"/>
                    </g>
                </g>
            </g>
        </g>
    </g>
</svg>
