<?xml version="1.0" encoding="UTF-8" standalone="no"?>
<!DOCTYPE svg PUBLIC "-//W3C//DTD SVG 1.1//EN" "http://www.w3.org/Graphics/SVG/1.1/DTD/svg11.dtd">
<svg width="100%" height="100%" viewBox="0 0 134 190" version="1.1" xmlns="http://www.w3.org/2000/svg" xmlns:xlink="http://www.w3.org/1999/xlink" xml:space="preserve" xmlns:serif="http://www.serif.com/" style="fill-rule:evenodd;clip-rule:evenodd;">
    <g transform="matrix(1,0,0,1,-932,-1437)">
        <g id="herzacht" transform="matrix(1.0231,0,0,0.854373,932.807,612.581)">
            <rect x="0" y="965.48" width="129.704" height="221.683" style="fill:none;"/>
            <g transform="matrix(0.977423,0,0,1.17045,-856.137,541.591)">
                <g transform="matrix(1,0,0,-1,0.23105,912.915)">
                    <path d="M879.59,370.437C879.59,367.605 881.906,365.289 884.738,365.289L999.328,365.289C1002.16,365.289 1004.47,367.605 1004.47,370.437L1004.47,541.675C1004.47,544.508 1002.16,546.824 999.328,546.824L884.738,546.824C881.906,546.824 879.59,544.508 879.59,541.675L879.59,370.437Z" style="fill:white;fill-rule:nonzero;stroke:black;stroke-width:1px;"/>
                </g>
                <g transform="matrix(1,0,0,-1,0.23105,806.568)">
                    <path d="M895.57,405.825C895.562,402.293 891.141,399.723 889.844,396.926C888.531,399.715 884.102,402.262 884.07,405.793C884.062,407.457 885.352,408.817 886.934,408.817C888.523,408.817 889.82,407.473 889.82,405.809C889.82,407.481 891.105,408.832 892.684,408.832C894.273,408.84 895.562,407.489 895.57,405.825Z" style="fill:rgb(230,24,10);fill-rule:nonzero;"/>
                </g>
                <g transform="matrix(1,0,0,-1,0.23105,1017.76)">
                    <path d="M989.242,505.539C989.25,509.07 993.672,511.641 994.969,514.438C996.281,511.649 1000.71,509.098 1000.74,505.566C1000.75,503.902 999.461,502.547 997.879,502.547C996.289,502.547 994.992,503.887 994.992,505.555C994.992,503.883 993.711,502.531 992.129,502.531C990.539,502.523 989.25,503.875 989.242,505.539Z" style="fill:rgb(230,24,10);fill-rule:nonzero;"/>
                </g>
                <g transform="matrix(0.53388,0,0,1,412.804,2.5544)">
                    <g transform="matrix(34.0888,0,0,34.0888,882.587,390.56)">
                        <path d="M0.341,-0.374C0.387,-0.34 0.42,-0.308 0.438,-0.279C0.456,-0.249 0.465,-0.215 0.465,-0.177C0.465,-0.124 0.445,-0.079 0.405,-0.042C0.364,-0.005 0.31,0.014 0.241,0.014C0.175,0.014 0.125,-0.002 0.089,-0.035C0.053,-0.067 0.035,-0.106 0.035,-0.153C0.035,-0.188 0.045,-0.219 0.066,-0.246C0.087,-0.273 0.121,-0.297 0.169,-0.319C0.117,-0.359 0.083,-0.392 0.069,-0.417C0.054,-0.443 0.046,-0.472 0.046,-0.506C0.046,-0.55 0.065,-0.589 0.103,-0.623C0.14,-0.656 0.192,-0.673 0.257,-0.673C0.32,-0.673 0.369,-0.658 0.403,-0.629C0.437,-0.599 0.454,-0.563 0.454,-0.521C0.454,-0.49 0.445,-0.463 0.427,-0.439C0.408,-0.415 0.38,-0.393 0.341,-0.374ZM0.304,-0.399C0.316,-0.415 0.325,-0.433 0.331,-0.454C0.336,-0.474 0.339,-0.496 0.339,-0.52C0.339,-0.562 0.33,-0.595 0.312,-0.617C0.298,-0.634 0.279,-0.643 0.255,-0.643C0.234,-0.643 0.215,-0.635 0.2,-0.619C0.184,-0.604 0.177,-0.584 0.177,-0.561C0.177,-0.537 0.185,-0.512 0.202,-0.487C0.219,-0.461 0.253,-0.432 0.304,-0.399ZM0.206,-0.296C0.196,-0.287 0.189,-0.278 0.185,-0.271C0.178,-0.26 0.172,-0.243 0.167,-0.221C0.162,-0.199 0.159,-0.177 0.159,-0.153C0.159,-0.122 0.163,-0.097 0.171,-0.076C0.179,-0.055 0.19,-0.04 0.204,-0.031C0.219,-0.022 0.234,-0.018 0.249,-0.018C0.273,-0.018 0.293,-0.026 0.309,-0.044C0.325,-0.061 0.333,-0.085 0.333,-0.115C0.333,-0.178 0.291,-0.239 0.206,-0.296Z" style="fill:rgb(230,24,10);fill-rule:nonzero;"/>
                    </g>
                </g>
                <g transform="matrix(1,0,0,-1,0.23105,786.478)">
                    <path d="M926.273,399.899C926.258,391.426 915.641,385.254 912.527,378.543C909.379,385.235 898.746,391.352 898.672,399.828C898.656,403.824 901.75,407.078 905.547,407.078C909.359,407.078 912.473,403.86 912.473,399.864C912.473,403.875 915.551,407.117 919.348,407.117C923.16,407.133 926.258,403.895 926.273,399.899Z" style="fill:rgb(230,24,10);fill-rule:nonzero;"/>
                </g>
                <g transform="matrix(1,0,0,-1,0.23105,867.681)">
                    <path d="M926.273,440.5C926.258,432.027 915.641,425.856 912.527,419.145C909.379,425.836 898.746,431.953 898.672,440.43C898.656,444.422 901.75,447.68 905.547,447.68C909.359,447.68 912.473,444.461 912.473,440.465C912.473,444.477 915.551,447.715 919.348,447.715C923.16,447.734 926.258,444.496 926.273,440.5Z" style="fill:rgb(230,24,10);fill-rule:nonzero;"/>
                </g>
                <g transform="matrix(1,0,0,-1,0.23105,950.431)">
                    <path d="M898.672,467.754C898.691,476.227 909.309,482.399 912.418,489.109C915.57,482.418 926.203,476.301 926.273,467.824C926.293,463.832 923.199,460.574 919.402,460.574C915.586,460.574 912.473,463.793 912.473,467.789C912.473,463.777 909.398,460.539 905.602,460.539C901.785,460.52 898.691,463.758 898.672,467.754Z" style="fill:rgb(230,24,10);fill-rule:nonzero;"/>
                </g>
                <g transform="matrix(1,0,0,-1,0.23105,1031.63)">
                    <path d="M898.672,508.355C898.691,516.828 909.309,523 912.418,529.711C915.57,523.02 926.203,516.902 926.273,508.426C926.293,504.43 923.199,501.176 919.402,501.176C915.586,501.176 912.473,504.394 912.473,508.391C912.473,504.379 909.398,501.137 905.602,501.137C901.785,501.121 898.691,504.359 898.672,508.355Z" style="fill:rgb(230,24,10);fill-rule:nonzero;"/>
                </g>
                <g transform="matrix(1,0,0,-1,0.23105,786.478)">
                    <path d="M986.145,399.899C986.129,391.426 975.512,385.254 972.398,378.543C969.25,385.235 958.617,391.352 958.543,399.828C958.527,403.824 961.621,407.078 965.418,407.078C969.23,407.078 972.344,403.86 972.344,399.864C972.344,403.875 975.422,407.117 979.219,407.117C983.031,407.133 986.129,403.895 986.145,399.899Z" style="fill:rgb(230,24,10);fill-rule:nonzero;"/>
                </g>
                <g transform="matrix(1,0,0,-1,0.23105,867.681)">
                    <path d="M986.145,440.5C986.129,432.027 975.512,425.856 972.398,419.145C969.25,425.836 958.617,431.953 958.543,440.43C958.527,444.422 961.621,447.68 965.418,447.68C969.23,447.68 972.344,444.461 972.344,440.465C972.344,444.477 975.422,447.715 979.219,447.715C983.031,447.734 986.129,444.496 986.145,440.5Z" style="fill:rgb(230,24,10);fill-rule:nonzero;"/>
                </g>
                <g transform="matrix(1,0,0,-1,0.23105,950.431)">
                    <path d="M958.543,467.754C958.562,476.227 969.18,482.399 972.289,489.109C975.441,482.418 986.074,476.301 986.145,467.824C986.164,463.832 983.07,460.574 979.273,460.574C975.457,460.574 972.344,463.793 972.344,467.789C972.344,463.777 969.27,460.539 965.473,460.539C961.656,460.52 958.562,463.758 958.543,467.754Z" style="fill:rgb(230,24,10);fill-rule:nonzero;"/>
                </g>
                <g transform="matrix(1,0,0,-1,0.23105,1031.63)">
                    <path d="M958.543,508.355C958.562,516.828 969.18,523 972.289,529.711C975.441,523.02 986.074,516.902 986.145,508.426C986.164,504.43 983.07,501.176 979.273,501.176C975.457,501.176 972.344,504.394 972.344,508.391C972.344,504.379 969.27,501.137 965.473,501.137C961.656,501.121 958.562,504.359 958.543,508.355Z" style="fill:rgb(230,24,10);fill-rule:nonzero;"/>
                </g>
                <g transform="matrix(-0.53388,0,0,-1,465.906,-0.444624)">
                    <g transform="matrix(34.0888,0,0,34.0888,-1002.23,-520.804)">
                        <path d="M0.341,-0.374C0.387,-0.34 0.42,-0.308 0.438,-0.279C0.456,-0.249 0.465,-0.215 0.465,-0.177C0.465,-0.124 0.445,-0.079 0.405,-0.042C0.364,-0.005 0.31,0.014 0.241,0.014C0.175,0.014 0.125,-0.002 0.089,-0.035C0.053,-0.067 0.035,-0.106 0.035,-0.153C0.035,-0.188 0.045,-0.219 0.066,-0.246C0.087,-0.273 0.121,-0.297 0.169,-0.319C0.117,-0.359 0.083,-0.392 0.069,-0.417C0.054,-0.443 0.046,-0.472 0.046,-0.506C0.046,-0.55 0.065,-0.589 0.103,-0.623C0.14,-0.656 0.192,-0.673 0.257,-0.673C0.32,-0.673 0.369,-0.658 0.403,-0.629C0.437,-0.599 0.454,-0.563 0.454,-0.521C0.454,-0.49 0.445,-0.463 0.427,-0.439C0.408,-0.415 0.38,-0.393 0.341,-0.374ZM0.304,-0.399C0.316,-0.415 0.325,-0.433 0.331,-0.454C0.336,-0.474 0.339,-0.496 0.339,-0.52C0.339,-0.562 0.33,-0.595 0.312,-0.617C0.298,-0.634 0.279,-0.643 0.255,-0.643C0.234,-0.643 0.215,-0.635 0.2,-0.619C0.184,-0.604 0.177,-0.584 0.177,-0.561C0.177,-0.537 0.185,-0.512 0.202,-0.487C0.219,-0.461 0.253,-0.432 0.304,-0.399ZM0.206,-0.296C0.196,-0.287 0.189,-0.278 0.185,-0.271C0.178,-0.26 0.172,-0.243 0.167,-0.221C0.162,-0.199 0.159,-0.177 0.159,-0.153C0.159,-0.122 0.163,-0.097 0.171,-0.076C0.179,-0.055 0.19,-0.04 0.204,-0.031C0.219,-0.022 0.234,-0.018 0.249,-0.018C0.273,-0.018 0.293,-0.026 0.309,-0.044C0.325,-0.061 0.333,-0.085 0.333,-0.115C0.333,-0.178 0.291,-0.239 0.206,-0.296Z" style="fill:rgb(230,24,10);fill-rule:nonzero;"/>
                    </g>
                </g>
            </g>
        </g>
    </g>
</svg>
