<?xml version="1.0" encoding="UTF-8" standalone="no"?>
<!DOCTYPE svg PUBLIC "-//W3C//DTD SVG 1.1//EN" "http://www.w3.org/Graphics/SVG/1.1/DTD/svg11.dtd">
<svg width="100%" height="100%" viewBox="0 0 134 191" version="1.1" xmlns="http://www.w3.org/2000/svg" xmlns:xlink="http://www.w3.org/1999/xlink" xml:space="preserve" xmlns:serif="http://www.serif.com/" style="fill-rule:evenodd;clip-rule:evenodd;">
    <g transform="matrix(1,0,0,1,-136,-1197)">
        <g id="karozwei" transform="matrix(1.0231,0,0,0.854373,136.606,373.015)">
            <rect x="0" y="965.48" width="129.704" height="221.683" style="fill:none;"/>
            <g transform="matrix(0.977423,0,0,1.17045,-119.351,754.949)">
                <g transform="matrix(1,0,0,-1,0.23105,548.341)">
                    <path d="M125.785,188.148C125.785,185.316 128.102,183 130.934,183L245.527,183C248.352,183 250.668,185.316 250.668,188.148L250.668,359.387C250.668,362.219 248.352,364.539 245.527,364.539L130.934,364.539C128.102,364.539 125.785,362.219 125.785,359.387L125.785,188.148Z" style="fill:white;fill-rule:nonzero;stroke:black;stroke-width:1px;"/>
                </g>
                <g transform="matrix(1,0,0,-1,0.23105,442.005)">
                    <path d="M136.02,220.601L141.777,220.601C141.121,220.629 140.562,221.055 140.035,221.406C138.852,222.297 137.742,223.32 136.867,224.519C136.457,225.121 136.027,225.801 136.02,226.555M141.777,220.601C140.945,220.574 140.234,220.043 139.598,219.555C138.477,218.617 137.508,217.496 136.688,216.285C136.387,215.781 136.035,215.25 136.02,214.648L136.02,220.601M136.02,214.648C135.988,215.535 135.449,216.301 134.941,216.988C134.031,218.117 132.953,219.121 131.77,219.957C131.309,220.246 130.82,220.586 130.262,220.601L136.02,220.601M130.262,220.601C131.094,220.625 131.805,221.156 132.438,221.644C133.559,222.586 134.527,223.707 135.348,224.918C135.648,225.418 136,225.949 136.02,226.555L136.02,220.601" style="fill:rgb(230,24,10);fill-rule:nonzero;"/>
                </g>
                <g transform="matrix(-1,-1.22465e-16,-1.22465e-16,1,272.27,0.80205)">
                    <path d="M136.02,220.601L141.777,220.601C141.121,220.629 140.562,221.055 140.035,221.406C138.852,222.297 137.742,223.32 136.867,224.519C136.457,225.121 136.027,225.801 136.02,226.555M141.777,220.601C140.945,220.574 140.234,220.043 139.598,219.555C138.477,218.617 137.508,217.496 136.688,216.285C136.387,215.781 136.035,215.25 136.02,214.648L136.02,220.601M136.02,214.648C135.988,215.535 135.449,216.301 134.941,216.988C134.031,218.117 132.953,219.121 131.77,219.957C131.309,220.246 130.82,220.586 130.262,220.601L136.02,220.601M130.262,220.601C131.094,220.625 131.805,221.156 132.438,221.644C133.559,222.586 134.527,223.707 135.348,224.918C135.648,225.418 136,225.949 136.02,226.555L136.02,220.601" style="fill:rgb(230,24,10);fill-rule:nonzero;"/>
                </g>
                <g transform="matrix(1,0,0,-1,0.23105,653.185)">
                    <path d="M241.184,326.192L235.426,326.192C236.082,326.164 236.641,325.738 237.168,325.387C238.352,324.496 239.461,323.469 240.336,322.274C240.746,321.668 241.176,320.992 241.184,320.238M235.426,326.192C236.258,326.219 236.969,326.746 237.605,327.235C238.727,328.176 239.695,329.297 240.516,330.508C240.816,331.008 241.168,331.543 241.184,332.145L241.184,326.192M241.184,332.145C241.215,331.258 241.754,330.492 242.262,329.805C243.172,328.672 244.25,327.672 245.434,326.836C245.895,326.547 246.383,326.207 246.941,326.192L241.184,326.192M246.941,326.192C246.109,326.164 245.398,325.637 244.766,325.149C243.645,324.207 242.676,323.086 241.855,321.875C241.555,321.375 241.203,320.844 241.184,320.238L241.184,326.192" style="fill:rgb(230,24,10);fill-rule:nonzero;"/>
                </g>
                <g transform="matrix(-1,-1.22465e-16,-1.22465e-16,1,482.598,0.80205)">
                    <path d="M241.184,326.192L235.426,326.192C236.082,326.164 236.641,325.738 237.168,325.387C238.352,324.496 239.461,323.469 240.336,322.274C240.746,321.668 241.176,320.992 241.184,320.238M235.426,326.192C236.258,326.219 236.969,326.746 237.605,327.235C238.727,328.176 239.695,329.297 240.516,330.508C240.816,331.008 241.168,331.543 241.184,332.145L241.184,326.192M241.184,332.145C241.215,331.258 241.754,330.492 242.262,329.805C243.172,328.672 244.25,327.672 245.434,326.836C245.895,326.547 246.383,326.207 246.941,326.192L241.184,326.192M246.941,326.192C246.109,326.164 245.398,325.637 244.766,325.149C243.645,324.207 242.676,323.086 241.855,321.875C241.555,321.375 241.203,320.844 241.184,320.238L241.184,326.192" style="fill:rgb(230,24,10);fill-rule:nonzero;"/>
                </g>
                <g transform="matrix(1,0,0,-1,0.23105,667.04)">
                    <path d="M188.602,333.117L174.781,333.117C176.355,333.047 177.695,332.027 178.961,331.187C181.801,329.043 184.461,326.586 186.562,323.711C187.543,322.265 188.574,320.636 188.602,318.832M174.781,333.117C176.781,333.179 178.484,334.453 180.008,335.625C182.699,337.883 185.027,340.57 186.992,343.476C187.711,344.679 188.562,345.957 188.602,347.406L188.602,333.117M188.602,347.406C188.668,345.277 189.965,343.433 191.188,341.789C193.371,339.074 195.953,336.668 198.797,334.66C199.902,333.968 201.074,333.152 202.418,333.117L188.602,333.117M202.418,333.117C200.422,333.054 198.719,331.785 197.195,330.613C194.504,328.351 192.176,325.668 190.211,322.758C189.488,321.554 188.641,320.281 188.602,318.832L188.602,333.117" style="fill:rgb(230,24,10);fill-rule:nonzero;"/>
                </g>
                <g transform="matrix(-1,-1.22465e-16,-1.22465e-16,1,377.43,0.80205)">
                    <path d="M188.602,333.117L174.781,333.117C176.355,333.047 177.695,332.027 178.961,331.187C181.801,329.043 184.461,326.586 186.562,323.711C187.543,322.265 188.574,320.636 188.602,318.832M174.781,333.117C176.781,333.179 178.484,334.453 180.008,335.625C182.699,337.883 185.027,340.57 186.992,343.476C187.711,344.679 188.562,345.957 188.602,347.406L188.602,333.117M188.602,347.406C188.668,345.277 189.965,343.433 191.188,341.789C193.371,339.074 195.953,336.668 198.797,334.66C199.902,333.968 201.074,333.152 202.418,333.117L188.602,333.117M202.418,333.117C200.422,333.054 198.719,331.785 197.195,330.613C194.504,328.351 192.176,325.668 190.211,322.758C189.488,321.554 188.641,320.281 188.602,318.832L188.602,333.117" style="fill:rgb(230,24,10);fill-rule:nonzero;"/>
                </g>
                <g transform="matrix(1,0,0,-1,0.23105,421.923)">
                    <path d="M188.602,210.559L202.418,210.559C200.848,210.629 199.508,211.648 198.242,212.488C195.402,214.633 192.738,217.09 190.637,219.965C189.656,221.414 188.629,223.039 188.602,224.848M202.418,210.559C200.422,210.496 198.719,209.226 197.195,208.051C194.504,205.793 192.176,203.109 190.211,200.199C189.488,198.996 188.641,197.723 188.602,196.273L188.602,210.559M188.602,196.273C188.531,198.398 187.238,200.242 186.012,201.887C183.832,204.601 181.25,207.008 178.406,209.016C177.301,209.707 176.129,210.527 174.781,210.559L188.602,210.559M174.781,210.559C176.781,210.621 178.484,211.891 180.008,213.062C182.699,215.324 185.027,218.012 186.992,220.918C187.711,222.121 188.562,223.398 188.602,224.848L188.602,210.559" style="fill:rgb(230,24,10);fill-rule:nonzero;"/>
                </g>
                <g transform="matrix(-1,-1.22465e-16,-1.22465e-16,1,377.43,0.80205)">
                    <path d="M188.602,210.559L202.418,210.559C200.848,210.629 199.508,211.648 198.242,212.488C195.402,214.633 192.738,217.09 190.637,219.965C189.656,221.414 188.629,223.039 188.602,224.848M202.418,210.559C200.422,210.496 198.719,209.226 197.195,208.051C194.504,205.793 192.176,203.109 190.211,200.199C189.488,198.996 188.641,197.723 188.602,196.273L188.602,210.559M188.602,196.273C188.531,198.398 187.238,200.242 186.012,201.887C183.832,204.601 181.25,207.008 178.406,209.016C177.301,209.707 176.129,210.527 174.781,210.559L188.602,210.559M174.781,210.559C176.781,210.621 178.484,211.891 180.008,213.062C182.699,215.324 185.027,218.012 186.992,220.918C187.711,222.121 188.562,223.398 188.602,224.848L188.602,210.559" style="fill:rgb(230,24,10);fill-rule:nonzero;"/>
                </g>
                <g transform="matrix(0.53388,0,0,1,60.6717,2.8564)">
                    <g transform="matrix(34.0888,0,0,34.0888,128.783,208.276)">
                        <path d="M0.414,0L0.024,0L0.024,-0.011C0.144,-0.153 0.216,-0.249 0.242,-0.298C0.267,-0.347 0.28,-0.395 0.28,-0.442C0.28,-0.476 0.27,-0.504 0.249,-0.527C0.227,-0.55 0.201,-0.561 0.171,-0.561C0.121,-0.561 0.082,-0.536 0.054,-0.486L0.036,-0.492C0.054,-0.555 0.08,-0.601 0.116,-0.631C0.152,-0.661 0.193,-0.676 0.24,-0.676C0.274,-0.676 0.304,-0.668 0.332,-0.652C0.36,-0.637 0.381,-0.615 0.397,-0.588C0.413,-0.561 0.42,-0.535 0.42,-0.512C0.42,-0.468 0.408,-0.424 0.384,-0.38C0.351,-0.32 0.28,-0.236 0.169,-0.128L0.312,-0.128C0.347,-0.128 0.37,-0.129 0.381,-0.132C0.391,-0.135 0.4,-0.14 0.407,-0.147C0.414,-0.154 0.423,-0.169 0.434,-0.191L0.451,-0.191L0.414,0Z" style="fill:rgb(230,24,10);fill-rule:nonzero;"/>
                    </g>
                </g>
                <g transform="matrix(-0.53388,0,0,-1,114.97,-1.94116)">
                    <g transform="matrix(34.0888,0,0,34.0888,-248.42,-338.518)">
                        <path d="M0.414,0L0.024,0L0.024,-0.011C0.144,-0.153 0.216,-0.249 0.242,-0.298C0.267,-0.347 0.28,-0.395 0.28,-0.442C0.28,-0.476 0.27,-0.504 0.249,-0.527C0.227,-0.55 0.201,-0.561 0.171,-0.561C0.121,-0.561 0.082,-0.536 0.054,-0.486L0.036,-0.492C0.054,-0.555 0.08,-0.601 0.116,-0.631C0.152,-0.661 0.193,-0.676 0.24,-0.676C0.274,-0.676 0.304,-0.668 0.332,-0.652C0.36,-0.637 0.381,-0.615 0.397,-0.588C0.413,-0.561 0.42,-0.535 0.42,-0.512C0.42,-0.468 0.408,-0.424 0.384,-0.38C0.351,-0.32 0.28,-0.236 0.169,-0.128L0.312,-0.128C0.347,-0.128 0.37,-0.129 0.381,-0.132C0.391,-0.135 0.4,-0.14 0.407,-0.147C0.414,-0.154 0.423,-0.169 0.434,-0.191L0.451,-0.191L0.414,0Z" style="fill:rgb(230,24,10);fill-rule:nonzero;"/>
                    </g>
                </g>
            </g>
        </g>
    </g>
</svg>
