<?xml version="1.0" encoding="UTF-8" standalone="no"?>
<!DOCTYPE svg PUBLIC "-//W3C//DTD SVG 1.1//EN" "http://www.w3.org/Graphics/SVG/1.1/DTD/svg11.dtd">
<svg width="100%" height="100%" viewBox="0 0 134 191" version="1.1" xmlns="http://www.w3.org/2000/svg" xmlns:xlink="http://www.w3.org/1999/xlink" xml:space="preserve" xmlns:serif="http://www.serif.com/" style="fill-rule:evenodd;clip-rule:evenodd;">
    <g transform="matrix(1,0,0,1,-932,-1197)">
        <g id="karoacht" transform="matrix(1.0231,0,0,0.854373,932.807,373.015)">
            <rect x="0" y="965.48" width="129.704" height="221.683" style="fill:none;"/>
            <g transform="matrix(0.977423,0,0,1.17045,-856.137,754.949)">
                <g transform="matrix(1,0,0,-1,0.23105,548.341)">
                    <path d="M879.59,188.148C879.59,185.316 881.906,183 884.738,183L999.328,183C1002.16,183 1004.47,185.316 1004.47,188.148L1004.47,359.387C1004.47,362.219 1002.16,364.539 999.328,364.539L884.738,364.539C881.906,364.539 879.59,362.219 879.59,359.387L879.59,188.148Z" style="fill:white;fill-rule:nonzero;stroke:black;stroke-width:1px;"/>
                </g>
                <g transform="matrix(1,0,0,-1,0.23105,442.005)">
                    <path d="M889.82,220.601L895.578,220.601C894.922,220.629 894.367,221.055 893.84,221.406C892.656,222.297 891.547,223.32 890.672,224.519C890.262,225.121 889.832,225.801 889.82,226.555M895.578,220.601C894.746,220.574 894.035,220.043 893.402,219.555C892.281,218.617 891.312,217.496 890.492,216.285C890.191,215.781 889.84,215.25 889.82,214.648L889.82,220.601M889.82,214.648C889.793,215.535 889.254,216.301 888.742,216.988C887.836,218.117 886.758,219.121 885.574,219.957C885.113,220.246 884.625,220.586 884.062,220.601L889.82,220.601M884.062,220.601C884.895,220.625 885.605,221.156 886.242,221.644C887.363,222.586 888.332,223.707 889.152,224.918C889.453,225.418 889.805,225.949 889.82,226.555L889.82,220.601" style="fill:rgb(230,24,10);fill-rule:nonzero;"/>
                </g>
                <g transform="matrix(-1,-1.22465e-16,-1.22465e-16,1,1779.87,0.80205)">
                    <path d="M889.82,220.601L895.578,220.601C894.922,220.629 894.367,221.055 893.84,221.406C892.656,222.297 891.547,223.32 890.672,224.519C890.262,225.121 889.832,225.801 889.82,226.555M895.578,220.601C894.746,220.574 894.035,220.043 893.402,219.555C892.281,218.617 891.312,217.496 890.492,216.285C890.191,215.781 889.84,215.25 889.82,214.648L889.82,220.601M889.82,214.648C889.793,215.535 889.254,216.301 888.742,216.988C887.836,218.117 886.758,219.121 885.574,219.957C885.113,220.246 884.625,220.586 884.062,220.601L889.82,220.601M884.062,220.601C884.895,220.625 885.605,221.156 886.242,221.644C887.363,222.586 888.332,223.707 889.152,224.918C889.453,225.418 889.805,225.949 889.82,226.555L889.82,220.601" style="fill:rgb(230,24,10);fill-rule:nonzero;"/>
                </g>
                <g transform="matrix(1,0,0,-1,0.23105,653.185)">
                    <path d="M994.992,326.192L989.234,326.192C989.891,326.164 990.449,325.738 990.977,325.387C992.16,324.496 993.27,323.469 994.145,322.274C994.551,321.668 994.98,320.992 994.992,320.238M989.234,326.192C990.066,326.219 990.777,326.746 991.41,327.235C992.531,328.176 993.504,329.297 994.32,330.508C994.621,331.008 994.977,331.543 994.992,332.145L994.992,326.192M994.992,332.145C995.02,331.258 995.562,330.492 996.07,329.805C996.98,328.672 998.055,327.672 999.242,326.836C999.699,326.547 1000.19,326.207 1000.75,326.192L994.992,326.192M1000.75,326.192C999.918,326.164 999.207,325.637 998.574,325.149C997.453,324.207 996.48,323.086 995.664,321.875C995.363,321.375 995.008,320.844 994.992,320.238L994.992,326.192" style="fill:rgb(230,24,10);fill-rule:nonzero;"/>
                </g>
                <g transform="matrix(-1,-1.22465e-16,-1.22465e-16,1,1990.22,0.80205)">
                    <path d="M994.992,326.192L989.234,326.192C989.891,326.164 990.449,325.738 990.977,325.387C992.16,324.496 993.27,323.469 994.145,322.274C994.551,321.668 994.98,320.992 994.992,320.238M989.234,326.192C990.066,326.219 990.777,326.746 991.41,327.235C992.531,328.176 993.504,329.297 994.32,330.508C994.621,331.008 994.977,331.543 994.992,332.145L994.992,326.192M994.992,332.145C995.02,331.258 995.562,330.492 996.07,329.805C996.98,328.672 998.055,327.672 999.242,326.836C999.699,326.547 1000.19,326.207 1000.75,326.192L994.992,326.192M1000.75,326.192C999.918,326.164 999.207,325.637 998.574,325.149C997.453,324.207 996.48,323.086 995.664,321.875C995.363,321.375 995.008,320.844 994.992,320.238L994.992,326.192" style="fill:rgb(230,24,10);fill-rule:nonzero;"/>
                </g>
                <g transform="matrix(1,0,0,-1,0.23105,421.923)">
                    <path d="M912.473,210.559L926.293,210.559C924.719,210.629 923.379,211.648 922.113,212.488C919.273,214.633 916.613,217.09 914.512,219.965C913.531,221.414 912.5,223.039 912.473,224.848M926.293,210.559C924.297,210.496 922.59,209.226 921.066,208.051C918.379,205.793 916.051,203.109 914.086,200.199C913.363,198.996 912.512,197.723 912.473,196.273L912.473,210.559M912.473,196.273C912.406,198.398 911.109,200.242 909.887,201.887C907.707,204.601 905.121,207.008 902.277,209.016C901.176,209.707 900,210.527 898.656,210.559L912.473,210.559M898.656,210.559C900.652,210.621 902.359,211.891 903.879,213.062C906.57,215.324 908.898,218.012 910.863,220.918C911.586,222.121 912.434,223.398 912.473,224.848L912.473,210.559" style="fill:rgb(230,24,10);fill-rule:nonzero;"/>
                </g>
                <g transform="matrix(-1,-1.22465e-16,-1.22465e-16,1,1825.18,0.80205)">
                    <path d="M912.473,210.559L926.293,210.559C924.719,210.629 923.379,211.648 922.113,212.488C919.273,214.633 916.613,217.09 914.512,219.965C913.531,221.414 912.5,223.039 912.473,224.848M926.293,210.559C924.297,210.496 922.59,209.226 921.066,208.051C918.379,205.793 916.051,203.109 914.086,200.199C913.363,198.996 912.512,197.723 912.473,196.273L912.473,210.559M912.473,196.273C912.406,198.398 911.109,200.242 909.887,201.887C907.707,204.601 905.121,207.008 902.277,209.016C901.176,209.707 900,210.527 898.656,210.559L912.473,210.559M898.656,210.559C900.652,210.621 902.359,211.891 903.879,213.062C906.57,215.324 908.898,218.012 910.863,220.918C911.586,222.121 912.434,223.398 912.473,224.848L912.473,210.559" style="fill:rgb(230,24,10);fill-rule:nonzero;"/>
                </g>
                <g transform="matrix(1,0,0,-1,0.23105,503.13)">
                    <path d="M912.473,251.164L926.293,251.164C924.719,251.234 923.379,252.254 922.113,253.094C919.273,255.238 916.613,257.695 914.512,260.57C913.531,262.019 912.5,263.644 912.473,265.449M926.293,251.164C924.297,251.101 922.59,249.832 921.066,248.656C918.379,246.398 916.051,243.715 914.086,240.805C913.363,239.601 912.512,238.324 912.473,236.879L912.473,251.164M912.473,236.879C912.406,239.004 911.109,240.848 909.887,242.492C907.707,245.207 905.121,247.613 902.277,249.621C901.176,250.312 900,251.129 898.656,251.164L912.473,251.164M898.656,251.164C900.652,251.226 902.359,252.496 903.879,253.668C906.57,255.93 908.898,258.613 910.863,261.523C911.586,262.726 912.434,264.004 912.473,265.449L912.473,251.164" style="fill:rgb(230,24,10);fill-rule:nonzero;"/>
                </g>
                <g transform="matrix(-1,-1.22465e-16,-1.22465e-16,1,1825.18,0.80205)">
                    <path d="M912.473,251.164L926.293,251.164C924.719,251.234 923.379,252.254 922.113,253.094C919.273,255.238 916.613,257.695 914.512,260.57C913.531,262.019 912.5,263.644 912.473,265.449M926.293,251.164C924.297,251.101 922.59,249.832 921.066,248.656C918.379,246.398 916.051,243.715 914.086,240.805C913.363,239.601 912.512,238.324 912.473,236.879L912.473,251.164M912.473,236.879C912.406,239.004 911.109,240.848 909.887,242.492C907.707,245.207 905.121,247.613 902.277,249.621C901.176,250.312 900,251.129 898.656,251.164L912.473,251.164M898.656,251.164C900.652,251.226 902.359,252.496 903.879,253.668C906.57,255.93 908.898,258.613 910.863,261.523C911.586,262.726 912.434,264.004 912.473,265.449L912.473,251.164" style="fill:rgb(230,24,10);fill-rule:nonzero;"/>
                </g>
                <g transform="matrix(1,0,0,-1,0.23105,585.837)">
                    <path d="M912.473,292.515L898.656,292.515C900.23,292.445 901.566,291.43 902.832,290.586C905.676,288.441 908.336,285.984 910.438,283.109C911.418,281.664 912.449,280.035 912.473,278.23M898.656,292.515C900.652,292.578 902.359,293.851 903.879,295.023C906.57,297.281 908.898,299.969 910.863,302.875C911.586,304.078 912.434,305.355 912.473,306.805L912.473,292.515M912.473,306.805C912.543,304.676 913.836,302.832 915.062,301.187C917.242,298.473 919.824,296.07 922.668,294.058C923.773,293.371 924.945,292.551 926.293,292.515L912.473,292.515M926.293,292.515C924.297,292.453 922.59,291.183 921.066,290.012C918.379,287.754 916.051,285.066 914.086,282.156C913.363,280.953 912.516,279.68 912.473,278.23L912.473,292.515" style="fill:rgb(230,24,10);fill-rule:nonzero;"/>
                </g>
                <g transform="matrix(-1,-1.22465e-16,-1.22465e-16,1,1825.18,0.80205)">
                    <path d="M912.473,292.515L898.656,292.515C900.23,292.445 901.566,291.43 902.832,290.586C905.676,288.441 908.336,285.984 910.438,283.109C911.418,281.664 912.449,280.035 912.473,278.23M898.656,292.515C900.652,292.578 902.359,293.851 903.879,295.023C906.57,297.281 908.898,299.969 910.863,302.875C911.586,304.078 912.434,305.355 912.473,306.805L912.473,292.515M912.473,306.805C912.543,304.676 913.836,302.832 915.062,301.187C917.242,298.473 919.824,296.07 922.668,294.058C923.773,293.371 924.945,292.551 926.293,292.515L912.473,292.515M926.293,292.515C924.297,292.453 922.59,291.183 921.066,290.012C918.379,287.754 916.051,285.066 914.086,282.156C913.363,280.953 912.516,279.68 912.473,278.23L912.473,292.515" style="fill:rgb(230,24,10);fill-rule:nonzero;"/>
                </g>
                <g transform="matrix(1,0,0,-1,0.23105,667.04)">
                    <path d="M912.473,333.117L898.656,333.117C900.23,333.047 901.566,332.027 902.832,331.187C905.676,329.043 908.336,326.586 910.438,323.711C911.418,322.265 912.449,320.636 912.473,318.832M898.656,333.117C900.652,333.179 902.359,334.453 903.879,335.625C906.57,337.883 908.898,340.57 910.863,343.476C911.586,344.679 912.434,345.957 912.473,347.406L912.473,333.117M912.473,347.406C912.543,345.277 913.836,343.433 915.062,341.789C917.242,339.074 919.824,336.668 922.668,334.66C923.773,333.968 924.945,333.152 926.293,333.117L912.473,333.117M926.293,333.117C924.297,333.054 922.59,331.785 921.066,330.613C918.379,328.351 916.051,325.668 914.086,322.758C913.363,321.554 912.516,320.281 912.473,318.832L912.473,333.117" style="fill:rgb(230,24,10);fill-rule:nonzero;"/>
                </g>
                <g transform="matrix(-1,-1.22465e-16,-1.22465e-16,1,1825.18,0.80205)">
                    <path d="M912.473,333.117L898.656,333.117C900.23,333.047 901.566,332.027 902.832,331.187C905.676,329.043 908.336,326.586 910.438,323.711C911.418,322.265 912.449,320.636 912.473,318.832M898.656,333.117C900.652,333.179 902.359,334.453 903.879,335.625C906.57,337.883 908.898,340.57 910.863,343.476C911.586,344.679 912.434,345.957 912.473,347.406L912.473,333.117M912.473,347.406C912.543,345.277 913.836,343.433 915.062,341.789C917.242,339.074 919.824,336.668 922.668,334.66C923.773,333.968 924.945,333.152 926.293,333.117L912.473,333.117M926.293,333.117C924.297,333.054 922.59,331.785 921.066,330.613C918.379,328.351 916.051,325.668 914.086,322.758C913.363,321.554 912.516,320.281 912.473,318.832L912.473,333.117" style="fill:rgb(230,24,10);fill-rule:nonzero;"/>
                </g>
                <g transform="matrix(1,0,0,-1,0.23105,421.923)">
                    <path d="M972.344,210.559L986.164,210.559C984.59,210.629 983.25,211.648 981.984,212.488C979.145,214.633 976.484,217.09 974.383,219.965C973.402,221.414 972.371,223.039 972.344,224.848M986.164,210.559C984.168,210.496 982.461,209.226 980.938,208.051C978.25,205.793 975.918,203.109 973.953,200.199C973.234,198.996 972.383,197.723 972.344,196.273L972.344,210.559M972.344,196.273C972.277,198.398 970.98,200.242 969.758,201.887C967.578,204.601 964.992,207.008 962.148,209.016C961.043,209.707 959.871,210.527 958.527,210.559L972.344,210.559M958.527,210.559C960.523,210.621 962.23,211.891 963.75,213.062C966.441,215.324 968.77,218.012 970.734,220.918C971.457,222.121 972.305,223.398 972.344,224.848L972.344,210.559" style="fill:rgb(230,24,10);fill-rule:nonzero;"/>
                </g>
                <g transform="matrix(-1,-1.22465e-16,-1.22465e-16,1,1944.92,0.80205)">
                    <path d="M972.344,210.559L986.164,210.559C984.59,210.629 983.25,211.648 981.984,212.488C979.145,214.633 976.484,217.09 974.383,219.965C973.402,221.414 972.371,223.039 972.344,224.848M986.164,210.559C984.168,210.496 982.461,209.226 980.938,208.051C978.25,205.793 975.918,203.109 973.953,200.199C973.234,198.996 972.383,197.723 972.344,196.273L972.344,210.559M972.344,196.273C972.277,198.398 970.98,200.242 969.758,201.887C967.578,204.601 964.992,207.008 962.148,209.016C961.043,209.707 959.871,210.527 958.527,210.559L972.344,210.559M958.527,210.559C960.523,210.621 962.23,211.891 963.75,213.062C966.441,215.324 968.77,218.012 970.734,220.918C971.457,222.121 972.305,223.398 972.344,224.848L972.344,210.559" style="fill:rgb(230,24,10);fill-rule:nonzero;"/>
                </g>
                <g transform="matrix(1,0,0,-1,0.23105,503.13)">
                    <path d="M972.344,251.164L986.164,251.164C984.59,251.234 983.25,252.254 981.984,253.094C979.145,255.238 976.484,257.695 974.383,260.57C973.402,262.019 972.371,263.644 972.344,265.449M986.164,251.164C984.168,251.101 982.461,249.832 980.938,248.656C978.25,246.398 975.918,243.715 973.953,240.805C973.234,239.601 972.383,238.324 972.344,236.879L972.344,251.164M972.344,236.879C972.277,239.004 970.98,240.848 969.758,242.492C967.578,245.207 964.992,247.613 962.148,249.621C961.043,250.312 959.871,251.129 958.527,251.164L972.344,251.164M958.527,251.164C960.523,251.226 962.23,252.496 963.75,253.668C966.441,255.93 968.77,258.613 970.734,261.523C971.457,262.726 972.305,264.004 972.344,265.449L972.344,251.164" style="fill:rgb(230,24,10);fill-rule:nonzero;"/>
                </g>
                <g transform="matrix(-1,-1.22465e-16,-1.22465e-16,1,1944.92,0.80205)">
                    <path d="M972.344,251.164L986.164,251.164C984.59,251.234 983.25,252.254 981.984,253.094C979.145,255.238 976.484,257.695 974.383,260.57C973.402,262.019 972.371,263.644 972.344,265.449M986.164,251.164C984.168,251.101 982.461,249.832 980.938,248.656C978.25,246.398 975.918,243.715 973.953,240.805C973.234,239.601 972.383,238.324 972.344,236.879L972.344,251.164M972.344,236.879C972.277,239.004 970.98,240.848 969.758,242.492C967.578,245.207 964.992,247.613 962.148,249.621C961.043,250.312 959.871,251.129 958.527,251.164L972.344,251.164M958.527,251.164C960.523,251.226 962.23,252.496 963.75,253.668C966.441,255.93 968.77,258.613 970.734,261.523C971.457,262.726 972.305,264.004 972.344,265.449L972.344,251.164" style="fill:rgb(230,24,10);fill-rule:nonzero;"/>
                </g>
                <g transform="matrix(1,0,0,-1,0.23105,585.837)">
                    <path d="M972.344,292.515L958.527,292.515C960.102,292.445 961.438,291.43 962.703,290.586C965.547,288.441 968.207,285.984 970.309,283.109C971.289,281.664 972.32,280.035 972.344,278.23M958.527,292.515C960.523,292.578 962.23,293.851 963.75,295.023C966.441,297.281 968.77,299.969 970.734,302.875C971.457,304.078 972.305,305.355 972.344,306.805L972.344,292.515M972.344,306.805C972.414,304.676 973.707,302.832 974.934,301.187C977.113,298.473 979.695,296.07 982.539,294.058C983.645,293.371 984.816,292.551 986.164,292.515L972.344,292.515M986.164,292.515C984.168,292.453 982.461,291.183 980.938,290.012C978.25,287.754 975.918,285.066 973.953,282.156C973.234,280.953 972.387,279.68 972.344,278.23L972.344,292.515" style="fill:rgb(230,24,10);fill-rule:nonzero;"/>
                </g>
                <g transform="matrix(-1,-1.22465e-16,-1.22465e-16,1,1944.92,0.80205)">
                    <path d="M972.344,292.515L958.527,292.515C960.102,292.445 961.438,291.43 962.703,290.586C965.547,288.441 968.207,285.984 970.309,283.109C971.289,281.664 972.32,280.035 972.344,278.23M958.527,292.515C960.523,292.578 962.23,293.851 963.75,295.023C966.441,297.281 968.77,299.969 970.734,302.875C971.457,304.078 972.305,305.355 972.344,306.805L972.344,292.515M972.344,306.805C972.414,304.676 973.707,302.832 974.934,301.187C977.113,298.473 979.695,296.07 982.539,294.058C983.645,293.371 984.816,292.551 986.164,292.515L972.344,292.515M986.164,292.515C984.168,292.453 982.461,291.183 980.938,290.012C978.25,287.754 975.918,285.066 973.953,282.156C973.234,280.953 972.387,279.68 972.344,278.23L972.344,292.515" style="fill:rgb(230,24,10);fill-rule:nonzero;"/>
                </g>
                <g transform="matrix(1,0,0,-1,0.23105,667.04)">
                    <path d="M972.344,333.117L958.527,333.117C960.102,333.047 961.438,332.027 962.703,331.187C965.547,329.043 968.207,326.586 970.309,323.711C971.289,322.265 972.32,320.636 972.344,318.832M958.527,333.117C960.523,333.179 962.23,334.453 963.75,335.625C966.441,337.883 968.77,340.57 970.734,343.476C971.457,344.679 972.305,345.957 972.344,347.406L972.344,333.117M972.344,347.406C972.414,345.277 973.707,343.433 974.934,341.789C977.113,339.074 979.695,336.668 982.539,334.66C983.645,333.968 984.816,333.152 986.164,333.117L972.344,333.117M986.164,333.117C984.168,333.054 982.461,331.785 980.938,330.613C978.25,328.351 975.918,325.668 973.953,322.758C973.234,321.554 972.387,320.281 972.344,318.832L972.344,333.117" style="fill:rgb(230,24,10);fill-rule:nonzero;"/>
                </g>
                <g transform="matrix(-1,-1.22465e-16,-1.22465e-16,1,1944.92,0.80205)">
                    <path d="M972.344,333.117L958.527,333.117C960.102,333.047 961.438,332.027 962.703,331.187C965.547,329.043 968.207,326.586 970.309,323.711C971.289,322.265 972.32,320.636 972.344,318.832M958.527,333.117C960.523,333.179 962.23,334.453 963.75,335.625C966.441,337.883 968.77,340.57 970.734,343.476C971.457,344.679 972.305,345.957 972.344,347.406L972.344,333.117M972.344,347.406C972.414,345.277 973.707,343.433 974.934,341.789C977.113,339.074 979.695,336.668 982.539,334.66C983.645,333.968 984.816,333.152 986.164,333.117L972.344,333.117M986.164,333.117C984.168,333.054 982.461,331.785 980.938,330.613C978.25,328.351 975.918,325.668 973.953,322.758C973.234,321.554 972.387,320.281 972.344,318.832L972.344,333.117" style="fill:rgb(230,24,10);fill-rule:nonzero;"/>
                </g>
                <g transform="matrix(0.53388,0,0,1,412.035,2.8564)">
                    <g transform="matrix(34.0888,0,0,34.0888,882.587,208.276)">
                        <path d="M0.341,-0.374C0.387,-0.34 0.42,-0.308 0.438,-0.279C0.456,-0.249 0.465,-0.215 0.465,-0.177C0.465,-0.124 0.445,-0.079 0.405,-0.042C0.364,-0.005 0.31,0.014 0.241,0.014C0.175,0.014 0.125,-0.002 0.089,-0.035C0.053,-0.067 0.035,-0.106 0.035,-0.153C0.035,-0.188 0.045,-0.219 0.066,-0.246C0.087,-0.273 0.121,-0.297 0.169,-0.319C0.117,-0.359 0.083,-0.392 0.069,-0.417C0.054,-0.443 0.046,-0.472 0.046,-0.506C0.046,-0.55 0.065,-0.589 0.103,-0.623C0.14,-0.656 0.192,-0.673 0.257,-0.673C0.32,-0.673 0.369,-0.658 0.403,-0.629C0.437,-0.599 0.454,-0.563 0.454,-0.521C0.454,-0.49 0.445,-0.463 0.427,-0.439C0.408,-0.415 0.38,-0.393 0.341,-0.374ZM0.304,-0.399C0.316,-0.415 0.325,-0.433 0.331,-0.454C0.336,-0.474 0.339,-0.496 0.339,-0.52C0.339,-0.562 0.33,-0.595 0.312,-0.617C0.298,-0.634 0.279,-0.643 0.255,-0.643C0.234,-0.643 0.215,-0.635 0.2,-0.619C0.184,-0.604 0.177,-0.584 0.177,-0.561C0.177,-0.537 0.185,-0.512 0.202,-0.487C0.219,-0.461 0.253,-0.432 0.304,-0.399ZM0.206,-0.296C0.196,-0.287 0.189,-0.278 0.185,-0.271C0.178,-0.26 0.172,-0.243 0.167,-0.221C0.162,-0.199 0.159,-0.177 0.159,-0.153C0.159,-0.122 0.163,-0.097 0.171,-0.076C0.179,-0.055 0.19,-0.04 0.204,-0.031C0.219,-0.022 0.234,-0.018 0.249,-0.018C0.273,-0.018 0.293,-0.026 0.309,-0.044C0.325,-0.061 0.333,-0.085 0.333,-0.115C0.333,-0.178 0.291,-0.239 0.206,-0.296Z" style="fill:rgb(230,24,10);fill-rule:nonzero;"/>
                    </g>
                </g>
                <g transform="matrix(-0.53388,0,0,-1,466.334,-1.94116)">
                    <g transform="matrix(34.0888,0,0,34.0888,-1002.23,-338.518)">
                        <path d="M0.341,-0.374C0.387,-0.34 0.42,-0.308 0.438,-0.279C0.456,-0.249 0.465,-0.215 0.465,-0.177C0.465,-0.124 0.445,-0.079 0.405,-0.042C0.364,-0.005 0.31,0.014 0.241,0.014C0.175,0.014 0.125,-0.002 0.089,-0.035C0.053,-0.067 0.035,-0.106 0.035,-0.153C0.035,-0.188 0.045,-0.219 0.066,-0.246C0.087,-0.273 0.121,-0.297 0.169,-0.319C0.117,-0.359 0.083,-0.392 0.069,-0.417C0.054,-0.443 0.046,-0.472 0.046,-0.506C0.046,-0.55 0.065,-0.589 0.103,-0.623C0.14,-0.656 0.192,-0.673 0.257,-0.673C0.32,-0.673 0.369,-0.658 0.403,-0.629C0.437,-0.599 0.454,-0.563 0.454,-0.521C0.454,-0.49 0.445,-0.463 0.427,-0.439C0.408,-0.415 0.38,-0.393 0.341,-0.374ZM0.304,-0.399C0.316,-0.415 0.325,-0.433 0.331,-0.454C0.336,-0.474 0.339,-0.496 0.339,-0.52C0.339,-0.562 0.33,-0.595 0.312,-0.617C0.298,-0.634 0.279,-0.643 0.255,-0.643C0.234,-0.643 0.215,-0.635 0.2,-0.619C0.184,-0.604 0.177,-0.584 0.177,-0.561C0.177,-0.537 0.185,-0.512 0.202,-0.487C0.219,-0.461 0.253,-0.432 0.304,-0.399ZM0.206,-0.296C0.196,-0.287 0.189,-0.278 0.185,-0.271C0.178,-0.26 0.172,-0.243 0.167,-0.221C0.162,-0.199 0.159,-0.177 0.159,-0.153C0.159,-0.122 0.163,-0.097 0.171,-0.076C0.179,-0.055 0.19,-0.04 0.204,-0.031C0.219,-0.022 0.234,-0.018 0.249,-0.018C0.273,-0.018 0.293,-0.026 0.309,-0.044C0.325,-0.061 0.333,-0.085 0.333,-0.115C0.333,-0.178 0.291,-0.239 0.206,-0.296Z" style="fill:rgb(230,24,10);fill-rule:nonzero;"/>
                    </g>
                </g>
            </g>
        </g>
    </g>
</svg>
