<?xml version="1.0" encoding="UTF-8" standalone="no"?>
<!DOCTYPE svg PUBLIC "-//W3C//DTD SVG 1.1//EN" "http://www.w3.org/Graphics/SVG/1.1/DTD/svg11.dtd">
<svg width="100%" height="100%" viewBox="0 0 134 191" version="1.1" xmlns="http://www.w3.org/2000/svg" xmlns:xlink="http://www.w3.org/1999/xlink" xml:space="preserve" xmlns:serif="http://www.serif.com/" style="fill-rule:evenodd;clip-rule:evenodd;">
    <g transform="matrix(1,0,0,1,-269,-1197)">
        <g id="karodrei" transform="matrix(1.0231,0,0,0.854373,269.306,373.015)">
            <rect x="0" y="965.48" width="129.704" height="221.683" style="fill:none;"/>
            <g transform="matrix(0.977423,0,0,1.17045,-242.149,754.949)">
                <g transform="matrix(1,0,0,-1,0.23105,548.341)">
                    <path d="M251.418,188.148C251.418,185.316 253.734,183 256.57,183L371.16,183C373.988,183 376.305,185.316 376.305,188.148L376.305,359.387C376.305,362.219 373.988,364.539 371.16,364.539L256.57,364.539C253.734,364.539 251.418,362.219 251.418,359.387L251.418,188.148Z" style="fill:white;fill-rule:nonzero;stroke:black;stroke-width:1px;"/>
                </g>
                <g transform="matrix(1,0,0,-1,0.23105,442.005)">
                    <path d="M261.652,220.601L267.41,220.601C266.754,220.629 266.195,221.055 265.668,221.406C264.484,222.297 263.379,223.32 262.5,224.519C262.094,225.121 261.664,225.801 261.652,226.555M267.41,220.601C266.578,220.574 265.867,220.043 265.234,219.555C264.113,218.617 263.141,217.496 262.324,216.285C262.023,215.781 261.668,215.25 261.652,214.648L261.652,220.601M261.652,214.648C261.625,215.535 261.086,216.301 260.574,216.988C259.664,218.117 258.59,219.121 257.406,219.957C256.945,220.246 256.457,220.586 255.895,220.601L261.652,220.601M255.895,220.601C256.727,220.625 257.438,221.156 258.07,221.644C259.191,222.586 260.164,223.707 260.98,224.918C261.281,225.418 261.637,225.949 261.652,226.555L261.652,220.601" style="fill:rgb(230,24,10);fill-rule:nonzero;"/>
                </g>
                <g transform="matrix(-1,-1.22465e-16,-1.22465e-16,1,523.536,0.80205)">
                    <path d="M261.652,220.601L267.41,220.601C266.754,220.629 266.195,221.055 265.668,221.406C264.484,222.297 263.379,223.32 262.5,224.519C262.094,225.121 261.664,225.801 261.652,226.555M267.41,220.601C266.578,220.574 265.867,220.043 265.234,219.555C264.113,218.617 263.141,217.496 262.324,216.285C262.023,215.781 261.668,215.25 261.652,214.648L261.652,220.601M261.652,214.648C261.625,215.535 261.086,216.301 260.574,216.988C259.664,218.117 258.59,219.121 257.406,219.957C256.945,220.246 256.457,220.586 255.895,220.601L261.652,220.601M255.895,220.601C256.727,220.625 257.438,221.156 258.07,221.644C259.191,222.586 260.164,223.707 260.98,224.918C261.281,225.418 261.637,225.949 261.652,226.555L261.652,220.601" style="fill:rgb(230,24,10);fill-rule:nonzero;"/>
                </g>
                <g transform="matrix(1,0,0,-1,0.23105,653.185)">
                    <path d="M366.82,326.192L361.062,326.192C361.719,326.164 362.277,325.738 362.805,325.387C363.988,324.496 365.094,323.469 365.973,322.274C366.379,321.668 366.809,320.992 366.82,320.238M361.062,326.192C361.895,326.219 362.605,326.746 363.238,327.235C364.359,328.176 365.332,329.297 366.148,330.508C366.449,331.008 366.805,331.543 366.82,332.145L366.82,326.192M366.82,332.145C366.848,331.258 367.387,330.492 367.898,329.805C368.805,328.672 369.883,327.672 371.066,326.836C371.527,326.547 372.016,326.207 372.578,326.192L366.82,326.192M372.578,326.192C371.746,326.164 371.035,325.637 370.402,325.149C369.281,324.207 368.309,323.086 367.492,321.875C367.191,321.375 366.836,320.844 366.82,320.238L366.82,326.192" style="fill:rgb(230,24,10);fill-rule:nonzero;"/>
                </g>
                <g transform="matrix(-1,-1.22465e-16,-1.22465e-16,1,733.871,0.80205)">
                    <path d="M366.82,326.192L361.062,326.192C361.719,326.164 362.277,325.738 362.805,325.387C363.988,324.496 365.094,323.469 365.973,322.274C366.379,321.668 366.809,320.992 366.82,320.238M361.062,326.192C361.895,326.219 362.605,326.746 363.238,327.235C364.359,328.176 365.332,329.297 366.148,330.508C366.449,331.008 366.805,331.543 366.82,332.145L366.82,326.192M366.82,332.145C366.848,331.258 367.387,330.492 367.898,329.805C368.805,328.672 369.883,327.672 371.066,326.836C371.527,326.547 372.016,326.207 372.578,326.192L366.82,326.192M372.578,326.192C371.746,326.164 371.035,325.637 370.402,325.149C369.281,324.207 368.309,323.086 367.492,321.875C367.191,321.375 366.836,320.844 366.82,320.238L366.82,326.192" style="fill:rgb(230,24,10);fill-rule:nonzero;"/>
                </g>
                <g transform="matrix(1,0,0,-1,0.23105,667.04)">
                    <path d="M314.234,333.117L300.418,333.117C301.992,333.047 303.328,332.027 304.594,331.187C307.438,329.043 310.098,326.586 312.199,323.711C313.18,322.265 314.211,320.636 314.234,318.832M300.418,333.117C302.414,333.179 304.121,334.453 305.641,335.625C308.332,337.883 310.66,340.57 312.625,343.476C313.348,344.679 314.195,345.957 314.234,347.406L314.234,333.117M314.234,347.406C314.305,345.277 315.602,343.433 316.824,341.789C319.004,339.074 321.586,336.668 324.43,334.66C325.535,333.968 326.707,333.152 328.055,333.117L314.234,333.117M328.055,333.117C326.059,333.054 324.352,331.785 322.828,330.613C320.141,328.351 317.812,325.668 315.848,322.758C315.125,321.554 314.277,320.281 314.234,318.832L314.234,333.117" style="fill:rgb(230,24,10);fill-rule:nonzero;"/>
                </g>
                <g transform="matrix(-1,-1.22465e-16,-1.22465e-16,1,628.704,0.80205)">
                    <path d="M314.234,333.117L300.418,333.117C301.992,333.047 303.328,332.027 304.594,331.187C307.438,329.043 310.098,326.586 312.199,323.711C313.18,322.265 314.211,320.636 314.234,318.832M300.418,333.117C302.414,333.179 304.121,334.453 305.641,335.625C308.332,337.883 310.66,340.57 312.625,343.476C313.348,344.679 314.195,345.957 314.234,347.406L314.234,333.117M314.234,347.406C314.305,345.277 315.602,343.433 316.824,341.789C319.004,339.074 321.586,336.668 324.43,334.66C325.535,333.968 326.707,333.152 328.055,333.117L314.234,333.117M328.055,333.117C326.059,333.054 324.352,331.785 322.828,330.613C320.141,328.351 317.812,325.668 315.848,322.758C315.125,321.554 314.277,320.281 314.234,318.832L314.234,333.117" style="fill:rgb(230,24,10);fill-rule:nonzero;"/>
                </g>
                <g transform="matrix(1,0,0,-1,0.23105,537.294)">
                    <path d="M314.234,268.246L328.055,268.246C326.48,268.316 325.141,269.336 323.875,270.176C321.035,272.32 318.375,274.777 316.273,277.652C315.293,279.097 314.262,280.726 314.234,282.531M328.055,268.246C326.059,268.183 324.352,266.91 322.828,265.738C320.141,263.48 317.812,260.793 315.848,257.887C315.125,256.683 314.273,255.406 314.234,253.961L314.234,268.246M314.234,253.961C314.168,256.086 312.871,257.93 311.648,259.574C309.469,262.289 306.883,264.695 304.039,266.703C302.938,267.394 301.762,268.211 300.418,268.246L314.234,268.246M300.418,268.246C302.414,268.308 304.121,269.578 305.641,270.75C308.332,273.012 310.66,275.695 312.625,278.605C313.348,279.808 314.195,281.086 314.234,282.531L314.234,268.246" style="fill:rgb(230,24,10);fill-rule:nonzero;"/>
                </g>
                <g transform="matrix(-1,-1.22465e-16,-1.22465e-16,1,628.704,0.80205)">
                    <path d="M314.234,268.246L328.055,268.246C326.48,268.316 325.141,269.336 323.875,270.176C321.035,272.32 318.375,274.777 316.273,277.652C315.293,279.097 314.262,280.726 314.234,282.531M328.055,268.246C326.059,268.183 324.352,266.91 322.828,265.738C320.141,263.48 317.812,260.793 315.848,257.887C315.125,256.683 314.273,255.406 314.234,253.961L314.234,268.246M314.234,253.961C314.168,256.086 312.871,257.93 311.648,259.574C309.469,262.289 306.883,264.695 304.039,266.703C302.938,267.394 301.762,268.211 300.418,268.246L314.234,268.246M300.418,268.246C302.414,268.308 304.121,269.578 305.641,270.75C308.332,273.012 310.66,275.695 312.625,278.605C313.348,279.808 314.195,281.086 314.234,282.531L314.234,268.246" style="fill:rgb(230,24,10);fill-rule:nonzero;"/>
                </g>
                <g transform="matrix(1,0,0,-1,0.23105,421.923)">
                    <path d="M314.234,210.559L328.055,210.559C326.48,210.629 325.141,211.648 323.875,212.488C321.035,214.633 318.375,217.09 316.273,219.965C315.293,221.414 314.262,223.039 314.234,224.848M328.055,210.559C326.059,210.496 324.352,209.226 322.828,208.051C320.141,205.793 317.812,203.109 315.848,200.199C315.125,198.996 314.273,197.723 314.234,196.273L314.234,210.559M314.234,196.273C314.168,198.398 312.871,200.242 311.648,201.887C309.469,204.601 306.883,207.008 304.039,209.016C302.938,209.707 301.762,210.527 300.418,210.559L314.234,210.559M300.418,210.559C302.414,210.621 304.121,211.891 305.641,213.062C308.332,215.324 310.66,218.012 312.625,220.918C313.348,222.121 314.195,223.398 314.234,224.848L314.234,210.559" style="fill:rgb(230,24,10);fill-rule:nonzero;"/>
                </g>
                <g transform="matrix(-1,-1.22465e-16,-1.22465e-16,1,628.704,0.80205)">
                    <path d="M314.234,210.559L328.055,210.559C326.48,210.629 325.141,211.648 323.875,212.488C321.035,214.633 318.375,217.09 316.273,219.965C315.293,221.414 314.262,223.039 314.234,224.848M328.055,210.559C326.059,210.496 324.352,209.226 322.828,208.051C320.141,205.793 317.812,203.109 315.848,200.199C315.125,198.996 314.273,197.723 314.234,196.273L314.234,210.559M314.234,196.273C314.168,198.398 312.871,200.242 311.648,201.887C309.469,204.601 306.883,207.008 304.039,209.016C302.938,209.707 301.762,210.527 300.418,210.559L314.234,210.559M300.418,210.559C302.414,210.621 304.121,211.891 305.641,213.062C308.332,215.324 310.66,218.012 312.625,220.918C313.348,222.121 314.195,223.398 314.234,224.848L314.234,210.559" style="fill:rgb(230,24,10);fill-rule:nonzero;"/>
                </g>
                <g transform="matrix(0.53388,0,0,1,119.232,2.8564)">
                    <g transform="matrix(34.0888,0,0,34.0888,254.418,208.276)">
                        <path d="M0.148,-0.332L0.148,-0.349C0.185,-0.36 0.211,-0.37 0.225,-0.379C0.239,-0.388 0.252,-0.403 0.262,-0.422C0.273,-0.441 0.278,-0.46 0.278,-0.479C0.278,-0.507 0.268,-0.53 0.248,-0.549C0.229,-0.568 0.204,-0.578 0.175,-0.578C0.129,-0.578 0.09,-0.554 0.059,-0.506L0.041,-0.512C0.064,-0.567 0.094,-0.607 0.131,-0.635C0.167,-0.662 0.208,-0.676 0.253,-0.676C0.299,-0.676 0.337,-0.662 0.366,-0.634C0.396,-0.606 0.411,-0.573 0.411,-0.536C0.411,-0.511 0.404,-0.488 0.39,-0.465C0.377,-0.442 0.355,-0.423 0.325,-0.405C0.363,-0.387 0.392,-0.364 0.412,-0.337C0.432,-0.309 0.442,-0.275 0.442,-0.234C0.442,-0.165 0.417,-0.107 0.367,-0.058C0.317,-0.01 0.25,0.014 0.167,0.014C0.111,0.014 0.07,0.005 0.044,-0.014C0.025,-0.027 0.016,-0.043 0.016,-0.064C0.016,-0.079 0.021,-0.092 0.032,-0.102C0.043,-0.113 0.055,-0.118 0.069,-0.118C0.08,-0.118 0.09,-0.116 0.1,-0.111C0.105,-0.109 0.123,-0.094 0.155,-0.069C0.187,-0.043 0.216,-0.03 0.244,-0.03C0.268,-0.03 0.289,-0.039 0.306,-0.058C0.323,-0.077 0.332,-0.102 0.332,-0.131C0.332,-0.175 0.316,-0.217 0.285,-0.254C0.254,-0.292 0.208,-0.318 0.148,-0.332Z" style="fill:rgb(230,24,10);fill-rule:nonzero;"/>
                    </g>
                </g>
                <g transform="matrix(-0.53388,0,0,-1,173.53,-1.94116)">
                    <g transform="matrix(34.0888,0,0,34.0888,-374.055,-338.518)">
                        <path d="M0.148,-0.332L0.148,-0.349C0.185,-0.36 0.211,-0.37 0.225,-0.379C0.239,-0.388 0.252,-0.403 0.262,-0.422C0.273,-0.441 0.278,-0.46 0.278,-0.479C0.278,-0.507 0.268,-0.53 0.248,-0.549C0.229,-0.568 0.204,-0.578 0.175,-0.578C0.129,-0.578 0.09,-0.554 0.059,-0.506L0.041,-0.512C0.064,-0.567 0.094,-0.607 0.131,-0.635C0.167,-0.662 0.208,-0.676 0.253,-0.676C0.299,-0.676 0.337,-0.662 0.366,-0.634C0.396,-0.606 0.411,-0.573 0.411,-0.536C0.411,-0.511 0.404,-0.488 0.39,-0.465C0.377,-0.442 0.355,-0.423 0.325,-0.405C0.363,-0.387 0.392,-0.364 0.412,-0.337C0.432,-0.309 0.442,-0.275 0.442,-0.234C0.442,-0.165 0.417,-0.107 0.367,-0.058C0.317,-0.01 0.25,0.014 0.167,0.014C0.111,0.014 0.07,0.005 0.044,-0.014C0.025,-0.027 0.016,-0.043 0.016,-0.064C0.016,-0.079 0.021,-0.092 0.032,-0.102C0.043,-0.113 0.055,-0.118 0.069,-0.118C0.08,-0.118 0.09,-0.116 0.1,-0.111C0.105,-0.109 0.123,-0.094 0.155,-0.069C0.187,-0.043 0.216,-0.03 0.244,-0.03C0.268,-0.03 0.289,-0.039 0.306,-0.058C0.323,-0.077 0.332,-0.102 0.332,-0.131C0.332,-0.175 0.316,-0.217 0.285,-0.254C0.254,-0.292 0.208,-0.318 0.148,-0.332Z" style="fill:rgb(230,24,10);fill-rule:nonzero;"/>
                    </g>
                </g>
            </g>
        </g>
    </g>
</svg>
