<?xml version="1.0" encoding="UTF-8" standalone="no"?>
<!DOCTYPE svg PUBLIC "-//W3C//DTD SVG 1.1//EN" "http://www.w3.org/Graphics/SVG/1.1/DTD/svg11.dtd">
<svg width="100%" height="100%" viewBox="0 0 133 191" version="1.1" xmlns="http://www.w3.org/2000/svg" xmlns:xlink="http://www.w3.org/1999/xlink" xml:space="preserve" xmlns:serif="http://www.serif.com/" style="fill-rule:evenodd;clip-rule:evenodd;">
    <g transform="matrix(1,0,0,1,-1198,-1197)">
        <g id="karozehn" transform="matrix(1.0231,0,0,0.854373,1198.21,373.015)">
            <rect x="0" y="965.48" width="129.704" height="221.683" style="fill:none;"/>
            <g transform="matrix(0.977423,0,0,1.17045,-1101.73,754.949)">
                <g transform="matrix(1,0,0,-1,0.23105,548.341)">
                    <path d="M1130.86,188.148C1130.86,185.316 1133.17,183 1136.01,183L1250.6,183C1253.43,183 1255.74,185.316 1255.74,188.148L1255.74,359.387C1255.74,362.219 1253.43,364.539 1250.6,364.539L1136.01,364.539C1133.17,364.539 1130.86,362.219 1130.86,359.387L1130.86,188.148Z" style="fill:white;fill-rule:nonzero;stroke:black;stroke-width:1px;"/>
                </g>
                <g transform="matrix(1,0,0,-1,0.23105,442.005)">
                    <path d="M1141.1,220.601L1146.86,220.601C1146.2,220.629 1145.64,221.055 1145.11,221.406C1143.93,222.297 1142.82,223.32 1141.94,224.519C1141.54,225.121 1141.11,225.801 1141.1,226.555M1146.86,220.601C1146.02,220.574 1145.31,220.043 1144.68,219.555C1143.56,218.617 1142.59,217.496 1141.77,216.285C1141.47,215.781 1141.11,215.25 1141.1,214.648L1141.1,220.601M1141.1,214.648C1141.07,215.535 1140.53,216.301 1140.02,216.988C1139.11,218.117 1138.04,219.121 1136.85,219.957C1136.39,220.246 1135.9,220.586 1135.34,220.601L1141.1,220.601M1135.34,220.601C1136.17,220.625 1136.88,221.156 1137.52,221.644C1138.64,222.586 1139.61,223.707 1140.43,224.918C1140.73,225.418 1141.08,225.949 1141.1,226.555L1141.1,220.601" style="fill:rgb(230,24,10);fill-rule:nonzero;"/>
                </g>
                <g transform="matrix(-1,-1.22465e-16,-1.22465e-16,1,2282.43,0.80205)">
                    <path d="M1141.1,220.601L1146.86,220.601C1146.2,220.629 1145.64,221.055 1145.11,221.406C1143.93,222.297 1142.82,223.32 1141.94,224.519C1141.54,225.121 1141.11,225.801 1141.1,226.555M1146.86,220.601C1146.02,220.574 1145.31,220.043 1144.68,219.555C1143.56,218.617 1142.59,217.496 1141.77,216.285C1141.47,215.781 1141.11,215.25 1141.1,214.648L1141.1,220.601M1141.1,214.648C1141.07,215.535 1140.53,216.301 1140.02,216.988C1139.11,218.117 1138.04,219.121 1136.85,219.957C1136.39,220.246 1135.9,220.586 1135.34,220.601L1141.1,220.601M1135.34,220.601C1136.17,220.625 1136.88,221.156 1137.52,221.644C1138.64,222.586 1139.61,223.707 1140.43,224.918C1140.73,225.418 1141.08,225.949 1141.1,226.555L1141.1,220.601" style="fill:rgb(230,24,10);fill-rule:nonzero;"/>
                </g>
                <g transform="matrix(1,0,0,-1,0.23105,653.185)">
                    <path d="M1246.26,326.192L1240.5,326.192C1241.16,326.164 1241.72,325.738 1242.25,325.387C1243.43,324.496 1244.54,323.469 1245.41,322.274C1245.82,321.668 1246.25,320.992 1246.26,320.238M1240.5,326.192C1241.34,326.219 1242.05,326.746 1242.68,327.235C1243.8,328.176 1244.77,329.297 1245.59,330.508C1245.89,331.008 1246.25,331.543 1246.26,332.145L1246.26,326.192M1246.26,332.145C1246.29,331.258 1246.83,330.492 1247.34,329.805C1248.25,328.672 1249.32,327.672 1250.51,326.836C1250.97,326.547 1251.46,326.207 1252.02,326.192L1246.26,326.192M1252.02,326.192C1251.19,326.164 1250.48,325.637 1249.84,325.149C1248.72,324.207 1247.75,323.086 1246.93,321.875C1246.63,321.375 1246.28,320.844 1246.26,320.238L1246.26,326.192" style="fill:rgb(230,24,10);fill-rule:nonzero;"/>
                </g>
                <g transform="matrix(-1,-1.22465e-16,-1.22465e-16,1,2492.76,0.80205)">
                    <path d="M1246.26,326.192L1240.5,326.192C1241.16,326.164 1241.72,325.738 1242.25,325.387C1243.43,324.496 1244.54,323.469 1245.41,322.274C1245.82,321.668 1246.25,320.992 1246.26,320.238M1240.5,326.192C1241.34,326.219 1242.05,326.746 1242.68,327.235C1243.8,328.176 1244.77,329.297 1245.59,330.508C1245.89,331.008 1246.25,331.543 1246.26,332.145L1246.26,326.192M1246.26,332.145C1246.29,331.258 1246.83,330.492 1247.34,329.805C1248.25,328.672 1249.32,327.672 1250.51,326.836C1250.97,326.547 1251.46,326.207 1252.02,326.192L1246.26,326.192M1252.02,326.192C1251.19,326.164 1250.48,325.637 1249.84,325.149C1248.72,324.207 1247.75,323.086 1246.93,321.875C1246.63,321.375 1246.28,320.844 1246.26,320.238L1246.26,326.192" style="fill:rgb(230,24,10);fill-rule:nonzero;"/>
                </g>
                <g transform="matrix(1,0,0,-1,0.23105,421.923)">
                    <path d="M1163.74,210.559L1177.56,210.559C1175.99,210.629 1174.65,211.648 1173.38,212.488C1170.54,214.633 1167.88,217.09 1165.78,219.965C1164.8,221.414 1163.77,223.039 1163.74,224.848M1177.56,210.559C1175.57,210.496 1173.86,209.226 1172.34,208.051C1169.65,205.793 1167.32,203.109 1165.35,200.199C1164.63,198.996 1163.78,197.723 1163.74,196.273L1163.74,210.559M1163.74,196.273C1163.68,198.398 1162.38,200.242 1161.16,201.887C1158.98,204.601 1156.39,207.008 1153.55,209.016C1152.44,209.707 1151.27,210.527 1149.93,210.559L1163.74,210.559M1149.93,210.559C1151.92,210.621 1153.63,211.891 1155.15,213.062C1157.84,215.324 1160.17,218.012 1162.13,220.918C1162.86,222.121 1163.7,223.398 1163.74,224.848L1163.74,210.559" style="fill:rgb(230,24,10);fill-rule:nonzero;"/>
                </g>
                <g transform="matrix(-1,-1.22465e-16,-1.22465e-16,1,2327.72,0.80205)">
                    <path d="M1163.74,210.559L1177.56,210.559C1175.99,210.629 1174.65,211.648 1173.38,212.488C1170.54,214.633 1167.88,217.09 1165.78,219.965C1164.8,221.414 1163.77,223.039 1163.74,224.848M1177.56,210.559C1175.57,210.496 1173.86,209.226 1172.34,208.051C1169.65,205.793 1167.32,203.109 1165.35,200.199C1164.63,198.996 1163.78,197.723 1163.74,196.273L1163.74,210.559M1163.74,196.273C1163.68,198.398 1162.38,200.242 1161.16,201.887C1158.98,204.601 1156.39,207.008 1153.55,209.016C1152.44,209.707 1151.27,210.527 1149.93,210.559L1163.74,210.559M1149.93,210.559C1151.92,210.621 1153.63,211.891 1155.15,213.062C1157.84,215.324 1160.17,218.012 1162.13,220.918C1162.86,222.121 1163.7,223.398 1163.74,224.848L1163.74,210.559" style="fill:rgb(230,24,10);fill-rule:nonzero;"/>
                </g>
                <g transform="matrix(1,0,0,-1,0.23105,503.13)">
                    <path d="M1163.74,251.164L1177.56,251.164C1175.99,251.234 1174.65,252.254 1173.38,253.094C1170.54,255.238 1167.88,257.695 1165.78,260.57C1164.8,262.019 1163.77,263.644 1163.74,265.449M1177.56,251.164C1175.57,251.101 1173.86,249.832 1172.34,248.656C1169.65,246.398 1167.32,243.715 1165.35,240.805C1164.63,239.601 1163.78,238.324 1163.74,236.879L1163.74,251.164M1163.74,236.879C1163.68,239.004 1162.38,240.848 1161.16,242.492C1158.98,245.207 1156.39,247.613 1153.55,249.621C1152.44,250.312 1151.27,251.129 1149.93,251.164L1163.74,251.164M1149.93,251.164C1151.92,251.226 1153.63,252.496 1155.15,253.668C1157.84,255.93 1160.17,258.613 1162.13,261.523C1162.86,262.726 1163.7,264.004 1163.74,265.449L1163.74,251.164" style="fill:rgb(230,24,10);fill-rule:nonzero;"/>
                </g>
                <g transform="matrix(-1,-1.22465e-16,-1.22465e-16,1,2327.72,0.80205)">
                    <path d="M1163.74,251.164L1177.56,251.164C1175.99,251.234 1174.65,252.254 1173.38,253.094C1170.54,255.238 1167.88,257.695 1165.78,260.57C1164.8,262.019 1163.77,263.644 1163.74,265.449M1177.56,251.164C1175.57,251.101 1173.86,249.832 1172.34,248.656C1169.65,246.398 1167.32,243.715 1165.35,240.805C1164.63,239.601 1163.78,238.324 1163.74,236.879L1163.74,251.164M1163.74,236.879C1163.68,239.004 1162.38,240.848 1161.16,242.492C1158.98,245.207 1156.39,247.613 1153.55,249.621C1152.44,250.312 1151.27,251.129 1149.93,251.164L1163.74,251.164M1149.93,251.164C1151.92,251.226 1153.63,252.496 1155.15,253.668C1157.84,255.93 1160.17,258.613 1162.13,261.523C1162.86,262.726 1163.7,264.004 1163.74,265.449L1163.74,251.164" style="fill:rgb(230,24,10);fill-rule:nonzero;"/>
                </g>
                <g transform="matrix(1,0,0,-1,0.23105,585.837)">
                    <path d="M1163.74,292.515L1149.93,292.515C1151.5,292.445 1152.84,291.43 1154.1,290.586C1156.94,288.441 1159.61,285.984 1161.71,283.109C1162.69,281.664 1163.72,280.035 1163.74,278.23M1149.93,292.515C1151.92,292.578 1153.63,293.851 1155.15,295.023C1157.84,297.281 1160.17,299.969 1162.13,302.875C1162.86,304.078 1163.7,305.355 1163.74,306.805L1163.74,292.515M1163.74,306.805C1163.81,304.676 1165.11,302.832 1166.33,301.187C1168.51,298.473 1171.09,296.07 1173.94,294.058C1175.04,293.371 1176.21,292.551 1177.56,292.515L1163.74,292.515M1177.56,292.515C1175.57,292.453 1173.86,291.183 1172.34,290.012C1169.65,287.754 1167.32,285.066 1165.35,282.156C1164.63,280.953 1163.79,279.68 1163.74,278.23L1163.74,292.515" style="fill:rgb(230,24,10);fill-rule:nonzero;"/>
                </g>
                <g transform="matrix(-1,-1.22465e-16,-1.22465e-16,1,2327.72,0.80205)">
                    <path d="M1163.74,292.515L1149.93,292.515C1151.5,292.445 1152.84,291.43 1154.1,290.586C1156.94,288.441 1159.61,285.984 1161.71,283.109C1162.69,281.664 1163.72,280.035 1163.74,278.23M1149.93,292.515C1151.92,292.578 1153.63,293.851 1155.15,295.023C1157.84,297.281 1160.17,299.969 1162.13,302.875C1162.86,304.078 1163.7,305.355 1163.74,306.805L1163.74,292.515M1163.74,306.805C1163.81,304.676 1165.11,302.832 1166.33,301.187C1168.51,298.473 1171.09,296.07 1173.94,294.058C1175.04,293.371 1176.21,292.551 1177.56,292.515L1163.74,292.515M1177.56,292.515C1175.57,292.453 1173.86,291.183 1172.34,290.012C1169.65,287.754 1167.32,285.066 1165.35,282.156C1164.63,280.953 1163.79,279.68 1163.74,278.23L1163.74,292.515" style="fill:rgb(230,24,10);fill-rule:nonzero;"/>
                </g>
                <g transform="matrix(1,0,0,-1,0.23105,667.04)">
                    <path d="M1163.74,333.117L1149.93,333.117C1151.5,333.047 1152.84,332.027 1154.1,331.187C1156.94,329.043 1159.61,326.586 1161.71,323.711C1162.69,322.265 1163.72,320.636 1163.74,318.832M1149.93,333.117C1151.92,333.179 1153.63,334.453 1155.15,335.625C1157.84,337.883 1160.17,340.57 1162.13,343.476C1162.86,344.679 1163.7,345.957 1163.74,347.406L1163.74,333.117M1163.74,347.406C1163.81,345.277 1165.11,343.433 1166.33,341.789C1168.51,339.074 1171.09,336.668 1173.94,334.66C1175.04,333.968 1176.21,333.152 1177.56,333.117L1163.74,333.117M1177.56,333.117C1175.57,333.054 1173.86,331.785 1172.34,330.613C1169.65,328.351 1167.32,325.668 1165.35,322.758C1164.63,321.554 1163.79,320.281 1163.74,318.832L1163.74,333.117" style="fill:rgb(230,24,10);fill-rule:nonzero;"/>
                </g>
                <g transform="matrix(-1,-1.22465e-16,-1.22465e-16,1,2327.72,0.80205)">
                    <path d="M1163.74,333.117L1149.93,333.117C1151.5,333.047 1152.84,332.027 1154.1,331.187C1156.94,329.043 1159.61,326.586 1161.71,323.711C1162.69,322.265 1163.72,320.636 1163.74,318.832M1149.93,333.117C1151.92,333.179 1153.63,334.453 1155.15,335.625C1157.84,337.883 1160.17,340.57 1162.13,343.476C1162.86,344.679 1163.7,345.957 1163.74,347.406L1163.74,333.117M1163.74,347.406C1163.81,345.277 1165.11,343.433 1166.33,341.789C1168.51,339.074 1171.09,336.668 1173.94,334.66C1175.04,333.968 1176.21,333.152 1177.56,333.117L1163.74,333.117M1177.56,333.117C1175.57,333.054 1173.86,331.785 1172.34,330.613C1169.65,328.351 1167.32,325.668 1165.35,322.758C1164.63,321.554 1163.79,320.281 1163.74,318.832L1163.74,333.117" style="fill:rgb(230,24,10);fill-rule:nonzero;"/>
                </g>
                <g transform="matrix(1,0,0,-1,0.23105,421.923)">
                    <path d="M1223.61,210.559L1237.43,210.559C1235.86,210.629 1234.52,211.648 1233.25,212.488C1230.41,214.633 1227.75,217.09 1225.65,219.965C1224.67,221.414 1223.64,223.039 1223.61,224.848M1237.43,210.559C1235.43,210.496 1233.73,209.226 1232.21,208.051C1229.52,205.793 1227.19,203.109 1225.22,200.199C1224.5,198.996 1223.65,197.723 1223.61,196.273L1223.61,210.559M1223.61,196.273C1223.55,198.398 1222.25,200.242 1221.03,201.887C1218.84,204.601 1216.26,207.008 1213.42,209.016C1212.31,209.707 1211.14,210.527 1209.8,210.559L1223.61,210.559M1209.8,210.559C1211.79,210.621 1213.5,211.891 1215.02,213.062C1217.71,215.324 1220.04,218.012 1222,220.918C1222.73,222.121 1223.57,223.398 1223.61,224.848L1223.61,210.559" style="fill:rgb(230,24,10);fill-rule:nonzero;"/>
                </g>
                <g transform="matrix(-1,-1.22465e-16,-1.22465e-16,1,2447.46,0.80205)">
                    <path d="M1223.61,210.559L1237.43,210.559C1235.86,210.629 1234.52,211.648 1233.25,212.488C1230.41,214.633 1227.75,217.09 1225.65,219.965C1224.67,221.414 1223.64,223.039 1223.61,224.848M1237.43,210.559C1235.43,210.496 1233.73,209.226 1232.21,208.051C1229.52,205.793 1227.19,203.109 1225.22,200.199C1224.5,198.996 1223.65,197.723 1223.61,196.273L1223.61,210.559M1223.61,196.273C1223.55,198.398 1222.25,200.242 1221.03,201.887C1218.84,204.601 1216.26,207.008 1213.42,209.016C1212.31,209.707 1211.14,210.527 1209.8,210.559L1223.61,210.559M1209.8,210.559C1211.79,210.621 1213.5,211.891 1215.02,213.062C1217.71,215.324 1220.04,218.012 1222,220.918C1222.73,222.121 1223.57,223.398 1223.61,224.848L1223.61,210.559" style="fill:rgb(230,24,10);fill-rule:nonzero;"/>
                </g>
                <g transform="matrix(1,0,0,-1,0.23105,503.13)">
                    <path d="M1223.61,251.164L1237.43,251.164C1235.86,251.234 1234.52,252.254 1233.25,253.094C1230.41,255.238 1227.75,257.695 1225.65,260.57C1224.67,262.019 1223.64,263.644 1223.61,265.449M1237.43,251.164C1235.43,251.101 1233.73,249.832 1232.21,248.656C1229.52,246.398 1227.19,243.715 1225.22,240.805C1224.5,239.601 1223.65,238.324 1223.61,236.879L1223.61,251.164M1223.61,236.879C1223.55,239.004 1222.25,240.848 1221.03,242.492C1218.84,245.207 1216.26,247.613 1213.42,249.621C1212.31,250.312 1211.14,251.129 1209.8,251.164L1223.61,251.164M1209.8,251.164C1211.79,251.226 1213.5,252.496 1215.02,253.668C1217.71,255.93 1220.04,258.613 1222,261.523C1222.73,262.726 1223.57,264.004 1223.61,265.449L1223.61,251.164" style="fill:rgb(230,24,10);fill-rule:nonzero;"/>
                </g>
                <g transform="matrix(-1,-1.22465e-16,-1.22465e-16,1,2447.46,0.80205)">
                    <path d="M1223.61,251.164L1237.43,251.164C1235.86,251.234 1234.52,252.254 1233.25,253.094C1230.41,255.238 1227.75,257.695 1225.65,260.57C1224.67,262.019 1223.64,263.644 1223.61,265.449M1237.43,251.164C1235.43,251.101 1233.73,249.832 1232.21,248.656C1229.52,246.398 1227.19,243.715 1225.22,240.805C1224.5,239.601 1223.65,238.324 1223.61,236.879L1223.61,251.164M1223.61,236.879C1223.55,239.004 1222.25,240.848 1221.03,242.492C1218.84,245.207 1216.26,247.613 1213.42,249.621C1212.31,250.312 1211.14,251.129 1209.8,251.164L1223.61,251.164M1209.8,251.164C1211.79,251.226 1213.5,252.496 1215.02,253.668C1217.71,255.93 1220.04,258.613 1222,261.523C1222.73,262.726 1223.57,264.004 1223.61,265.449L1223.61,251.164" style="fill:rgb(230,24,10);fill-rule:nonzero;"/>
                </g>
                <g transform="matrix(1,0,0,-1,0.23105,585.837)">
                    <path d="M1223.61,292.515L1209.8,292.515C1211.37,292.445 1212.71,291.43 1213.97,290.586C1216.81,288.441 1219.48,285.984 1221.58,283.109C1222.56,281.664 1223.59,280.035 1223.61,278.23M1209.8,292.515C1211.79,292.578 1213.5,293.851 1215.02,295.023C1217.71,297.281 1220.04,299.969 1222,302.875C1222.73,304.078 1223.57,305.355 1223.61,306.805L1223.61,292.515M1223.61,306.805C1223.68,304.676 1224.98,302.832 1226.2,301.187C1228.38,298.473 1230.96,296.07 1233.81,294.058C1234.91,293.371 1236.09,292.551 1237.43,292.515L1223.61,292.515M1237.43,292.515C1235.44,292.453 1233.73,291.183 1232.21,290.012C1229.52,287.754 1227.19,285.066 1225.22,282.156C1224.5,280.953 1223.66,279.68 1223.61,278.23L1223.61,292.515" style="fill:rgb(230,24,10);fill-rule:nonzero;"/>
                </g>
                <g transform="matrix(-1,-1.22465e-16,-1.22465e-16,1,2447.46,0.80205)">
                    <path d="M1223.61,292.515L1209.8,292.515C1211.37,292.445 1212.71,291.43 1213.97,290.586C1216.81,288.441 1219.48,285.984 1221.58,283.109C1222.56,281.664 1223.59,280.035 1223.61,278.23M1209.8,292.515C1211.79,292.578 1213.5,293.851 1215.02,295.023C1217.71,297.281 1220.04,299.969 1222,302.875C1222.73,304.078 1223.57,305.355 1223.61,306.805L1223.61,292.515M1223.61,306.805C1223.68,304.676 1224.98,302.832 1226.2,301.187C1228.38,298.473 1230.96,296.07 1233.81,294.058C1234.91,293.371 1236.09,292.551 1237.43,292.515L1223.61,292.515M1237.43,292.515C1235.44,292.453 1233.73,291.183 1232.21,290.012C1229.52,287.754 1227.19,285.066 1225.22,282.156C1224.5,280.953 1223.66,279.68 1223.61,278.23L1223.61,292.515" style="fill:rgb(230,24,10);fill-rule:nonzero;"/>
                </g>
                <g transform="matrix(1,0,0,-1,0.23105,667.04)">
                    <path d="M1223.61,333.117L1209.8,333.117C1211.37,333.047 1212.71,332.027 1213.97,331.187C1216.81,329.043 1219.48,326.586 1221.58,323.711C1222.56,322.265 1223.59,320.636 1223.61,318.832M1209.8,333.117C1211.79,333.179 1213.5,334.453 1215.02,335.625C1217.71,337.883 1220.04,340.57 1222,343.476C1222.73,344.679 1223.57,345.957 1223.61,347.406L1223.61,333.117M1223.61,347.406C1223.68,345.277 1224.98,343.433 1226.2,341.789C1228.38,339.074 1230.96,336.668 1233.81,334.66C1234.91,333.968 1236.09,333.152 1237.43,333.117L1223.61,333.117M1237.43,333.117C1235.44,333.054 1233.73,331.785 1232.21,330.613C1229.52,328.351 1227.19,325.668 1225.22,322.758C1224.5,321.554 1223.66,320.281 1223.61,318.832L1223.61,333.117" style="fill:rgb(230,24,10);fill-rule:nonzero;"/>
                </g>
                <g transform="matrix(-1,-1.22465e-16,-1.22465e-16,1,2447.46,0.80205)">
                    <path d="M1223.61,333.117L1209.8,333.117C1211.37,333.047 1212.71,332.027 1213.97,331.187C1216.81,329.043 1219.48,326.586 1221.58,323.711C1222.56,322.265 1223.59,320.636 1223.61,318.832M1209.8,333.117C1211.79,333.179 1213.5,334.453 1215.02,335.625C1217.71,337.883 1220.04,340.57 1222,343.476C1222.73,344.679 1223.57,345.957 1223.61,347.406L1223.61,333.117M1223.61,347.406C1223.68,345.277 1224.98,343.433 1226.2,341.789C1228.38,339.074 1230.96,336.668 1233.81,334.66C1234.91,333.968 1236.09,333.152 1237.43,333.117L1223.61,333.117M1237.43,333.117C1235.44,333.054 1233.73,331.785 1232.21,330.613C1229.52,328.351 1227.19,325.668 1225.22,322.758C1224.5,321.554 1223.66,320.281 1223.61,318.832L1223.61,333.117" style="fill:rgb(230,24,10);fill-rule:nonzero;"/>
                </g>
                <g transform="matrix(1,0,0,-1,0.23105,462.528)">
                    <path d="M1193.68,230.863L1207.5,230.863C1205.92,230.933 1204.59,231.953 1203.32,232.792C1200.48,234.937 1197.82,237.394 1195.71,240.269C1194.73,241.718 1193.7,243.343 1193.68,245.148M1207.5,230.863C1205.5,230.8 1203.79,229.531 1202.27,228.355C1199.58,226.097 1197.25,223.414 1195.29,220.503C1194.57,219.3 1193.72,218.027 1193.68,216.578L1193.68,230.863M1193.68,216.578C1193.61,218.703 1192.32,220.546 1191.09,222.191C1188.91,224.906 1186.33,227.312 1183.48,229.32C1182.38,230.011 1181.21,230.831 1179.86,230.863L1193.68,230.863M1179.86,230.863C1181.86,230.925 1183.56,232.195 1185.09,233.367C1187.77,235.628 1190.1,238.316 1192.07,241.222C1192.79,242.425 1193.64,243.703 1193.68,245.148L1193.68,230.863" style="fill:rgb(230,24,10);fill-rule:nonzero;"/>
                </g>
                <g transform="matrix(-1,-1.22465e-16,-1.22465e-16,1,2387.59,0.80205)">
                    <path d="M1193.68,230.863L1207.5,230.863C1205.92,230.933 1204.59,231.953 1203.32,232.792C1200.48,234.937 1197.82,237.394 1195.71,240.269C1194.73,241.718 1193.7,243.343 1193.68,245.148M1207.5,230.863C1205.5,230.8 1203.79,229.531 1202.27,228.355C1199.58,226.097 1197.25,223.414 1195.29,220.503C1194.57,219.3 1193.72,218.027 1193.68,216.578L1193.68,230.863M1193.68,216.578C1193.61,218.703 1192.32,220.546 1191.09,222.191C1188.91,224.906 1186.33,227.312 1183.48,229.32C1182.38,230.011 1181.21,230.831 1179.86,230.863L1193.68,230.863M1179.86,230.863C1181.86,230.925 1183.56,232.195 1185.09,233.367C1187.77,235.628 1190.1,238.316 1192.07,241.222C1192.79,242.425 1193.64,243.703 1193.68,245.148L1193.68,230.863" style="fill:rgb(230,24,10);fill-rule:nonzero;"/>
                </g>
                <g transform="matrix(1,0,0,-1,0.23105,626.438)">
                    <path d="M1193.68,312.816L1179.86,312.816C1181.43,312.745 1182.77,311.726 1184.04,310.886C1186.88,308.741 1189.54,306.284 1191.64,303.409C1192.62,301.964 1193.65,300.335 1193.68,298.531M1179.86,312.816C1181.86,312.878 1183.56,314.152 1185.09,315.324C1187.77,317.581 1190.1,320.269 1192.07,323.175C1192.79,324.378 1193.64,325.656 1193.68,327.105L1193.68,312.816M1193.68,327.105C1193.75,324.976 1195.04,323.132 1196.27,321.488C1198.44,318.773 1201.03,316.366 1203.88,314.359C1204.98,313.667 1206.15,312.851 1207.5,312.816L1193.68,312.816M1207.5,312.816C1205.5,312.753 1203.79,311.484 1202.27,310.312C1199.58,308.05 1197.25,305.366 1195.29,302.456C1194.57,301.253 1193.72,299.98 1193.68,298.531L1193.68,312.816" style="fill:rgb(230,24,10);fill-rule:nonzero;"/>
                </g>
                <g transform="matrix(-1,-1.22465e-16,-1.22465e-16,1,2387.59,0.80205)">
                    <path d="M1193.68,312.816L1179.86,312.816C1181.43,312.745 1182.77,311.726 1184.04,310.886C1186.88,308.741 1189.54,306.284 1191.64,303.409C1192.62,301.964 1193.65,300.335 1193.68,298.531M1179.86,312.816C1181.86,312.878 1183.56,314.152 1185.09,315.324C1187.77,317.581 1190.1,320.269 1192.07,323.175C1192.79,324.378 1193.64,325.656 1193.68,327.105L1193.68,312.816M1193.68,327.105C1193.75,324.976 1195.04,323.132 1196.27,321.488C1198.44,318.773 1201.03,316.366 1203.88,314.359C1204.98,313.667 1206.15,312.851 1207.5,312.816L1193.68,312.816M1207.5,312.816C1205.5,312.753 1203.79,311.484 1202.27,310.312C1199.58,308.05 1197.25,305.366 1195.29,302.456C1194.57,301.253 1193.72,299.98 1193.68,298.531L1193.68,312.816" style="fill:rgb(230,24,10);fill-rule:nonzero;"/>
                </g>
                <g transform="matrix(-1.37178,6.95535e-17,8.65275e-17,-1,-465.308,-0.187086)">
                    <g transform="matrix(12.9372,0,0,34.0888,-1253.5,-338.518)">
                        <path d="M0.326,-0.676L0.326,-0.134C0.326,-0.094 0.327,-0.068 0.331,-0.056C0.335,-0.045 0.342,-0.036 0.354,-0.029C0.365,-0.022 0.383,-0.018 0.408,-0.018L0.423,-0.018L0.423,0L0.075,0L0.075,-0.018L0.092,-0.018C0.121,-0.018 0.141,-0.021 0.153,-0.028C0.165,-0.034 0.173,-0.043 0.177,-0.055C0.181,-0.066 0.184,-0.093 0.184,-0.134L0.184,-0.478C0.184,-0.508 0.182,-0.527 0.179,-0.535C0.176,-0.543 0.171,-0.549 0.163,-0.554C0.155,-0.56 0.146,-0.563 0.135,-0.563C0.119,-0.563 0.098,-0.557 0.075,-0.547L0.066,-0.564L0.31,-0.676L0.326,-0.676Z" style="fill:rgb(230,24,10);fill-rule:nonzero;"/>
                    </g>
                    <g transform="matrix(12.9372,0,0,34.0888,-1247.03,-338.518)">
                        <path d="M0.463,-0.331C0.463,-0.265 0.454,-0.203 0.436,-0.146C0.424,-0.111 0.41,-0.082 0.391,-0.06C0.372,-0.037 0.351,-0.019 0.327,-0.006C0.303,0.007 0.278,0.014 0.25,0.014C0.218,0.014 0.189,0.006 0.163,-0.011C0.137,-0.027 0.115,-0.05 0.095,-0.081C0.08,-0.103 0.068,-0.132 0.057,-0.169C0.043,-0.219 0.036,-0.27 0.036,-0.323C0.036,-0.395 0.046,-0.461 0.066,-0.521C0.083,-0.571 0.108,-0.609 0.142,-0.636C0.176,-0.663 0.212,-0.676 0.25,-0.676C0.288,-0.676 0.324,-0.663 0.357,-0.636C0.391,-0.61 0.415,-0.575 0.431,-0.531C0.452,-0.47 0.463,-0.403 0.463,-0.331ZM0.313,-0.332C0.313,-0.448 0.312,-0.515 0.311,-0.535C0.308,-0.58 0.3,-0.611 0.288,-0.626C0.279,-0.637 0.266,-0.642 0.248,-0.642C0.234,-0.642 0.223,-0.638 0.215,-0.63C0.203,-0.619 0.195,-0.599 0.19,-0.57C0.186,-0.541 0.184,-0.441 0.184,-0.269C0.184,-0.175 0.187,-0.112 0.194,-0.08C0.199,-0.057 0.206,-0.042 0.215,-0.034C0.224,-0.026 0.236,-0.022 0.251,-0.022C0.267,-0.022 0.279,-0.027 0.288,-0.038C0.301,-0.056 0.309,-0.084 0.311,-0.122L0.313,-0.332Z" style="fill:rgb(230,24,10);fill-rule:nonzero;"/>
                    </g>
                </g>
                <g transform="matrix(-1.37178,6.95535e-17,8.65275e-17,-1,-465.308,-0.187086)">
                    <g transform="matrix(12.9372,0,0,34.0888,-1253.5,-338.518)">
                        <path d="M0.326,-0.676L0.326,-0.134C0.326,-0.094 0.327,-0.068 0.331,-0.056C0.335,-0.045 0.342,-0.036 0.354,-0.029C0.365,-0.022 0.383,-0.018 0.408,-0.018L0.423,-0.018L0.423,0L0.075,0L0.075,-0.018L0.092,-0.018C0.121,-0.018 0.141,-0.021 0.153,-0.028C0.165,-0.034 0.173,-0.043 0.177,-0.055C0.181,-0.066 0.184,-0.093 0.184,-0.134L0.184,-0.478C0.184,-0.508 0.182,-0.527 0.179,-0.535C0.176,-0.543 0.171,-0.549 0.163,-0.554C0.155,-0.56 0.146,-0.563 0.135,-0.563C0.119,-0.563 0.098,-0.557 0.075,-0.547L0.066,-0.564L0.31,-0.676L0.326,-0.676Z" style="fill:rgb(230,24,10);fill-rule:nonzero;"/>
                    </g>
                    <g transform="matrix(12.9372,0,0,34.0888,-1247.03,-338.518)">
                        <path d="M0.463,-0.331C0.463,-0.265 0.454,-0.203 0.436,-0.146C0.424,-0.111 0.41,-0.082 0.391,-0.06C0.372,-0.037 0.351,-0.019 0.327,-0.006C0.303,0.007 0.278,0.014 0.25,0.014C0.218,0.014 0.189,0.006 0.163,-0.011C0.137,-0.027 0.115,-0.05 0.095,-0.081C0.08,-0.103 0.068,-0.132 0.057,-0.169C0.043,-0.219 0.036,-0.27 0.036,-0.323C0.036,-0.395 0.046,-0.461 0.066,-0.521C0.083,-0.571 0.108,-0.609 0.142,-0.636C0.176,-0.663 0.212,-0.676 0.25,-0.676C0.288,-0.676 0.324,-0.663 0.357,-0.636C0.391,-0.61 0.415,-0.575 0.431,-0.531C0.452,-0.47 0.463,-0.403 0.463,-0.331ZM0.313,-0.332C0.313,-0.448 0.312,-0.515 0.311,-0.535C0.308,-0.58 0.3,-0.611 0.288,-0.626C0.279,-0.637 0.266,-0.642 0.248,-0.642C0.234,-0.642 0.223,-0.638 0.215,-0.63C0.203,-0.619 0.195,-0.599 0.19,-0.57C0.186,-0.541 0.184,-0.441 0.184,-0.269C0.184,-0.175 0.187,-0.112 0.194,-0.08C0.199,-0.057 0.206,-0.042 0.215,-0.034C0.224,-0.026 0.236,-0.022 0.251,-0.022C0.267,-0.022 0.279,-0.027 0.288,-0.038C0.301,-0.056 0.309,-0.084 0.311,-0.122L0.313,-0.332Z" style="fill:rgb(230,24,10);fill-rule:nonzero;"/>
                    </g>
                </g>
                <g transform="matrix(1.37178,9.84409e-17,-2.08992e-16,1,2852.58,549.413)">
                    <g transform="matrix(12.9372,0,0,34.0888,-1253.5,-338.518)">
                        <path d="M0.326,-0.676L0.326,-0.134C0.326,-0.094 0.327,-0.068 0.331,-0.056C0.335,-0.045 0.342,-0.036 0.354,-0.029C0.365,-0.022 0.383,-0.018 0.408,-0.018L0.423,-0.018L0.423,0L0.075,0L0.075,-0.018L0.092,-0.018C0.121,-0.018 0.141,-0.021 0.153,-0.028C0.165,-0.034 0.173,-0.043 0.177,-0.055C0.181,-0.066 0.184,-0.093 0.184,-0.134L0.184,-0.478C0.184,-0.508 0.182,-0.527 0.179,-0.535C0.176,-0.543 0.171,-0.549 0.163,-0.554C0.155,-0.56 0.146,-0.563 0.135,-0.563C0.119,-0.563 0.098,-0.557 0.075,-0.547L0.066,-0.564L0.31,-0.676L0.326,-0.676Z" style="fill:rgb(230,24,10);fill-rule:nonzero;"/>
                    </g>
                    <g transform="matrix(12.9372,0,0,34.0888,-1247.03,-338.518)">
                        <path d="M0.463,-0.331C0.463,-0.265 0.454,-0.203 0.436,-0.146C0.424,-0.111 0.41,-0.082 0.391,-0.06C0.372,-0.037 0.351,-0.019 0.327,-0.006C0.303,0.007 0.278,0.014 0.25,0.014C0.218,0.014 0.189,0.006 0.163,-0.011C0.137,-0.027 0.115,-0.05 0.095,-0.081C0.08,-0.103 0.068,-0.132 0.057,-0.169C0.043,-0.219 0.036,-0.27 0.036,-0.323C0.036,-0.395 0.046,-0.461 0.066,-0.521C0.083,-0.571 0.108,-0.609 0.142,-0.636C0.176,-0.663 0.212,-0.676 0.25,-0.676C0.288,-0.676 0.324,-0.663 0.357,-0.636C0.391,-0.61 0.415,-0.575 0.431,-0.531C0.452,-0.47 0.463,-0.403 0.463,-0.331ZM0.313,-0.332C0.313,-0.448 0.312,-0.515 0.311,-0.535C0.308,-0.58 0.3,-0.611 0.288,-0.626C0.279,-0.637 0.266,-0.642 0.248,-0.642C0.234,-0.642 0.223,-0.638 0.215,-0.63C0.203,-0.619 0.195,-0.599 0.19,-0.57C0.186,-0.541 0.184,-0.441 0.184,-0.269C0.184,-0.175 0.187,-0.112 0.194,-0.08C0.199,-0.057 0.206,-0.042 0.215,-0.034C0.224,-0.026 0.236,-0.022 0.251,-0.022C0.267,-0.022 0.279,-0.027 0.288,-0.038C0.301,-0.056 0.309,-0.084 0.311,-0.122L0.313,-0.332Z" style="fill:rgb(230,24,10);fill-rule:nonzero;"/>
                    </g>
                </g>
            </g>
        </g>
    </g>
</svg>
