<?xml version="1.0" encoding="UTF-8" standalone="no"?>
<!DOCTYPE svg PUBLIC "-//W3C//DTD SVG 1.1//EN" "http://www.w3.org/Graphics/SVG/1.1/DTD/svg11.dtd">
<svg width="100%" height="100%" viewBox="0 0 134 191" version="1.1" xmlns="http://www.w3.org/2000/svg" xmlns:xlink="http://www.w3.org/1999/xlink" xml:space="preserve" xmlns:serif="http://www.serif.com/" style="fill-rule:evenodd;clip-rule:evenodd;">
    <g transform="matrix(1,0,0,1,-667,-1197)">
        <g id="karosechs" transform="matrix(1.0231,0,0,0.854373,667.407,373.015)">
            <rect x="0" y="965.48" width="129.704" height="221.683" style="fill:none;"/>
            <g transform="matrix(0.977423,0,0,1.17045,-610.544,754.949)">
                <g transform="matrix(1,0,0,-1,0.23105,548.341)">
                    <path d="M628.324,188.148C628.324,185.316 630.641,183 633.473,183L748.063,183C750.891,183 753.207,185.316 753.207,188.148L753.207,359.387C753.207,362.219 750.891,364.539 748.063,364.539L633.473,364.539C630.641,364.539 628.324,362.219 628.324,359.387L628.324,188.148Z" style="fill:white;fill-rule:nonzero;stroke:black;stroke-width:1px;"/>
                </g>
                <g transform="matrix(1,0,0,-1,0.23105,442.005)">
                    <path d="M638.555,220.601L644.312,220.601C643.66,220.629 643.102,221.055 642.574,221.406C641.391,222.297 640.281,223.32 639.406,224.519C638.996,225.121 638.566,225.801 638.555,226.555M644.312,220.601C643.48,220.574 642.77,220.043 642.137,219.555C641.016,218.617 640.047,217.496 639.227,216.285C638.926,215.781 638.574,215.25 638.555,214.648L638.555,220.601M638.555,214.648C638.527,215.535 637.988,216.301 637.477,216.988C636.57,218.117 635.492,219.121 634.309,219.957C633.848,220.246 633.359,220.586 632.797,220.601L638.555,220.601M632.797,220.601C633.629,220.625 634.34,221.156 634.977,221.644C636.098,222.586 637.066,223.707 637.887,224.918C638.188,225.418 638.539,225.949 638.555,226.555L638.555,220.601" style="fill:rgb(230,24,10);fill-rule:nonzero;"/>
                </g>
                <g transform="matrix(-1,-1.22465e-16,-1.22465e-16,1,1277.34,0.80205)">
                    <path d="M638.555,220.601L644.312,220.601C643.66,220.629 643.102,221.055 642.574,221.406C641.391,222.297 640.281,223.32 639.406,224.519C638.996,225.121 638.566,225.801 638.555,226.555M644.312,220.601C643.48,220.574 642.77,220.043 642.137,219.555C641.016,218.617 640.047,217.496 639.227,216.285C638.926,215.781 638.574,215.25 638.555,214.648L638.555,220.601M638.555,214.648C638.527,215.535 637.988,216.301 637.477,216.988C636.57,218.117 635.492,219.121 634.309,219.957C633.848,220.246 633.359,220.586 632.797,220.601L638.555,220.601M632.797,220.601C633.629,220.625 634.34,221.156 634.977,221.644C636.098,222.586 637.066,223.707 637.887,224.918C638.188,225.418 638.539,225.949 638.555,226.555L638.555,220.601" style="fill:rgb(230,24,10);fill-rule:nonzero;"/>
                </g>
                <g transform="matrix(1,0,0,-1,0.23105,653.185)">
                    <path d="M743.723,326.192L737.965,326.192C738.621,326.164 739.18,325.738 739.707,325.387C740.891,324.496 742,323.469 742.875,322.274C743.285,321.668 743.711,320.992 743.723,320.238M737.965,326.192C738.797,326.219 739.508,326.746 740.145,327.235C741.262,328.176 742.234,329.297 743.051,330.508C743.352,331.008 743.707,331.543 743.723,332.145L743.723,326.192M743.723,332.145C743.75,331.258 744.293,330.492 744.801,329.805C745.711,328.672 746.785,327.672 747.973,326.836C748.434,326.547 748.922,326.207 749.48,326.192L743.723,326.192M749.48,326.192C748.648,326.164 747.938,325.637 747.305,325.149C746.184,324.207 745.215,323.086 744.395,321.875C744.094,321.375 743.742,320.844 743.723,320.238L743.723,326.192" style="fill:rgb(230,24,10);fill-rule:nonzero;"/>
                </g>
                <g transform="matrix(-1,-1.22465e-16,-1.22465e-16,1,1487.68,0.80205)">
                    <path d="M743.723,326.192L737.965,326.192C738.621,326.164 739.18,325.738 739.707,325.387C740.891,324.496 742,323.469 742.875,322.274C743.285,321.668 743.711,320.992 743.723,320.238M737.965,326.192C738.797,326.219 739.508,326.746 740.145,327.235C741.262,328.176 742.234,329.297 743.051,330.508C743.352,331.008 743.707,331.543 743.723,332.145L743.723,326.192M743.723,332.145C743.75,331.258 744.293,330.492 744.801,329.805C745.711,328.672 746.785,327.672 747.973,326.836C748.434,326.547 748.922,326.207 749.48,326.192L743.723,326.192M749.48,326.192C748.648,326.164 747.938,325.637 747.305,325.149C746.184,324.207 745.215,323.086 744.395,321.875C744.094,321.375 743.742,320.844 743.723,320.238L743.723,326.192" style="fill:rgb(230,24,10);fill-rule:nonzero;"/>
                </g>
                <g transform="matrix(1,0,0,-1,0.23105,421.923)">
                    <path d="M661.203,210.559L675.023,210.559C673.449,210.629 672.109,211.648 670.844,212.488C668.004,214.633 665.344,217.09 663.242,219.965C662.262,221.414 661.23,223.039 661.203,224.848M675.023,210.559C673.027,210.496 671.32,209.226 669.797,208.051C667.109,205.793 664.781,203.109 662.816,200.199C662.094,198.996 661.242,197.723 661.203,196.273L661.203,210.559M661.203,196.273C661.137,198.398 659.84,200.242 658.617,201.887C656.438,204.601 653.852,207.008 651.008,209.016C649.906,209.707 648.73,210.527 647.387,210.559L661.203,210.559M647.387,210.559C649.383,210.621 651.09,211.891 652.609,213.062C655.301,215.324 657.629,218.012 659.594,220.918C660.316,222.121 661.164,223.398 661.203,224.848L661.203,210.559" style="fill:rgb(230,24,10);fill-rule:nonzero;"/>
                </g>
                <g transform="matrix(-1,-1.22465e-16,-1.22465e-16,1,1322.64,0.80205)">
                    <path d="M661.203,210.559L675.023,210.559C673.449,210.629 672.109,211.648 670.844,212.488C668.004,214.633 665.344,217.09 663.242,219.965C662.262,221.414 661.23,223.039 661.203,224.848M675.023,210.559C673.027,210.496 671.32,209.226 669.797,208.051C667.109,205.793 664.781,203.109 662.816,200.199C662.094,198.996 661.242,197.723 661.203,196.273L661.203,210.559M661.203,196.273C661.137,198.398 659.84,200.242 658.617,201.887C656.438,204.601 653.852,207.008 651.008,209.016C649.906,209.707 648.73,210.527 647.387,210.559L661.203,210.559M647.387,210.559C649.383,210.621 651.09,211.891 652.609,213.062C655.301,215.324 657.629,218.012 659.594,220.918C660.316,222.121 661.164,223.398 661.203,224.848L661.203,210.559" style="fill:rgb(230,24,10);fill-rule:nonzero;"/>
                </g>
                <g transform="matrix(1,0,0,-1,0.23105,537.294)">
                    <path d="M661.203,268.246L675.023,268.246C673.449,268.316 672.109,269.336 670.844,270.176C668.004,272.32 665.344,274.777 663.242,277.652C662.262,279.097 661.23,280.726 661.203,282.531M675.023,268.246C673.027,268.183 671.32,266.91 669.797,265.738C667.109,263.48 664.781,260.793 662.816,257.887C662.094,256.683 661.242,255.406 661.203,253.961L661.203,268.246M661.203,253.961C661.137,256.086 659.84,257.93 658.617,259.574C656.438,262.289 653.852,264.695 651.008,266.703C649.906,267.394 648.73,268.211 647.387,268.246L661.203,268.246M647.387,268.246C649.383,268.308 651.09,269.578 652.609,270.75C655.301,273.012 657.629,275.695 659.594,278.605C660.316,279.808 661.164,281.086 661.203,282.531L661.203,268.246" style="fill:rgb(230,24,10);fill-rule:nonzero;"/>
                </g>
                <g transform="matrix(-1,-1.22465e-16,-1.22465e-16,1,1322.64,0.80205)">
                    <path d="M661.203,268.246L675.023,268.246C673.449,268.316 672.109,269.336 670.844,270.176C668.004,272.32 665.344,274.777 663.242,277.652C662.262,279.097 661.23,280.726 661.203,282.531M675.023,268.246C673.027,268.183 671.32,266.91 669.797,265.738C667.109,263.48 664.781,260.793 662.816,257.887C662.094,256.683 661.242,255.406 661.203,253.961L661.203,268.246M661.203,253.961C661.137,256.086 659.84,257.93 658.617,259.574C656.438,262.289 653.852,264.695 651.008,266.703C649.906,267.394 648.73,268.211 647.387,268.246L661.203,268.246M647.387,268.246C649.383,268.308 651.09,269.578 652.609,270.75C655.301,273.012 657.629,275.695 659.594,278.605C660.316,279.808 661.164,281.086 661.203,282.531L661.203,268.246" style="fill:rgb(230,24,10);fill-rule:nonzero;"/>
                </g>
                <g transform="matrix(1,0,0,-1,0.23105,667.04)">
                    <path d="M661.203,333.117L647.387,333.117C648.961,333.047 650.297,332.027 651.562,331.187C654.406,329.043 657.066,326.586 659.168,323.711C660.148,322.265 661.18,320.636 661.203,318.832M647.387,333.117C649.383,333.179 651.09,334.453 652.609,335.625C655.301,337.883 657.629,340.57 659.594,343.476C660.316,344.679 661.164,345.957 661.203,347.406L661.203,333.117M661.203,347.406C661.273,345.277 662.566,343.433 663.793,341.789C665.973,339.074 668.555,336.668 671.398,334.66C672.504,333.968 673.676,333.152 675.023,333.117L661.203,333.117M675.023,333.117C673.027,333.054 671.32,331.785 669.797,330.613C667.109,328.351 664.781,325.668 662.816,322.758C662.094,321.554 661.246,320.281 661.203,318.832L661.203,333.117" style="fill:rgb(230,24,10);fill-rule:nonzero;"/>
                </g>
                <g transform="matrix(-1,-1.22465e-16,-1.22465e-16,1,1322.64,0.80205)">
                    <path d="M661.203,333.117L647.387,333.117C648.961,333.047 650.297,332.027 651.562,331.187C654.406,329.043 657.066,326.586 659.168,323.711C660.148,322.265 661.18,320.636 661.203,318.832M647.387,333.117C649.383,333.179 651.09,334.453 652.609,335.625C655.301,337.883 657.629,340.57 659.594,343.476C660.316,344.679 661.164,345.957 661.203,347.406L661.203,333.117M661.203,347.406C661.273,345.277 662.566,343.433 663.793,341.789C665.973,339.074 668.555,336.668 671.398,334.66C672.504,333.968 673.676,333.152 675.023,333.117L661.203,333.117M675.023,333.117C673.027,333.054 671.32,331.785 669.797,330.613C667.109,328.351 664.781,325.668 662.816,322.758C662.094,321.554 661.246,320.281 661.203,318.832L661.203,333.117" style="fill:rgb(230,24,10);fill-rule:nonzero;"/>
                </g>
                <g transform="matrix(1,0,0,-1,0.23105,421.923)">
                    <path d="M721.074,210.559L734.895,210.559C733.32,210.629 731.98,211.648 730.715,212.488C727.875,214.633 725.215,217.09 723.113,219.965C722.133,221.414 721.102,223.039 721.074,224.848M734.895,210.559C732.898,210.496 731.191,209.226 729.668,208.051C726.98,205.793 724.652,203.109 722.688,200.199C721.965,198.996 721.113,197.723 721.074,196.273L721.074,210.559M721.074,196.273C721.008,198.398 719.711,200.242 718.488,201.887C716.309,204.601 713.723,207.008 710.879,209.016C709.777,209.707 708.602,210.527 707.258,210.559L721.074,210.559M707.258,210.559C709.254,210.621 710.961,211.891 712.48,213.062C715.172,215.324 717.5,218.012 719.465,220.918C720.188,222.121 721.035,223.398 721.074,224.848L721.074,210.559" style="fill:rgb(230,24,10);fill-rule:nonzero;"/>
                </g>
                <g transform="matrix(-1,-1.22465e-16,-1.22465e-16,1,1442.38,0.80205)">
                    <path d="M721.074,210.559L734.895,210.559C733.32,210.629 731.98,211.648 730.715,212.488C727.875,214.633 725.215,217.09 723.113,219.965C722.133,221.414 721.102,223.039 721.074,224.848M734.895,210.559C732.898,210.496 731.191,209.226 729.668,208.051C726.98,205.793 724.652,203.109 722.688,200.199C721.965,198.996 721.113,197.723 721.074,196.273L721.074,210.559M721.074,196.273C721.008,198.398 719.711,200.242 718.488,201.887C716.309,204.601 713.723,207.008 710.879,209.016C709.777,209.707 708.602,210.527 707.258,210.559L721.074,210.559M707.258,210.559C709.254,210.621 710.961,211.891 712.48,213.062C715.172,215.324 717.5,218.012 719.465,220.918C720.188,222.121 721.035,223.398 721.074,224.848L721.074,210.559" style="fill:rgb(230,24,10);fill-rule:nonzero;"/>
                </g>
                <g transform="matrix(1,0,0,-1,0.23105,537.294)">
                    <path d="M721.074,268.246L734.895,268.246C733.32,268.316 731.98,269.336 730.715,270.176C727.875,272.32 725.215,274.777 723.113,277.652C722.133,279.097 721.102,280.726 721.074,282.531M734.895,268.246C732.898,268.183 731.191,266.91 729.668,265.738C726.98,263.48 724.652,260.793 722.688,257.887C721.965,256.683 721.113,255.406 721.074,253.961L721.074,268.246M721.074,253.961C721.008,256.086 719.711,257.93 718.488,259.574C716.309,262.289 713.723,264.695 710.879,266.703C709.777,267.394 708.602,268.211 707.258,268.246L721.074,268.246M707.258,268.246C709.254,268.308 710.961,269.578 712.48,270.75C715.172,273.012 717.5,275.695 719.465,278.605C720.188,279.808 721.035,281.086 721.074,282.531L721.074,268.246" style="fill:rgb(230,24,10);fill-rule:nonzero;"/>
                </g>
                <g transform="matrix(-1,-1.22465e-16,-1.22465e-16,1,1442.38,0.80205)">
                    <path d="M721.074,268.246L734.895,268.246C733.32,268.316 731.98,269.336 730.715,270.176C727.875,272.32 725.215,274.777 723.113,277.652C722.133,279.097 721.102,280.726 721.074,282.531M734.895,268.246C732.898,268.183 731.191,266.91 729.668,265.738C726.98,263.48 724.652,260.793 722.688,257.887C721.965,256.683 721.113,255.406 721.074,253.961L721.074,268.246M721.074,253.961C721.008,256.086 719.711,257.93 718.488,259.574C716.309,262.289 713.723,264.695 710.879,266.703C709.777,267.394 708.602,268.211 707.258,268.246L721.074,268.246M707.258,268.246C709.254,268.308 710.961,269.578 712.48,270.75C715.172,273.012 717.5,275.695 719.465,278.605C720.188,279.808 721.035,281.086 721.074,282.531L721.074,268.246" style="fill:rgb(230,24,10);fill-rule:nonzero;"/>
                </g>
                <g transform="matrix(1,0,0,-1,0.23105,667.04)">
                    <path d="M721.074,333.117L707.258,333.117C708.832,333.047 710.168,332.027 711.434,331.187C714.277,329.043 716.938,326.586 719.039,323.711C720.02,322.265 721.051,320.636 721.074,318.832M707.258,333.117C709.254,333.179 710.961,334.453 712.48,335.625C715.172,337.883 717.5,340.57 719.465,343.476C720.188,344.679 721.035,345.957 721.074,347.406L721.074,333.117M721.074,347.406C721.145,345.277 722.438,343.433 723.664,341.789C725.844,339.074 728.426,336.668 731.27,334.66C732.375,333.968 733.547,333.152 734.895,333.117L721.074,333.117M734.895,333.117C732.898,333.054 731.191,331.785 729.668,330.613C726.98,328.351 724.652,325.668 722.688,322.758C721.965,321.554 721.117,320.281 721.074,318.832L721.074,333.117" style="fill:rgb(230,24,10);fill-rule:nonzero;"/>
                </g>
                <g transform="matrix(-1,-1.22465e-16,-1.22465e-16,1,1442.38,0.80205)">
                    <path d="M721.074,333.117L707.258,333.117C708.832,333.047 710.168,332.027 711.434,331.187C714.277,329.043 716.938,326.586 719.039,323.711C720.02,322.265 721.051,320.636 721.074,318.832M707.258,333.117C709.254,333.179 710.961,334.453 712.48,335.625C715.172,337.883 717.5,340.57 719.465,343.476C720.188,344.679 721.035,345.957 721.074,347.406L721.074,333.117M721.074,347.406C721.145,345.277 722.438,343.433 723.664,341.789C725.844,339.074 728.426,336.668 731.27,334.66C732.375,333.968 733.547,333.152 734.895,333.117L721.074,333.117M734.895,333.117C732.898,333.054 731.191,331.785 729.668,330.613C726.98,328.351 724.652,325.668 722.688,322.758C721.965,321.554 721.117,320.281 721.074,318.832L721.074,333.117" style="fill:rgb(230,24,10);fill-rule:nonzero;"/>
                </g>
                <g transform="matrix(0.53388,0,0,1,294.915,2.8564)">
                    <g transform="matrix(34.0888,0,0,34.0888,631.321,208.276)">
                        <path d="M0.47,-0.676L0.47,-0.662C0.411,-0.647 0.364,-0.628 0.328,-0.604C0.292,-0.581 0.264,-0.552 0.243,-0.518C0.223,-0.485 0.207,-0.443 0.195,-0.393C0.21,-0.403 0.222,-0.409 0.231,-0.412C0.252,-0.419 0.273,-0.422 0.295,-0.422C0.344,-0.422 0.386,-0.404 0.419,-0.368C0.452,-0.332 0.468,-0.283 0.468,-0.221C0.468,-0.177 0.459,-0.137 0.441,-0.101C0.424,-0.064 0.398,-0.036 0.365,-0.016C0.332,0.004 0.297,0.014 0.26,0.014C0.219,0.014 0.181,0.003 0.147,-0.02C0.112,-0.042 0.086,-0.075 0.066,-0.118C0.047,-0.161 0.037,-0.207 0.037,-0.258C0.037,-0.332 0.055,-0.401 0.091,-0.465C0.126,-0.529 0.177,-0.58 0.242,-0.618C0.308,-0.656 0.384,-0.675 0.47,-0.676ZM0.189,-0.354C0.186,-0.309 0.185,-0.276 0.185,-0.255C0.185,-0.21 0.189,-0.167 0.198,-0.125C0.207,-0.083 0.218,-0.053 0.233,-0.036C0.244,-0.024 0.257,-0.018 0.271,-0.018C0.286,-0.018 0.3,-0.027 0.312,-0.044C0.323,-0.062 0.329,-0.097 0.329,-0.15C0.329,-0.24 0.318,-0.302 0.296,-0.336C0.282,-0.359 0.264,-0.37 0.24,-0.37C0.227,-0.37 0.21,-0.364 0.189,-0.354Z" style="fill:rgb(230,24,10);fill-rule:nonzero;"/>
                    </g>
                </g>
                <g transform="matrix(-0.53388,0,0,-1,349.213,-1.94116)">
                    <g transform="matrix(34.0888,0,0,34.0888,-750.958,-338.518)">
                        <path d="M0.47,-0.676L0.47,-0.662C0.411,-0.647 0.364,-0.628 0.328,-0.604C0.292,-0.581 0.264,-0.552 0.243,-0.518C0.223,-0.485 0.207,-0.443 0.195,-0.393C0.21,-0.403 0.222,-0.409 0.231,-0.412C0.252,-0.419 0.273,-0.422 0.295,-0.422C0.344,-0.422 0.386,-0.404 0.419,-0.368C0.452,-0.332 0.468,-0.283 0.468,-0.221C0.468,-0.177 0.459,-0.137 0.441,-0.101C0.424,-0.064 0.398,-0.036 0.365,-0.016C0.332,0.004 0.297,0.014 0.26,0.014C0.219,0.014 0.181,0.003 0.147,-0.02C0.112,-0.042 0.086,-0.075 0.066,-0.118C0.047,-0.161 0.037,-0.207 0.037,-0.258C0.037,-0.332 0.055,-0.401 0.091,-0.465C0.126,-0.529 0.177,-0.58 0.242,-0.618C0.308,-0.656 0.384,-0.675 0.47,-0.676ZM0.189,-0.354C0.186,-0.309 0.185,-0.276 0.185,-0.255C0.185,-0.21 0.189,-0.167 0.198,-0.125C0.207,-0.083 0.218,-0.053 0.233,-0.036C0.244,-0.024 0.257,-0.018 0.271,-0.018C0.286,-0.018 0.3,-0.027 0.312,-0.044C0.323,-0.062 0.329,-0.097 0.329,-0.15C0.329,-0.24 0.318,-0.302 0.296,-0.336C0.282,-0.359 0.264,-0.37 0.24,-0.37C0.227,-0.37 0.21,-0.364 0.189,-0.354Z" style="fill:rgb(230,24,10);fill-rule:nonzero;"/>
                    </g>
                </g>
            </g>
        </g>
    </g>
</svg>
