<?xml version="1.0" encoding="UTF-8" standalone="no"?>
<!DOCTYPE svg PUBLIC "-//W3C//DTD SVG 1.1//EN" "http://www.w3.org/Graphics/SVG/1.1/DTD/svg11.dtd">
<svg width="100%" height="100%" viewBox="0 0 134 191" version="1.1" xmlns="http://www.w3.org/2000/svg" xmlns:xlink="http://www.w3.org/1999/xlink" xml:space="preserve" xmlns:serif="http://www.serif.com/" style="fill-rule:evenodd;clip-rule:evenodd;">
    <g transform="matrix(1,0,0,1,-534,-1197)">
        <g id="karofünf" transform="matrix(1.0231,0,0,0.854373,534.707,373.015)">
            <rect x="0" y="965.48" width="129.704" height="221.683" style="fill:none;"/>
            <g transform="matrix(0.977423,0,0,1.17045,-487.746,754.949)">
                <g transform="matrix(1,0,0,-1,0.23105,548.341)">
                    <path d="M502.688,188.148C502.688,185.316 505.004,183 507.84,183L622.43,183C625.258,183 627.574,185.316 627.574,188.148L627.574,359.387C627.574,362.219 625.258,364.539 622.43,364.539L507.84,364.539C505.004,364.539 502.688,362.219 502.688,359.387L502.688,188.148Z" style="fill:white;fill-rule:nonzero;stroke:black;stroke-width:1px;"/>
                </g>
                <g transform="matrix(1,0,0,-1,0.23105,442.005)">
                    <path d="M512.922,220.601L518.68,220.601C518.023,220.629 517.465,221.055 516.938,221.406C515.754,222.297 514.645,223.32 513.77,224.519C513.363,225.121 512.934,225.801 512.922,226.555M518.68,220.601C517.848,220.574 517.137,220.043 516.504,219.555C515.383,218.617 514.41,217.496 513.594,216.285C513.293,215.781 512.938,215.25 512.922,214.648L512.922,220.601M512.922,214.648C512.895,215.535 512.352,216.301 511.844,216.988C510.934,218.117 509.859,219.121 508.672,219.957C508.215,220.246 507.727,220.586 507.164,220.601L512.922,220.601M507.164,220.601C507.996,220.625 508.707,221.156 509.34,221.644C510.461,222.586 511.434,223.707 512.25,224.918C512.551,225.418 512.906,225.949 512.922,226.555L512.922,220.601" style="fill:rgb(230,24,10);fill-rule:nonzero;"/>
                </g>
                <g transform="matrix(-1,-1.22465e-16,-1.22465e-16,1,1026.08,0.80205)">
                    <path d="M512.922,220.601L518.68,220.601C518.023,220.629 517.465,221.055 516.938,221.406C515.754,222.297 514.645,223.32 513.77,224.519C513.363,225.121 512.934,225.801 512.922,226.555M518.68,220.601C517.848,220.574 517.137,220.043 516.504,219.555C515.383,218.617 514.41,217.496 513.594,216.285C513.293,215.781 512.938,215.25 512.922,214.648L512.922,220.601M512.922,214.648C512.895,215.535 512.352,216.301 511.844,216.988C510.934,218.117 509.859,219.121 508.672,219.957C508.215,220.246 507.727,220.586 507.164,220.601L512.922,220.601M507.164,220.601C507.996,220.625 508.707,221.156 509.34,221.644C510.461,222.586 511.434,223.707 512.25,224.918C512.551,225.418 512.906,225.949 512.922,226.555L512.922,220.601" style="fill:rgb(230,24,10);fill-rule:nonzero;"/>
                </g>
                <g transform="matrix(1,0,0,-1,0.23105,653.185)">
                    <path d="M618.09,326.192L612.332,326.192C612.988,326.164 613.543,325.738 614.07,325.387C615.254,324.496 616.363,323.469 617.238,322.274C617.648,321.668 618.078,320.992 618.09,320.238M612.332,326.192C613.164,326.219 613.875,326.746 614.508,327.235C615.629,328.176 616.598,329.297 617.418,330.508C617.719,331.008 618.074,331.543 618.09,332.145L618.09,326.192M618.09,332.145C618.117,331.258 618.656,330.492 619.168,329.805C620.074,328.672 621.152,327.672 622.336,326.836C622.797,326.547 623.285,326.207 623.848,326.192L618.09,326.192M623.848,326.192C623.016,326.164 622.305,325.637 621.668,325.149C620.547,324.207 619.578,323.086 618.762,321.875C618.461,321.375 618.105,320.844 618.09,320.238L618.09,326.192" style="fill:rgb(230,24,10);fill-rule:nonzero;"/>
                </g>
                <g transform="matrix(-1,-1.22465e-16,-1.22465e-16,1,1236.41,0.80205)">
                    <path d="M618.09,326.192L612.332,326.192C612.988,326.164 613.543,325.738 614.07,325.387C615.254,324.496 616.363,323.469 617.238,322.274C617.648,321.668 618.078,320.992 618.09,320.238M612.332,326.192C613.164,326.219 613.875,326.746 614.508,327.235C615.629,328.176 616.598,329.297 617.418,330.508C617.719,331.008 618.074,331.543 618.09,332.145L618.09,326.192M618.09,332.145C618.117,331.258 618.656,330.492 619.168,329.805C620.074,328.672 621.152,327.672 622.336,326.836C622.797,326.547 623.285,326.207 623.848,326.192L618.09,326.192M623.848,326.192C623.016,326.164 622.305,325.637 621.668,325.149C620.547,324.207 619.578,323.086 618.762,321.875C618.461,321.375 618.105,320.844 618.09,320.238L618.09,326.192" style="fill:rgb(230,24,10);fill-rule:nonzero;"/>
                </g>
                <g transform="matrix(1,0,0,-1,0.23105,421.923)">
                    <path d="M535.57,210.559L549.387,210.559C547.816,210.629 546.477,211.648 545.211,212.488C542.371,214.633 539.707,217.09 537.605,219.965C536.625,221.414 535.594,223.039 535.57,224.848M549.387,210.559C547.391,210.496 545.684,209.226 544.164,208.051C541.473,205.793 539.145,203.109 537.18,200.199C536.457,198.996 535.609,197.723 535.57,196.273L535.57,210.559M535.57,196.273C535.5,198.398 534.207,200.242 532.98,201.887C530.801,204.601 528.219,207.008 525.375,209.016C524.27,209.707 523.098,210.527 521.75,210.559L535.57,210.559M521.75,210.559C523.746,210.621 525.453,211.891 526.977,213.062C529.664,215.324 531.996,218.012 533.961,220.918C534.68,222.121 535.527,223.398 535.57,224.848L535.57,210.559" style="fill:rgb(230,24,10);fill-rule:nonzero;"/>
                </g>
                <g transform="matrix(-1,-1.22465e-16,-1.22465e-16,1,1071.37,0.80205)">
                    <path d="M535.57,210.559L549.387,210.559C547.816,210.629 546.477,211.648 545.211,212.488C542.371,214.633 539.707,217.09 537.605,219.965C536.625,221.414 535.594,223.039 535.57,224.848M549.387,210.559C547.391,210.496 545.684,209.226 544.164,208.051C541.473,205.793 539.145,203.109 537.18,200.199C536.457,198.996 535.609,197.723 535.57,196.273L535.57,210.559M535.57,196.273C535.5,198.398 534.207,200.242 532.98,201.887C530.801,204.601 528.219,207.008 525.375,209.016C524.27,209.707 523.098,210.527 521.75,210.559L535.57,210.559M521.75,210.559C523.746,210.621 525.453,211.891 526.977,213.062C529.664,215.324 531.996,218.012 533.961,220.918C534.68,222.121 535.527,223.398 535.57,224.848L535.57,210.559" style="fill:rgb(230,24,10);fill-rule:nonzero;"/>
                </g>
                <g transform="matrix(1,0,0,-1,0.23105,667.04)">
                    <path d="M535.57,333.117L521.75,333.117C523.324,333.047 524.664,332.027 525.93,331.187C528.77,329.043 531.43,326.586 533.531,323.711C534.512,322.265 535.543,320.636 535.57,318.832M521.75,333.117C523.746,333.179 525.453,334.453 526.977,335.625C529.668,337.883 531.996,340.57 533.961,343.476C534.68,344.679 535.531,345.957 535.57,347.406L535.57,333.117M535.57,347.406C535.637,345.277 536.934,343.433 538.156,341.789C540.336,339.074 542.922,336.668 545.766,334.66C546.871,333.968 548.043,333.152 549.387,333.117L535.57,333.117M549.387,333.117C547.391,333.054 545.684,331.785 544.164,330.613C541.473,328.351 539.145,325.668 537.18,322.758C536.457,321.554 535.609,320.281 535.57,318.832L535.57,333.117" style="fill:rgb(230,24,10);fill-rule:nonzero;"/>
                </g>
                <g transform="matrix(-1,-1.22465e-16,-1.22465e-16,1,1071.37,0.80205)">
                    <path d="M535.57,333.117L521.75,333.117C523.324,333.047 524.664,332.027 525.93,331.187C528.77,329.043 531.43,326.586 533.531,323.711C534.512,322.265 535.543,320.636 535.57,318.832M521.75,333.117C523.746,333.179 525.453,334.453 526.977,335.625C529.668,337.883 531.996,340.57 533.961,343.476C534.68,344.679 535.531,345.957 535.57,347.406L535.57,333.117M535.57,347.406C535.637,345.277 536.934,343.433 538.156,341.789C540.336,339.074 542.922,336.668 545.766,334.66C546.871,333.968 548.043,333.152 549.387,333.117L535.57,333.117M549.387,333.117C547.391,333.054 545.684,331.785 544.164,330.613C541.473,328.351 539.145,325.668 537.18,322.758C536.457,321.554 535.609,320.281 535.57,318.832L535.57,333.117" style="fill:rgb(230,24,10);fill-rule:nonzero;"/>
                </g>
                <g transform="matrix(1,0,0,-1,0.23105,421.923)">
                    <path d="M595.441,210.559L609.258,210.559C607.688,210.629 606.348,211.648 605.082,212.488C602.238,214.633 599.578,217.09 597.477,219.965C596.496,221.414 595.465,223.039 595.441,224.848M609.258,210.559C607.262,210.496 605.555,209.226 604.035,208.051C601.344,205.793 599.016,203.109 597.051,200.199C596.328,198.996 595.48,197.723 595.441,196.273L595.441,210.559M595.441,196.273C595.371,198.398 594.078,200.242 592.852,201.887C590.672,204.601 588.09,207.008 585.246,209.016C584.141,209.707 582.969,210.527 581.621,210.559L595.441,210.559M581.621,210.559C583.617,210.621 585.324,211.891 586.848,213.062C589.535,215.324 591.867,218.012 593.832,220.918C594.551,222.121 595.398,223.398 595.441,224.848L595.441,210.559" style="fill:rgb(230,24,10);fill-rule:nonzero;"/>
                </g>
                <g transform="matrix(-1,-1.22465e-16,-1.22465e-16,1,1191.11,0.80205)">
                    <path d="M595.441,210.559L609.258,210.559C607.688,210.629 606.348,211.648 605.082,212.488C602.238,214.633 599.578,217.09 597.477,219.965C596.496,221.414 595.465,223.039 595.441,224.848M609.258,210.559C607.262,210.496 605.555,209.226 604.035,208.051C601.344,205.793 599.016,203.109 597.051,200.199C596.328,198.996 595.48,197.723 595.441,196.273L595.441,210.559M595.441,196.273C595.371,198.398 594.078,200.242 592.852,201.887C590.672,204.601 588.09,207.008 585.246,209.016C584.141,209.707 582.969,210.527 581.621,210.559L595.441,210.559M581.621,210.559C583.617,210.621 585.324,211.891 586.848,213.062C589.535,215.324 591.867,218.012 593.832,220.918C594.551,222.121 595.398,223.398 595.441,224.848L595.441,210.559" style="fill:rgb(230,24,10);fill-rule:nonzero;"/>
                </g>
                <g transform="matrix(1,0,0,-1,0.23105,667.04)">
                    <path d="M595.441,333.117L581.621,333.117C583.195,333.047 584.535,332.027 585.801,331.187C588.641,329.043 591.301,326.586 593.402,323.711C594.383,322.265 595.414,320.636 595.441,318.832M581.621,333.117C583.617,333.179 585.324,334.453 586.848,335.625C589.535,337.883 591.867,340.57 593.832,343.476C594.551,344.679 595.402,345.957 595.441,347.406L595.441,333.117M595.441,347.406C595.508,345.277 596.805,343.433 598.027,341.789C600.207,339.074 602.793,336.668 605.637,334.66C606.742,333.968 607.914,333.152 609.258,333.117L595.441,333.117M609.258,333.117C607.262,333.054 605.555,331.785 604.035,330.613C601.344,328.351 599.016,325.668 597.051,322.758C596.328,321.554 595.48,320.281 595.441,318.832L595.441,333.117" style="fill:rgb(230,24,10);fill-rule:nonzero;"/>
                </g>
                <g transform="matrix(-1,-1.22465e-16,-1.22465e-16,1,1191.11,0.80205)">
                    <path d="M595.441,333.117L581.621,333.117C583.195,333.047 584.535,332.027 585.801,331.187C588.641,329.043 591.301,326.586 593.402,323.711C594.383,322.265 595.414,320.636 595.441,318.832M581.621,333.117C583.617,333.179 585.324,334.453 586.848,335.625C589.535,337.883 591.867,340.57 593.832,343.476C594.551,344.679 595.402,345.957 595.441,347.406L595.441,333.117M595.441,347.406C595.508,345.277 596.805,343.433 598.027,341.789C600.207,339.074 602.793,336.668 605.637,334.66C606.742,333.968 607.914,333.152 609.258,333.117L595.441,333.117M609.258,333.117C607.262,333.054 605.555,331.785 604.035,330.613C601.344,328.351 599.016,325.668 597.051,322.758C596.328,321.554 595.48,320.281 595.441,318.832L595.441,333.117" style="fill:rgb(230,24,10);fill-rule:nonzero;"/>
                </g>
                <g transform="matrix(1,0,0,-1,0.23105,537.294)">
                    <path d="M565.504,268.246L579.324,268.246C577.75,268.316 576.41,269.336 575.145,270.176C572.305,272.32 569.645,274.777 567.543,277.652C566.562,279.097 565.531,280.726 565.504,282.531M579.324,268.246C577.328,268.183 575.621,266.91 574.098,265.738C571.41,263.48 569.082,260.793 567.117,257.887C566.395,256.683 565.543,255.406 565.504,253.961L565.504,268.246M565.504,253.961C565.438,256.086 564.141,257.93 562.918,259.574C560.738,262.289 558.152,264.695 555.309,266.703C554.207,267.394 553.031,268.211 551.688,268.246L565.504,268.246M551.688,268.246C553.684,268.308 555.391,269.578 556.91,270.75C559.602,273.012 561.93,275.695 563.895,278.605C564.617,279.808 565.465,281.086 565.504,282.531L565.504,268.246" style="fill:rgb(230,24,10);fill-rule:nonzero;"/>
                </g>
                <g transform="matrix(-1,-1.22465e-16,-1.22465e-16,1,1131.24,0.80205)">
                    <path d="M565.504,268.246L579.324,268.246C577.75,268.316 576.41,269.336 575.145,270.176C572.305,272.32 569.645,274.777 567.543,277.652C566.562,279.097 565.531,280.726 565.504,282.531M579.324,268.246C577.328,268.183 575.621,266.91 574.098,265.738C571.41,263.48 569.082,260.793 567.117,257.887C566.395,256.683 565.543,255.406 565.504,253.961L565.504,268.246M565.504,253.961C565.438,256.086 564.141,257.93 562.918,259.574C560.738,262.289 558.152,264.695 555.309,266.703C554.207,267.394 553.031,268.211 551.688,268.246L565.504,268.246M551.688,268.246C553.684,268.308 555.391,269.578 556.91,270.75C559.602,273.012 561.93,275.695 563.895,278.605C564.617,279.808 565.465,281.086 565.504,282.531L565.504,268.246" style="fill:rgb(230,24,10);fill-rule:nonzero;"/>
                </g>
                <g transform="matrix(0.53388,0,0,1,236.354,2.8564)">
                    <g transform="matrix(34.0888,0,0,34.0888,505.687,208.276)">
                        <path d="M0.152,-0.662L0.462,-0.662L0.413,-0.536L0.152,-0.536L0.127,-0.47C0.24,-0.466 0.326,-0.438 0.387,-0.386C0.437,-0.344 0.461,-0.291 0.461,-0.227C0.461,-0.186 0.45,-0.147 0.427,-0.108C0.404,-0.069 0.371,-0.039 0.329,-0.018C0.287,0.003 0.241,0.014 0.191,0.014C0.137,0.014 0.095,0.004 0.066,-0.017C0.046,-0.031 0.036,-0.047 0.036,-0.065C0.036,-0.079 0.041,-0.092 0.052,-0.103C0.063,-0.113 0.075,-0.119 0.089,-0.119C0.102,-0.119 0.114,-0.116 0.127,-0.111C0.14,-0.106 0.163,-0.092 0.194,-0.07C0.214,-0.056 0.231,-0.047 0.246,-0.042C0.256,-0.038 0.267,-0.036 0.28,-0.036C0.306,-0.036 0.329,-0.045 0.348,-0.065C0.367,-0.084 0.376,-0.108 0.376,-0.135C0.376,-0.193 0.347,-0.239 0.29,-0.275C0.233,-0.311 0.16,-0.329 0.073,-0.329C0.064,-0.329 0.051,-0.328 0.034,-0.328L0.152,-0.662Z" style="fill:rgb(230,24,10);fill-rule:nonzero;"/>
                    </g>
                </g>
                <g transform="matrix(-0.53388,0,0,-1,290.652,-1.94116)">
                    <g transform="matrix(34.0888,0,0,34.0888,-625.324,-338.518)">
                        <path d="M0.152,-0.662L0.462,-0.662L0.413,-0.536L0.152,-0.536L0.127,-0.47C0.24,-0.466 0.326,-0.438 0.387,-0.386C0.437,-0.344 0.461,-0.291 0.461,-0.227C0.461,-0.186 0.45,-0.147 0.427,-0.108C0.404,-0.069 0.371,-0.039 0.329,-0.018C0.287,0.003 0.241,0.014 0.191,0.014C0.137,0.014 0.095,0.004 0.066,-0.017C0.046,-0.031 0.036,-0.047 0.036,-0.065C0.036,-0.079 0.041,-0.092 0.052,-0.103C0.063,-0.113 0.075,-0.119 0.089,-0.119C0.102,-0.119 0.114,-0.116 0.127,-0.111C0.14,-0.106 0.163,-0.092 0.194,-0.07C0.214,-0.056 0.231,-0.047 0.246,-0.042C0.256,-0.038 0.267,-0.036 0.28,-0.036C0.306,-0.036 0.329,-0.045 0.348,-0.065C0.367,-0.084 0.376,-0.108 0.376,-0.135C0.376,-0.193 0.347,-0.239 0.29,-0.275C0.233,-0.311 0.16,-0.329 0.073,-0.329C0.064,-0.329 0.051,-0.328 0.034,-0.328L0.152,-0.662Z" style="fill:rgb(230,24,10);fill-rule:nonzero;"/>
                    </g>
                </g>
            </g>
        </g>
    </g>
</svg>
