<?xml version="1.0" encoding="UTF-8" standalone="no"?>
<!DOCTYPE svg PUBLIC "-//W3C//DTD SVG 1.1//EN" "http://www.w3.org/Graphics/SVG/1.1/DTD/svg11.dtd">
<svg width="100%" height="100%" viewBox="0 0 134 190" version="1.1" xmlns="http://www.w3.org/2000/svg" xmlns:xlink="http://www.w3.org/1999/xlink" xml:space="preserve" xmlns:serif="http://www.serif.com/" style="fill-rule:evenodd;clip-rule:evenodd;">
    <g transform="matrix(1,0,0,1,-679,-965)">
        <g id="kreuzsechs" transform="matrix(1.0231,0,0,0.854373,679.73,140.12)">
            <rect x="0" y="965.48" width="129.704" height="221.683" style="fill:none;"/>
            <g id="kreuzsechs1" serif:id="kreuzsechs" transform="matrix(0.977423,0,0,1.17045,-610.318,969.241)">
                <g transform="matrix(1,0,0,-1,0,182.973)">
                    <path d="M628.324,5.868C628.324,3.035 630.641,0.719 633.473,0.719L748.063,0.719C750.891,0.719 753.207,3.035 753.207,5.868L753.207,177.106C753.207,179.938 750.891,182.254 748.063,182.254L633.473,182.254C630.641,182.254 628.324,179.938 628.324,177.106L628.324,5.868Z" style="fill:white;fill-rule:nonzero;stroke:black;stroke-width:1px;"/>
                </g>
                <g transform="matrix(0,-1,1,0,603.756,673.4)">
                    <ellipse cx="638.578" cy="34.822" rx="2.459" ry="2.535"/>
                </g>
                <g transform="matrix(0,-1,1,0,595.832,674.79)">
                    <ellipse cx="635.311" cy="39.479" rx="2.459" ry="2.533"/>
                </g>
                <g transform="matrix(1,0,0,-1,0,78.988)">
                    <path d="M639.27,39.492C639.27,39 639.418,38.535 639.68,38.144C640.129,37.476 640.918,37.035 641.801,37.035C643.203,37.035 644.336,38.136 644.336,39.492C644.336,40.851 643.203,41.953 641.801,41.953C640.402,41.953 639.27,40.851 639.27,39.492Z" style="fill-rule:nonzero;"/>
                </g>
                <g transform="matrix(1,0,0,-1,0,84.461)">
                    <path d="M635.602,40.191C636.855,40.191 637.516,41.211 637.859,42.231C638.203,43.25 638.234,44.27 638.234,44.27L638.879,44.27C638.879,44.27 639,40.199 641.504,40.191L635.602,40.191Z" style="fill-rule:nonzero;"/>
                </g>
                <g transform="matrix(1,0,0,-1,0,76.828)">
                    <path d="M640.297,40.199C638.871,38.773 638.871,36.637 638.871,36.637L638.234,36.629C638.234,36.629 638.234,38.808 636.848,40.199" style="fill-rule:nonzero;"/>
                </g>
                <g transform="matrix(1,0,0,-1,0,78.957)">
                    <path d="M640.012,37.754C638.586,39.176 636.449,39.176 636.449,39.176L636.449,39.816C636.449,39.816 638.633,39.816 640.02,41.203" style="fill-rule:nonzero;"/>
                </g>
                <g transform="matrix(1,0,0,-1,0,78.973)">
                    <path d="M637.152,37.762C638.578,39.188 640.715,39.188 640.715,39.188L640.715,39.825C640.715,39.825 638.535,39.825 637.148,41.211" style="fill-rule:nonzero;"/>
                </g>
                <g transform="matrix(0,1,-1,0,891.101,-596.301)">
                    <ellipse cx="743.701" cy="147.4" rx="2.459" ry="2.533"/>
                </g>
                <g transform="matrix(0,1,-1,0,889.715,-604.227)">
                    <ellipse cx="746.971" cy="142.744" rx="2.459" ry="2.533"/>
                </g>
                <g transform="matrix(1,0,0,-1,0,285.458)">
                    <path d="M743.012,142.728C743.012,143.224 742.859,143.688 742.598,144.079C742.148,144.747 741.363,145.188 740.477,145.188C739.074,145.188 737.941,144.087 737.941,142.728C737.941,141.372 739.074,140.27 740.477,140.27C741.879,140.27 743.012,141.372 743.012,142.728Z" style="fill-rule:nonzero;"/>
                </g>
                <g transform="matrix(1,0,0,-1,0,279.984)">
                    <path d="M746.676,142.031C745.426,142.031 744.766,141.011 744.422,139.992C744.074,138.972 744.047,137.953 744.047,137.953L743.402,137.953C743.402,137.953 743.281,142.023 740.777,142.031L746.676,142.031Z" style="fill-rule:nonzero;"/>
                </g>
                <g transform="matrix(1,0,0,-1,0,287.617)">
                    <path d="M741.984,142.023C743.41,143.449 743.41,145.586 743.41,145.586L744.047,145.594C744.047,145.594 744.047,143.41 745.434,142.023" style="fill-rule:nonzero;"/>
                </g>
                <g transform="matrix(1,0,0,-1,0,285.489)">
                    <path d="M742.27,144.469C743.695,143.044 745.832,143.044 745.832,143.044L745.832,142.407C745.832,142.407 743.648,142.407 742.262,141.02" style="fill-rule:nonzero;"/>
                </g>
                <g transform="matrix(1,0,0,-1,0,285.473)">
                    <path d="M745.125,144.461C743.699,143.035 741.562,143.035 741.562,143.035L741.562,142.399C741.562,142.399 743.746,142.399 745.133,141.012" style="fill-rule:nonzero;"/>
                </g>
                <g transform="matrix(0,-1,1,0,641.368,681.149)">
                    <ellipse cx="661.258" cy="19.89" rx="5.902" ry="6.082"/>
                </g>
                <g transform="matrix(0,-1,1,0,622.347,684.481)">
                    <ellipse cx="653.414" cy="31.066" rx="5.903" ry="6.082"/>
                </g>
                <g transform="matrix(1,0,0,-1,0,62.203)">
                    <path d="M662.914,31.101C662.914,29.914 663.273,28.797 663.902,27.863C664.984,26.262 666.871,25.199 668.996,25.199C672.359,25.199 675.078,27.844 675.078,31.101C675.078,34.359 672.359,37.004 668.996,37.004C665.629,37.004 662.914,34.359 662.914,31.101Z" style="fill-rule:nonzero;"/>
                </g>
                <g transform="matrix(1,0,0,-1,0,75.335)">
                    <path d="M654.113,32.773C657.121,32.773 658.703,35.218 659.531,37.667C660.359,40.112 660.43,42.562 660.43,42.562L661.977,42.562C661.977,42.562 662.266,32.788 668.277,32.773L654.113,32.773Z" style="fill-rule:nonzero;"/>
                </g>
                <g transform="matrix(1,0,0,-1,0,57.02)">
                    <path d="M665.379,32.793C661.961,29.372 661.961,24.247 661.961,24.247L660.43,24.227C660.43,24.227 660.43,29.461 657.102,32.793" style="fill-rule:nonzero;"/>
                </g>
                <g transform="matrix(1,0,0,-1,0,62.129)">
                    <path d="M664.695,26.926C661.277,30.344 656.148,30.344 656.148,30.344L656.148,31.875C656.148,31.875 661.383,31.875 664.715,35.203" style="fill-rule:nonzero;"/>
                </g>
                <g transform="matrix(1,0,0,-1,0,62.168)">
                    <path d="M657.84,26.945C661.258,30.363 666.387,30.363 666.387,30.363L666.387,31.895C666.387,31.895 661.148,31.895 657.82,35.223" style="fill-rule:nonzero;"/>
                </g>
                <g transform="matrix(0,-1,1,0,583.682,738.835)">
                    <ellipse cx="661.258" cy="77.576" rx="5.9" ry="6.082"/>
                </g>
                <g transform="matrix(0,-1,1,0,564.664,742.164)">
                    <ellipse cx="653.414" cy="88.75" rx="5.902" ry="6.082"/>
                </g>
                <g transform="matrix(1,0,0,-1,0,177.571)">
                    <path d="M662.914,88.786C662.914,87.598 663.273,86.481 663.902,85.548C664.984,83.946 666.871,82.883 668.996,82.883C672.359,82.883 675.078,85.528 675.078,88.786C675.078,92.04 672.359,94.688 668.996,94.688C665.629,94.688 662.914,92.04 662.914,88.786Z" style="fill-rule:nonzero;"/>
                </g>
                <g transform="matrix(1,0,0,-1,0,190.707)">
                    <path d="M654.113,90.461C657.121,90.461 658.703,92.906 659.531,95.352C660.359,97.801 660.43,100.246 660.43,100.246L661.977,100.246C661.977,100.246 662.266,90.477 668.277,90.461L654.113,90.461Z" style="fill-rule:nonzero;"/>
                </g>
                <g transform="matrix(1,0,0,-1,0,172.391)">
                    <path d="M665.379,90.477C661.961,87.059 661.961,81.93 661.961,81.93L660.43,81.914C660.43,81.914 660.43,87.149 657.102,90.477" style="fill-rule:nonzero;"/>
                </g>
                <g transform="matrix(1,0,0,-1,0,177.5)">
                    <path d="M664.695,84.613C661.277,88.031 656.148,88.031 656.148,88.031L656.148,89.559C656.148,89.559 661.383,89.559 664.715,92.887" style="fill-rule:nonzero;"/>
                </g>
                <g transform="matrix(1,0,0,-1,0,177.535)">
                    <path d="M657.84,84.629C661.258,88.047 666.387,88.047 666.387,88.047L666.387,89.578C666.387,89.578 661.148,89.578 657.82,92.906" style="fill-rule:nonzero;"/>
                </g>
                <g transform="matrix(0,1,-1,0,820.371,-501.93)">
                    <ellipse cx="661.15" cy="159.221" rx="5.9" ry="6.08"/>
                </g>
                <g transform="matrix(0,1,-1,0,817.043,-520.949)">
                    <ellipse cx="668.996" cy="148.047" rx="5.902" ry="6.082"/>
                </g>
                <g transform="matrix(1,0,0,-1,0,296.023)">
                    <path d="M659.496,148.011C659.496,149.199 659.137,150.316 658.504,151.25C657.426,152.851 655.535,153.914 653.414,153.914C650.047,153.914 647.332,151.269 647.332,148.011C647.332,144.757 650.047,142.109 653.414,142.109C656.777,142.109 659.496,144.757 659.496,148.011Z" style="fill-rule:nonzero;"/>
                </g>
                <g transform="matrix(1,0,0,-1,0,282.883)">
                    <path d="M668.293,146.336C665.289,146.336 663.707,143.887 662.879,141.442C662.051,138.992 661.977,136.547 661.977,136.547L660.43,136.547C660.43,136.547 660.145,146.317 654.133,146.336L668.293,146.336Z" style="fill-rule:nonzero;"/>
                </g>
                <g transform="matrix(1,0,0,-1,0,301.203)">
                    <path d="M657.031,146.32C660.449,149.738 660.449,154.867 660.449,154.867L661.977,154.883C661.977,154.883 661.977,149.648 665.309,146.32" style="fill-rule:nonzero;"/>
                </g>
                <g transform="matrix(1,0,0,-1,0,296.09)">
                    <path d="M657.715,152.184C661.133,148.762 666.262,148.762 666.262,148.762L666.262,147.235C666.262,147.235 661.023,147.235 657.695,143.906" style="fill-rule:nonzero;"/>
                </g>
                <g transform="matrix(1,0,0,-1,0,296.059)">
                    <path d="M664.57,152.168C661.148,148.75 656.023,148.75 656.023,148.75L656.023,147.219C656.023,147.219 661.258,147.219 664.586,143.891" style="fill-rule:nonzero;"/>
                </g>
                <g transform="matrix(0,-1,1,0,701.238,741.019)">
                    <ellipse cx="721.129" cy="19.891" rx="5.902" ry="6.082"/>
                </g>
                <g transform="matrix(0,-1,1,0,682.218,744.351)">
                    <ellipse cx="713.285" cy="31.067" rx="5.903" ry="6.082"/>
                </g>
                <g transform="matrix(1,0,0,-1,0,62.203)">
                    <path d="M722.785,31.101C722.785,29.914 723.145,28.797 723.773,27.863C724.855,26.262 726.742,25.199 728.867,25.199C732.23,25.199 734.949,27.844 734.949,31.101C734.949,34.359 732.23,37.004 728.867,37.004C725.5,37.004 722.785,34.359 722.785,31.101Z" style="fill-rule:nonzero;"/>
                </g>
                <g transform="matrix(1,0,0,-1,0,75.335)">
                    <path d="M713.984,32.773C716.992,32.773 718.574,35.218 719.402,37.667C720.23,40.112 720.301,42.562 720.301,42.562L721.848,42.562C721.848,42.562 722.137,32.788 728.148,32.773L713.984,32.773Z" style="fill-rule:nonzero;"/>
                </g>
                <g transform="matrix(1,0,0,-1,0,57.02)">
                    <path d="M725.25,32.793C721.832,29.372 721.832,24.247 721.832,24.247L720.301,24.227C720.301,24.227 720.301,29.461 716.973,32.793" style="fill-rule:nonzero;"/>
                </g>
                <g transform="matrix(1,0,0,-1,0,62.129)">
                    <path d="M724.566,26.926C721.148,30.344 716.02,30.344 716.02,30.344L716.02,31.875C716.02,31.875 721.254,31.875 724.582,35.203" style="fill-rule:nonzero;"/>
                </g>
                <g transform="matrix(1,0,0,-1,0,62.168)">
                    <path d="M717.711,26.945C721.129,30.363 726.258,30.363 726.258,30.363L726.258,31.895C726.258,31.895 721.02,31.895 717.691,35.223" style="fill-rule:nonzero;"/>
                </g>
                <g transform="matrix(0,-1,1,0,643.552,798.705)">
                    <ellipse cx="721.129" cy="77.577" rx="5.9" ry="6.082"/>
                </g>
                <g transform="matrix(0,-1,1,0,624.535,802.035)">
                    <ellipse cx="713.285" cy="88.75" rx="5.902" ry="6.082"/>
                </g>
                <g transform="matrix(1,0,0,-1,0,177.571)">
                    <path d="M722.785,88.786C722.785,87.598 723.145,86.481 723.773,85.548C724.855,83.946 726.742,82.883 728.867,82.883C732.23,82.883 734.949,85.528 734.949,88.786C734.949,92.04 732.23,94.688 728.867,94.688C725.5,94.688 722.785,92.04 722.785,88.786Z" style="fill-rule:nonzero;"/>
                </g>
                <g transform="matrix(1,0,0,-1,0,190.707)">
                    <path d="M713.984,90.461C716.992,90.461 718.574,92.906 719.402,95.352C720.23,97.801 720.301,100.246 720.301,100.246L721.848,100.246C721.848,100.246 722.137,90.477 728.148,90.461L713.984,90.461Z" style="fill-rule:nonzero;"/>
                </g>
                <g transform="matrix(1,0,0,-1,0,172.391)">
                    <path d="M725.25,90.477C721.832,87.059 721.832,81.93 721.832,81.93L720.301,81.914C720.301,81.914 720.301,87.149 716.973,90.477" style="fill-rule:nonzero;"/>
                </g>
                <g transform="matrix(1,0,0,-1,0,177.5)">
                    <path d="M724.566,84.613C721.148,88.031 716.02,88.031 716.02,88.031L716.02,89.559C716.02,89.559 721.254,89.559 724.582,92.887" style="fill-rule:nonzero;"/>
                </g>
                <g transform="matrix(1,0,0,-1,0,177.535)">
                    <path d="M717.711,84.629C721.129,88.047 726.258,88.047 726.258,88.047L726.258,89.578C726.258,89.578 721.02,89.578 717.691,92.906" style="fill-rule:nonzero;"/>
                </g>
                <g transform="matrix(0,1,-1,0,880.242,-561.801)">
                    <ellipse cx="721.021" cy="159.221" rx="5.9" ry="6.081"/>
                </g>
                <g transform="matrix(0,1,-1,0,876.914,-580.82)">
                    <ellipse cx="728.867" cy="148.047" rx="5.902" ry="6.082"/>
                </g>
                <g transform="matrix(1,0,0,-1,0,296.023)">
                    <path d="M719.367,148.011C719.367,149.199 719.008,150.316 718.375,151.25C717.297,152.851 715.406,153.914 713.285,153.914C709.918,153.914 707.203,151.269 707.203,148.011C707.203,144.757 709.918,142.109 713.285,142.109C716.648,142.109 719.367,144.757 719.367,148.011Z" style="fill-rule:nonzero;"/>
                </g>
                <g transform="matrix(1,0,0,-1,0,282.883)">
                    <path d="M728.164,146.336C725.16,146.336 723.578,143.887 722.75,141.442C721.922,138.992 721.848,136.547 721.848,136.547L720.301,136.547C720.301,136.547 720.012,146.317 714.004,146.336L728.164,146.336Z" style="fill-rule:nonzero;"/>
                </g>
                <g transform="matrix(1,0,0,-1,0,301.203)">
                    <path d="M716.902,146.32C720.32,149.738 720.32,154.867 720.32,154.867L721.848,154.883C721.848,154.883 721.848,149.648 725.176,146.32" style="fill-rule:nonzero;"/>
                </g>
                <g transform="matrix(1,0,0,-1,0,296.09)">
                    <path d="M717.586,152.184C721.004,148.762 726.133,148.762 726.133,148.762L726.133,147.235C726.133,147.235 720.895,147.235 717.566,143.906" style="fill-rule:nonzero;"/>
                </g>
                <g transform="matrix(1,0,0,-1,0,296.059)">
                    <path d="M724.441,152.168C721.02,148.75 715.895,148.75 715.895,148.75L715.895,147.219C715.895,147.219 721.129,147.219 724.457,143.891" style="fill-rule:nonzero;"/>
                </g>
                <g transform="matrix(0.53388,0,0,1,294.684,1.18169)">
                    <g transform="matrix(34.0888,0,0,34.0888,631.321,25.9905)">
                        <path d="M0.47,-0.676L0.47,-0.662C0.411,-0.647 0.364,-0.628 0.328,-0.604C0.292,-0.581 0.264,-0.552 0.243,-0.518C0.223,-0.485 0.207,-0.443 0.195,-0.393C0.21,-0.403 0.222,-0.409 0.231,-0.412C0.252,-0.419 0.273,-0.422 0.295,-0.422C0.344,-0.422 0.386,-0.404 0.419,-0.368C0.452,-0.332 0.468,-0.283 0.468,-0.221C0.468,-0.177 0.459,-0.137 0.441,-0.101C0.424,-0.064 0.398,-0.036 0.365,-0.016C0.332,0.004 0.297,0.014 0.26,0.014C0.219,0.014 0.181,0.003 0.147,-0.02C0.112,-0.042 0.086,-0.075 0.066,-0.118C0.047,-0.161 0.037,-0.207 0.037,-0.258C0.037,-0.332 0.055,-0.401 0.091,-0.465C0.126,-0.529 0.177,-0.58 0.242,-0.618C0.308,-0.656 0.384,-0.675 0.47,-0.676ZM0.189,-0.354C0.186,-0.309 0.185,-0.276 0.185,-0.255C0.185,-0.21 0.189,-0.167 0.198,-0.125C0.207,-0.083 0.218,-0.053 0.233,-0.036C0.244,-0.024 0.257,-0.018 0.271,-0.018C0.286,-0.018 0.3,-0.027 0.312,-0.044C0.323,-0.062 0.329,-0.097 0.329,-0.15C0.329,-0.24 0.318,-0.302 0.296,-0.336C0.282,-0.359 0.264,-0.37 0.24,-0.37C0.227,-0.37 0.21,-0.364 0.189,-0.354Z" style="fill-rule:nonzero;"/>
                    </g>
                </g>
                <g transform="matrix(-0.53388,0,0,-1,349.569,-1.95443)">
                    <g transform="matrix(34.0888,0,0,34.0888,-750.958,-156.233)">
                        <path d="M0.47,-0.676L0.47,-0.662C0.411,-0.647 0.364,-0.628 0.328,-0.604C0.292,-0.581 0.264,-0.552 0.243,-0.518C0.223,-0.485 0.207,-0.443 0.195,-0.393C0.21,-0.403 0.222,-0.409 0.231,-0.412C0.252,-0.419 0.273,-0.422 0.295,-0.422C0.344,-0.422 0.386,-0.404 0.419,-0.368C0.452,-0.332 0.468,-0.283 0.468,-0.221C0.468,-0.177 0.459,-0.137 0.441,-0.101C0.424,-0.064 0.398,-0.036 0.365,-0.016C0.332,0.004 0.297,0.014 0.26,0.014C0.219,0.014 0.181,0.003 0.147,-0.02C0.112,-0.042 0.086,-0.075 0.066,-0.118C0.047,-0.161 0.037,-0.207 0.037,-0.258C0.037,-0.332 0.055,-0.401 0.091,-0.465C0.126,-0.529 0.177,-0.58 0.242,-0.618C0.308,-0.656 0.384,-0.675 0.47,-0.676ZM0.189,-0.354C0.186,-0.309 0.185,-0.276 0.185,-0.255C0.185,-0.21 0.189,-0.167 0.198,-0.125C0.207,-0.083 0.218,-0.053 0.233,-0.036C0.244,-0.024 0.257,-0.018 0.271,-0.018C0.286,-0.018 0.3,-0.027 0.312,-0.044C0.323,-0.062 0.329,-0.097 0.329,-0.15C0.329,-0.24 0.318,-0.302 0.296,-0.336C0.282,-0.359 0.264,-0.37 0.24,-0.37C0.227,-0.37 0.21,-0.364 0.189,-0.354Z" style="fill-rule:nonzero;"/>
                    </g>
                </g>
            </g>
        </g>
    </g>
</svg>
