<?xml version="1.0" encoding="UTF-8" standalone="no"?>
<!DOCTYPE svg PUBLIC "-//W3C//DTD SVG 1.1//EN" "http://www.w3.org/Graphics/SVG/1.1/DTD/svg11.dtd">
<svg width="100%" height="100%" viewBox="0 0 134 190" version="1.1" xmlns="http://www.w3.org/2000/svg" xmlns:xlink="http://www.w3.org/1999/xlink" xml:space="preserve" xmlns:serif="http://www.serif.com/" style="fill-rule:evenodd;clip-rule:evenodd;">
    <g transform="matrix(1,0,0,1,-812,-965)">
        <g id="kreuzsieben" transform="matrix(1.0231,0,0,0.854373,812.43,140.12)">
            <rect x="0" y="965.48" width="129.704" height="221.683" style="fill:none;"/>
            <g id="kreuzsieben1" serif:id="kreuzsieben" transform="matrix(0.977423,0,0,1.17045,-733.117,969.241)">
                <g transform="matrix(1,0,0,-1,0,182.973)">
                    <path d="M753.957,5.868C753.957,3.035 756.273,0.719 759.109,0.719L873.699,0.719C876.523,0.719 878.844,3.035 878.844,5.868L878.844,177.106C878.844,179.938 876.523,182.254 873.699,182.254L759.109,182.254C756.273,182.254 753.957,179.938 753.957,177.106L753.957,5.868Z" style="fill:white;fill-rule:nonzero;stroke:black;stroke-width:1px;"/>
                </g>
                <g transform="matrix(0,-1,1,0,729.391,799.035)">
                    <ellipse cx="764.213" cy="34.822" rx="2.459" ry="2.533"/>
                </g>
                <g transform="matrix(0,-1,1,0,721.466,800.424)">
                    <ellipse cx="760.945" cy="39.479" rx="2.459" ry="2.535"/>
                </g>
                <g transform="matrix(1,0,0,-1,0,78.988)">
                    <path d="M764.902,39.492C764.902,39 765.055,38.535 765.316,38.144C765.766,37.476 766.551,37.035 767.438,37.035C768.84,37.035 769.973,38.136 769.973,39.492C769.973,40.851 768.84,41.953 767.438,41.953C766.035,41.953 764.902,40.851 764.902,39.492Z" style="fill-rule:nonzero;"/>
                </g>
                <g transform="matrix(1,0,0,-1,0,84.461)">
                    <path d="M761.238,40.191C762.488,40.191 763.148,41.211 763.492,42.231C763.84,43.25 763.867,44.27 763.867,44.27L764.512,44.27C764.512,44.27 764.633,40.199 767.137,40.191L761.238,40.191Z" style="fill-rule:nonzero;"/>
                </g>
                <g transform="matrix(1,0,0,-1,0,76.828)">
                    <path d="M765.93,40.199C764.504,38.773 764.504,36.637 764.504,36.637L763.867,36.629C763.867,36.629 763.867,38.808 762.48,40.199" style="fill-rule:nonzero;"/>
                </g>
                <g transform="matrix(1,0,0,-1,0,78.957)">
                    <path d="M765.645,37.754C764.223,39.176 762.086,39.176 762.086,39.176L762.086,39.816C762.086,39.816 764.266,39.816 765.652,41.203" style="fill-rule:nonzero;"/>
                </g>
                <g transform="matrix(1,0,0,-1,0,78.973)">
                    <path d="M762.789,37.762C764.215,39.188 766.352,39.188 766.352,39.188L766.352,39.825C766.352,39.825 764.168,39.825 762.781,41.211" style="fill-rule:nonzero;"/>
                </g>
                <g transform="matrix(0,1,-1,0,1016.73,-721.932)">
                    <ellipse cx="869.332" cy="147.4" rx="2.459" ry="2.535"/>
                </g>
                <g transform="matrix(0,1,-1,0,1015.34,-729.856)">
                    <ellipse cx="872.6" cy="142.744" rx="2.459" ry="2.534"/>
                </g>
                <g transform="matrix(1,0,0,-1,0,285.458)">
                    <path d="M868.641,142.728C868.641,143.224 868.492,143.688 868.23,144.079C867.781,144.747 866.992,145.188 866.109,145.188C864.707,145.188 863.574,144.087 863.574,142.728C863.574,141.372 864.707,140.27 866.109,140.27C867.512,140.27 868.641,141.372 868.641,142.728Z" style="fill-rule:nonzero;"/>
                </g>
                <g transform="matrix(1,0,0,-1,0,279.984)">
                    <path d="M872.309,142.031C871.055,142.031 870.395,141.011 870.051,139.992C869.707,138.972 869.676,137.953 869.676,137.953L869.031,137.953C869.031,137.953 868.91,142.023 866.406,142.031L872.309,142.031Z" style="fill-rule:nonzero;"/>
                </g>
                <g transform="matrix(1,0,0,-1,0,287.617)">
                    <path d="M867.613,142.023C869.039,143.449 869.039,145.586 869.039,145.586L869.676,145.594C869.676,145.594 869.676,143.41 871.062,142.023" style="fill-rule:nonzero;"/>
                </g>
                <g transform="matrix(1,0,0,-1,0,285.489)">
                    <path d="M867.898,144.469C869.324,143.044 871.461,143.044 871.461,143.044L871.461,142.407C871.461,142.407 869.277,142.407 867.891,141.02" style="fill-rule:nonzero;"/>
                </g>
                <g transform="matrix(1,0,0,-1,0,285.473)">
                    <path d="M870.758,144.461C869.332,143.035 867.195,143.035 867.195,143.035L867.195,142.399C867.195,142.399 869.375,142.399 870.762,141.012" style="fill-rule:nonzero;"/>
                </g>
                <g transform="matrix(0,-1,1,0,767.004,806.785)">
                    <ellipse cx="786.894" cy="19.891" rx="5.902" ry="6.083"/>
                </g>
                <g transform="matrix(0,-1,1,0,747.981,810.114)">
                    <ellipse cx="779.047" cy="31.066" rx="5.903" ry="6.082"/>
                </g>
                <g transform="matrix(1,0,0,-1,0,62.203)">
                    <path d="M788.547,31.101C788.547,29.914 788.906,28.797 789.539,27.863C790.617,26.262 792.508,25.199 794.629,25.199C797.996,25.199 800.711,27.844 800.711,31.101C800.711,34.359 797.996,37.004 794.629,37.004C791.266,37.004 788.547,34.359 788.547,31.101Z" style="fill-rule:nonzero;"/>
                </g>
                <g transform="matrix(1,0,0,-1,0,75.335)">
                    <path d="M779.75,32.773C782.754,32.773 784.34,35.218 785.164,37.667C785.992,40.112 786.066,42.562 786.066,42.562L787.613,42.562C787.613,42.562 787.902,32.788 793.91,32.773L779.75,32.773Z" style="fill-rule:nonzero;"/>
                </g>
                <g transform="matrix(1,0,0,-1,0,57.02)">
                    <path d="M791.012,32.793C787.594,29.372 787.594,24.247 787.594,24.247L786.066,24.227C786.066,24.227 786.066,29.461 782.738,32.793" style="fill-rule:nonzero;"/>
                </g>
                <g transform="matrix(1,0,0,-1,0,62.129)">
                    <path d="M790.328,26.926C786.91,30.344 781.781,30.344 781.781,30.344L781.781,31.875C781.781,31.875 787.02,31.875 790.348,35.203" style="fill-rule:nonzero;"/>
                </g>
                <g transform="matrix(1,0,0,-1,0,62.168)">
                    <path d="M783.473,26.945C786.895,30.363 792.02,30.363 792.02,30.363L792.02,31.895C792.02,31.895 786.785,31.895 783.457,35.223" style="fill-rule:nonzero;"/>
                </g>
                <g transform="matrix(0,-1,1,0,709.318,864.471)">
                    <ellipse cx="786.894" cy="77.577" rx="5.9" ry="6.083"/>
                </g>
                <g transform="matrix(0,-1,1,0,690.297,867.797)">
                    <ellipse cx="779.047" cy="88.75" rx="5.902" ry="6.082"/>
                </g>
                <g transform="matrix(1,0,0,-1,0,177.571)">
                    <path d="M788.547,88.786C788.547,87.598 788.906,86.481 789.539,85.548C790.617,83.946 792.508,82.883 794.629,82.883C797.996,82.883 800.711,85.528 800.711,88.786C800.711,92.04 797.996,94.688 794.629,94.688C791.266,94.688 788.547,92.04 788.547,88.786Z" style="fill-rule:nonzero;"/>
                </g>
                <g transform="matrix(1,0,0,-1,0,190.707)">
                    <path d="M779.75,90.461C782.754,90.461 784.34,92.906 785.164,95.352C785.992,97.801 786.066,100.246 786.066,100.246L787.613,100.246C787.613,100.246 787.902,90.477 793.91,90.461L779.75,90.461Z" style="fill-rule:nonzero;"/>
                </g>
                <g transform="matrix(1,0,0,-1,0,172.391)">
                    <path d="M791.012,90.477C787.594,87.059 787.594,81.93 787.594,81.93L786.066,81.914C786.066,81.914 786.066,87.149 782.738,90.477" style="fill-rule:nonzero;"/>
                </g>
                <g transform="matrix(1,0,0,-1,0,177.5)">
                    <path d="M790.328,84.613C786.91,88.031 781.781,88.031 781.781,88.031L781.781,89.559C781.781,89.559 787.02,89.559 790.348,92.887" style="fill-rule:nonzero;"/>
                </g>
                <g transform="matrix(1,0,0,-1,0,177.535)">
                    <path d="M783.473,84.629C786.895,88.047 792.02,88.047 792.02,88.047L792.02,89.578C792.02,89.578 786.785,89.578 783.457,92.906" style="fill-rule:nonzero;"/>
                </g>
                <g transform="matrix(0,1,-1,0,946.005,-627.564)">
                    <ellipse cx="786.785" cy="159.221" rx="5.9" ry="6.082"/>
                </g>
                <g transform="matrix(0,1,-1,0,942.676,-646.582)">
                    <ellipse cx="794.629" cy="148.047" rx="5.902" ry="6.082"/>
                </g>
                <g transform="matrix(1,0,0,-1,0,296.023)">
                    <path d="M785.129,148.011C785.129,149.199 784.77,150.316 784.141,151.25C783.059,152.851 781.172,153.914 779.047,153.914C775.684,153.914 772.965,151.269 772.965,148.011C772.965,144.757 775.684,142.109 779.047,142.109C782.414,142.109 785.129,144.757 785.129,148.011Z" style="fill-rule:nonzero;"/>
                </g>
                <g transform="matrix(1,0,0,-1,0,282.883)">
                    <path d="M793.93,146.336C790.922,146.336 789.34,143.887 788.512,141.442C787.684,138.992 787.613,136.547 787.613,136.547L786.066,136.547C786.066,136.547 785.777,146.317 779.77,146.336L793.93,146.336Z" style="fill-rule:nonzero;"/>
                </g>
                <g transform="matrix(1,0,0,-1,0,301.203)">
                    <path d="M782.664,146.32C786.082,149.738 786.082,154.867 786.082,154.867L787.613,154.883C787.613,154.883 787.613,149.648 790.941,146.32" style="fill-rule:nonzero;"/>
                </g>
                <g transform="matrix(1,0,0,-1,0,296.09)">
                    <path d="M783.348,152.184C786.766,148.762 791.895,148.762 791.895,148.762L791.895,147.235C791.895,147.235 786.66,147.235 783.332,143.906" style="fill-rule:nonzero;"/>
                </g>
                <g transform="matrix(1,0,0,-1,0,296.059)">
                    <path d="M790.203,152.168C786.785,148.75 781.656,148.75 781.656,148.75L781.656,147.219C781.656,147.219 786.895,147.219 790.223,143.891" style="fill-rule:nonzero;"/>
                </g>
                <g transform="matrix(0,-1,1,0,826.874,866.654)">
                    <ellipse cx="846.764" cy="19.89" rx="5.903" ry="6.08"/>
                </g>
                <g transform="matrix(0,-1,1,0,807.851,869.984)">
                    <ellipse cx="838.918" cy="31.067" rx="5.903" ry="6.082"/>
                </g>
                <g transform="matrix(1,0,0,-1,0,62.203)">
                    <path d="M848.418,31.101C848.418,29.914 848.777,28.797 849.41,27.863C850.488,26.262 852.379,25.199 854.5,25.199C857.867,25.199 860.582,27.844 860.582,31.101C860.582,34.359 857.867,37.004 854.5,37.004C851.137,37.004 848.418,34.359 848.418,31.101Z" style="fill-rule:nonzero;"/>
                </g>
                <g transform="matrix(1,0,0,-1,0,75.335)">
                    <path d="M839.621,32.773C842.625,32.773 844.207,35.218 845.035,37.667C845.863,40.112 845.938,42.562 845.938,42.562L847.484,42.562C847.484,42.562 847.773,32.788 853.781,32.773L839.621,32.773Z" style="fill-rule:nonzero;"/>
                </g>
                <g transform="matrix(1,0,0,-1,0,57.02)">
                    <path d="M850.883,32.793C847.465,29.372 847.465,24.247 847.465,24.247L845.938,24.227C845.938,24.227 845.938,29.461 842.609,32.793" style="fill-rule:nonzero;"/>
                </g>
                <g transform="matrix(1,0,0,-1,0,62.129)">
                    <path d="M850.199,26.926C846.781,30.344 841.652,30.344 841.652,30.344L841.652,31.875C841.652,31.875 846.891,31.875 850.219,35.203" style="fill-rule:nonzero;"/>
                </g>
                <g transform="matrix(1,0,0,-1,0,62.168)">
                    <path d="M843.344,26.945C846.766,30.363 851.891,30.363 851.891,30.363L851.891,31.895C851.891,31.895 846.656,31.895 843.328,35.223" style="fill-rule:nonzero;"/>
                </g>
                <g transform="matrix(0,-1,1,0,769.188,924.341)">
                    <ellipse cx="846.764" cy="77.577" rx="5.901" ry="6.08"/>
                </g>
                <g transform="matrix(0,-1,1,0,750.168,927.668)">
                    <ellipse cx="838.918" cy="88.75" rx="5.902" ry="6.082"/>
                </g>
                <g transform="matrix(1,0,0,-1,0,177.571)">
                    <path d="M848.418,88.786C848.418,87.598 848.777,86.481 849.41,85.548C850.488,83.946 852.379,82.883 854.5,82.883C857.867,82.883 860.582,85.528 860.582,88.786C860.582,92.04 857.867,94.688 854.5,94.688C851.137,94.688 848.418,92.04 848.418,88.786Z" style="fill-rule:nonzero;"/>
                </g>
                <g transform="matrix(1,0,0,-1,0,190.707)">
                    <path d="M839.621,90.461C842.625,90.461 844.207,92.906 845.035,95.352C845.863,97.801 845.938,100.246 845.938,100.246L847.484,100.246C847.484,100.246 847.773,90.477 853.781,90.461L839.621,90.461Z" style="fill-rule:nonzero;"/>
                </g>
                <g transform="matrix(1,0,0,-1,0,172.391)">
                    <path d="M850.883,90.477C847.465,87.059 847.465,81.93 847.465,81.93L845.938,81.914C845.938,81.914 845.938,87.149 842.609,90.477" style="fill-rule:nonzero;"/>
                </g>
                <g transform="matrix(1,0,0,-1,0,177.5)">
                    <path d="M850.199,84.613C846.781,88.031 841.652,88.031 841.652,88.031L841.652,89.559C841.652,89.559 846.891,89.559 850.219,92.887" style="fill-rule:nonzero;"/>
                </g>
                <g transform="matrix(1,0,0,-1,0,177.535)">
                    <path d="M843.344,84.629C846.766,88.047 851.891,88.047 851.891,88.047L851.891,89.578C851.891,89.578 846.656,89.578 843.328,92.906" style="fill-rule:nonzero;"/>
                </g>
                <g transform="matrix(0,1,-1,0,1005.88,-687.436)">
                    <ellipse cx="846.656" cy="159.221" rx="5.9" ry="6.082"/>
                </g>
                <g transform="matrix(0,1,-1,0,1002.55,-706.453)">
                    <ellipse cx="854.5" cy="148.047" rx="5.902" ry="6.082"/>
                </g>
                <g transform="matrix(1,0,0,-1,0,296.023)">
                    <path d="M845,148.011C845,149.199 844.641,150.316 844.012,151.25C842.93,152.851 841.043,153.914 838.918,153.914C835.555,153.914 832.836,151.269 832.836,148.011C832.836,144.757 835.555,142.109 838.918,142.109C842.285,142.109 845,144.757 845,148.011Z" style="fill-rule:nonzero;"/>
                </g>
                <g transform="matrix(1,0,0,-1,0,282.883)">
                    <path d="M853.801,146.336C850.793,146.336 849.211,143.887 848.383,141.442C847.555,138.992 847.484,136.547 847.484,136.547L845.938,136.547C845.938,136.547 845.648,146.317 839.637,146.336L853.801,146.336Z" style="fill-rule:nonzero;"/>
                </g>
                <g transform="matrix(1,0,0,-1,0,301.203)">
                    <path d="M842.535,146.32C845.953,149.738 845.953,154.867 845.953,154.867L847.484,154.883C847.484,154.883 847.484,149.648 850.812,146.32" style="fill-rule:nonzero;"/>
                </g>
                <g transform="matrix(1,0,0,-1,0,296.09)">
                    <path d="M843.219,152.184C846.637,148.762 851.766,148.762 851.766,148.762L851.766,147.235C851.766,147.235 846.531,147.235 843.203,143.906" style="fill-rule:nonzero;"/>
                </g>
                <g transform="matrix(1,0,0,-1,0,296.059)">
                    <path d="M850.074,152.168C846.656,148.75 841.527,148.75 841.527,148.75L841.527,147.219C841.527,147.219 846.766,147.219 850.094,143.891" style="fill-rule:nonzero;"/>
                </g>
                <g transform="matrix(0,-1,1,0,756.333,877.322)">
                    <ellipse cx="816.828" cy="60.495" rx="5.9" ry="6.082"/>
                </g>
                <g transform="matrix(0,-1,1,0,737.316,880.652)">
                    <ellipse cx="808.984" cy="71.668" rx="5.902" ry="6.082"/>
                </g>
                <g transform="matrix(1,0,0,-1,0,143.406)">
                    <path d="M818.484,71.703C818.484,70.515 818.844,69.398 819.473,68.465C820.555,66.863 822.441,65.801 824.566,65.801C827.93,65.801 830.648,68.445 830.648,71.703C830.648,74.961 827.93,77.605 824.566,77.605C821.199,77.605 818.484,74.961 818.484,71.703Z" style="fill-rule:nonzero;"/>
                </g>
                <g transform="matrix(1,0,0,-1,0,156.543)">
                    <path d="M809.684,73.379C812.691,73.379 814.273,75.824 815.102,78.273C815.93,80.719 816,83.164 816,83.164L817.547,83.164C817.547,83.164 817.836,73.395 823.848,73.379L809.684,73.379Z" style="fill-rule:nonzero;"/>
                </g>
                <g transform="matrix(1,0,0,-1,0,138.227)">
                    <path d="M820.949,73.395C817.531,69.977 817.531,64.848 817.531,64.848L816,64.832C816,64.832 816,70.067 812.672,73.395" style="fill-rule:nonzero;"/>
                </g>
                <g transform="matrix(1,0,0,-1,0,143.332)">
                    <path d="M820.266,67.527C816.848,70.945 811.719,70.945 811.719,70.945L811.719,72.473C811.719,72.473 816.953,72.473 820.281,75.805" style="fill-rule:nonzero;"/>
                </g>
                <g transform="matrix(1,0,0,-1,0,143.371)">
                    <path d="M813.41,67.547C816.828,70.965 821.957,70.965 821.957,70.965L821.957,72.496C821.957,72.496 816.719,72.496 813.391,75.824" style="fill-rule:nonzero;"/>
                </g>
                <g transform="matrix(0.53388,0,0,1,353.245,1.18169)">
                    <g transform="matrix(34.0888,0,0,34.0888,756.956,25.9905)">
                        <path d="M0.177,0.014L0.357,-0.533L0.22,-0.533C0.167,-0.533 0.126,-0.526 0.099,-0.512C0.08,-0.502 0.065,-0.484 0.052,-0.457L0.034,-0.457L0.082,-0.662L0.476,-0.662L0.254,0.014L0.177,0.014Z" style="fill-rule:nonzero;"/>
                    </g>
                </g>
                <g transform="matrix(-0.53388,0,0,-1,408.129,-1.95443)">
                    <g transform="matrix(34.0888,0,0,34.0888,-876.589,-156.233)">
                        <path d="M0.177,0.014L0.357,-0.533L0.22,-0.533C0.167,-0.533 0.126,-0.526 0.099,-0.512C0.08,-0.502 0.065,-0.484 0.052,-0.457L0.034,-0.457L0.082,-0.662L0.476,-0.662L0.254,0.014L0.177,0.014Z" style="fill-rule:nonzero;"/>
                    </g>
                </g>
            </g>
        </g>
    </g>
</svg>
