<?xml version="1.0" encoding="UTF-8" standalone="no"?>
<!DOCTYPE svg PUBLIC "-//W3C//DTD SVG 1.1//EN" "http://www.w3.org/Graphics/SVG/1.1/DTD/svg11.dtd">
<svg width="100%" height="100%" viewBox="0 0 134 190" version="1.1" xmlns="http://www.w3.org/2000/svg" xmlns:xlink="http://www.w3.org/1999/xlink" xml:space="preserve" xmlns:serif="http://www.serif.com/" style="fill-rule:evenodd;clip-rule:evenodd;">
    <g transform="matrix(1,0,0,1,-414,-965)">
        <g id="kreuzvier" transform="matrix(1.0231,0,0,0.854373,414.33,140.12)">
            <rect x="0" y="965.48" width="129.704" height="221.683" style="fill:none;"/>
            <g id="kreuzvier1" serif:id="kreuzvier" transform="matrix(0.977423,0,0,1.17045,-364.722,969.241)">
                <g transform="matrix(1,0,0,-1,0,182.973)">
                    <path d="M377.055,5.868C377.055,3.035 379.371,0.719 382.203,0.719L496.797,0.719C499.621,0.719 501.938,3.035 501.938,5.868L501.938,177.106C501.938,179.938 499.621,182.254 496.797,182.254L382.203,182.254C379.371,182.254 377.055,179.938 377.055,177.106L377.055,5.868Z" style="fill:white;fill-rule:nonzero;stroke:black;stroke-width:1px;"/>
                </g>
                <g transform="matrix(0,-1,1,0,352.489,422.133)">
                    <ellipse cx="387.311" cy="34.822" rx="2.459" ry="2.534"/>
                </g>
                <g transform="matrix(0,-1,1,0,344.562,423.52)">
                    <ellipse cx="384.041" cy="39.479" rx="2.459" ry="2.533"/>
                </g>
                <g transform="matrix(1,0,0,-1,0,78.988)">
                    <path d="M388,39.492C388,39 388.148,38.535 388.41,38.144C388.863,37.476 389.648,37.035 390.535,37.035C391.934,37.035 393.066,38.136 393.066,39.492C393.066,40.851 391.934,41.953 390.535,41.953C389.133,41.953 388,40.851 388,39.492Z" style="fill-rule:nonzero;"/>
                </g>
                <g transform="matrix(1,0,0,-1,0,84.461)">
                    <path d="M384.332,40.191C385.586,40.191 386.246,41.211 386.59,42.231C386.934,43.25 386.965,44.27 386.965,44.27L387.609,44.27C387.609,44.27 387.73,40.199 390.234,40.191L384.332,40.191Z" style="fill-rule:nonzero;"/>
                </g>
                <g transform="matrix(1,0,0,-1,0,76.828)">
                    <path d="M389.027,40.199C387.602,38.773 387.602,36.637 387.602,36.637L386.965,36.629C386.965,36.629 386.965,38.808 385.578,40.199" style="fill-rule:nonzero;"/>
                </g>
                <g transform="matrix(1,0,0,-1,0,78.957)">
                    <path d="M388.742,37.754C387.316,39.176 385.18,39.176 385.18,39.176L385.18,39.816C385.18,39.816 387.363,39.816 388.75,41.203" style="fill-rule:nonzero;"/>
                </g>
                <g transform="matrix(1,0,0,-1,0,78.973)">
                    <path d="M385.887,37.762C387.309,39.188 389.445,39.188 389.445,39.188L389.445,39.825C389.445,39.825 387.266,39.825 385.879,41.211" style="fill-rule:nonzero;"/>
                </g>
                <g transform="matrix(0,1,-1,0,639.832,-345.031)">
                    <ellipse cx="492.431" cy="147.4" rx="2.459" ry="2.534"/>
                </g>
                <g transform="matrix(0,1,-1,0,638.445,-352.957)">
                    <ellipse cx="495.701" cy="142.744" rx="2.459" ry="2.533"/>
                </g>
                <g transform="matrix(1,0,0,-1,0,285.458)">
                    <path d="M491.742,142.728C491.742,143.224 491.594,143.688 491.328,144.079C490.879,144.747 490.094,145.188 489.207,145.188C487.805,145.188 486.676,144.087 486.676,142.728C486.676,141.372 487.805,140.27 489.207,140.27C490.609,140.27 491.742,141.372 491.742,142.728Z" style="fill-rule:nonzero;"/>
                </g>
                <g transform="matrix(1,0,0,-1,0,279.984)">
                    <path d="M495.41,142.031C494.156,142.031 493.496,141.011 493.152,139.992C492.809,138.972 492.777,137.953 492.777,137.953L492.133,137.953C492.133,137.953 492.012,142.023 489.508,142.031L495.41,142.031Z" style="fill-rule:nonzero;"/>
                </g>
                <g transform="matrix(1,0,0,-1,0,287.617)">
                    <path d="M490.715,142.023C492.141,143.449 492.141,145.586 492.141,145.586L492.777,145.594C492.777,145.594 492.777,143.41 494.164,142.023" style="fill-rule:nonzero;"/>
                </g>
                <g transform="matrix(1,0,0,-1,0,285.489)">
                    <path d="M491,144.469C492.426,143.044 494.562,143.044 494.562,143.044L494.562,142.407C494.562,142.407 492.379,142.407 490.992,141.02" style="fill-rule:nonzero;"/>
                </g>
                <g transform="matrix(1,0,0,-1,0,285.473)">
                    <path d="M493.855,144.461C492.434,143.035 490.297,143.035 490.297,143.035L490.297,142.399C490.297,142.399 492.477,142.399 493.863,141.012" style="fill-rule:nonzero;"/>
                </g>
                <g transform="matrix(0,-1,1,0,390.097,429.878)">
                    <ellipse cx="409.988" cy="19.891" rx="5.903" ry="6.082"/>
                </g>
                <g transform="matrix(0,-1,1,0,371.078,433.211)">
                    <ellipse cx="402.145" cy="31.067" rx="5.903" ry="6.082"/>
                </g>
                <g transform="matrix(1,0,0,-1,0,62.203)">
                    <path d="M411.645,31.101C411.645,29.914 412.004,28.797 412.633,27.863C413.715,26.262 415.602,25.199 417.727,25.199C421.09,25.199 423.809,27.844 423.809,31.101C423.809,34.359 421.09,37.004 417.727,37.004C414.359,37.004 411.645,34.359 411.645,31.101Z" style="fill-rule:nonzero;"/>
                </g>
                <g transform="matrix(1,0,0,-1,0,75.335)">
                    <path d="M402.844,32.773C405.852,32.773 407.434,35.218 408.262,37.667C409.09,40.112 409.16,42.562 409.16,42.562L410.707,42.562C410.707,42.562 410.996,32.788 417.008,32.773L402.844,32.773Z" style="fill-rule:nonzero;"/>
                </g>
                <g transform="matrix(1,0,0,-1,0,57.02)">
                    <path d="M414.109,32.793C410.691,29.372 410.691,24.247 410.691,24.247L409.16,24.227C409.16,24.227 409.16,29.461 405.832,32.793" style="fill-rule:nonzero;"/>
                </g>
                <g transform="matrix(1,0,0,-1,0,62.129)">
                    <path d="M413.426,26.926C410.008,30.344 404.879,30.344 404.879,30.344L404.879,31.875C404.879,31.875 410.113,31.875 413.445,35.203" style="fill-rule:nonzero;"/>
                </g>
                <g transform="matrix(1,0,0,-1,0,62.168)">
                    <path d="M406.57,26.945C409.988,30.363 415.117,30.363 415.117,30.363L415.117,31.895C415.117,31.895 409.883,31.895 406.551,35.223" style="fill-rule:nonzero;"/>
                </g>
                <g transform="matrix(0,1,-1,0,569.101,-250.66)">
                    <ellipse cx="409.881" cy="159.221" rx="5.9" ry="6.08"/>
                </g>
                <g transform="matrix(0,1,-1,0,565.774,-269.68)">
                    <ellipse cx="417.727" cy="148.047" rx="5.902" ry="6.082"/>
                </g>
                <g transform="matrix(1,0,0,-1,0,296.023)">
                    <path d="M408.227,148.011C408.227,149.199 407.867,150.316 407.234,151.25C406.156,152.851 404.266,153.914 402.145,153.914C398.777,153.914 396.062,151.269 396.062,148.011C396.062,144.757 398.777,142.109 402.145,142.109C405.508,142.109 408.227,144.757 408.227,148.011Z" style="fill-rule:nonzero;"/>
                </g>
                <g transform="matrix(1,0,0,-1,0,282.883)">
                    <path d="M417.023,146.336C414.02,146.336 412.438,143.887 411.609,141.442C410.781,138.992 410.707,136.547 410.707,136.547L409.16,136.547C409.16,136.547 408.875,146.317 402.863,146.336L417.023,146.336Z" style="fill-rule:nonzero;"/>
                </g>
                <g transform="matrix(1,0,0,-1,0,301.203)">
                    <path d="M405.762,146.32C409.18,149.738 409.18,154.867 409.18,154.867L410.707,154.883C410.707,154.883 410.707,149.648 414.039,146.32" style="fill-rule:nonzero;"/>
                </g>
                <g transform="matrix(1,0,0,-1,0,296.09)">
                    <path d="M406.445,152.184C409.863,148.762 414.992,148.762 414.992,148.762L414.992,147.235C414.992,147.235 409.754,147.235 406.426,143.906" style="fill-rule:nonzero;"/>
                </g>
                <g transform="matrix(1,0,0,-1,0,296.059)">
                    <path d="M413.301,152.168C409.883,148.75 404.754,148.75 404.754,148.75L404.754,147.219C404.754,147.219 409.988,147.219 413.316,143.891" style="fill-rule:nonzero;"/>
                </g>
                <g transform="matrix(0,-1,1,0,449.969,489.749)">
                    <ellipse cx="469.859" cy="19.89" rx="5.903" ry="6.082"/>
                </g>
                <g transform="matrix(0,-1,1,0,430.949,493.082)">
                    <ellipse cx="462.016" cy="31.067" rx="5.903" ry="6.082"/>
                </g>
                <g transform="matrix(1,0,0,-1,0,62.203)">
                    <path d="M471.516,31.101C471.516,29.914 471.875,28.797 472.504,27.863C473.586,26.262 475.473,25.199 477.598,25.199C480.961,25.199 483.68,27.844 483.68,31.101C483.68,34.359 480.961,37.004 477.598,37.004C474.23,37.004 471.516,34.359 471.516,31.101Z" style="fill-rule:nonzero;"/>
                </g>
                <g transform="matrix(1,0,0,-1,0,75.335)">
                    <path d="M462.715,32.773C465.723,32.773 467.305,35.218 468.133,37.667C468.961,40.112 469.031,42.562 469.031,42.562L470.578,42.562C470.578,42.562 470.867,32.788 476.879,32.773L462.715,32.773Z" style="fill-rule:nonzero;"/>
                </g>
                <g transform="matrix(1,0,0,-1,0,57.02)">
                    <path d="M473.98,32.793C470.562,29.372 470.562,24.247 470.562,24.247L469.031,24.227C469.031,24.227 469.031,29.461 465.703,32.793" style="fill-rule:nonzero;"/>
                </g>
                <g transform="matrix(1,0,0,-1,0,62.129)">
                    <path d="M473.297,26.926C469.879,30.344 464.75,30.344 464.75,30.344L464.75,31.875C464.75,31.875 469.984,31.875 473.316,35.203" style="fill-rule:nonzero;"/>
                </g>
                <g transform="matrix(1,0,0,-1,0,62.168)">
                    <path d="M466.441,26.945C469.859,30.363 474.988,30.363 474.988,30.363L474.988,31.895C474.988,31.895 469.75,31.895 466.422,35.223" style="fill-rule:nonzero;"/>
                </g>
                <g transform="matrix(0,1,-1,0,628.973,-310.531)">
                    <ellipse cx="469.752" cy="159.221" rx="5.901" ry="6.08"/>
                </g>
                <g transform="matrix(0,1,-1,0,625.645,-329.551)">
                    <ellipse cx="477.598" cy="148.047" rx="5.902" ry="6.082"/>
                </g>
                <g transform="matrix(1,0,0,-1,0,296.023)">
                    <path d="M468.098,148.011C468.098,149.199 467.738,150.316 467.105,151.25C466.027,152.851 464.137,153.914 462.016,153.914C458.648,153.914 455.934,151.269 455.934,148.011C455.934,144.757 458.648,142.109 462.016,142.109C465.379,142.109 468.098,144.757 468.098,148.011Z" style="fill-rule:nonzero;"/>
                </g>
                <g transform="matrix(1,0,0,-1,0,282.883)">
                    <path d="M476.895,146.336C473.891,146.336 472.309,143.887 471.48,141.442C470.652,138.992 470.578,136.547 470.578,136.547L469.031,136.547C469.031,136.547 468.746,146.317 462.734,146.336L476.895,146.336Z" style="fill-rule:nonzero;"/>
                </g>
                <g transform="matrix(1,0,0,-1,0,301.203)">
                    <path d="M465.633,146.32C469.051,149.738 469.051,154.867 469.051,154.867L470.578,154.883C470.578,154.883 470.578,149.648 473.91,146.32" style="fill-rule:nonzero;"/>
                </g>
                <g transform="matrix(1,0,0,-1,0,296.09)">
                    <path d="M466.316,152.184C469.734,148.762 474.863,148.762 474.863,148.762L474.863,147.235C474.863,147.235 469.625,147.235 466.297,143.906" style="fill-rule:nonzero;"/>
                </g>
                <g transform="matrix(1,0,0,-1,0,296.059)">
                    <path d="M473.172,152.168C469.75,148.75 464.625,148.75 464.625,148.75L464.625,147.219C464.625,147.219 469.859,147.219 473.188,143.891" style="fill-rule:nonzero;"/>
                </g>
                <g transform="matrix(0.53388,0,0,1,177.562,1.18169)">
                    <g transform="matrix(34.0888,0,0,34.0888,380.052,25.9905)">
                        <path d="M0.025,-0.25L0.339,-0.676L0.399,-0.676L0.399,-0.25L0.459,-0.25L0.459,-0.148L0.399,-0.148L0.399,0L0.265,0L0.265,-0.148L0.025,-0.148L0.025,-0.25ZM0.072,-0.25L0.265,-0.25L0.265,-0.511L0.072,-0.25Z" style="fill-rule:nonzero;"/>
                    </g>
                </g>
                <g transform="matrix(-0.53388,0,0,-1,232.448,-1.95443)">
                    <g transform="matrix(34.0888,0,0,34.0888,-499.689,-156.233)">
                        <path d="M0.025,-0.25L0.339,-0.676L0.399,-0.676L0.399,-0.25L0.459,-0.25L0.459,-0.148L0.399,-0.148L0.399,0L0.265,0L0.265,-0.148L0.025,-0.148L0.025,-0.25ZM0.072,-0.25L0.265,-0.25L0.265,-0.511L0.072,-0.25Z" style="fill-rule:nonzero;"/>
                    </g>
                </g>
            </g>
        </g>
    </g>
</svg>
