<?xml version="1.0" encoding="UTF-8" standalone="no"?>
<!DOCTYPE svg PUBLIC "-//W3C//DTD SVG 1.1//EN" "http://www.w3.org/Graphics/SVG/1.1/DTD/svg11.dtd">
<svg width="100%" height="100%" viewBox="0 0 133 190" version="1.1" xmlns="http://www.w3.org/2000/svg" xmlns:xlink="http://www.w3.org/1999/xlink" xml:space="preserve" xmlns:serif="http://www.serif.com/" style="fill-rule:evenodd;clip-rule:evenodd;">
    <g transform="matrix(1,0,0,1,-945,-965)">
        <g id="kreuzacht" transform="matrix(1.0231,0,0,0.854373,945.13,140.12)">
            <rect x="0" y="965.48" width="129.704" height="221.683" style="fill:none;"/>
            <g transform="matrix(0.977423,0,0,1.17045,-855.911,969.241)">
                <g transform="matrix(1,0,0,-1,0,182.973)">
                    <path d="M879.59,5.868C879.59,3.035 881.906,0.719 884.738,0.719L999.328,0.719C1002.16,0.719 1004.47,3.035 1004.47,5.868L1004.47,177.106C1004.47,179.938 1002.16,182.254 999.328,182.254L884.738,182.254C881.906,182.254 879.59,179.938 879.59,177.106L879.59,5.868Z" style="fill:white;fill-rule:nonzero;stroke:black;stroke-width:1px;"/>
                </g>
                <g transform="matrix(0,-1,1,0,855.022,924.666)">
                    <ellipse cx="889.844" cy="34.822" rx="2.459" ry="2.535"/>
                </g>
                <g transform="matrix(0,-1,1,0,847.097,926.055)">
                    <ellipse cx="886.576" cy="39.479" rx="2.459" ry="2.533"/>
                </g>
                <g transform="matrix(1,0,0,-1,0,78.988)">
                    <path d="M890.535,39.492C890.535,39 890.684,38.535 890.945,38.144C891.395,37.476 892.184,37.035 893.066,37.035C894.469,37.035 895.602,38.136 895.602,39.492C895.602,40.851 894.469,41.953 893.066,41.953C891.664,41.953 890.535,40.851 890.535,39.492Z" style="fill-rule:nonzero;"/>
                </g>
                <g transform="matrix(1,0,0,-1,0,84.461)">
                    <path d="M886.867,40.191C888.121,40.191 888.781,41.211 889.125,42.231C889.469,43.25 889.5,44.27 889.5,44.27L890.145,44.27C890.145,44.27 890.266,40.199 892.77,40.191L886.867,40.191Z" style="fill-rule:nonzero;"/>
                </g>
                <g transform="matrix(1,0,0,-1,0,76.828)">
                    <path d="M891.562,40.199C890.137,38.773 890.137,36.637 890.137,36.637L889.5,36.629C889.5,36.629 889.5,38.808 888.113,40.199" style="fill-rule:nonzero;"/>
                </g>
                <g transform="matrix(1,0,0,-1,0,78.957)">
                    <path d="M891.277,37.754C889.852,39.176 887.715,39.176 887.715,39.176L887.715,39.816C887.715,39.816 889.898,39.816 891.285,41.203" style="fill-rule:nonzero;"/>
                </g>
                <g transform="matrix(1,0,0,-1,0,78.973)">
                    <path d="M888.418,37.762C889.844,39.188 891.98,39.188 891.98,39.188L891.98,39.825C891.98,39.825 889.801,39.825 888.41,41.211" style="fill-rule:nonzero;"/>
                </g>
                <g transform="matrix(0,1,-1,0,1142.37,-847.571)">
                    <ellipse cx="994.971" cy="147.4" rx="2.459" ry="2.533"/>
                </g>
                <g transform="matrix(0,1,-1,0,1140.98,-855.494)">
                    <ellipse cx="998.238" cy="142.744" rx="2.459" ry="2.535"/>
                </g>
                <g transform="matrix(1,0,0,-1,0,285.458)">
                    <path d="M994.281,142.728C994.281,143.224 994.129,143.688 993.867,144.079C993.418,144.747 992.629,145.188 991.746,145.188C990.344,145.188 989.211,144.087 989.211,142.728C989.211,141.372 990.344,140.27 991.746,140.27C993.148,140.27 994.281,141.372 994.281,142.728Z" style="fill-rule:nonzero;"/>
                </g>
                <g transform="matrix(1,0,0,-1,0,279.984)">
                    <path d="M997.945,142.031C996.695,142.031 996.035,141.011 995.691,139.992C995.344,138.972 995.316,137.953 995.316,137.953L994.672,137.953C994.672,137.953 994.551,142.023 992.047,142.031L997.945,142.031Z" style="fill-rule:nonzero;"/>
                </g>
                <g transform="matrix(1,0,0,-1,0,287.617)">
                    <path d="M993.254,142.023C994.676,143.449 994.676,145.586 994.676,145.586L995.316,145.594C995.316,145.594 995.316,143.41 996.703,142.023" style="fill-rule:nonzero;"/>
                </g>
                <g transform="matrix(1,0,0,-1,0,285.489)">
                    <path d="M993.539,144.469C994.961,143.044 997.098,143.044 997.098,143.044L997.098,142.407C997.098,142.407 994.918,142.407 993.531,141.02" style="fill-rule:nonzero;"/>
                </g>
                <g transform="matrix(1,0,0,-1,0,285.473)">
                    <path d="M996.395,144.461C994.969,143.035 992.832,143.035 992.832,143.035L992.832,142.399C992.832,142.399 995.016,142.399 996.402,141.012" style="fill-rule:nonzero;"/>
                </g>
                <g transform="matrix(0,-1,1,0,892.637,932.418)">
                    <ellipse cx="912.527" cy="19.89" rx="5.902" ry="6.082"/>
                </g>
                <g transform="matrix(0,-1,1,0,873.617,935.75)">
                    <ellipse cx="904.684" cy="31.067" rx="5.903" ry="6.082"/>
                </g>
                <g transform="matrix(1,0,0,-1,0,62.203)">
                    <path d="M914.184,31.101C914.184,29.914 914.543,28.797 915.172,27.863C916.254,26.262 918.141,25.199 920.266,25.199C923.629,25.199 926.348,27.844 926.348,31.101C926.348,34.359 923.629,37.004 920.266,37.004C916.898,37.004 914.184,34.359 914.184,31.101Z" style="fill-rule:nonzero;"/>
                </g>
                <g transform="matrix(1,0,0,-1,0,75.335)">
                    <path d="M905.383,32.773C908.391,32.773 909.973,35.218 910.801,37.667C911.629,40.112 911.699,42.562 911.699,42.562L913.246,42.562C913.246,42.562 913.535,32.788 919.547,32.773L905.383,32.773Z" style="fill-rule:nonzero;"/>
                </g>
                <g transform="matrix(1,0,0,-1,0,57.02)">
                    <path d="M916.648,32.793C913.23,29.372 913.23,24.247 913.23,24.247L911.699,24.227C911.699,24.227 911.699,29.461 908.371,32.793" style="fill-rule:nonzero;"/>
                </g>
                <g transform="matrix(1,0,0,-1,0,62.129)">
                    <path d="M915.965,26.926C912.547,30.344 907.418,30.344 907.418,30.344L907.418,31.875C907.418,31.875 912.652,31.875 915.98,35.203" style="fill-rule:nonzero;"/>
                </g>
                <g transform="matrix(1,0,0,-1,0,62.168)">
                    <path d="M909.109,26.945C912.527,30.363 917.656,30.363 917.656,30.363L917.656,31.895C917.656,31.895 912.418,31.895 909.09,35.223" style="fill-rule:nonzero;"/>
                </g>
                <g transform="matrix(0,-1,1,0,852.033,973.022)">
                    <ellipse cx="912.527" cy="60.494" rx="5.9" ry="6.082"/>
                </g>
                <g transform="matrix(0,-1,1,0,833.016,976.352)">
                    <ellipse cx="904.684" cy="71.668" rx="5.902" ry="6.082"/>
                </g>
                <g transform="matrix(1,0,0,-1,0,143.406)">
                    <path d="M914.184,71.703C914.184,70.515 914.543,69.398 915.172,68.465C916.254,66.863 918.141,65.801 920.266,65.801C923.629,65.801 926.348,68.445 926.348,71.703C926.348,74.961 923.629,77.605 920.266,77.605C916.898,77.605 914.184,74.961 914.184,71.703Z" style="fill-rule:nonzero;"/>
                </g>
                <g transform="matrix(1,0,0,-1,0,156.543)">
                    <path d="M905.383,73.379C908.391,73.379 909.973,75.824 910.801,78.273C911.629,80.719 911.699,83.164 911.699,83.164L913.246,83.164C913.246,83.164 913.535,73.395 919.547,73.379L905.383,73.379Z" style="fill-rule:nonzero;"/>
                </g>
                <g transform="matrix(1,0,0,-1,0,138.227)">
                    <path d="M916.648,73.395C913.23,69.977 913.23,64.848 913.23,64.848L911.699,64.832C911.699,64.832 911.699,70.067 908.371,73.395" style="fill-rule:nonzero;"/>
                </g>
                <g transform="matrix(1,0,0,-1,0,143.332)">
                    <path d="M915.965,67.527C912.547,70.945 907.418,70.945 907.418,70.945L907.418,72.473C907.418,72.473 912.652,72.473 915.98,75.805" style="fill-rule:nonzero;"/>
                </g>
                <g transform="matrix(1,0,0,-1,0,143.371)">
                    <path d="M909.109,67.547C912.527,70.965 917.656,70.965 917.656,70.965L917.656,72.496C917.656,72.496 912.418,72.496 909.09,75.824" style="fill-rule:nonzero;"/>
                </g>
                <g transform="matrix(0,1,-1,0,1031.04,-793.803)">
                    <ellipse cx="912.42" cy="118.617" rx="5.902" ry="6.08"/>
                </g>
                <g transform="matrix(0,1,-1,0,1027.71,-812.821)">
                    <ellipse cx="920.266" cy="107.446" rx="5.902" ry="6.082"/>
                </g>
                <g transform="matrix(1,0,0,-1,0,214.817)">
                    <path d="M910.766,107.407C910.766,108.594 910.406,109.712 909.773,110.649C908.695,112.251 906.805,113.309 904.684,113.309C901.316,113.309 898.602,110.665 898.602,107.407C898.602,104.153 901.316,101.508 904.684,101.508C908.047,101.508 910.766,104.153 910.766,107.407Z" style="fill-rule:nonzero;"/>
                </g>
                <g transform="matrix(1,0,0,-1,0,201.679)">
                    <path d="M919.562,105.734C916.559,105.734 914.977,103.284 914.148,100.839C913.32,98.39 913.246,95.945 913.246,95.945L911.699,95.945C911.699,95.945 911.41,105.714 905.402,105.734L919.562,105.734Z" style="fill-rule:nonzero;"/>
                </g>
                <g transform="matrix(1,0,0,-1,0,220)">
                    <path d="M908.301,105.719C911.719,109.137 911.719,114.266 911.719,114.266L913.246,114.281C913.246,114.281 913.246,109.047 916.574,105.719" style="fill-rule:nonzero;"/>
                </g>
                <g transform="matrix(1,0,0,-1,0,214.887)">
                    <path d="M908.984,111.582C912.402,108.164 917.531,108.164 917.531,108.164L917.531,106.633C917.531,106.633 912.293,106.633 908.965,103.305" style="fill-rule:nonzero;"/>
                </g>
                <g transform="matrix(1,0,0,-1,0,214.855)">
                    <path d="M915.84,111.566C912.418,108.148 907.293,108.148 907.293,108.148L907.293,106.621C907.293,106.621 912.527,106.621 915.855,103.289" style="fill-rule:nonzero;"/>
                </g>
                <g transform="matrix(0,1,-1,0,1071.64,-753.199)">
                    <ellipse cx="912.42" cy="159.221" rx="5.9" ry="6.08"/>
                </g>
                <g transform="matrix(0,1,-1,0,1068.31,-772.219)">
                    <ellipse cx="920.266" cy="148.047" rx="5.902" ry="6.082"/>
                </g>
                <g transform="matrix(1,0,0,-1,0,296.023)">
                    <path d="M910.766,148.011C910.766,149.199 910.406,150.316 909.773,151.25C908.695,152.851 906.805,153.914 904.684,153.914C901.316,153.914 898.602,151.269 898.602,148.011C898.602,144.757 901.316,142.109 904.684,142.109C908.047,142.109 910.766,144.757 910.766,148.011Z" style="fill-rule:nonzero;"/>
                </g>
                <g transform="matrix(1,0,0,-1,0,282.883)">
                    <path d="M919.562,146.336C916.559,146.336 914.977,143.887 914.148,141.442C913.32,138.992 913.246,136.547 913.246,136.547L911.699,136.547C911.699,136.547 911.41,146.317 905.402,146.336L919.562,146.336Z" style="fill-rule:nonzero;"/>
                </g>
                <g transform="matrix(1,0,0,-1,0,301.203)">
                    <path d="M908.301,146.32C911.719,149.738 911.719,154.867 911.719,154.867L913.246,154.883C913.246,154.883 913.246,149.648 916.574,146.32" style="fill-rule:nonzero;"/>
                </g>
                <g transform="matrix(1,0,0,-1,0,296.09)">
                    <path d="M908.984,152.184C912.402,148.762 917.531,148.762 917.531,148.762L917.531,147.235C917.531,147.235 912.293,147.235 908.965,143.906" style="fill-rule:nonzero;"/>
                </g>
                <g transform="matrix(1,0,0,-1,0,296.059)">
                    <path d="M915.84,152.168C912.418,148.75 907.293,148.75 907.293,148.75L907.293,147.219C907.293,147.219 912.527,147.219 915.855,143.891" style="fill-rule:nonzero;"/>
                </g>
                <g transform="matrix(0,-1,1,0,952.507,992.288)">
                    <ellipse cx="972.398" cy="19.891" rx="5.902" ry="6.082"/>
                </g>
                <g transform="matrix(0,-1,1,0,933.489,995.622)">
                    <ellipse cx="964.555" cy="31.066" rx="5.903" ry="6.082"/>
                </g>
                <g transform="matrix(1,0,0,-1,0,62.203)">
                    <path d="M974.055,31.101C974.055,29.914 974.414,28.797 975.043,27.863C976.125,26.262 978.012,25.199 980.137,25.199C983.5,25.199 986.219,27.844 986.219,31.101C986.219,34.359 983.5,37.004 980.137,37.004C976.77,37.004 974.055,34.359 974.055,31.101Z" style="fill-rule:nonzero;"/>
                </g>
                <g transform="matrix(1,0,0,-1,0,75.335)">
                    <path d="M965.254,32.773C968.262,32.773 969.844,35.218 970.672,37.667C971.5,40.112 971.57,42.562 971.57,42.562L973.117,42.562C973.117,42.562 973.406,32.788 979.414,32.773L965.254,32.773Z" style="fill-rule:nonzero;"/>
                </g>
                <g transform="matrix(1,0,0,-1,0,57.02)">
                    <path d="M976.52,32.793C973.102,29.372 973.102,24.247 973.102,24.247L971.57,24.227C971.57,24.227 971.57,29.461 968.242,32.793" style="fill-rule:nonzero;"/>
                </g>
                <g transform="matrix(1,0,0,-1,0,62.129)">
                    <path d="M975.836,26.926C972.418,30.344 967.289,30.344 967.289,30.344L967.289,31.875C967.289,31.875 972.523,31.875 975.852,35.203" style="fill-rule:nonzero;"/>
                </g>
                <g transform="matrix(1,0,0,-1,0,62.168)">
                    <path d="M968.98,26.945C972.398,30.363 977.527,30.363 977.527,30.363L977.527,31.895C977.527,31.895 972.289,31.895 968.961,35.223" style="fill-rule:nonzero;"/>
                </g>
                <g transform="matrix(0,-1,1,0,911.903,1032.89)">
                    <ellipse cx="972.398" cy="60.495" rx="5.9" ry="6.082"/>
                </g>
                <g transform="matrix(0,-1,1,0,892.887,1036.22)">
                    <ellipse cx="964.555" cy="71.668" rx="5.902" ry="6.082"/>
                </g>
                <g transform="matrix(1,0,0,-1,0,143.406)">
                    <path d="M974.055,71.703C974.055,70.515 974.414,69.398 975.043,68.465C976.125,66.863 978.012,65.801 980.137,65.801C983.5,65.801 986.219,68.445 986.219,71.703C986.219,74.961 983.5,77.605 980.137,77.605C976.77,77.605 974.055,74.961 974.055,71.703Z" style="fill-rule:nonzero;"/>
                </g>
                <g transform="matrix(1,0,0,-1,0,156.543)">
                    <path d="M965.254,73.379C968.262,73.379 969.844,75.824 970.672,78.273C971.5,80.719 971.57,83.164 971.57,83.164L973.117,83.164C973.117,83.164 973.406,73.395 979.414,73.379L965.254,73.379Z" style="fill-rule:nonzero;"/>
                </g>
                <g transform="matrix(1,0,0,-1,0,138.227)">
                    <path d="M976.52,73.395C973.102,69.977 973.102,64.848 973.102,64.848L971.57,64.832C971.57,64.832 971.57,70.067 968.242,73.395" style="fill-rule:nonzero;"/>
                </g>
                <g transform="matrix(1,0,0,-1,0,143.332)">
                    <path d="M975.836,67.527C972.418,70.945 967.289,70.945 967.289,70.945L967.289,72.473C967.289,72.473 972.523,72.473 975.852,75.805" style="fill-rule:nonzero;"/>
                </g>
                <g transform="matrix(1,0,0,-1,0,143.371)">
                    <path d="M968.98,67.547C972.398,70.965 977.527,70.965 977.527,70.965L977.527,72.496C977.527,72.496 972.289,72.496 968.961,75.824" style="fill-rule:nonzero;"/>
                </g>
                <g transform="matrix(0,1,-1,0,1090.91,-853.671)">
                    <ellipse cx="972.289" cy="118.618" rx="5.902" ry="6.082"/>
                </g>
                <g transform="matrix(0,1,-1,0,1087.58,-872.691)">
                    <ellipse cx="980.137" cy="107.445" rx="5.902" ry="6.082"/>
                </g>
                <g transform="matrix(1,0,0,-1,0,214.817)">
                    <path d="M970.637,107.407C970.637,108.594 970.277,109.712 969.645,110.649C968.566,112.251 966.676,113.309 964.555,113.309C961.188,113.309 958.473,110.665 958.473,107.407C958.473,104.153 961.188,101.508 964.555,101.508C967.918,101.508 970.637,104.153 970.637,107.407Z" style="fill-rule:nonzero;"/>
                </g>
                <g transform="matrix(1,0,0,-1,0,201.679)">
                    <path d="M979.434,105.734C976.43,105.734 974.844,103.284 974.02,100.839C973.191,98.39 973.117,95.945 973.117,95.945L971.57,95.945C971.57,95.945 971.281,105.714 965.273,105.734L979.434,105.734Z" style="fill-rule:nonzero;"/>
                </g>
                <g transform="matrix(1,0,0,-1,0,220)">
                    <path d="M968.172,105.719C971.59,109.137 971.59,114.266 971.59,114.266L973.117,114.281C973.117,114.281 973.117,109.047 976.445,105.719" style="fill-rule:nonzero;"/>
                </g>
                <g transform="matrix(1,0,0,-1,0,214.887)">
                    <path d="M968.855,111.582C972.273,108.164 977.402,108.164 977.402,108.164L977.402,106.633C977.402,106.633 972.164,106.633 968.836,103.305" style="fill-rule:nonzero;"/>
                </g>
                <g transform="matrix(1,0,0,-1,0,214.855)">
                    <path d="M975.711,111.566C972.289,108.148 967.164,108.148 967.164,108.148L967.164,106.621C967.164,106.621 972.398,106.621 975.727,103.289" style="fill-rule:nonzero;"/>
                </g>
                <g transform="matrix(0,1,-1,0,1131.51,-813.068)">
                    <ellipse cx="972.289" cy="159.221" rx="5.9" ry="6.082"/>
                </g>
                <g transform="matrix(0,1,-1,0,1128.18,-832.09)">
                    <ellipse cx="980.137" cy="148.047" rx="5.902" ry="6.082"/>
                </g>
                <g transform="matrix(1,0,0,-1,0,296.023)">
                    <path d="M970.637,148.011C970.637,149.199 970.277,150.316 969.645,151.25C968.566,152.851 966.676,153.914 964.555,153.914C961.188,153.914 958.473,151.269 958.473,148.011C958.473,144.757 961.188,142.109 964.555,142.109C967.918,142.109 970.637,144.757 970.637,148.011Z" style="fill-rule:nonzero;"/>
                </g>
                <g transform="matrix(1,0,0,-1,0,282.883)">
                    <path d="M979.434,146.336C976.43,146.336 974.844,143.887 974.02,141.442C973.191,138.992 973.117,136.547 973.117,136.547L971.57,136.547C971.57,136.547 971.281,146.317 965.273,146.336L979.434,146.336Z" style="fill-rule:nonzero;"/>
                </g>
                <g transform="matrix(1,0,0,-1,0,301.203)">
                    <path d="M968.172,146.32C971.59,149.738 971.59,154.867 971.59,154.867L973.117,154.883C973.117,154.883 973.117,149.648 976.445,146.32" style="fill-rule:nonzero;"/>
                </g>
                <g transform="matrix(1,0,0,-1,0,296.09)">
                    <path d="M968.855,152.184C972.273,148.762 977.402,148.762 977.402,148.762L977.402,147.235C977.402,147.235 972.164,147.235 968.836,143.906" style="fill-rule:nonzero;"/>
                </g>
                <g transform="matrix(1,0,0,-1,0,296.059)">
                    <path d="M975.711,152.168C972.289,148.75 967.164,148.75 967.164,148.75L967.164,147.219C967.164,147.219 972.398,147.219 975.727,143.891" style="fill-rule:nonzero;"/>
                </g>
                <g transform="matrix(0.53388,0,0,1,411.804,1.18169)">
                    <g transform="matrix(34.0888,0,0,34.0888,882.587,25.9905)">
                        <path d="M0.341,-0.374C0.387,-0.34 0.42,-0.308 0.438,-0.279C0.456,-0.249 0.465,-0.215 0.465,-0.177C0.465,-0.124 0.445,-0.079 0.405,-0.042C0.364,-0.005 0.31,0.014 0.241,0.014C0.175,0.014 0.125,-0.002 0.089,-0.035C0.053,-0.067 0.035,-0.106 0.035,-0.153C0.035,-0.188 0.045,-0.219 0.066,-0.246C0.087,-0.273 0.121,-0.297 0.169,-0.319C0.117,-0.359 0.083,-0.392 0.069,-0.417C0.054,-0.443 0.046,-0.472 0.046,-0.506C0.046,-0.55 0.065,-0.589 0.103,-0.623C0.14,-0.656 0.192,-0.673 0.257,-0.673C0.32,-0.673 0.369,-0.658 0.403,-0.629C0.437,-0.599 0.454,-0.563 0.454,-0.521C0.454,-0.49 0.445,-0.463 0.427,-0.439C0.408,-0.415 0.38,-0.393 0.341,-0.374ZM0.304,-0.399C0.316,-0.415 0.325,-0.433 0.331,-0.454C0.336,-0.474 0.339,-0.496 0.339,-0.52C0.339,-0.562 0.33,-0.595 0.312,-0.617C0.298,-0.634 0.279,-0.643 0.255,-0.643C0.234,-0.643 0.215,-0.635 0.2,-0.619C0.184,-0.604 0.177,-0.584 0.177,-0.561C0.177,-0.537 0.185,-0.512 0.202,-0.487C0.219,-0.461 0.253,-0.432 0.304,-0.399ZM0.206,-0.296C0.196,-0.287 0.189,-0.278 0.185,-0.271C0.178,-0.26 0.172,-0.243 0.167,-0.221C0.162,-0.199 0.159,-0.177 0.159,-0.153C0.159,-0.122 0.163,-0.097 0.171,-0.076C0.179,-0.055 0.19,-0.04 0.204,-0.031C0.219,-0.022 0.234,-0.018 0.249,-0.018C0.273,-0.018 0.293,-0.026 0.309,-0.044C0.325,-0.061 0.333,-0.085 0.333,-0.115C0.333,-0.178 0.291,-0.239 0.206,-0.296Z" style="fill-rule:nonzero;"/>
                    </g>
                </g>
                <g transform="matrix(-0.53388,0,0,-1,466.691,-1.95443)">
                    <g transform="matrix(34.0888,0,0,34.0888,-1002.23,-156.233)">
                        <path d="M0.341,-0.374C0.387,-0.34 0.42,-0.308 0.438,-0.279C0.456,-0.249 0.465,-0.215 0.465,-0.177C0.465,-0.124 0.445,-0.079 0.405,-0.042C0.364,-0.005 0.31,0.014 0.241,0.014C0.175,0.014 0.125,-0.002 0.089,-0.035C0.053,-0.067 0.035,-0.106 0.035,-0.153C0.035,-0.188 0.045,-0.219 0.066,-0.246C0.087,-0.273 0.121,-0.297 0.169,-0.319C0.117,-0.359 0.083,-0.392 0.069,-0.417C0.054,-0.443 0.046,-0.472 0.046,-0.506C0.046,-0.55 0.065,-0.589 0.103,-0.623C0.14,-0.656 0.192,-0.673 0.257,-0.673C0.32,-0.673 0.369,-0.658 0.403,-0.629C0.437,-0.599 0.454,-0.563 0.454,-0.521C0.454,-0.49 0.445,-0.463 0.427,-0.439C0.408,-0.415 0.38,-0.393 0.341,-0.374ZM0.304,-0.399C0.316,-0.415 0.325,-0.433 0.331,-0.454C0.336,-0.474 0.339,-0.496 0.339,-0.52C0.339,-0.562 0.33,-0.595 0.312,-0.617C0.298,-0.634 0.279,-0.643 0.255,-0.643C0.234,-0.643 0.215,-0.635 0.2,-0.619C0.184,-0.604 0.177,-0.584 0.177,-0.561C0.177,-0.537 0.185,-0.512 0.202,-0.487C0.219,-0.461 0.253,-0.432 0.304,-0.399ZM0.206,-0.296C0.196,-0.287 0.189,-0.278 0.185,-0.271C0.178,-0.26 0.172,-0.243 0.167,-0.221C0.162,-0.199 0.159,-0.177 0.159,-0.153C0.159,-0.122 0.163,-0.097 0.171,-0.076C0.179,-0.055 0.19,-0.04 0.204,-0.031C0.219,-0.022 0.234,-0.018 0.249,-0.018C0.273,-0.018 0.293,-0.026 0.309,-0.044C0.325,-0.061 0.333,-0.085 0.333,-0.115C0.333,-0.178 0.291,-0.239 0.206,-0.296Z" style="fill-rule:nonzero;"/>
                    </g>
                </g>
            </g>
        </g>
    </g>
</svg>
