<?xml version="1.0" encoding="UTF-8" standalone="no"?>
<!DOCTYPE svg PUBLIC "-//W3C//DTD SVG 1.1//EN" "http://www.w3.org/Graphics/SVG/1.1/DTD/svg11.dtd">
<svg width="100%" height="100%" viewBox="0 0 134 190" version="1.1" xmlns="http://www.w3.org/2000/svg" xmlns:xlink="http://www.w3.org/1999/xlink" xml:space="preserve" xmlns:serif="http://www.serif.com/" style="fill-rule:evenodd;clip-rule:evenodd;">
    <g transform="matrix(1,0,0,1,-281,-965)">
        <g id="kreuzdrei" transform="matrix(1.0231,0,0,0.854373,281.63,140.12)">
            <rect x="0" y="965.48" width="129.704" height="221.683" style="fill:none;"/>
            <g id="kreuzdrei1" serif:id="kreuzdrei" transform="matrix(0.977423,0,0,1.17045,-241.923,969.241)">
                <g transform="matrix(1,0,0,-1,0,182.973)">
                    <path d="M251.418,5.868C251.418,3.035 253.734,0.719 256.57,0.719L371.16,0.719C373.988,0.719 376.305,3.035 376.305,5.868L376.305,177.106C376.305,179.938 373.988,182.254 371.16,182.254L256.57,182.254C253.734,182.254 251.418,179.938 251.418,177.106L251.418,5.868Z" style="fill:white;fill-rule:nonzero;stroke:black;stroke-width:1px;"/>
                </g>
                <g transform="matrix(0,-1,1,0,226.854,296.498)">
                    <ellipse cx="261.676" cy="34.822" rx="2.459" ry="2.535"/>
                </g>
                <g transform="matrix(0,-1,1,0,218.927,297.885)">
                    <ellipse cx="258.406" cy="39.479" rx="2.459" ry="2.535"/>
                </g>
                <g transform="matrix(1,0,0,-1,0,78.988)">
                    <path d="M262.363,39.492C262.363,39 262.516,38.535 262.777,38.144C263.227,37.476 264.016,37.035 264.898,37.035C266.301,37.035 267.434,38.136 267.434,39.492C267.434,40.851 266.301,41.953 264.898,41.953C263.496,41.953 262.363,40.851 262.363,39.492Z" style="fill-rule:nonzero;"/>
                </g>
                <g transform="matrix(1,0,0,-1,0,84.461)">
                    <path d="M258.699,40.191C259.949,40.191 260.609,41.211 260.957,42.231C261.301,43.25 261.332,44.27 261.332,44.27L261.977,44.27C261.977,44.27 262.094,40.199 264.598,40.191L258.699,40.191Z" style="fill-rule:nonzero;"/>
                </g>
                <g transform="matrix(1,0,0,-1,0,76.828)">
                    <path d="M263.391,40.199C261.969,38.773 261.969,36.637 261.969,36.637L261.332,36.629C261.332,36.629 261.332,38.808 259.941,40.199" style="fill-rule:nonzero;"/>
                </g>
                <g transform="matrix(1,0,0,-1,0,78.957)">
                    <path d="M263.105,37.754C261.684,39.176 259.547,39.176 259.547,39.176L259.547,39.816C259.547,39.816 261.727,39.816 263.113,41.203" style="fill-rule:nonzero;"/>
                </g>
                <g transform="matrix(1,0,0,-1,0,78.973)">
                    <path d="M260.25,37.762C261.676,39.188 263.812,39.188 263.812,39.188L263.812,39.825C263.812,39.825 261.629,39.825 260.242,41.211" style="fill-rule:nonzero;"/>
                </g>
                <g transform="matrix(0,1,-1,0,514.197,-219.397)">
                    <ellipse cx="366.797" cy="147.4" rx="2.459" ry="2.535"/>
                </g>
                <g transform="matrix(0,1,-1,0,512.811,-227.323)">
                    <ellipse cx="370.067" cy="142.744" rx="2.459" ry="2.536"/>
                </g>
                <g transform="matrix(1,0,0,-1,0,285.458)">
                    <path d="M366.109,142.728C366.109,143.224 365.957,143.688 365.695,144.079C365.246,144.747 364.457,145.188 363.574,145.188C362.172,145.188 361.039,144.087 361.039,142.728C361.039,141.372 362.172,140.27 363.574,140.27C364.977,140.27 366.109,141.372 366.109,142.728Z" style="fill-rule:nonzero;"/>
                </g>
                <g transform="matrix(1,0,0,-1,0,279.984)">
                    <path d="M369.773,142.031C368.523,142.031 367.863,141.011 367.516,139.992C367.172,138.972 367.141,137.953 367.141,137.953L366.496,137.953C366.496,137.953 366.379,142.023 363.875,142.031L369.773,142.031Z" style="fill-rule:nonzero;"/>
                </g>
                <g transform="matrix(1,0,0,-1,0,287.617)">
                    <path d="M365.082,142.023C366.504,143.449 366.504,145.586 366.504,145.586L367.141,145.594C367.141,145.594 367.141,143.41 368.527,142.023" style="fill-rule:nonzero;"/>
                </g>
                <g transform="matrix(1,0,0,-1,0,285.489)">
                    <path d="M365.367,144.469C366.789,143.044 368.926,143.044 368.926,143.044L368.926,142.407C368.926,142.407 366.746,142.407 365.359,141.02" style="fill-rule:nonzero;"/>
                </g>
                <g transform="matrix(1,0,0,-1,0,285.473)">
                    <path d="M368.223,144.461C366.797,143.035 364.66,143.035 364.66,143.035L364.66,142.399C364.66,142.399 366.844,142.399 368.23,141.012" style="fill-rule:nonzero;"/>
                </g>
                <g transform="matrix(0,1,-1,0,473.403,-154.962)">
                    <ellipse cx="314.182" cy="159.221" rx="5.9" ry="6.08"/>
                </g>
                <g transform="matrix(0,1,-1,0,470.074,-173.98)">
                    <ellipse cx="322.027" cy="148.047" rx="5.902" ry="6.082"/>
                </g>
                <g transform="matrix(1,0,0,-1,0,296.023)">
                    <path d="M312.527,148.011C312.527,149.199 312.168,150.316 311.535,151.25C310.457,152.851 308.566,153.914 306.445,153.914C303.078,153.914 300.363,151.269 300.363,148.011C300.363,144.757 303.078,142.109 306.445,142.109C309.809,142.109 312.527,144.757 312.527,148.011Z" style="fill-rule:nonzero;"/>
                </g>
                <g transform="matrix(1,0,0,-1,0,282.883)">
                    <path d="M321.324,146.336C318.32,146.336 316.738,143.887 315.91,141.442C315.082,138.992 315.008,136.547 315.008,136.547L313.461,136.547C313.461,136.547 313.176,146.317 307.164,146.336L321.324,146.336Z" style="fill-rule:nonzero;"/>
                </g>
                <g transform="matrix(1,0,0,-1,0,301.203)">
                    <path d="M310.062,146.32C313.48,149.738 313.48,154.867 313.48,154.867L315.008,154.883C315.008,154.883 315.008,149.648 318.34,146.32" style="fill-rule:nonzero;"/>
                </g>
                <g transform="matrix(1,0,0,-1,0,296.09)">
                    <path d="M310.746,152.184C314.164,148.762 319.293,148.762 319.293,148.762L319.293,147.235C319.293,147.235 314.055,147.235 310.727,143.906" style="fill-rule:nonzero;"/>
                </g>
                <g transform="matrix(1,0,0,-1,0,296.059)">
                    <path d="M317.602,152.168C314.184,148.75 309.055,148.75 309.055,148.75L309.055,147.219C309.055,147.219 314.289,147.219 317.617,143.891" style="fill-rule:nonzero;"/>
                </g>
                <g transform="matrix(0,-1,1,0,236.712,391.865)">
                    <ellipse cx="314.289" cy="77.577" rx="5.9" ry="6.082"/>
                </g>
                <g transform="matrix(0,-1,1,0,217.695,395.195)">
                    <ellipse cx="306.445" cy="88.75" rx="5.902" ry="6.082"/>
                </g>
                <g transform="matrix(1,0,0,-1,0,177.571)">
                    <path d="M315.945,88.786C315.945,87.598 316.305,86.481 316.934,85.548C318.016,83.946 319.902,82.883 322.027,82.883C325.391,82.883 328.109,85.528 328.109,88.786C328.109,92.04 325.391,94.688 322.027,94.688C318.66,94.688 315.945,92.04 315.945,88.786Z" style="fill-rule:nonzero;"/>
                </g>
                <g transform="matrix(1,0,0,-1,0,190.707)">
                    <path d="M307.145,90.461C310.152,90.461 311.734,92.906 312.562,95.352C313.391,97.801 313.461,100.246 313.461,100.246L315.008,100.246C315.008,100.246 315.297,90.477 321.309,90.461L307.145,90.461Z" style="fill-rule:nonzero;"/>
                </g>
                <g transform="matrix(1,0,0,-1,0,172.391)">
                    <path d="M318.41,90.477C314.992,87.059 314.992,81.93 314.992,81.93L313.461,81.914C313.461,81.914 313.461,87.149 310.133,90.477" style="fill-rule:nonzero;"/>
                </g>
                <g transform="matrix(1,0,0,-1,0,177.5)">
                    <path d="M317.727,84.613C314.309,88.031 309.18,88.031 309.18,88.031L309.18,89.559C309.18,89.559 314.414,89.559 317.746,92.887" style="fill-rule:nonzero;"/>
                </g>
                <g transform="matrix(1,0,0,-1,0,177.535)">
                    <path d="M310.871,84.629C314.289,88.047 319.418,88.047 319.418,88.047L319.418,89.578C319.418,89.578 314.184,89.578 310.852,92.906" style="fill-rule:nonzero;"/>
                </g>
                <g transform="matrix(0,-1,1,0,294.399,334.179)">
                    <ellipse cx="314.289" cy="19.89" rx="5.903" ry="6.082"/>
                </g>
                <g transform="matrix(0,-1,1,0,275.378,337.512)">
                    <ellipse cx="306.445" cy="31.067" rx="5.903" ry="6.082"/>
                </g>
                <g transform="matrix(1,0,0,-1,0,62.203)">
                    <path d="M315.945,31.101C315.945,29.914 316.305,28.797 316.934,27.863C318.016,26.262 319.902,25.199 322.027,25.199C325.391,25.199 328.109,27.844 328.109,31.101C328.109,34.359 325.391,37.004 322.027,37.004C318.66,37.004 315.945,34.359 315.945,31.101Z" style="fill-rule:nonzero;"/>
                </g>
                <g transform="matrix(1,0,0,-1,0,75.335)">
                    <path d="M307.145,32.773C310.152,32.773 311.734,35.218 312.562,37.667C313.391,40.112 313.461,42.562 313.461,42.562L315.008,42.562C315.008,42.562 315.297,32.788 321.309,32.773L307.145,32.773Z" style="fill-rule:nonzero;"/>
                </g>
                <g transform="matrix(1,0,0,-1,0,57.02)">
                    <path d="M318.41,32.793C314.992,29.372 314.992,24.247 314.992,24.247L313.461,24.227C313.461,24.227 313.461,29.461 310.133,32.793" style="fill-rule:nonzero;"/>
                </g>
                <g transform="matrix(1,0,0,-1,0,62.129)">
                    <path d="M317.727,26.926C314.309,30.344 309.18,30.344 309.18,30.344L309.18,31.875C309.18,31.875 314.414,31.875 317.746,35.203" style="fill-rule:nonzero;"/>
                </g>
                <g transform="matrix(1,0,0,-1,0,62.168)">
                    <path d="M310.871,26.945C314.289,30.363 319.418,30.363 319.418,30.363L319.418,31.895C319.418,31.895 314.184,31.895 310.852,35.223" style="fill-rule:nonzero;"/>
                </g>
                <g transform="matrix(0.53388,0,0,1,119.001,1.18169)">
                    <g transform="matrix(34.0888,0,0,34.0888,254.418,25.9905)">
                        <path d="M0.148,-0.332L0.148,-0.349C0.185,-0.36 0.211,-0.37 0.225,-0.379C0.239,-0.388 0.252,-0.403 0.262,-0.422C0.273,-0.441 0.278,-0.46 0.278,-0.479C0.278,-0.507 0.268,-0.53 0.248,-0.549C0.229,-0.568 0.204,-0.578 0.175,-0.578C0.129,-0.578 0.09,-0.554 0.059,-0.506L0.041,-0.512C0.064,-0.567 0.094,-0.607 0.131,-0.635C0.167,-0.662 0.208,-0.676 0.253,-0.676C0.299,-0.676 0.337,-0.662 0.366,-0.634C0.396,-0.606 0.411,-0.573 0.411,-0.536C0.411,-0.511 0.404,-0.488 0.39,-0.465C0.377,-0.442 0.355,-0.423 0.325,-0.405C0.363,-0.387 0.392,-0.364 0.412,-0.337C0.432,-0.309 0.442,-0.275 0.442,-0.234C0.442,-0.165 0.417,-0.107 0.367,-0.058C0.317,-0.01 0.25,0.014 0.167,0.014C0.111,0.014 0.07,0.005 0.044,-0.014C0.025,-0.027 0.016,-0.043 0.016,-0.064C0.016,-0.079 0.021,-0.092 0.032,-0.102C0.043,-0.113 0.055,-0.118 0.069,-0.118C0.08,-0.118 0.09,-0.116 0.1,-0.111C0.105,-0.109 0.123,-0.094 0.155,-0.069C0.187,-0.043 0.216,-0.03 0.244,-0.03C0.268,-0.03 0.289,-0.039 0.306,-0.058C0.323,-0.077 0.332,-0.102 0.332,-0.131C0.332,-0.175 0.316,-0.217 0.285,-0.254C0.254,-0.292 0.208,-0.318 0.148,-0.332Z" style="fill-rule:nonzero;"/>
                    </g>
                </g>
                <g transform="matrix(-0.53388,0,0,-1,173.887,-1.95443)">
                    <g transform="matrix(34.0888,0,0,34.0888,-374.055,-156.233)">
                        <path d="M0.148,-0.332L0.148,-0.349C0.185,-0.36 0.211,-0.37 0.225,-0.379C0.239,-0.388 0.252,-0.403 0.262,-0.422C0.273,-0.441 0.278,-0.46 0.278,-0.479C0.278,-0.507 0.268,-0.53 0.248,-0.549C0.229,-0.568 0.204,-0.578 0.175,-0.578C0.129,-0.578 0.09,-0.554 0.059,-0.506L0.041,-0.512C0.064,-0.567 0.094,-0.607 0.131,-0.635C0.167,-0.662 0.208,-0.676 0.253,-0.676C0.299,-0.676 0.337,-0.662 0.366,-0.634C0.396,-0.606 0.411,-0.573 0.411,-0.536C0.411,-0.511 0.404,-0.488 0.39,-0.465C0.377,-0.442 0.355,-0.423 0.325,-0.405C0.363,-0.387 0.392,-0.364 0.412,-0.337C0.432,-0.309 0.442,-0.275 0.442,-0.234C0.442,-0.165 0.417,-0.107 0.367,-0.058C0.317,-0.01 0.25,0.014 0.167,0.014C0.111,0.014 0.07,0.005 0.044,-0.014C0.025,-0.027 0.016,-0.043 0.016,-0.064C0.016,-0.079 0.021,-0.092 0.032,-0.102C0.043,-0.113 0.055,-0.118 0.069,-0.118C0.08,-0.118 0.09,-0.116 0.1,-0.111C0.105,-0.109 0.123,-0.094 0.155,-0.069C0.187,-0.043 0.216,-0.03 0.244,-0.03C0.268,-0.03 0.289,-0.039 0.306,-0.058C0.323,-0.077 0.332,-0.102 0.332,-0.131C0.332,-0.175 0.316,-0.217 0.285,-0.254C0.254,-0.292 0.208,-0.318 0.148,-0.332Z" style="fill-rule:nonzero;"/>
                    </g>
                </g>
            </g>
        </g>
    </g>
</svg>
