<?xml version="1.0" encoding="UTF-8" standalone="no"?>
<!DOCTYPE svg PUBLIC "-//W3C//DTD SVG 1.1//EN" "http://www.w3.org/Graphics/SVG/1.1/DTD/svg11.dtd">
<svg width="100%" height="100%" viewBox="0 0 134 190" version="1.1" xmlns="http://www.w3.org/2000/svg" xmlns:xlink="http://www.w3.org/1999/xlink" xml:space="preserve" xmlns:serif="http://www.serif.com/" style="fill-rule:evenodd;clip-rule:evenodd;">
    <g transform="matrix(1,0,0,1,-1077,-965)">
        <g id="kreuzneun" transform="matrix(1.0231,0,0,0.854373,1077.83,140.12)">
            <rect x="0" y="965.48" width="129.704" height="221.683" style="fill:none;"/>
            <g transform="matrix(0.977423,0,0,1.17045,-978.711,969.241)">
                <g transform="matrix(1,0,0,-1,0,182.973)">
                    <path d="M1005.23,5.868C1005.23,3.035 1007.54,0.719 1010.38,0.719L1124.97,0.719C1127.79,0.719 1130.11,3.035 1130.11,5.868L1130.11,177.106C1130.11,179.938 1127.79,182.254 1124.97,182.254L1010.38,182.254C1007.54,182.254 1005.23,179.938 1005.23,177.106L1005.23,5.868Z" style="fill:white;fill-rule:nonzero;stroke:black;stroke-width:1px;"/>
                </g>
                <g transform="matrix(0,-1,1,0,980.66,1050.3)">
                    <ellipse cx="1015.48" cy="34.822" rx="2.459" ry="2.534"/>
                </g>
                <g transform="matrix(0,-1,1,0,972.734,1051.69)">
                    <ellipse cx="1012.21" cy="39.479" rx="2.459" ry="2.533"/>
                </g>
                <g transform="matrix(1,0,0,-1,0,78.988)">
                    <path d="M1016.17,39.492C1016.17,39 1016.32,38.535 1016.59,38.144C1017.03,37.476 1017.82,37.035 1018.71,37.035C1020.11,37.035 1021.24,38.136 1021.24,39.492C1021.24,40.851 1020.11,41.953 1018.71,41.953C1017.31,41.953 1016.17,40.851 1016.17,39.492Z" style="fill-rule:nonzero;"/>
                </g>
                <g transform="matrix(1,0,0,-1,0,84.461)">
                    <path d="M1012.51,40.191C1013.76,40.191 1014.42,41.211 1014.76,42.231C1015.11,43.25 1015.14,44.27 1015.14,44.27L1015.78,44.27C1015.78,44.27 1015.9,40.199 1018.41,40.191L1012.51,40.191Z" style="fill-rule:nonzero;"/>
                </g>
                <g transform="matrix(1,0,0,-1,0,76.828)">
                    <path d="M1017.2,40.199C1015.77,38.773 1015.77,36.637 1015.77,36.637L1015.14,36.629C1015.14,36.629 1015.14,38.808 1013.75,40.199" style="fill-rule:nonzero;"/>
                </g>
                <g transform="matrix(1,0,0,-1,0,78.957)">
                    <path d="M1016.91,37.754C1015.49,39.176 1013.35,39.176 1013.35,39.176L1013.35,39.816C1013.35,39.816 1015.53,39.816 1016.92,41.203" style="fill-rule:nonzero;"/>
                </g>
                <g transform="matrix(1,0,0,-1,0,78.973)">
                    <path d="M1014.06,37.762C1015.48,39.188 1017.62,39.188 1017.62,39.188L1017.62,39.825C1017.62,39.825 1015.44,39.825 1014.05,41.211" style="fill-rule:nonzero;"/>
                </g>
                <g transform="matrix(0,1,-1,0,1268,-973.202)">
                    <ellipse cx="1120.6" cy="147.4" rx="2.459" ry="2.535"/>
                </g>
                <g transform="matrix(0,1,-1,0,1266.61,-981.125)">
                    <ellipse cx="1123.87" cy="142.744" rx="2.459" ry="2.533"/>
                </g>
                <g transform="matrix(1,0,0,-1,0,285.458)">
                    <path d="M1119.91,142.728C1119.91,143.224 1119.76,143.688 1119.5,144.079C1119.05,144.747 1118.26,145.188 1117.38,145.188C1115.98,145.188 1114.84,144.087 1114.84,142.728C1114.84,141.372 1115.98,140.27 1117.38,140.27C1118.78,140.27 1119.91,141.372 1119.91,142.728Z" style="fill-rule:nonzero;"/>
                </g>
                <g transform="matrix(1,0,0,-1,0,279.984)">
                    <path d="M1123.58,142.031C1122.32,142.031 1121.66,141.011 1121.32,139.992C1120.98,138.972 1120.94,137.953 1120.94,137.953L1120.3,137.953C1120.3,137.953 1120.18,142.023 1117.68,142.031L1123.58,142.031Z" style="fill-rule:nonzero;"/>
                </g>
                <g transform="matrix(1,0,0,-1,0,287.617)">
                    <path d="M1118.88,142.023C1120.31,143.449 1120.31,145.586 1120.31,145.586L1120.94,145.594C1120.94,145.594 1120.94,143.41 1122.33,142.023" style="fill-rule:nonzero;"/>
                </g>
                <g transform="matrix(1,0,0,-1,0,285.489)">
                    <path d="M1119.17,144.469C1120.59,143.044 1122.73,143.044 1122.73,143.044L1122.73,142.407C1122.73,142.407 1120.55,142.407 1119.16,141.02" style="fill-rule:nonzero;"/>
                </g>
                <g transform="matrix(1,0,0,-1,0,285.473)">
                    <path d="M1122.02,144.461C1120.6,143.035 1118.46,143.035 1118.46,143.035L1118.46,142.399C1118.46,142.399 1120.64,142.399 1122.03,141.012" style="fill-rule:nonzero;"/>
                </g>
                <g transform="matrix(0,-1,1,0,1018.27,1058.05)">
                    <ellipse cx="1038.16" cy="19.891" rx="5.902" ry="6.08"/>
                </g>
                <g transform="matrix(0,-1,1,0,999.249,1061.38)">
                    <ellipse cx="1030.32" cy="31.067" rx="5.903" ry="6.082"/>
                </g>
                <g transform="matrix(1,0,0,-1,0,62.203)">
                    <path d="M1039.82,31.101C1039.82,29.914 1040.18,28.797 1040.81,27.863C1041.89,26.262 1043.78,25.199 1045.9,25.199C1049.27,25.199 1051.98,27.844 1051.98,31.101C1051.98,34.359 1049.27,37.004 1045.9,37.004C1042.54,37.004 1039.82,34.359 1039.82,31.101Z" style="fill-rule:nonzero;"/>
                </g>
                <g transform="matrix(1,0,0,-1,0,75.335)">
                    <path d="M1031.02,32.773C1034.02,32.773 1035.61,35.218 1036.43,37.667C1037.26,40.112 1037.34,42.562 1037.34,42.562L1038.88,42.562C1038.88,42.562 1039.17,32.788 1045.18,32.773L1031.02,32.773Z" style="fill-rule:nonzero;"/>
                </g>
                <g transform="matrix(1,0,0,-1,0,57.02)">
                    <path d="M1042.28,32.793C1038.86,29.372 1038.86,24.247 1038.86,24.247L1037.34,24.227C1037.34,24.227 1037.34,29.461 1034.01,32.793" style="fill-rule:nonzero;"/>
                </g>
                <g transform="matrix(1,0,0,-1,0,62.129)">
                    <path d="M1041.6,26.926C1038.18,30.344 1033.05,30.344 1033.05,30.344L1033.05,31.875C1033.05,31.875 1038.29,31.875 1041.62,35.203" style="fill-rule:nonzero;"/>
                </g>
                <g transform="matrix(1,0,0,-1,0,62.168)">
                    <path d="M1034.74,26.945C1038.16,30.363 1043.29,30.363 1043.29,30.363L1043.29,31.895C1043.29,31.895 1038.06,31.895 1034.73,35.223" style="fill-rule:nonzero;"/>
                </g>
                <g transform="matrix(0,-1,1,0,977.667,1098.66)">
                    <ellipse cx="1038.16" cy="60.495" rx="5.9" ry="6.08"/>
                </g>
                <g transform="matrix(0,-1,1,0,958.648,1101.98)">
                    <ellipse cx="1030.32" cy="71.668" rx="5.902" ry="6.082"/>
                </g>
                <g transform="matrix(1,0,0,-1,0,143.406)">
                    <path d="M1039.82,71.703C1039.82,70.515 1040.18,69.398 1040.81,68.465C1041.89,66.863 1043.78,65.801 1045.9,65.801C1049.27,65.801 1051.98,68.445 1051.98,71.703C1051.98,74.961 1049.27,77.605 1045.9,77.605C1042.54,77.605 1039.82,74.961 1039.82,71.703Z" style="fill-rule:nonzero;"/>
                </g>
                <g transform="matrix(1,0,0,-1,0,156.543)">
                    <path d="M1031.02,73.379C1034.02,73.379 1035.61,75.824 1036.43,78.273C1037.26,80.719 1037.34,83.164 1037.34,83.164L1038.88,83.164C1038.88,83.164 1039.17,73.395 1045.18,73.379L1031.02,73.379Z" style="fill-rule:nonzero;"/>
                </g>
                <g transform="matrix(1,0,0,-1,0,138.227)">
                    <path d="M1042.28,73.395C1038.86,69.977 1038.86,64.848 1038.86,64.848L1037.34,64.832C1037.34,64.832 1037.34,70.067 1034.01,73.395" style="fill-rule:nonzero;"/>
                </g>
                <g transform="matrix(1,0,0,-1,0,143.332)">
                    <path d="M1041.6,67.527C1038.18,70.945 1033.05,70.945 1033.05,70.945L1033.05,72.473C1033.05,72.473 1038.29,72.473 1041.62,75.805" style="fill-rule:nonzero;"/>
                </g>
                <g transform="matrix(1,0,0,-1,0,143.371)">
                    <path d="M1034.74,67.547C1038.16,70.965 1043.29,70.965 1043.29,70.965L1043.29,72.496C1043.29,72.496 1038.06,72.496 1034.73,75.824" style="fill-rule:nonzero;"/>
                </g>
                <g transform="matrix(0,1,-1,0,1156.67,-919.437)">
                    <ellipse cx="1038.06" cy="118.617" rx="5.903" ry="6.082"/>
                </g>
                <g transform="matrix(0,1,-1,0,1153.34,-938.453)">
                    <ellipse cx="1045.9" cy="107.446" rx="5.903" ry="6.082"/>
                </g>
                <g transform="matrix(1,0,0,-1,0,214.817)">
                    <path d="M1036.4,107.407C1036.4,108.594 1036.04,109.712 1035.41,110.649C1034.33,112.251 1032.44,113.309 1030.32,113.309C1026.95,113.309 1024.23,110.665 1024.23,107.407C1024.23,104.153 1026.95,101.508 1030.32,101.508C1033.68,101.508 1036.4,104.153 1036.4,107.407Z" style="fill-rule:nonzero;"/>
                </g>
                <g transform="matrix(1,0,0,-1,0,201.679)">
                    <path d="M1045.2,105.734C1042.19,105.734 1040.61,103.284 1039.78,100.839C1038.95,98.39 1038.88,95.945 1038.88,95.945L1037.34,95.945C1037.34,95.945 1037.05,105.714 1031.04,105.734L1045.2,105.734Z" style="fill-rule:nonzero;"/>
                </g>
                <g transform="matrix(1,0,0,-1,0,220)">
                    <path d="M1033.93,105.719C1037.35,109.137 1037.35,114.266 1037.35,114.266L1038.88,114.281C1038.88,114.281 1038.88,109.047 1042.21,105.719" style="fill-rule:nonzero;"/>
                </g>
                <g transform="matrix(1,0,0,-1,0,214.887)">
                    <path d="M1034.62,111.582C1038.04,108.164 1043.16,108.164 1043.16,108.164L1043.16,106.633C1043.16,106.633 1037.93,106.633 1034.6,103.305" style="fill-rule:nonzero;"/>
                </g>
                <g transform="matrix(1,0,0,-1,0,214.855)">
                    <path d="M1041.47,111.566C1038.06,108.148 1032.93,108.148 1032.93,108.148L1032.93,106.621C1032.93,106.621 1038.16,106.621 1041.49,103.289" style="fill-rule:nonzero;"/>
                </g>
                <g transform="matrix(0,1,-1,0,1197.28,-878.834)">
                    <ellipse cx="1038.06" cy="159.22" rx="5.9" ry="6.082"/>
                </g>
                <g transform="matrix(0,1,-1,0,1193.95,-897.851)">
                    <ellipse cx="1045.9" cy="148.047" rx="5.902" ry="6.082"/>
                </g>
                <g transform="matrix(1,0,0,-1,0,296.023)">
                    <path d="M1036.4,148.011C1036.4,149.199 1036.04,150.316 1035.41,151.25C1034.33,152.851 1032.44,153.914 1030.32,153.914C1026.95,153.914 1024.23,151.269 1024.23,148.011C1024.23,144.757 1026.95,142.109 1030.32,142.109C1033.68,142.109 1036.4,144.757 1036.4,148.011Z" style="fill-rule:nonzero;"/>
                </g>
                <g transform="matrix(1,0,0,-1,0,282.883)">
                    <path d="M1045.2,146.336C1042.19,146.336 1040.61,143.887 1039.78,141.442C1038.95,138.992 1038.88,136.547 1038.88,136.547L1037.34,136.547C1037.34,136.547 1037.05,146.317 1031.04,146.336L1045.2,146.336Z" style="fill-rule:nonzero;"/>
                </g>
                <g transform="matrix(1,0,0,-1,0,301.203)">
                    <path d="M1033.93,146.32C1037.35,149.738 1037.35,154.867 1037.35,154.867L1038.88,154.883C1038.88,154.883 1038.88,149.648 1042.21,146.32" style="fill-rule:nonzero;"/>
                </g>
                <g transform="matrix(1,0,0,-1,0,296.09)">
                    <path d="M1034.62,152.184C1038.04,148.762 1043.16,148.762 1043.16,148.762L1043.16,147.235C1043.16,147.235 1037.93,147.235 1034.6,143.906" style="fill-rule:nonzero;"/>
                </g>
                <g transform="matrix(1,0,0,-1,0,296.059)">
                    <path d="M1041.47,152.168C1038.06,148.75 1032.93,148.75 1032.93,148.75L1032.93,147.219C1032.93,147.219 1038.16,147.219 1041.49,143.891" style="fill-rule:nonzero;"/>
                </g>
                <g transform="matrix(0,-1,1,0,1078.14,1117.92)">
                    <ellipse cx="1098.03" cy="19.89" rx="5.902" ry="6.08"/>
                </g>
                <g transform="matrix(0,-1,1,0,1059.12,1121.25)">
                    <ellipse cx="1090.19" cy="31.066" rx="5.903" ry="6.082"/>
                </g>
                <g transform="matrix(1,0,0,-1,0,62.203)">
                    <path d="M1099.69,31.101C1099.69,29.914 1100.05,28.797 1100.68,27.863C1101.76,26.262 1103.65,25.199 1105.77,25.199C1109.14,25.199 1111.85,27.844 1111.85,31.101C1111.85,34.359 1109.14,37.004 1105.77,37.004C1102.41,37.004 1099.69,34.359 1099.69,31.101Z" style="fill-rule:nonzero;"/>
                </g>
                <g transform="matrix(1,0,0,-1,0,75.335)">
                    <path d="M1090.89,32.773C1093.89,32.773 1095.48,35.218 1096.31,37.667C1097.13,40.112 1097.21,42.562 1097.21,42.562L1098.75,42.562C1098.75,42.562 1099.04,32.788 1105.05,32.773L1090.89,32.773Z" style="fill-rule:nonzero;"/>
                </g>
                <g transform="matrix(1,0,0,-1,0,57.02)">
                    <path d="M1102.15,32.793C1098.73,29.372 1098.73,24.247 1098.73,24.247L1097.21,24.227C1097.21,24.227 1097.21,29.461 1093.88,32.793" style="fill-rule:nonzero;"/>
                </g>
                <g transform="matrix(1,0,0,-1,0,62.129)">
                    <path d="M1101.47,26.926C1098.05,30.344 1092.92,30.344 1092.92,30.344L1092.92,31.875C1092.92,31.875 1098.16,31.875 1101.49,35.203" style="fill-rule:nonzero;"/>
                </g>
                <g transform="matrix(1,0,0,-1,0,62.168)">
                    <path d="M1094.61,26.945C1098.04,30.363 1103.16,30.363 1103.16,30.363L1103.16,31.895C1103.16,31.895 1097.93,31.895 1094.6,35.223" style="fill-rule:nonzero;"/>
                </g>
                <g transform="matrix(0,-1,1,0,1037.54,1158.53)">
                    <ellipse cx="1098.03" cy="60.495" rx="5.9" ry="6.08"/>
                </g>
                <g transform="matrix(0,-1,1,0,1018.52,1161.86)">
                    <ellipse cx="1090.19" cy="71.668" rx="5.902" ry="6.082"/>
                </g>
                <g transform="matrix(1,0,0,-1,0,143.406)">
                    <path d="M1099.69,71.703C1099.69,70.515 1100.05,69.398 1100.68,68.465C1101.76,66.863 1103.65,65.801 1105.77,65.801C1109.14,65.801 1111.85,68.445 1111.85,71.703C1111.85,74.961 1109.14,77.605 1105.77,77.605C1102.41,77.605 1099.69,74.961 1099.69,71.703Z" style="fill-rule:nonzero;"/>
                </g>
                <g transform="matrix(1,0,0,-1,0,156.543)">
                    <path d="M1090.89,73.379C1093.89,73.379 1095.48,75.824 1096.31,78.273C1097.13,80.719 1097.21,83.164 1097.21,83.164L1098.75,83.164C1098.75,83.164 1099.04,73.395 1105.05,73.379L1090.89,73.379Z" style="fill-rule:nonzero;"/>
                </g>
                <g transform="matrix(1,0,0,-1,0,138.227)">
                    <path d="M1102.15,73.395C1098.73,69.977 1098.73,64.848 1098.73,64.848L1097.21,64.832C1097.21,64.832 1097.21,70.067 1093.88,73.395" style="fill-rule:nonzero;"/>
                </g>
                <g transform="matrix(1,0,0,-1,0,143.332)">
                    <path d="M1101.47,67.527C1098.05,70.945 1092.92,70.945 1092.92,70.945L1092.92,72.473C1092.92,72.473 1098.16,72.473 1101.49,75.805" style="fill-rule:nonzero;"/>
                </g>
                <g transform="matrix(1,0,0,-1,0,143.371)">
                    <path d="M1094.61,67.547C1098.04,70.965 1103.16,70.965 1103.16,70.965L1103.16,72.496C1103.16,72.496 1097.93,72.496 1094.6,75.824" style="fill-rule:nonzero;"/>
                </g>
                <g transform="matrix(0,1,-1,0,1216.54,-979.308)">
                    <ellipse cx="1097.93" cy="118.618" rx="5.903" ry="6.082"/>
                </g>
                <g transform="matrix(0,1,-1,0,1213.22,-998.324)">
                    <ellipse cx="1105.77" cy="107.446" rx="5.903" ry="6.082"/>
                </g>
                <g transform="matrix(1,0,0,-1,0,214.817)">
                    <path d="M1096.27,107.407C1096.27,108.594 1095.91,109.712 1095.28,110.649C1094.2,112.251 1092.31,113.309 1090.19,113.309C1086.82,113.309 1084.11,110.665 1084.11,107.407C1084.11,104.153 1086.82,101.508 1090.19,101.508C1093.56,101.508 1096.27,104.153 1096.27,107.407Z" style="fill-rule:nonzero;"/>
                </g>
                <g transform="matrix(1,0,0,-1,0,201.679)">
                    <path d="M1105.07,105.734C1102.06,105.734 1100.48,103.284 1099.65,100.839C1098.82,98.39 1098.75,95.945 1098.75,95.945L1097.21,95.945C1097.21,95.945 1096.92,105.714 1090.91,105.734L1105.07,105.734Z" style="fill-rule:nonzero;"/>
                </g>
                <g transform="matrix(1,0,0,-1,0,220)">
                    <path d="M1093.81,105.719C1097.22,109.137 1097.22,114.266 1097.22,114.266L1098.75,114.281C1098.75,114.281 1098.75,109.047 1102.08,105.719" style="fill-rule:nonzero;"/>
                </g>
                <g transform="matrix(1,0,0,-1,0,214.887)">
                    <path d="M1094.49,111.582C1097.91,108.164 1103.04,108.164 1103.04,108.164L1103.04,106.633C1103.04,106.633 1097.8,106.633 1094.47,103.305" style="fill-rule:nonzero;"/>
                </g>
                <g transform="matrix(1,0,0,-1,0,214.855)">
                    <path d="M1101.34,111.566C1097.93,108.148 1092.8,108.148 1092.8,108.148L1092.8,106.621C1092.8,106.621 1098.04,106.621 1101.36,103.289" style="fill-rule:nonzero;"/>
                </g>
                <g transform="matrix(0,1,-1,0,1257.15,-938.705)">
                    <ellipse cx="1097.93" cy="159.22" rx="5.9" ry="6.082"/>
                </g>
                <g transform="matrix(0,1,-1,0,1253.82,-957.723)">
                    <ellipse cx="1105.77" cy="148.047" rx="5.902" ry="6.082"/>
                </g>
                <g transform="matrix(1,0,0,-1,0,296.023)">
                    <path d="M1096.27,148.011C1096.27,149.199 1095.91,150.316 1095.28,151.25C1094.2,152.851 1092.31,153.914 1090.19,153.914C1086.82,153.914 1084.11,151.269 1084.11,148.011C1084.11,144.757 1086.82,142.109 1090.19,142.109C1093.56,142.109 1096.27,144.757 1096.27,148.011Z" style="fill-rule:nonzero;"/>
                </g>
                <g transform="matrix(1,0,0,-1,0,282.883)">
                    <path d="M1105.07,146.336C1102.06,146.336 1100.48,143.887 1099.65,141.442C1098.82,138.992 1098.75,136.547 1098.75,136.547L1097.21,136.547C1097.21,136.547 1096.92,146.317 1090.91,146.336L1105.07,146.336Z" style="fill-rule:nonzero;"/>
                </g>
                <g transform="matrix(1,0,0,-1,0,301.203)">
                    <path d="M1093.81,146.32C1097.22,149.738 1097.22,154.867 1097.22,154.867L1098.75,154.883C1098.75,154.883 1098.75,149.648 1102.08,146.32" style="fill-rule:nonzero;"/>
                </g>
                <g transform="matrix(1,0,0,-1,0,296.09)">
                    <path d="M1094.49,152.184C1097.91,148.762 1103.04,148.762 1103.04,148.762L1103.04,147.235C1103.04,147.235 1097.8,147.235 1094.47,143.906" style="fill-rule:nonzero;"/>
                </g>
                <g transform="matrix(1,0,0,-1,0,296.059)">
                    <path d="M1101.34,152.168C1097.93,148.75 1092.8,148.75 1092.8,148.75L1092.8,147.219C1092.8,147.219 1098.04,147.219 1101.36,143.891" style="fill-rule:nonzero;"/>
                </g>
                <g transform="matrix(0,-1,1,0,1027.9,1108.29)">
                    <ellipse cx="1068.1" cy="40.194" rx="5.901" ry="6.082"/>
                </g>
                <g transform="matrix(0,-1,1,0,1008.89,1111.62)">
                    <ellipse cx="1060.25" cy="51.368" rx="5.903" ry="6.082"/>
                </g>
                <g transform="matrix(1,0,0,-1,0,102.805)">
                    <path d="M1069.75,51.403C1069.75,50.215 1070.11,49.098 1070.74,48.164C1071.82,46.563 1073.71,45.5 1075.84,45.5C1079.2,45.5 1081.92,48.145 1081.92,51.403C1081.92,54.66 1079.2,57.305 1075.84,57.305C1072.47,57.305 1069.75,54.66 1069.75,51.403Z" style="fill-rule:nonzero;"/>
                </g>
                <g transform="matrix(1,0,0,-1,0,115.937)">
                    <path d="M1060.95,53.074C1063.96,53.074 1065.54,55.519 1066.37,57.968C1067.2,60.414 1067.27,62.863 1067.27,62.863L1068.82,62.863C1068.82,62.863 1069.11,53.089 1075.11,53.074L1060.95,53.074Z" style="fill-rule:nonzero;"/>
                </g>
                <g transform="matrix(1,0,0,-1,0,97.621)">
                    <path d="M1072.22,53.094C1068.8,49.672 1068.8,44.547 1068.8,44.547L1067.27,44.527C1067.27,44.527 1067.27,49.762 1063.94,53.094" style="fill-rule:nonzero;"/>
                </g>
                <g transform="matrix(1,0,0,-1,0,102.731)">
                    <path d="M1071.54,47.227C1068.12,50.645 1062.99,50.645 1062.99,50.645L1062.99,52.172C1062.99,52.172 1068.22,52.172 1071.55,55.504" style="fill-rule:nonzero;"/>
                </g>
                <g transform="matrix(1,0,0,-1,0,102.769)">
                    <path d="M1064.68,47.246C1068.1,50.664 1073.23,50.664 1073.23,50.664L1073.23,52.195C1073.23,52.195 1067.99,52.195 1064.66,55.523" style="fill-rule:nonzero;"/>
                </g>
                <g transform="matrix(0.53388,0,0,1,470.366,1.18169)">
                    <g transform="matrix(34.0888,0,0,34.0888,1008.23,25.9905)">
                        <path d="M0.031,0.014L0.031,0C0.085,-0.012 0.131,-0.031 0.168,-0.055C0.206,-0.079 0.236,-0.109 0.258,-0.144C0.28,-0.18 0.295,-0.22 0.304,-0.267C0.284,-0.256 0.266,-0.249 0.252,-0.245C0.238,-0.241 0.223,-0.239 0.208,-0.239C0.157,-0.239 0.116,-0.257 0.082,-0.293C0.049,-0.329 0.032,-0.379 0.032,-0.441C0.032,-0.485 0.041,-0.525 0.059,-0.561C0.077,-0.598 0.103,-0.626 0.137,-0.646C0.17,-0.666 0.205,-0.676 0.241,-0.676C0.28,-0.676 0.317,-0.665 0.351,-0.643C0.386,-0.62 0.413,-0.588 0.434,-0.546C0.454,-0.504 0.464,-0.457 0.464,-0.403C0.464,-0.333 0.448,-0.266 0.414,-0.203C0.381,-0.139 0.331,-0.088 0.265,-0.049C0.199,-0.01 0.121,0.01 0.031,0.014ZM0.311,-0.308C0.314,-0.344 0.316,-0.376 0.316,-0.404C0.316,-0.463 0.309,-0.518 0.295,-0.569C0.288,-0.598 0.276,-0.618 0.261,-0.632C0.253,-0.639 0.242,-0.643 0.229,-0.643C0.213,-0.643 0.2,-0.636 0.191,-0.622C0.178,-0.602 0.172,-0.566 0.172,-0.512C0.172,-0.422 0.183,-0.359 0.204,-0.325C0.218,-0.303 0.237,-0.292 0.261,-0.292C0.273,-0.292 0.29,-0.297 0.311,-0.308Z" style="fill-rule:nonzero;"/>
                    </g>
                </g>
                <g transform="matrix(-0.53388,0,0,-1,525.25,-1.95443)">
                    <g transform="matrix(34.0888,0,0,34.0888,-1127.86,-156.233)">
                        <path d="M0.031,0.014L0.031,0C0.085,-0.012 0.131,-0.031 0.168,-0.055C0.206,-0.079 0.236,-0.109 0.258,-0.144C0.28,-0.18 0.295,-0.22 0.304,-0.267C0.284,-0.256 0.266,-0.249 0.252,-0.245C0.238,-0.241 0.223,-0.239 0.208,-0.239C0.157,-0.239 0.116,-0.257 0.082,-0.293C0.049,-0.329 0.032,-0.379 0.032,-0.441C0.032,-0.485 0.041,-0.525 0.059,-0.561C0.077,-0.598 0.103,-0.626 0.137,-0.646C0.17,-0.666 0.205,-0.676 0.241,-0.676C0.28,-0.676 0.317,-0.665 0.351,-0.643C0.386,-0.62 0.413,-0.588 0.434,-0.546C0.454,-0.504 0.464,-0.457 0.464,-0.403C0.464,-0.333 0.448,-0.266 0.414,-0.203C0.381,-0.139 0.331,-0.088 0.265,-0.049C0.199,-0.01 0.121,0.01 0.031,0.014ZM0.311,-0.308C0.314,-0.344 0.316,-0.376 0.316,-0.404C0.316,-0.463 0.309,-0.518 0.295,-0.569C0.288,-0.598 0.276,-0.618 0.261,-0.632C0.253,-0.639 0.242,-0.643 0.229,-0.643C0.213,-0.643 0.2,-0.636 0.191,-0.622C0.178,-0.602 0.172,-0.566 0.172,-0.512C0.172,-0.422 0.183,-0.359 0.204,-0.325C0.218,-0.303 0.237,-0.292 0.261,-0.292C0.273,-0.292 0.29,-0.297 0.311,-0.308Z" style="fill-rule:nonzero;"/>
                    </g>
                </g>
            </g>
        </g>
    </g>
</svg>
