<?xml version="1.0" encoding="UTF-8" standalone="no"?>
<!DOCTYPE svg PUBLIC "-//W3C//DTD SVG 1.1//EN" "http://www.w3.org/Graphics/SVG/1.1/DTD/svg11.dtd">
<svg width="100%" height="100%" viewBox="0 0 133 190" version="1.1" xmlns="http://www.w3.org/2000/svg" xmlns:xlink="http://www.w3.org/1999/xlink" xml:space="preserve" xmlns:serif="http://www.serif.com/" style="fill-rule:evenodd;clip-rule:evenodd;">
    <g transform="matrix(1,0,0,1,-547,-965)">
        <g id="kreuzfünf" transform="matrix(1.0231,0,0,0.854373,547.03,140.12)">
            <rect x="0" y="965.48" width="129.704" height="221.683" style="fill:none;"/>
            <g id="kreuzfünf1" serif:id="kreuzfünf" transform="matrix(0.977423,0,0,1.17045,-487.52,969.241)">
                <g transform="matrix(1,0,0,-1,0,182.973)">
                    <path d="M502.688,5.868C502.688,3.035 505.004,0.719 507.84,0.719L622.43,0.719C625.258,0.719 627.574,3.035 627.574,5.868L627.574,177.106C627.574,179.938 625.258,182.254 622.43,182.254L507.84,182.254C505.004,182.254 502.688,179.938 502.688,177.106L502.688,5.868Z" style="fill:white;fill-rule:nonzero;stroke:black;stroke-width:1px;"/>
                </g>
                <g transform="matrix(0,-1,1,0,478.121,547.765)">
                    <ellipse cx="512.943" cy="34.822" rx="2.459" ry="2.534"/>
                </g>
                <g transform="matrix(0,-1,1,0,470.197,549.155)">
                    <ellipse cx="509.676" cy="39.479" rx="2.459" ry="2.535"/>
                </g>
                <g transform="matrix(1,0,0,-1,0,78.988)">
                    <path d="M513.633,39.492C513.633,39 513.785,38.535 514.047,38.144C514.496,37.476 515.285,37.035 516.168,37.035C517.57,37.035 518.703,38.136 518.703,39.492C518.703,40.851 517.57,41.953 516.168,41.953C514.766,41.953 513.633,40.851 513.633,39.492Z" style="fill-rule:nonzero;"/>
                </g>
                <g transform="matrix(1,0,0,-1,0,84.461)">
                    <path d="M509.969,40.191C511.219,40.191 511.879,41.211 512.223,42.231C512.57,43.25 512.598,44.27 512.598,44.27L513.242,44.27C513.242,44.27 513.363,40.199 515.867,40.191L509.969,40.191Z" style="fill-rule:nonzero;"/>
                </g>
                <g transform="matrix(1,0,0,-1,0,76.828)">
                    <path d="M514.66,40.199C513.238,38.773 513.238,36.637 513.238,36.637L512.598,36.629C512.598,36.629 512.598,38.808 511.211,40.199" style="fill-rule:nonzero;"/>
                </g>
                <g transform="matrix(1,0,0,-1,0,78.957)">
                    <path d="M514.375,37.754C512.953,39.176 510.816,39.176 510.816,39.176L510.816,39.816C510.816,39.816 512.996,39.816 514.383,41.203" style="fill-rule:nonzero;"/>
                </g>
                <g transform="matrix(1,0,0,-1,0,78.973)">
                    <path d="M511.52,37.762C512.945,39.188 515.082,39.188 515.082,39.188L515.082,39.825C515.082,39.825 512.898,39.825 511.512,41.211" style="fill-rule:nonzero;"/>
                </g>
                <g transform="matrix(0,1,-1,0,765.466,-470.666)">
                    <ellipse cx="618.066" cy="147.4" rx="2.459" ry="2.536"/>
                </g>
                <g transform="matrix(0,1,-1,0,764.08,-478.592)">
                    <ellipse cx="621.336" cy="142.744" rx="2.459" ry="2.535"/>
                </g>
                <g transform="matrix(1,0,0,-1,0,285.458)">
                    <path d="M617.375,142.728C617.375,143.224 617.227,143.688 616.965,144.079C616.516,144.747 615.727,145.188 614.844,145.188C613.441,145.188 612.309,144.087 612.309,142.728C612.309,141.372 613.441,140.27 614.844,140.27C616.246,140.27 617.375,141.372 617.375,142.728Z" style="fill-rule:nonzero;"/>
                </g>
                <g transform="matrix(1,0,0,-1,0,279.984)">
                    <path d="M621.043,142.031C619.789,142.031 619.133,141.011 618.785,139.992C618.441,138.972 618.41,137.953 618.41,137.953L617.766,137.953C617.766,137.953 617.648,142.023 615.141,142.031L621.043,142.031Z" style="fill-rule:nonzero;"/>
                </g>
                <g transform="matrix(1,0,0,-1,0,287.617)">
                    <path d="M616.348,142.023C617.773,143.449 617.773,145.586 617.773,145.586L618.41,145.594C618.41,145.594 618.41,143.41 619.797,142.023" style="fill-rule:nonzero;"/>
                </g>
                <g transform="matrix(1,0,0,-1,0,285.489)">
                    <path d="M616.633,144.469C618.059,143.044 620.195,143.044 620.195,143.044L620.195,142.407C620.195,142.407 618.016,142.407 616.625,141.02" style="fill-rule:nonzero;"/>
                </g>
                <g transform="matrix(1,0,0,-1,0,285.473)">
                    <path d="M619.492,144.461C618.066,143.035 615.93,143.035 615.93,143.035L615.93,142.399C615.93,142.399 618.113,142.399 619.5,141.012" style="fill-rule:nonzero;"/>
                </g>
                <g transform="matrix(0,-1,1,0,515.735,555.515)">
                    <ellipse cx="535.625" cy="19.89" rx="5.902" ry="6.082"/>
                </g>
                <g transform="matrix(0,-1,1,0,496.711,558.844)">
                    <ellipse cx="527.777" cy="31.066" rx="5.903" ry="6.082"/>
                </g>
                <g transform="matrix(1,0,0,-1,0,62.203)">
                    <path d="M537.277,31.101C537.277,29.914 537.641,28.797 538.27,27.863C539.348,26.262 541.238,25.199 543.359,25.199C546.727,25.199 549.441,27.844 549.441,31.101C549.441,34.359 546.727,37.004 543.359,37.004C539.996,37.004 537.277,34.359 537.277,31.101Z" style="fill-rule:nonzero;"/>
                </g>
                <g transform="matrix(1,0,0,-1,0,75.335)">
                    <path d="M528.48,32.773C531.484,32.773 533.07,35.218 533.895,37.667C534.723,40.112 534.797,42.562 534.797,42.562L536.344,42.562C536.344,42.562 536.633,32.788 542.641,32.773L528.48,32.773Z" style="fill-rule:nonzero;"/>
                </g>
                <g transform="matrix(1,0,0,-1,0,57.02)">
                    <path d="M539.742,32.793C536.324,29.372 536.324,24.247 536.324,24.247L534.797,24.227C534.797,24.227 534.797,29.461 531.469,32.793" style="fill-rule:nonzero;"/>
                </g>
                <g transform="matrix(1,0,0,-1,0,62.129)">
                    <path d="M539.059,26.926C535.641,30.344 530.512,30.344 530.512,30.344L530.512,31.875C530.512,31.875 535.75,31.875 539.078,35.203" style="fill-rule:nonzero;"/>
                </g>
                <g transform="matrix(1,0,0,-1,0,62.168)">
                    <path d="M532.203,26.945C535.625,30.363 540.75,30.363 540.75,30.363L540.75,31.895C540.75,31.895 535.516,31.895 532.188,35.223" style="fill-rule:nonzero;"/>
                </g>
                <g transform="matrix(0,1,-1,0,694.737,-376.296)">
                    <ellipse cx="535.516" cy="159.221" rx="5.9" ry="6.082"/>
                </g>
                <g transform="matrix(0,1,-1,0,691.406,-395.312)">
                    <ellipse cx="543.359" cy="148.047" rx="5.902" ry="6.082"/>
                </g>
                <g transform="matrix(1,0,0,-1,0,296.023)">
                    <path d="M533.859,148.011C533.859,149.199 533.5,150.316 532.871,151.25C531.793,152.851 529.902,153.914 527.777,153.914C524.414,153.914 521.695,151.269 521.695,148.011C521.695,144.757 524.414,142.109 527.777,142.109C531.145,142.109 533.859,144.757 533.859,148.011Z" style="fill-rule:nonzero;"/>
                </g>
                <g transform="matrix(1,0,0,-1,0,282.883)">
                    <path d="M542.66,146.336C539.652,146.336 538.07,143.887 537.242,141.442C536.414,138.992 536.344,136.547 536.344,136.547L534.797,136.547C534.797,136.547 534.508,146.317 528.5,146.336L542.66,146.336Z" style="fill-rule:nonzero;"/>
                </g>
                <g transform="matrix(1,0,0,-1,0,301.203)">
                    <path d="M531.395,146.32C534.812,149.738 534.812,154.867 534.812,154.867L536.344,154.883C536.344,154.883 536.344,149.648 539.672,146.32" style="fill-rule:nonzero;"/>
                </g>
                <g transform="matrix(1,0,0,-1,0,296.09)">
                    <path d="M532.078,152.184C535.496,148.762 540.625,148.762 540.625,148.762L540.625,147.235C540.625,147.235 535.391,147.235 532.062,143.906" style="fill-rule:nonzero;"/>
                </g>
                <g transform="matrix(1,0,0,-1,0,296.059)">
                    <path d="M538.934,152.168C535.516,148.75 530.387,148.75 530.387,148.75L530.387,147.219C530.387,147.219 535.625,147.219 538.953,143.891" style="fill-rule:nonzero;"/>
                </g>
                <g transform="matrix(0,-1,1,0,575.606,615.387)">
                    <ellipse cx="595.496" cy="19.89" rx="5.902" ry="6.082"/>
                </g>
                <g transform="matrix(0,-1,1,0,556.581,618.714)">
                    <ellipse cx="587.648" cy="31.067" rx="5.903" ry="6.082"/>
                </g>
                <g transform="matrix(1,0,0,-1,0,62.203)">
                    <path d="M597.148,31.101C597.148,29.914 597.512,28.797 598.141,27.863C599.219,26.262 601.109,25.199 603.23,25.199C606.598,25.199 609.312,27.844 609.312,31.101C609.312,34.359 606.598,37.004 603.23,37.004C599.867,37.004 597.148,34.359 597.148,31.101Z" style="fill-rule:nonzero;"/>
                </g>
                <g transform="matrix(1,0,0,-1,0,75.335)">
                    <path d="M588.352,32.773C591.355,32.773 592.941,35.218 593.766,37.667C594.594,40.112 594.668,42.562 594.668,42.562L596.215,42.562C596.215,42.562 596.504,32.788 602.512,32.773L588.352,32.773Z" style="fill-rule:nonzero;"/>
                </g>
                <g transform="matrix(1,0,0,-1,0,57.02)">
                    <path d="M599.613,32.793C596.195,29.372 596.195,24.247 596.195,24.247L594.668,24.227C594.668,24.227 594.668,29.461 591.34,32.793" style="fill-rule:nonzero;"/>
                </g>
                <g transform="matrix(1,0,0,-1,0,62.129)">
                    <path d="M598.93,26.926C595.512,30.344 590.383,30.344 590.383,30.344L590.383,31.875C590.383,31.875 595.621,31.875 598.949,35.203" style="fill-rule:nonzero;"/>
                </g>
                <g transform="matrix(1,0,0,-1,0,62.168)">
                    <path d="M592.074,26.945C595.496,30.363 600.621,30.363 600.621,30.363L600.621,31.895C600.621,31.895 595.387,31.895 592.059,35.223" style="fill-rule:nonzero;"/>
                </g>
                <g transform="matrix(0,1,-1,0,754.607,-436.166)">
                    <ellipse cx="595.387" cy="159.221" rx="5.9" ry="6.082"/>
                </g>
                <g transform="matrix(0,1,-1,0,751.277,-455.183)">
                    <ellipse cx="603.23" cy="148.047" rx="5.902" ry="6.082"/>
                </g>
                <g transform="matrix(1,0,0,-1,0,296.023)">
                    <path d="M593.73,148.011C593.73,149.199 593.371,150.316 592.742,151.25C591.66,152.851 589.773,153.914 587.648,153.914C584.285,153.914 581.566,151.269 581.566,148.011C581.566,144.757 584.285,142.109 587.648,142.109C591.016,142.109 593.73,144.757 593.73,148.011Z" style="fill-rule:nonzero;"/>
                </g>
                <g transform="matrix(1,0,0,-1,0,282.883)">
                    <path d="M602.531,146.336C599.523,146.336 597.941,143.887 597.113,141.442C596.285,138.992 596.215,136.547 596.215,136.547L594.668,136.547C594.668,136.547 594.379,146.317 588.371,146.336L602.531,146.336Z" style="fill-rule:nonzero;"/>
                </g>
                <g transform="matrix(1,0,0,-1,0,301.203)">
                    <path d="M591.266,146.32C594.684,149.738 594.684,154.867 594.684,154.867L596.215,154.883C596.215,154.883 596.215,149.648 599.543,146.32" style="fill-rule:nonzero;"/>
                </g>
                <g transform="matrix(1,0,0,-1,0,296.09)">
                    <path d="M591.949,152.184C595.367,148.762 600.496,148.762 600.496,148.762L600.496,147.235C600.496,147.235 595.262,147.235 591.934,143.906" style="fill-rule:nonzero;"/>
                </g>
                <g transform="matrix(1,0,0,-1,0,296.059)">
                    <path d="M598.805,152.168C595.387,148.75 590.258,148.75 590.258,148.75L590.258,147.219C590.258,147.219 595.496,147.219 598.824,143.891" style="fill-rule:nonzero;"/>
                </g>
                <g transform="matrix(0,-1,1,0,487.982,643.135)">
                    <ellipse cx="565.559" cy="77.577" rx="5.9" ry="6.082"/>
                </g>
                <g transform="matrix(0,-1,1,0,468.965,646.465)">
                    <ellipse cx="557.715" cy="88.75" rx="5.902" ry="6.082"/>
                </g>
                <g transform="matrix(1,0,0,-1,0,177.571)">
                    <path d="M567.215,88.786C567.215,87.598 567.574,86.481 568.203,85.548C569.285,83.946 571.172,82.883 573.297,82.883C576.66,82.883 579.379,85.528 579.379,88.786C579.379,92.04 576.66,94.688 573.297,94.688C569.93,94.688 567.215,92.04 567.215,88.786Z" style="fill-rule:nonzero;"/>
                </g>
                <g transform="matrix(1,0,0,-1,0,190.707)">
                    <path d="M558.414,90.461C561.422,90.461 563.004,92.906 563.832,95.352C564.66,97.801 564.73,100.246 564.73,100.246L566.277,100.246C566.277,100.246 566.566,90.477 572.578,90.461L558.414,90.461Z" style="fill-rule:nonzero;"/>
                </g>
                <g transform="matrix(1,0,0,-1,0,172.391)">
                    <path d="M569.68,90.477C566.262,87.059 566.262,81.93 566.262,81.93L564.73,81.914C564.73,81.914 564.73,87.149 561.402,90.477" style="fill-rule:nonzero;"/>
                </g>
                <g transform="matrix(1,0,0,-1,0,177.5)">
                    <path d="M568.996,84.613C565.578,88.031 560.449,88.031 560.449,88.031L560.449,89.559C560.449,89.559 565.684,89.559 569.016,92.887" style="fill-rule:nonzero;"/>
                </g>
                <g transform="matrix(1,0,0,-1,0,177.535)">
                    <path d="M562.141,84.629C565.559,88.047 570.688,88.047 570.688,88.047L570.688,89.578C570.688,89.578 565.449,89.578 562.121,92.906" style="fill-rule:nonzero;"/>
                </g>
                <g transform="matrix(0.53388,0,0,1,236.123,1.18169)">
                    <g transform="matrix(34.0888,0,0,34.0888,505.687,25.9905)">
                        <path d="M0.152,-0.662L0.462,-0.662L0.413,-0.536L0.152,-0.536L0.127,-0.47C0.24,-0.466 0.326,-0.438 0.387,-0.386C0.437,-0.344 0.461,-0.291 0.461,-0.227C0.461,-0.186 0.45,-0.147 0.427,-0.108C0.404,-0.069 0.371,-0.039 0.329,-0.018C0.287,0.003 0.241,0.014 0.191,0.014C0.137,0.014 0.095,0.004 0.066,-0.017C0.046,-0.031 0.036,-0.047 0.036,-0.065C0.036,-0.079 0.041,-0.092 0.052,-0.103C0.063,-0.113 0.075,-0.119 0.089,-0.119C0.102,-0.119 0.114,-0.116 0.127,-0.111C0.14,-0.106 0.163,-0.092 0.194,-0.07C0.214,-0.056 0.231,-0.047 0.246,-0.042C0.256,-0.038 0.267,-0.036 0.28,-0.036C0.306,-0.036 0.329,-0.045 0.348,-0.065C0.367,-0.084 0.376,-0.108 0.376,-0.135C0.376,-0.193 0.347,-0.239 0.29,-0.275C0.233,-0.311 0.16,-0.329 0.073,-0.329C0.064,-0.329 0.051,-0.328 0.034,-0.328L0.152,-0.662Z" style="fill-rule:nonzero;"/>
                    </g>
                </g>
                <g transform="matrix(-0.53388,0,0,-1,291.009,-1.95443)">
                    <g transform="matrix(34.0888,0,0,34.0888,-625.324,-156.233)">
                        <path d="M0.152,-0.662L0.462,-0.662L0.413,-0.536L0.152,-0.536L0.127,-0.47C0.24,-0.466 0.326,-0.438 0.387,-0.386C0.437,-0.344 0.461,-0.291 0.461,-0.227C0.461,-0.186 0.45,-0.147 0.427,-0.108C0.404,-0.069 0.371,-0.039 0.329,-0.018C0.287,0.003 0.241,0.014 0.191,0.014C0.137,0.014 0.095,0.004 0.066,-0.017C0.046,-0.031 0.036,-0.047 0.036,-0.065C0.036,-0.079 0.041,-0.092 0.052,-0.103C0.063,-0.113 0.075,-0.119 0.089,-0.119C0.102,-0.119 0.114,-0.116 0.127,-0.111C0.14,-0.106 0.163,-0.092 0.194,-0.07C0.214,-0.056 0.231,-0.047 0.246,-0.042C0.256,-0.038 0.267,-0.036 0.28,-0.036C0.306,-0.036 0.329,-0.045 0.348,-0.065C0.367,-0.084 0.376,-0.108 0.376,-0.135C0.376,-0.193 0.347,-0.239 0.29,-0.275C0.233,-0.311 0.16,-0.329 0.073,-0.329C0.064,-0.329 0.051,-0.328 0.034,-0.328L0.152,-0.662Z" style="fill-rule:nonzero;"/>
                    </g>
                </g>
            </g>
        </g>
    </g>
</svg>
