<?xml version="1.0" encoding="UTF-8" standalone="no"?>
<!DOCTYPE svg PUBLIC "-//W3C//DTD SVG 1.1//EN" "http://www.w3.org/Graphics/SVG/1.1/DTD/svg11.dtd">
<svg width="100%" height="100%" viewBox="0 0 133 190" version="1.1" xmlns="http://www.w3.org/2000/svg" xmlns:xlink="http://www.w3.org/1999/xlink" xml:space="preserve" xmlns:serif="http://www.serif.com/" style="fill-rule:evenodd;clip-rule:evenodd;">
    <g transform="matrix(1,0,0,1,-10,-965)">
        <g id="kreuzass" transform="matrix(1.0231,0,0,0.854373,10.1667,140.12)">
            <rect x="0" y="965.48" width="129.704" height="221.683" style="fill:none;"/>
            <g id="kreuzass1" serif:id="kreuzass" transform="matrix(0.977423,0,0,1.17045,3.67365,969.241)">
                <g transform="matrix(1,0,0,-1,0,182.973)">
                    <g>
                        <path d="M0.148,5.868C0.148,3.035 2.465,0.719 5.301,0.719L119.891,0.719C122.719,0.719 125.035,3.035 125.035,5.868L125.035,177.106C125.035,179.938 122.719,182.254 119.891,182.254L5.301,182.254C2.465,182.254 0.148,179.938 0.148,177.106L0.148,5.868Z" style="fill:white;fill-rule:nonzero;stroke:black;stroke-width:1px;"/>
                    </g>
                </g>
                <g transform="matrix(0,-1,1,0,-24.416,45.228)">
                    <ellipse cx="10.406" cy="34.822" rx="2.459" ry="2.535"/>
                </g>
                <g transform="matrix(0,-1,1,0,-32.342,46.616)">
                    <ellipse cx="7.137" cy="39.479" rx="2.459" ry="2.535"/>
                </g>
                <g transform="matrix(1,0,0,-1,0,78.988)">
                    <path d="M11.098,39.492C11.098,39 11.246,38.535 11.508,38.144C11.957,37.476 12.746,37.035 13.629,37.035C15.031,37.035 16.164,38.136 16.164,39.492C16.164,40.851 15.031,41.953 13.629,41.953C12.227,41.953 11.098,40.851 11.098,39.492Z" style="fill-rule:nonzero;"/>
                </g>
                <g transform="matrix(1,0,0,-1,0,84.461)">
                    <path d="M7.43,40.191C8.684,40.191 9.34,41.211 9.688,42.231C10.031,43.25 10.062,44.27 10.062,44.27L10.707,44.27C10.707,44.27 10.824,40.199 13.328,40.191L7.43,40.191Z" style="fill-rule:nonzero;"/>
                </g>
                <g transform="matrix(1,0,0,-1,0,76.828)">
                    <path d="M12.121,40.199C10.699,38.773 10.699,36.637 10.699,36.637L10.062,36.629C10.062,36.629 10.062,38.808 8.676,40.199" style="fill-rule:nonzero;"/>
                </g>
                <g transform="matrix(1,0,0,-1,0,78.957)">
                    <path d="M11.84,37.754C10.414,39.176 8.277,39.176 8.277,39.176L8.277,39.816C8.277,39.816 10.457,39.816 11.844,41.203" style="fill-rule:nonzero;"/>
                </g>
                <g transform="matrix(1,0,0,-1,0,78.973)">
                    <path d="M8.98,37.762C10.406,39.188 12.543,39.188 12.543,39.188L12.543,39.825C12.543,39.825 10.359,39.825 8.973,41.211" style="fill-rule:nonzero;"/>
                </g>
                <g transform="matrix(0,1,-1,0,262.929,31.871)">
                    <ellipse cx="115.529" cy="147.4" rx="2.459" ry="2.533"/>
                </g>
                <g transform="matrix(0,1,-1,0,261.541,23.947)">
                    <ellipse cx="118.797" cy="142.744" rx="2.459" ry="2.535"/>
                </g>
                <g transform="matrix(1,0,0,-1,0,285.458)">
                    <path d="M114.84,142.728C114.84,143.224 114.688,143.688 114.426,144.079C113.977,144.747 113.188,145.188 112.305,145.188C110.902,145.188 109.77,144.087 109.77,142.728C109.77,141.372 110.902,140.27 112.305,140.27C113.707,140.27 114.84,141.372 114.84,142.728Z" style="fill-rule:nonzero;"/>
                </g>
                <g transform="matrix(1,0,0,-1,0,279.984)">
                    <path d="M118.504,142.031C117.254,142.031 116.594,141.011 116.246,139.992C115.902,138.972 115.875,137.953 115.875,137.953L115.227,137.953C115.227,137.953 115.109,142.023 112.605,142.031L118.504,142.031Z" style="fill-rule:nonzero;"/>
                </g>
                <g transform="matrix(1,0,0,-1,0,287.617)">
                    <path d="M113.812,142.023C115.234,143.449 115.234,145.586 115.234,145.586L115.875,145.594C115.875,145.594 115.875,143.41 117.262,142.023" style="fill-rule:nonzero;"/>
                </g>
                <g transform="matrix(1,0,0,-1,0,285.489)">
                    <path d="M114.098,144.469C115.52,143.044 117.656,143.044 117.656,143.044L117.656,142.407C117.656,142.407 115.477,142.407 114.09,141.02" style="fill-rule:nonzero;"/>
                </g>
                <g transform="matrix(1,0,0,-1,0,285.473)">
                    <path d="M116.953,144.461C115.527,143.035 113.391,143.035 113.391,143.035L113.391,142.399C113.391,142.399 115.574,142.399 116.961,141.012" style="fill-rule:nonzero;"/>
                </g>
                <g transform="matrix(0,-1,1,0,-14.555,140.598)">
                    <ellipse cx="63.021" cy="77.577" rx="5.901" ry="6.08"/>
                </g>
                <g transform="matrix(0,-1,1,0,-33.574,143.926)">
                    <ellipse cx="55.176" cy="88.75" rx="5.902" ry="6.082"/>
                </g>
                <g transform="matrix(1,0,0,-1,0,177.571)">
                    <path d="M64.676,88.786C64.676,87.598 65.035,86.481 65.668,85.548C66.746,83.946 68.637,82.883 70.758,82.883C74.125,82.883 76.84,85.528 76.84,88.786C76.84,92.04 74.125,94.688 70.758,94.688C67.395,94.688 64.676,92.04 64.676,88.786Z" style="fill-rule:nonzero;"/>
                </g>
                <g transform="matrix(1,0,0,-1,0,190.707)">
                    <path d="M55.879,90.461C58.883,90.461 60.465,92.906 61.293,95.352C62.121,97.801 62.195,100.246 62.195,100.246L63.742,100.246C63.742,100.246 64.027,90.477 70.039,90.461L55.879,90.461Z" style="fill-rule:nonzero;"/>
                </g>
                <g transform="matrix(1,0,0,-1,0,172.391)">
                    <path d="M67.141,90.477C63.723,87.059 63.723,81.93 63.723,81.93L62.195,81.914C62.195,81.914 62.195,87.149 58.863,90.477" style="fill-rule:nonzero;"/>
                </g>
                <g transform="matrix(1,0,0,-1,0,177.5)">
                    <path d="M66.457,84.613C63.039,88.031 57.91,88.031 57.91,88.031L57.91,89.559C57.91,89.559 63.148,89.559 66.477,92.887" style="fill-rule:nonzero;"/>
                </g>
                <g transform="matrix(1,0,0,-1,0,177.535)">
                    <path d="M59.602,84.629C63.02,88.047 68.148,88.047 68.148,88.047L68.148,89.578C68.148,89.578 62.914,89.578 59.586,92.906" style="fill-rule:nonzero;"/>
                </g>
                <g transform="matrix(0.53388,0,0,1,1.87987,1.18169)">
                    <g transform="matrix(34.0888,0,0,34.0888,3.14883,25.9905)">
                        <path d="M0.416,-0.188L0.182,-0.188L0.154,-0.124C0.145,-0.103 0.141,-0.085 0.141,-0.071C0.141,-0.052 0.148,-0.039 0.163,-0.03C0.172,-0.025 0.194,-0.021 0.228,-0.018L0.228,0L0.008,0L0.008,-0.018C0.032,-0.022 0.051,-0.031 0.066,-0.048C0.082,-0.064 0.101,-0.097 0.123,-0.147L0.36,-0.676L0.369,-0.676L0.608,-0.133C0.631,-0.081 0.649,-0.049 0.664,-0.036C0.675,-0.026 0.691,-0.02 0.711,-0.018L0.711,0L0.391,0L0.391,-0.018L0.404,-0.018C0.43,-0.018 0.448,-0.022 0.458,-0.029C0.465,-0.034 0.469,-0.042 0.469,-0.051C0.469,-0.057 0.468,-0.063 0.466,-0.069C0.465,-0.072 0.46,-0.084 0.451,-0.106L0.416,-0.188ZM0.399,-0.225L0.301,-0.453L0.199,-0.225L0.399,-0.225Z" style="fill-rule:nonzero;"/>
                    </g>
                </g>
                <g transform="matrix(-0.53388,0,0,-1,56.7656,-1.95443)">
                    <g transform="matrix(34.0888,0,0,34.0888,-122.786,-156.233)">
                        <path d="M0.416,-0.188L0.182,-0.188L0.154,-0.124C0.145,-0.103 0.141,-0.085 0.141,-0.071C0.141,-0.052 0.148,-0.039 0.163,-0.03C0.172,-0.025 0.194,-0.021 0.228,-0.018L0.228,0L0.008,0L0.008,-0.018C0.032,-0.022 0.051,-0.031 0.066,-0.048C0.082,-0.064 0.101,-0.097 0.123,-0.147L0.36,-0.676L0.369,-0.676L0.608,-0.133C0.631,-0.081 0.649,-0.049 0.664,-0.036C0.675,-0.026 0.691,-0.02 0.711,-0.018L0.711,0L0.391,0L0.391,-0.018L0.404,-0.018C0.43,-0.018 0.448,-0.022 0.458,-0.029C0.465,-0.034 0.469,-0.042 0.469,-0.051C0.469,-0.057 0.468,-0.063 0.466,-0.069C0.465,-0.072 0.46,-0.084 0.451,-0.106L0.416,-0.188ZM0.399,-0.225L0.301,-0.453L0.199,-0.225L0.399,-0.225Z" style="fill-rule:nonzero;"/>
                    </g>
                </g>
            </g>
        </g>
    </g>
</svg>
