<?xml version="1.0" encoding="UTF-8" standalone="no"?>
<!DOCTYPE svg PUBLIC "-//W3C//DTD SVG 1.1//EN" "http://www.w3.org/Graphics/SVG/1.1/DTD/svg11.dtd">
<svg width="100%" height="100%" viewBox="0 0 134 190" version="1.1" xmlns="http://www.w3.org/2000/svg" xmlns:xlink="http://www.w3.org/1999/xlink" xml:space="preserve" xmlns:serif="http://www.serif.com/" style="fill-rule:evenodd;clip-rule:evenodd;">
    <g transform="matrix(1,0,0,1,-932,-1695)">
        <g id="pikacht" transform="matrix(1.0231,0,0,0.854373,932.807,870.203)">
            <rect x="0" y="965.48" width="129.704" height="221.683" style="fill:none;"/>
            <g transform="matrix(0.977423,0,0,1.17045,-856.137,328.236)">
                <g transform="matrix(1,0,0,-1,0.23105,1277.49)">
                    <path d="M879.59,552.722C879.59,549.89 881.906,547.574 884.738,547.574L999.328,547.574C1002.16,547.574 1004.47,549.89 1004.47,552.722L1004.47,723.96C1004.47,726.792 1002.16,729.109 999.328,729.109L884.738,729.109C881.906,729.109 879.59,726.792 879.59,723.96L879.59,552.722Z" style="fill:white;fill-rule:nonzero;stroke:black;stroke-width:1px;"/>
                </g>
                <g transform="matrix(1,0,0,-1,0.23105,1177.69)">
                    <path d="M886.883,585.773C888.133,585.773 888.793,587.105 889.141,588.441C889.484,589.777 889.516,591.109 889.516,591.109L890.152,591.117C890.152,591.117 890.27,585.773 892.777,585.773L886.883,585.773Z" style="fill-rule:nonzero;"/>
                </g>
                <g transform="matrix(1,0,0,-1,0.23105,1168.03)">
                    <path d="M884.762,581.454C884.77,584.055 888.676,585.946 889.82,588C890.969,585.938 894.875,584.047 894.883,581.454C894.883,580.223 893.75,579.227 892.348,579.227C890.953,579.227 889.82,580.223 889.82,581.454C889.82,580.223 888.691,579.227 887.289,579.227C885.887,579.227 884.762,580.223 884.762,581.454Z" style="fill-rule:nonzero;"/>
                </g>
                <g transform="matrix(1,0,0,-1,0.23105,1375.78)">
                    <path d="M997.93,690.16C996.68,690.16 996.02,688.824 995.676,687.492C995.328,686.156 995.301,684.82 995.301,684.82L994.664,684.816C994.664,684.816 994.543,690.16 992.039,690.16L997.93,690.16Z" style="fill-rule:nonzero;"/>
                </g>
                <g transform="matrix(1,0,0,-1,0.23105,1385.44)">
                    <path d="M1000.06,694.481C1000.05,691.879 996.141,689.989 994.992,687.934C993.844,689.996 989.938,691.883 989.934,694.481C989.934,695.707 991.062,696.707 992.465,696.707C993.859,696.707 994.992,695.707 994.992,694.481C994.992,695.707 996.125,696.707 997.527,696.707C998.93,696.707 1000.06,695.707 1000.06,694.481Z" style="fill-rule:nonzero;"/>
                </g>
                <g transform="matrix(1,0,0,-1,0.23105,1166.77)">
                    <path d="M905.422,576.57C908.426,576.57 910.008,579.773 910.836,582.976C911.664,586.179 911.734,589.382 911.734,589.382L913.266,589.402C913.266,589.402 913.555,576.57 919.562,576.57L905.422,576.57Z" style="fill-rule:nonzero;"/>
                </g>
                <g transform="matrix(1,0,0,-1,0.23105,1143.58)">
                    <path d="M900.328,566.207C900.348,572.449 909.719,576.984 912.473,581.914C915.227,576.965 924.602,572.433 924.617,566.207C924.617,563.254 921.902,560.863 918.539,560.863C915.191,560.863 912.473,563.254 912.473,566.207C912.473,563.254 909.758,560.863 906.391,560.863C903.027,560.863 900.328,563.254 900.328,566.207Z" style="fill-rule:nonzero;"/>
                </g>
                <g transform="matrix(1,0,0,-1,0.23105,1247.98)">
                    <path d="M905.422,617.172C908.426,617.172 910.008,620.375 910.836,623.578C911.664,626.781 911.734,629.985 911.734,629.985L913.266,630.004C913.266,630.004 913.555,617.172 919.562,617.172L905.422,617.172Z" style="fill-rule:nonzero;"/>
                </g>
                <g transform="matrix(1,0,0,-1,0.23105,1224.78)">
                    <path d="M900.328,606.809C900.348,613.051 909.719,617.586 912.473,622.516C915.227,617.567 924.602,613.032 924.617,606.809C924.617,603.856 921.902,601.465 918.539,601.465C915.191,601.465 912.473,603.856 912.473,606.809C912.473,603.856 909.758,601.465 906.391,601.465C903.027,601.465 900.328,603.856 900.328,606.809Z" style="fill-rule:nonzero;"/>
                </g>
                <g transform="matrix(1,0,0,-1,0.23105,1299.27)">
                    <path d="M919.527,655.648C916.523,655.648 914.938,652.445 914.109,649.241C913.285,646.038 913.211,642.835 913.211,642.835L911.684,642.82C911.684,642.82 911.395,655.648 905.383,655.648L919.527,655.648Z" style="fill-rule:nonzero;"/>
                </g>
                <g transform="matrix(1,0,0,-1,0.23105,1322.47)">
                    <path d="M924.617,666.016C924.602,659.769 915.227,655.234 912.473,650.305C909.719,655.254 900.348,659.789 900.328,666.016C900.328,668.965 903.047,671.359 906.41,671.359C909.758,671.359 912.473,668.965 912.473,666.016C912.473,668.965 915.191,671.359 918.555,671.359C921.922,671.359 924.617,668.965 924.617,666.016Z" style="fill-rule:nonzero;"/>
                </g>
                <g transform="matrix(1,0,0,-1,0.23105,1380.48)">
                    <path d="M919.527,696.254C916.523,696.254 914.938,693.051 914.109,689.848C913.285,686.645 913.211,683.442 913.211,683.442L911.684,683.422C911.684,683.422 911.395,696.254 905.383,696.254L919.527,696.254Z" style="fill-rule:nonzero;"/>
                </g>
                <g transform="matrix(1,0,0,-1,0.23105,1403.67)">
                    <path d="M924.617,706.613C924.602,700.371 915.227,695.836 912.473,690.906C909.719,695.855 900.348,700.39 900.328,706.613C900.328,709.566 903.047,711.961 906.41,711.961C909.758,711.961 912.473,709.566 912.473,706.613C912.473,709.566 915.191,711.961 918.555,711.961C921.922,711.961 924.617,709.566 924.617,706.613Z" style="fill-rule:nonzero;"/>
                </g>
                <g transform="matrix(1,0,0,-1,0.23105,1166.77)">
                    <path d="M965.293,576.57C968.297,576.57 969.879,579.773 970.707,582.976C971.535,586.179 971.605,589.382 971.605,589.382L973.137,589.402C973.137,589.402 973.426,576.57 979.434,576.57L965.293,576.57Z" style="fill-rule:nonzero;"/>
                </g>
                <g transform="matrix(1,0,0,-1,0.23105,1143.58)">
                    <path d="M960.199,566.207C960.219,572.449 969.59,576.984 972.344,581.914C975.098,576.965 984.473,572.433 984.488,566.207C984.488,563.254 981.773,560.863 978.41,560.863C975.062,560.863 972.344,563.254 972.344,566.207C972.344,563.254 969.629,560.863 966.262,560.863C962.898,560.863 960.199,563.254 960.199,566.207Z" style="fill-rule:nonzero;"/>
                </g>
                <g transform="matrix(1,0,0,-1,0.23105,1247.98)">
                    <path d="M965.293,617.172C968.297,617.172 969.879,620.375 970.707,623.578C971.535,626.781 971.605,629.985 971.605,629.985L973.137,630.004C973.137,630.004 973.426,617.172 979.434,617.172L965.293,617.172Z" style="fill-rule:nonzero;"/>
                </g>
                <g transform="matrix(1,0,0,-1,0.23105,1224.78)">
                    <path d="M960.199,606.809C960.219,613.051 969.59,617.586 972.344,622.516C975.098,617.567 984.473,613.032 984.488,606.809C984.488,603.856 981.773,601.465 978.41,601.465C975.062,601.465 972.344,603.856 972.344,606.809C972.344,603.856 969.629,601.465 966.262,601.465C962.898,601.465 960.199,603.856 960.199,606.809Z" style="fill-rule:nonzero;"/>
                </g>
                <g transform="matrix(1,0,0,-1,0.23105,1299.27)">
                    <path d="M979.398,655.648C976.395,655.648 974.809,652.445 973.98,649.241C973.156,646.038 973.082,642.835 973.082,642.835L971.555,642.82C971.555,642.82 971.266,655.648 965.254,655.648L979.398,655.648Z" style="fill-rule:nonzero;"/>
                </g>
                <g transform="matrix(1,0,0,-1,0.23105,1322.47)">
                    <path d="M984.488,666.016C984.473,659.769 975.098,655.234 972.344,650.305C969.59,655.254 960.219,659.789 960.199,666.016C960.199,668.965 962.918,671.359 966.281,671.359C969.629,671.359 972.344,668.965 972.344,666.016C972.344,668.965 975.062,671.359 978.426,671.359C981.793,671.359 984.488,668.965 984.488,666.016Z" style="fill-rule:nonzero;"/>
                </g>
                <g transform="matrix(1,0,0,-1,0.23105,1380.48)">
                    <path d="M979.398,696.254C976.395,696.254 974.809,693.051 973.98,689.848C973.156,686.645 973.082,683.442 973.082,683.442L971.555,683.422C971.555,683.422 971.266,696.254 965.254,696.254L979.398,696.254Z" style="fill-rule:nonzero;"/>
                </g>
                <g transform="matrix(1,0,0,-1,0.23105,1403.67)">
                    <path d="M984.488,706.613C984.473,700.371 975.098,695.836 972.344,690.906C969.59,695.855 960.219,700.39 960.199,706.613C960.199,709.566 962.918,711.961 966.281,711.961C969.629,711.961 972.344,709.566 972.344,706.613C972.344,709.566 975.062,711.961 978.426,711.961C981.793,711.961 984.488,709.566 984.488,706.613Z" style="fill-rule:nonzero;"/>
                </g>
                <g transform="matrix(0.53388,0,0,1,412.442,550.523)">
                    <g transform="matrix(34.0888,0,0,34.0888,882.587,25.9905)">
                        <path d="M0.341,-0.374C0.387,-0.34 0.42,-0.308 0.438,-0.279C0.456,-0.249 0.465,-0.215 0.465,-0.177C0.465,-0.124 0.445,-0.079 0.405,-0.042C0.364,-0.005 0.31,0.014 0.241,0.014C0.175,0.014 0.125,-0.002 0.089,-0.035C0.053,-0.067 0.035,-0.106 0.035,-0.153C0.035,-0.188 0.045,-0.219 0.066,-0.246C0.087,-0.273 0.121,-0.297 0.169,-0.319C0.117,-0.359 0.083,-0.392 0.069,-0.417C0.054,-0.443 0.046,-0.472 0.046,-0.506C0.046,-0.55 0.065,-0.589 0.103,-0.623C0.14,-0.656 0.192,-0.673 0.257,-0.673C0.32,-0.673 0.369,-0.658 0.403,-0.629C0.437,-0.599 0.454,-0.563 0.454,-0.521C0.454,-0.49 0.445,-0.463 0.427,-0.439C0.408,-0.415 0.38,-0.393 0.341,-0.374ZM0.304,-0.399C0.316,-0.415 0.325,-0.433 0.331,-0.454C0.336,-0.474 0.339,-0.496 0.339,-0.52C0.339,-0.562 0.33,-0.595 0.312,-0.617C0.298,-0.634 0.279,-0.643 0.255,-0.643C0.234,-0.643 0.215,-0.635 0.2,-0.619C0.184,-0.604 0.177,-0.584 0.177,-0.561C0.177,-0.537 0.185,-0.512 0.202,-0.487C0.219,-0.461 0.253,-0.432 0.304,-0.399ZM0.206,-0.296C0.196,-0.287 0.189,-0.278 0.185,-0.271C0.178,-0.26 0.172,-0.243 0.167,-0.221C0.162,-0.199 0.159,-0.177 0.159,-0.153C0.159,-0.122 0.163,-0.097 0.171,-0.076C0.179,-0.055 0.19,-0.04 0.204,-0.031C0.219,-0.022 0.234,-0.018 0.249,-0.018C0.273,-0.018 0.293,-0.026 0.309,-0.044C0.325,-0.061 0.333,-0.085 0.333,-0.115C0.333,-0.178 0.291,-0.239 0.206,-0.296Z" style="fill-rule:nonzero;"/>
                    </g>
                </g>
                <g transform="matrix(-0.53388,0,0,-1,466.545,-1.51912)">
                    <g transform="matrix(34.0888,0,0,34.0888,-1002.23,-703.089)">
                        <path d="M0.341,-0.374C0.387,-0.34 0.42,-0.308 0.438,-0.279C0.456,-0.249 0.465,-0.215 0.465,-0.177C0.465,-0.124 0.445,-0.079 0.405,-0.042C0.364,-0.005 0.31,0.014 0.241,0.014C0.175,0.014 0.125,-0.002 0.089,-0.035C0.053,-0.067 0.035,-0.106 0.035,-0.153C0.035,-0.188 0.045,-0.219 0.066,-0.246C0.087,-0.273 0.121,-0.297 0.169,-0.319C0.117,-0.359 0.083,-0.392 0.069,-0.417C0.054,-0.443 0.046,-0.472 0.046,-0.506C0.046,-0.55 0.065,-0.589 0.103,-0.623C0.14,-0.656 0.192,-0.673 0.257,-0.673C0.32,-0.673 0.369,-0.658 0.403,-0.629C0.437,-0.599 0.454,-0.563 0.454,-0.521C0.454,-0.49 0.445,-0.463 0.427,-0.439C0.408,-0.415 0.38,-0.393 0.341,-0.374ZM0.304,-0.399C0.316,-0.415 0.325,-0.433 0.331,-0.454C0.336,-0.474 0.339,-0.496 0.339,-0.52C0.339,-0.562 0.33,-0.595 0.312,-0.617C0.298,-0.634 0.279,-0.643 0.255,-0.643C0.234,-0.643 0.215,-0.635 0.2,-0.619C0.184,-0.604 0.177,-0.584 0.177,-0.561C0.177,-0.537 0.185,-0.512 0.202,-0.487C0.219,-0.461 0.253,-0.432 0.304,-0.399ZM0.206,-0.296C0.196,-0.287 0.189,-0.278 0.185,-0.271C0.178,-0.26 0.172,-0.243 0.167,-0.221C0.162,-0.199 0.159,-0.177 0.159,-0.153C0.159,-0.122 0.163,-0.097 0.171,-0.076C0.179,-0.055 0.19,-0.04 0.204,-0.031C0.219,-0.022 0.234,-0.018 0.249,-0.018C0.273,-0.018 0.293,-0.026 0.309,-0.044C0.325,-0.061 0.333,-0.085 0.333,-0.115C0.333,-0.178 0.291,-0.239 0.206,-0.296Z" style="fill-rule:nonzero;"/>
                    </g>
                </g>
            </g>
        </g>
    </g>
</svg>
