<?xml version="1.0" encoding="UTF-8" standalone="no"?>
<!DOCTYPE svg PUBLIC "-//W3C//DTD SVG 1.1//EN" "http://www.w3.org/Graphics/SVG/1.1/DTD/svg11.dtd">
<svg width="100%" height="100%" viewBox="0 0 134 190" version="1.1" xmlns="http://www.w3.org/2000/svg" xmlns:xlink="http://www.w3.org/1999/xlink" xml:space="preserve" xmlns:serif="http://www.serif.com/" style="fill-rule:evenodd;clip-rule:evenodd;">
    <g transform="matrix(1,0,0,1,-269,-1695)">
        <g id="pikdrei" transform="matrix(1.0231,0,0,0.854373,269.306,870.203)">
            <rect x="0" y="965.48" width="129.704" height="221.683" style="fill:none;"/>
            <g transform="matrix(0.977423,0,0,1.17045,-242.149,328.236)">
                <g transform="matrix(1,0,0,-1,0.23105,1277.49)">
                    <path d="M251.418,552.722C251.418,549.89 253.734,547.574 256.57,547.574L371.16,547.574C373.988,547.574 376.305,549.89 376.305,552.722L376.305,723.96C376.305,726.792 373.988,729.109 371.16,729.109L256.57,729.109C253.734,729.109 251.418,726.792 251.418,723.96L251.418,552.722Z" style="fill:white;fill-rule:nonzero;stroke:black;stroke-width:1px;"/>
                </g>
                <g transform="matrix(1,0,0,-1,0.23105,1177.69)">
                    <path d="M258.715,585.773C259.965,585.773 260.625,587.105 260.969,588.441C261.316,589.777 261.344,591.109 261.344,591.109L261.984,591.117C261.984,591.117 262.102,585.773 264.605,585.773L258.715,585.773Z" style="fill-rule:nonzero;"/>
                </g>
                <g transform="matrix(1,0,0,-1,0.23105,1168.03)">
                    <path d="M256.594,581.454C256.598,584.055 260.504,585.946 261.652,588C262.801,585.938 266.707,584.047 266.715,581.454C266.715,580.223 265.582,579.227 264.18,579.227C262.785,579.227 261.652,580.223 261.652,581.454C261.652,580.223 260.52,579.227 259.117,579.227C257.715,579.227 256.594,580.223 256.594,581.454Z" style="fill-rule:nonzero;"/>
                </g>
                <g transform="matrix(1,0,0,-1,0.23105,1375.78)">
                    <path d="M369.758,690.16C368.508,690.16 367.848,688.824 367.504,687.492C367.156,686.156 367.129,684.82 367.129,684.82L366.488,684.816C366.488,684.816 366.371,690.16 363.867,690.16L369.758,690.16Z" style="fill-rule:nonzero;"/>
                </g>
                <g transform="matrix(1,0,0,-1,0.23105,1385.44)">
                    <path d="M371.879,694.481C371.871,691.879 367.969,689.989 366.82,687.934C365.672,689.996 361.766,691.883 361.758,694.481C361.758,695.707 362.891,696.707 364.293,696.707C365.688,696.707 366.82,695.707 366.82,694.481C366.82,695.707 367.953,696.707 369.355,696.707C370.758,696.707 371.879,695.707 371.879,694.481Z" style="fill-rule:nonzero;"/>
                </g>
                <g transform="matrix(1,0,0,-1,0.23105,1380.48)">
                    <path d="M321.289,696.254C318.285,696.254 316.699,693.051 315.875,689.848C315.047,686.645 314.973,683.442 314.973,683.442L313.445,683.422C313.445,683.422 313.156,696.254 307.145,696.254L321.289,696.254Z" style="fill-rule:nonzero;"/>
                </g>
                <g transform="matrix(1,0,0,-1,0.23105,1403.67)">
                    <path d="M326.383,706.613C326.363,700.371 316.988,695.836 314.234,690.906C311.484,695.855 302.109,700.39 302.09,706.613C302.09,709.566 304.809,711.961 308.172,711.961C311.52,711.961 314.234,709.566 314.234,706.613C314.234,709.566 316.953,711.961 320.316,711.961C323.684,711.961 326.383,709.566 326.383,706.613Z" style="fill-rule:nonzero;"/>
                </g>
                <g transform="matrix(1,0,0,-1,0.23105,1282.15)">
                    <path d="M307.184,634.258C310.188,634.258 311.77,637.461 312.598,640.664C313.426,643.867 313.496,647.071 313.496,647.071L315.027,647.086C315.027,647.086 315.316,634.258 321.324,634.258L307.184,634.258Z" style="fill-rule:nonzero;"/>
                </g>
                <g transform="matrix(1,0,0,-1,0.23105,1258.95)">
                    <path d="M302.09,623.891C302.109,630.137 311.484,634.672 314.234,639.602C316.988,634.653 326.363,630.118 326.383,623.891C326.383,620.942 323.664,618.547 320.301,618.547C316.953,618.547 314.234,620.942 314.234,623.891C314.234,620.942 311.52,618.547 308.152,618.547C304.789,618.547 302.09,620.942 302.09,623.891Z" style="fill-rule:nonzero;"/>
                </g>
                <g transform="matrix(1,0,0,-1,0.23105,1166.77)">
                    <path d="M307.184,576.57C310.188,576.57 311.77,579.773 312.598,582.976C313.426,586.179 313.496,589.382 313.496,589.382L315.027,589.402C315.027,589.402 315.316,576.57 321.324,576.57L307.184,576.57Z" style="fill-rule:nonzero;"/>
                </g>
                <g transform="matrix(1,0,0,-1,0.23105,1143.58)">
                    <path d="M302.09,566.207C302.109,572.449 311.484,576.984 314.234,581.914C316.988,576.965 326.363,572.433 326.383,566.207C326.383,563.254 323.664,560.863 320.301,560.863C316.953,560.863 314.234,563.254 314.234,566.207C314.234,563.254 311.52,560.863 308.152,560.863C304.789,560.863 302.09,563.254 302.09,566.207Z" style="fill-rule:nonzero;"/>
                </g>
                <g transform="matrix(0.53388,0,0,1,119.64,550.523)">
                    <g transform="matrix(34.0888,0,0,34.0888,254.418,25.9905)">
                        <path d="M0.148,-0.332L0.148,-0.349C0.185,-0.36 0.211,-0.37 0.225,-0.379C0.239,-0.388 0.252,-0.403 0.262,-0.422C0.273,-0.441 0.278,-0.46 0.278,-0.479C0.278,-0.507 0.268,-0.53 0.248,-0.549C0.229,-0.568 0.204,-0.578 0.175,-0.578C0.129,-0.578 0.09,-0.554 0.059,-0.506L0.041,-0.512C0.064,-0.567 0.094,-0.607 0.131,-0.635C0.167,-0.662 0.208,-0.676 0.253,-0.676C0.299,-0.676 0.337,-0.662 0.366,-0.634C0.396,-0.606 0.411,-0.573 0.411,-0.536C0.411,-0.511 0.404,-0.488 0.39,-0.465C0.377,-0.442 0.355,-0.423 0.325,-0.405C0.363,-0.387 0.392,-0.364 0.412,-0.337C0.432,-0.309 0.442,-0.275 0.442,-0.234C0.442,-0.165 0.417,-0.107 0.367,-0.058C0.317,-0.01 0.25,0.014 0.167,0.014C0.111,0.014 0.07,0.005 0.044,-0.014C0.025,-0.027 0.016,-0.043 0.016,-0.064C0.016,-0.079 0.021,-0.092 0.032,-0.102C0.043,-0.113 0.055,-0.118 0.069,-0.118C0.08,-0.118 0.09,-0.116 0.1,-0.111C0.105,-0.109 0.123,-0.094 0.155,-0.069C0.187,-0.043 0.216,-0.03 0.244,-0.03C0.268,-0.03 0.289,-0.039 0.306,-0.058C0.323,-0.077 0.332,-0.102 0.332,-0.131C0.332,-0.175 0.316,-0.217 0.285,-0.254C0.254,-0.292 0.208,-0.318 0.148,-0.332Z" style="fill-rule:nonzero;"/>
                    </g>
                </g>
                <g transform="matrix(-0.53388,0,0,-1,173.741,-1.51912)">
                    <g transform="matrix(34.0888,0,0,34.0888,-374.055,-703.089)">
                        <path d="M0.148,-0.332L0.148,-0.349C0.185,-0.36 0.211,-0.37 0.225,-0.379C0.239,-0.388 0.252,-0.403 0.262,-0.422C0.273,-0.441 0.278,-0.46 0.278,-0.479C0.278,-0.507 0.268,-0.53 0.248,-0.549C0.229,-0.568 0.204,-0.578 0.175,-0.578C0.129,-0.578 0.09,-0.554 0.059,-0.506L0.041,-0.512C0.064,-0.567 0.094,-0.607 0.131,-0.635C0.167,-0.662 0.208,-0.676 0.253,-0.676C0.299,-0.676 0.337,-0.662 0.366,-0.634C0.396,-0.606 0.411,-0.573 0.411,-0.536C0.411,-0.511 0.404,-0.488 0.39,-0.465C0.377,-0.442 0.355,-0.423 0.325,-0.405C0.363,-0.387 0.392,-0.364 0.412,-0.337C0.432,-0.309 0.442,-0.275 0.442,-0.234C0.442,-0.165 0.417,-0.107 0.367,-0.058C0.317,-0.01 0.25,0.014 0.167,0.014C0.111,0.014 0.07,0.005 0.044,-0.014C0.025,-0.027 0.016,-0.043 0.016,-0.064C0.016,-0.079 0.021,-0.092 0.032,-0.102C0.043,-0.113 0.055,-0.118 0.069,-0.118C0.08,-0.118 0.09,-0.116 0.1,-0.111C0.105,-0.109 0.123,-0.094 0.155,-0.069C0.187,-0.043 0.216,-0.03 0.244,-0.03C0.268,-0.03 0.289,-0.039 0.306,-0.058C0.323,-0.077 0.332,-0.102 0.332,-0.131C0.332,-0.175 0.316,-0.217 0.285,-0.254C0.254,-0.292 0.208,-0.318 0.148,-0.332Z" style="fill-rule:nonzero;"/>
                    </g>
                </g>
            </g>
        </g>
    </g>
</svg>
