<?xml version="1.0" encoding="UTF-8" standalone="no"?>
<!DOCTYPE svg PUBLIC "-//W3C//DTD SVG 1.1//EN" "http://www.w3.org/Graphics/SVG/1.1/DTD/svg11.dtd">
<svg width="100%" height="100%" viewBox="0 0 134 190" version="1.1" xmlns="http://www.w3.org/2000/svg" xmlns:xlink="http://www.w3.org/1999/xlink" xml:space="preserve" xmlns:serif="http://www.serif.com/" style="fill-rule:evenodd;clip-rule:evenodd;">
    <g transform="matrix(1,0,0,1,-534,-1695)">
        <g id="pikfünf" transform="matrix(1.0231,0,0,0.854373,534.707,870.203)">
            <rect x="0" y="965.48" width="129.704" height="221.683" style="fill:none;"/>
            <g transform="matrix(0.977423,0,0,1.17045,-487.746,328.236)">
                <g transform="matrix(1,0,0,-1,0.23105,1277.49)">
                    <path d="M502.688,552.722C502.688,549.89 505.004,547.574 507.84,547.574L622.43,547.574C625.258,547.574 627.574,549.89 627.574,552.722L627.574,723.96C627.574,726.792 625.258,729.109 622.43,729.109L507.84,729.109C505.004,729.109 502.688,726.792 502.688,723.96L502.688,552.722Z" style="fill:white;fill-rule:nonzero;stroke:black;stroke-width:1px;"/>
                </g>
                <g transform="matrix(1,0,0,-1,0.23105,1177.69)">
                    <path d="M509.984,585.773C511.234,585.773 511.895,587.105 512.238,588.441C512.586,589.777 512.613,591.109 512.613,591.109L513.25,591.117C513.25,591.117 513.371,585.773 515.875,585.773L509.984,585.773Z" style="fill-rule:nonzero;"/>
                </g>
                <g transform="matrix(1,0,0,-1,0.23105,1168.03)">
                    <path d="M507.859,581.454C507.867,584.055 511.773,585.946 512.922,588C514.07,585.938 517.977,584.047 517.98,581.454C517.98,580.223 516.852,579.227 515.449,579.227C514.055,579.227 512.922,580.223 512.922,581.454C512.922,580.223 511.789,579.227 510.387,579.227C508.984,579.227 507.859,580.223 507.859,581.454Z" style="fill-rule:nonzero;"/>
                </g>
                <g transform="matrix(1,0,0,-1,0.23105,1375.78)">
                    <path d="M621.027,690.16C619.777,690.16 619.117,688.824 618.77,687.492C618.426,686.156 618.395,684.82 618.395,684.82L617.758,684.816C617.758,684.816 617.641,690.16 615.137,690.16L621.027,690.16Z" style="fill-rule:nonzero;"/>
                </g>
                <g transform="matrix(1,0,0,-1,0.23105,1385.44)">
                    <path d="M623.148,694.481C623.141,691.879 619.234,689.989 618.09,687.934C616.941,689.996 613.035,691.883 613.027,694.481C613.027,695.707 614.16,696.707 615.562,696.707C616.957,696.707 618.09,695.707 618.09,694.481C618.09,695.707 619.223,696.707 620.621,696.707C622.023,696.707 623.148,695.707 623.148,694.481Z" style="fill-rule:nonzero;"/>
                </g>
                <g transform="matrix(1,0,0,-1,0.23105,1166.77)">
                    <path d="M528.516,576.57C531.52,576.57 533.105,579.773 533.934,582.976C534.762,586.179 534.832,589.382 534.832,589.382L536.359,589.402C536.359,589.402 536.648,576.57 542.66,576.57L528.516,576.57Z" style="fill-rule:nonzero;"/>
                </g>
                <g transform="matrix(1,0,0,-1,0.23105,1143.58)">
                    <path d="M523.426,566.207C523.441,572.449 532.816,576.984 535.57,581.914C538.324,576.965 547.695,572.433 547.715,566.207C547.715,563.254 545,560.863 541.633,560.863C538.285,560.863 535.57,563.254 535.57,566.207C535.57,563.254 532.852,560.863 529.488,560.863C526.125,560.863 523.426,563.254 523.426,566.207Z" style="fill-rule:nonzero;"/>
                </g>
                <g transform="matrix(1,0,0,-1,0.23105,1380.48)">
                    <path d="M542.621,696.254C539.617,696.254 538.035,693.051 537.207,689.848C536.379,686.645 536.309,683.442 536.309,683.442L534.777,683.422C534.777,683.422 534.488,696.254 528.48,696.254L542.621,696.254Z" style="fill-rule:nonzero;"/>
                </g>
                <g transform="matrix(1,0,0,-1,0.23105,1403.67)">
                    <path d="M547.715,706.613C547.695,700.371 538.324,695.836 535.57,690.906C532.816,695.855 523.441,700.39 523.426,706.613C523.426,709.566 526.141,711.961 529.508,711.961C532.852,711.961 535.57,709.566 535.57,706.613C535.57,709.566 538.285,711.961 541.652,711.961C545.016,711.961 547.715,709.566 547.715,706.613Z" style="fill-rule:nonzero;"/>
                </g>
                <g transform="matrix(1,0,0,-1,0.23105,1166.77)">
                    <path d="M588.387,576.57C591.391,576.57 592.977,579.773 593.805,582.976C594.633,586.179 594.703,589.382 594.703,589.382L596.23,589.402C596.23,589.402 596.52,576.57 602.531,576.57L588.387,576.57Z" style="fill-rule:nonzero;"/>
                </g>
                <g transform="matrix(1,0,0,-1,0.23105,1143.58)">
                    <path d="M583.297,566.207C583.312,572.449 592.688,576.984 595.441,581.914C598.195,576.965 607.566,572.433 607.586,566.207C607.586,563.254 604.867,560.863 601.504,560.863C598.156,560.863 595.441,563.254 595.441,566.207C595.441,563.254 592.723,560.863 589.359,560.863C585.992,560.863 583.297,563.254 583.297,566.207Z" style="fill-rule:nonzero;"/>
                </g>
                <g transform="matrix(1,0,0,-1,0.23105,1380.48)">
                    <path d="M602.492,696.254C599.488,696.254 597.906,693.051 597.078,689.848C596.25,686.645 596.18,683.442 596.18,683.442L594.648,683.422C594.648,683.422 594.359,696.254 588.352,696.254L602.492,696.254Z" style="fill-rule:nonzero;"/>
                </g>
                <g transform="matrix(1,0,0,-1,0.23105,1403.67)">
                    <path d="M607.586,706.613C607.566,700.371 598.195,695.836 595.441,690.906C592.688,695.855 583.312,700.39 583.297,706.613C583.297,709.566 586.012,711.961 589.375,711.961C592.723,711.961 595.441,709.566 595.441,706.613C595.441,709.566 598.156,711.961 601.523,711.961C604.887,711.961 607.586,709.566 607.586,706.613Z" style="fill-rule:nonzero;"/>
                </g>
                <g transform="matrix(1,0,0,-1,0.23105,1282.15)">
                    <path d="M558.453,634.258C561.457,634.258 563.039,637.461 563.867,640.664C564.695,643.867 564.766,647.071 564.766,647.071L566.297,647.086C566.297,647.086 566.586,634.258 572.594,634.258L558.453,634.258Z" style="fill-rule:nonzero;"/>
                </g>
                <g transform="matrix(1,0,0,-1,0.23105,1258.95)">
                    <path d="M553.359,623.891C553.379,630.137 562.754,634.672 565.504,639.602C568.258,634.653 577.633,630.118 577.652,623.891C577.652,620.942 574.934,618.547 571.57,618.547C568.223,618.547 565.504,620.942 565.504,623.891C565.504,620.942 562.789,618.547 559.422,618.547C556.059,618.547 553.359,620.942 553.359,623.891Z" style="fill-rule:nonzero;"/>
                </g>
                <g transform="matrix(0.53388,0,0,1,236.762,550.523)">
                    <g transform="matrix(34.0888,0,0,34.0888,505.687,25.9905)">
                        <path d="M0.152,-0.662L0.462,-0.662L0.413,-0.536L0.152,-0.536L0.127,-0.47C0.24,-0.466 0.326,-0.438 0.387,-0.386C0.437,-0.344 0.461,-0.291 0.461,-0.227C0.461,-0.186 0.45,-0.147 0.427,-0.108C0.404,-0.069 0.371,-0.039 0.329,-0.018C0.287,0.003 0.241,0.014 0.191,0.014C0.137,0.014 0.095,0.004 0.066,-0.017C0.046,-0.031 0.036,-0.047 0.036,-0.065C0.036,-0.079 0.041,-0.092 0.052,-0.103C0.063,-0.113 0.075,-0.119 0.089,-0.119C0.102,-0.119 0.114,-0.116 0.127,-0.111C0.14,-0.106 0.163,-0.092 0.194,-0.07C0.214,-0.056 0.231,-0.047 0.246,-0.042C0.256,-0.038 0.267,-0.036 0.28,-0.036C0.306,-0.036 0.329,-0.045 0.348,-0.065C0.367,-0.084 0.376,-0.108 0.376,-0.135C0.376,-0.193 0.347,-0.239 0.29,-0.275C0.233,-0.311 0.16,-0.329 0.073,-0.329C0.064,-0.329 0.051,-0.328 0.034,-0.328L0.152,-0.662Z" style="fill-rule:nonzero;"/>
                    </g>
                </g>
                <g transform="matrix(-0.53388,0,0,-1,290.863,-1.51912)">
                    <g transform="matrix(34.0888,0,0,34.0888,-625.324,-703.089)">
                        <path d="M0.152,-0.662L0.462,-0.662L0.413,-0.536L0.152,-0.536L0.127,-0.47C0.24,-0.466 0.326,-0.438 0.387,-0.386C0.437,-0.344 0.461,-0.291 0.461,-0.227C0.461,-0.186 0.45,-0.147 0.427,-0.108C0.404,-0.069 0.371,-0.039 0.329,-0.018C0.287,0.003 0.241,0.014 0.191,0.014C0.137,0.014 0.095,0.004 0.066,-0.017C0.046,-0.031 0.036,-0.047 0.036,-0.065C0.036,-0.079 0.041,-0.092 0.052,-0.103C0.063,-0.113 0.075,-0.119 0.089,-0.119C0.102,-0.119 0.114,-0.116 0.127,-0.111C0.14,-0.106 0.163,-0.092 0.194,-0.07C0.214,-0.056 0.231,-0.047 0.246,-0.042C0.256,-0.038 0.267,-0.036 0.28,-0.036C0.306,-0.036 0.329,-0.045 0.348,-0.065C0.367,-0.084 0.376,-0.108 0.376,-0.135C0.376,-0.193 0.347,-0.239 0.29,-0.275C0.233,-0.311 0.16,-0.329 0.073,-0.329C0.064,-0.329 0.051,-0.328 0.034,-0.328L0.152,-0.662Z" style="fill-rule:nonzero;"/>
                    </g>
                </g>
            </g>
        </g>
    </g>
</svg>
