<?xml version="1.0" encoding="UTF-8" standalone="no"?>
<!DOCTYPE svg PUBLIC "-//W3C//DTD SVG 1.1//EN" "http://www.w3.org/Graphics/SVG/1.1/DTD/svg11.dtd">
<svg width="100%" height="100%" viewBox="0 0 134 190" version="1.1" xmlns="http://www.w3.org/2000/svg" xmlns:xlink="http://www.w3.org/1999/xlink" xml:space="preserve" xmlns:serif="http://www.serif.com/" style="fill-rule:evenodd;clip-rule:evenodd;">
    <g transform="matrix(1,0,0,1,-667,-1695)">
        <g id="piksechs" transform="matrix(1.0231,0,0,0.854373,667.407,870.203)">
            <rect x="0" y="965.48" width="129.704" height="221.683" style="fill:none;"/>
            <g transform="matrix(0.977423,0,0,1.17045,-610.544,328.236)">
                <g transform="matrix(1,0,0,-1,0.23105,1277.49)">
                    <path d="M628.324,552.722C628.324,549.89 630.641,547.574 633.473,547.574L748.063,547.574C750.891,547.574 753.207,549.89 753.207,552.722L753.207,723.96C753.207,726.792 750.891,729.109 748.063,729.109L633.473,729.109C630.641,729.109 628.324,726.792 628.324,723.96L628.324,552.722Z" style="fill:white;fill-rule:nonzero;stroke:black;stroke-width:1px;"/>
                </g>
                <g transform="matrix(1,0,0,-1,0.23105,1177.69)">
                    <path d="M635.617,585.773C636.871,585.773 637.527,587.105 637.875,588.441C638.219,589.777 638.25,591.109 638.25,591.109L638.887,591.117C638.887,591.117 639.008,585.773 641.512,585.773L635.617,585.773Z" style="fill-rule:nonzero;"/>
                </g>
                <g transform="matrix(1,0,0,-1,0.23105,1168.03)">
                    <path d="M633.496,581.454C633.504,584.055 637.41,585.946 638.555,588C639.703,585.938 643.609,584.047 643.617,581.454C643.617,580.223 642.484,579.227 641.082,579.227C639.688,579.227 638.555,580.223 638.555,581.454C638.555,580.223 637.426,579.227 636.023,579.227C634.621,579.227 633.496,580.223 633.496,581.454Z" style="fill-rule:nonzero;"/>
                </g>
                <g transform="matrix(1,0,0,-1,0.23105,1375.78)">
                    <path d="M746.664,690.16C745.41,690.16 744.75,688.824 744.406,687.492C744.062,686.156 744.031,684.82 744.031,684.82L743.395,684.816C743.395,684.816 743.273,690.16 740.77,690.16L746.664,690.16Z" style="fill-rule:nonzero;"/>
                </g>
                <g transform="matrix(1,0,0,-1,0.23105,1385.44)">
                    <path d="M748.785,694.481C748.777,691.879 744.871,689.989 743.723,687.934C742.578,689.996 738.672,691.883 738.664,694.481C738.664,695.707 739.793,696.707 741.195,696.707C742.59,696.707 743.723,695.707 743.723,694.481C743.723,695.707 744.855,696.707 746.258,696.707C747.66,696.707 748.785,695.707 748.785,694.481Z" style="fill-rule:nonzero;"/>
                </g>
                <g transform="matrix(1,0,0,-1,0.23105,1166.77)">
                    <path d="M654.152,576.57C657.156,576.57 658.738,579.773 659.566,582.976C660.395,586.179 660.465,589.382 660.465,589.382L661.996,589.402C661.996,589.402 662.285,576.57 668.293,576.57L654.152,576.57Z" style="fill-rule:nonzero;"/>
                </g>
                <g transform="matrix(1,0,0,-1,0.23105,1143.58)">
                    <path d="M649.059,566.207C649.078,572.449 658.453,576.984 661.203,581.914C663.957,576.965 673.332,572.433 673.352,566.207C673.352,563.254 670.633,560.863 667.27,560.863C663.922,560.863 661.203,563.254 661.203,566.207C661.203,563.254 658.488,560.863 655.121,560.863C651.758,560.863 649.059,563.254 649.059,566.207Z" style="fill-rule:nonzero;"/>
                </g>
                <g transform="matrix(1,0,0,-1,0.23105,1282.15)">
                    <path d="M654.152,634.258C657.156,634.258 658.738,637.461 659.566,640.664C660.395,643.867 660.465,647.071 660.465,647.071L661.996,647.086C661.996,647.086 662.285,634.258 668.293,634.258L654.152,634.258Z" style="fill-rule:nonzero;"/>
                </g>
                <g transform="matrix(1,0,0,-1,0.23105,1258.95)">
                    <path d="M649.059,623.891C649.078,630.137 658.453,634.672 661.203,639.602C663.957,634.653 673.332,630.118 673.352,623.891C673.352,620.942 670.633,618.547 667.27,618.547C663.922,618.547 661.203,620.942 661.203,623.891C661.203,620.942 658.488,618.547 655.121,618.547C651.758,618.547 649.059,620.942 649.059,623.891Z" style="fill-rule:nonzero;"/>
                </g>
                <g transform="matrix(1,0,0,-1,0.23105,1380.48)">
                    <path d="M668.258,696.254C665.254,696.254 663.668,693.051 662.84,689.848C662.016,686.645 661.941,683.442 661.941,683.442L660.414,683.422C660.414,683.422 660.125,696.254 654.113,696.254L668.258,696.254Z" style="fill-rule:nonzero;"/>
                </g>
                <g transform="matrix(1,0,0,-1,0.23105,1403.67)">
                    <path d="M673.352,706.613C673.332,700.371 663.957,695.836 661.203,690.906C658.453,695.855 649.078,700.39 649.059,706.613C649.059,709.566 651.777,711.961 655.141,711.961C658.488,711.961 661.203,709.566 661.203,706.613C661.203,709.566 663.922,711.961 667.285,711.961C670.652,711.961 673.352,709.566 673.352,706.613Z" style="fill-rule:nonzero;"/>
                </g>
                <g transform="matrix(1,0,0,-1,0.23105,1166.77)">
                    <path d="M714.023,576.57C717.027,576.57 718.609,579.773 719.438,582.976C720.266,586.179 720.336,589.382 720.336,589.382L721.867,589.402C721.867,589.402 722.156,576.57 728.164,576.57L714.023,576.57Z" style="fill-rule:nonzero;"/>
                </g>
                <g transform="matrix(1,0,0,-1,0.23105,1143.58)">
                    <path d="M708.93,566.207C708.949,572.449 718.32,576.984 721.074,581.914C723.828,576.965 733.203,572.433 733.223,566.207C733.223,563.254 730.504,560.863 727.141,560.863C723.793,560.863 721.074,563.254 721.074,566.207C721.074,563.254 718.359,560.863 714.992,560.863C711.629,560.863 708.93,563.254 708.93,566.207Z" style="fill-rule:nonzero;"/>
                </g>
                <g transform="matrix(1,0,0,-1,0.23105,1282.15)">
                    <path d="M714.023,634.258C717.027,634.258 718.609,637.461 719.438,640.664C720.266,643.867 720.336,647.071 720.336,647.071L721.867,647.086C721.867,647.086 722.156,634.258 728.164,634.258L714.023,634.258Z" style="fill-rule:nonzero;"/>
                </g>
                <g transform="matrix(1,0,0,-1,0.23105,1258.95)">
                    <path d="M708.93,623.891C708.949,630.137 718.32,634.672 721.074,639.602C723.828,634.653 733.203,630.118 733.223,623.891C733.223,620.942 730.504,618.547 727.141,618.547C723.793,618.547 721.074,620.942 721.074,623.891C721.074,620.942 718.359,618.547 714.992,618.547C711.629,618.547 708.93,620.942 708.93,623.891Z" style="fill-rule:nonzero;"/>
                </g>
                <g transform="matrix(1,0,0,-1,0.23105,1380.48)">
                    <path d="M728.129,696.254C725.125,696.254 723.539,693.051 722.711,689.848C721.887,686.645 721.812,683.442 721.812,683.442L720.285,683.422C720.285,683.422 719.996,696.254 713.984,696.254L728.129,696.254Z" style="fill-rule:nonzero;"/>
                </g>
                <g transform="matrix(1,0,0,-1,0.23105,1403.67)">
                    <path d="M733.223,706.613C733.203,700.371 723.828,695.836 721.074,690.906C718.32,695.855 708.949,700.39 708.93,706.613C708.93,709.566 711.648,711.961 715.012,711.961C718.359,711.961 721.074,709.566 721.074,706.613C721.074,709.566 723.793,711.961 727.156,711.961C730.523,711.961 733.223,709.566 733.223,706.613Z" style="fill-rule:nonzero;"/>
                </g>
                <g transform="matrix(0.53388,0,0,1,295.322,550.523)">
                    <g transform="matrix(34.0888,0,0,34.0888,631.321,25.9905)">
                        <path d="M0.47,-0.676L0.47,-0.662C0.411,-0.647 0.364,-0.628 0.328,-0.604C0.292,-0.581 0.264,-0.552 0.243,-0.518C0.223,-0.485 0.207,-0.443 0.195,-0.393C0.21,-0.403 0.222,-0.409 0.231,-0.412C0.252,-0.419 0.273,-0.422 0.295,-0.422C0.344,-0.422 0.386,-0.404 0.419,-0.368C0.452,-0.332 0.468,-0.283 0.468,-0.221C0.468,-0.177 0.459,-0.137 0.441,-0.101C0.424,-0.064 0.398,-0.036 0.365,-0.016C0.332,0.004 0.297,0.014 0.26,0.014C0.219,0.014 0.181,0.003 0.147,-0.02C0.112,-0.042 0.086,-0.075 0.066,-0.118C0.047,-0.161 0.037,-0.207 0.037,-0.258C0.037,-0.332 0.055,-0.401 0.091,-0.465C0.126,-0.529 0.177,-0.58 0.242,-0.618C0.308,-0.656 0.384,-0.675 0.47,-0.676ZM0.189,-0.354C0.186,-0.309 0.185,-0.276 0.185,-0.255C0.185,-0.21 0.189,-0.167 0.198,-0.125C0.207,-0.083 0.218,-0.053 0.233,-0.036C0.244,-0.024 0.257,-0.018 0.271,-0.018C0.286,-0.018 0.3,-0.027 0.312,-0.044C0.323,-0.062 0.329,-0.097 0.329,-0.15C0.329,-0.24 0.318,-0.302 0.296,-0.336C0.282,-0.359 0.264,-0.37 0.24,-0.37C0.227,-0.37 0.21,-0.364 0.189,-0.354Z" style="fill-rule:nonzero;"/>
                    </g>
                </g>
                <g transform="matrix(-0.53388,0,0,-1,349.424,-1.51912)">
                    <g transform="matrix(34.0888,0,0,34.0888,-750.958,-703.089)">
                        <path d="M0.47,-0.676L0.47,-0.662C0.411,-0.647 0.364,-0.628 0.328,-0.604C0.292,-0.581 0.264,-0.552 0.243,-0.518C0.223,-0.485 0.207,-0.443 0.195,-0.393C0.21,-0.403 0.222,-0.409 0.231,-0.412C0.252,-0.419 0.273,-0.422 0.295,-0.422C0.344,-0.422 0.386,-0.404 0.419,-0.368C0.452,-0.332 0.468,-0.283 0.468,-0.221C0.468,-0.177 0.459,-0.137 0.441,-0.101C0.424,-0.064 0.398,-0.036 0.365,-0.016C0.332,0.004 0.297,0.014 0.26,0.014C0.219,0.014 0.181,0.003 0.147,-0.02C0.112,-0.042 0.086,-0.075 0.066,-0.118C0.047,-0.161 0.037,-0.207 0.037,-0.258C0.037,-0.332 0.055,-0.401 0.091,-0.465C0.126,-0.529 0.177,-0.58 0.242,-0.618C0.308,-0.656 0.384,-0.675 0.47,-0.676ZM0.189,-0.354C0.186,-0.309 0.185,-0.276 0.185,-0.255C0.185,-0.21 0.189,-0.167 0.198,-0.125C0.207,-0.083 0.218,-0.053 0.233,-0.036C0.244,-0.024 0.257,-0.018 0.271,-0.018C0.286,-0.018 0.3,-0.027 0.312,-0.044C0.323,-0.062 0.329,-0.097 0.329,-0.15C0.329,-0.24 0.318,-0.302 0.296,-0.336C0.282,-0.359 0.264,-0.37 0.24,-0.37C0.227,-0.37 0.21,-0.364 0.189,-0.354Z" style="fill-rule:nonzero;"/>
                    </g>
                </g>
            </g>
        </g>
    </g>
</svg>
