<?xml version="1.0" encoding="UTF-8" standalone="no"?>
<!DOCTYPE svg PUBLIC "-//W3C//DTD SVG 1.1//EN" "http://www.w3.org/Graphics/SVG/1.1/DTD/svg11.dtd">
<svg width="100%" height="100%" viewBox="0 0 133 190" version="1.1" xmlns="http://www.w3.org/2000/svg" xmlns:xlink="http://www.w3.org/1999/xlink" xml:space="preserve" xmlns:serif="http://www.serif.com/" style="fill-rule:evenodd;clip-rule:evenodd;">
    <g transform="matrix(1,0,0,1,-800,-1695)">
        <g id="piksieben" transform="matrix(1.0231,0,0,0.854373,800.107,870.203)">
            <rect x="0" y="965.48" width="129.704" height="221.683" style="fill:none;"/>
            <g transform="matrix(0.977423,0,0,1.17045,-733.343,328.236)">
                <g transform="matrix(1,0,0,-1,0.23105,1277.49)">
                    <path d="M753.957,552.722C753.957,549.89 756.273,547.574 759.109,547.574L873.699,547.574C876.523,547.574 878.844,549.89 878.844,552.722L878.844,723.96C878.844,726.792 876.523,729.109 873.699,729.109L759.109,729.109C756.273,729.109 753.957,726.792 753.957,723.96L753.957,552.722Z" style="fill:white;fill-rule:nonzero;stroke:black;stroke-width:1px;"/>
                </g>
                <g transform="matrix(1,0,0,-1,0.23105,1177.69)">
                    <path d="M761.25,585.773C762.504,585.773 763.164,587.105 763.508,588.441C763.852,589.777 763.883,591.109 763.883,591.109L764.52,591.117C764.52,591.117 764.641,585.773 767.145,585.773L761.25,585.773Z" style="fill-rule:nonzero;"/>
                </g>
                <g transform="matrix(1,0,0,-1,0.23105,1168.03)">
                    <path d="M759.129,581.454C759.137,584.055 763.043,585.946 764.191,588C765.336,585.938 769.242,584.047 769.25,581.454C769.25,580.223 768.121,579.227 766.719,579.227C765.324,579.227 764.191,580.223 764.191,581.454C764.191,580.223 763.059,579.227 761.656,579.227C760.254,579.227 759.129,580.223 759.129,581.454Z" style="fill-rule:nonzero;"/>
                </g>
                <g transform="matrix(1,0,0,-1,0.23105,1375.78)">
                    <path d="M872.293,690.16C871.043,690.16 870.383,688.824 870.035,687.492C869.691,686.156 869.66,684.82 869.66,684.82L869.023,684.816C869.023,684.816 868.906,690.16 866.398,690.16L872.293,690.16Z" style="fill-rule:nonzero;"/>
                </g>
                <g transform="matrix(1,0,0,-1,0.23105,1385.44)">
                    <path d="M874.414,694.481C874.406,691.879 870.5,689.989 869.355,687.934C868.207,689.996 864.301,691.883 864.293,694.481C864.293,695.707 865.426,696.707 866.828,696.707C868.223,696.707 869.355,695.707 869.355,694.481C869.355,695.707 870.484,696.707 871.887,696.707C873.289,696.707 874.414,695.707 874.414,694.481Z" style="fill-rule:nonzero;"/>
                </g>
                <g transform="matrix(1,0,0,-1,0.23105,1166.77)">
                    <path d="M779.785,576.57C782.789,576.57 784.375,579.773 785.203,582.976C786.027,586.179 786.102,589.382 786.102,589.382L787.629,589.402C787.629,589.402 787.918,576.57 793.93,576.57L779.785,576.57Z" style="fill-rule:nonzero;"/>
                </g>
                <g transform="matrix(1,0,0,-1,0.23105,1143.58)">
                    <path d="M774.695,566.207C774.711,572.449 784.086,576.984 786.84,581.914C789.594,576.965 798.965,572.433 798.984,566.207C798.984,563.254 796.266,560.863 792.902,560.863C789.555,560.863 786.84,563.254 786.84,566.207C786.84,563.254 784.121,560.863 780.758,560.863C777.391,560.863 774.695,563.254 774.695,566.207Z" style="fill-rule:nonzero;"/>
                </g>
                <g transform="matrix(1,0,0,-1,0.23105,1282.15)">
                    <path d="M779.785,634.258C782.789,634.258 784.375,637.461 785.203,640.664C786.027,643.867 786.102,647.071 786.102,647.071L787.629,647.086C787.629,647.086 787.918,634.258 793.93,634.258L779.785,634.258Z" style="fill-rule:nonzero;"/>
                </g>
                <g transform="matrix(1,0,0,-1,0.23105,1258.95)">
                    <path d="M774.695,623.891C774.711,630.137 784.086,634.672 786.84,639.602C789.594,634.653 798.965,630.118 798.984,623.891C798.984,620.942 796.266,618.547 792.902,618.547C789.555,618.547 786.84,620.942 786.84,623.891C786.84,620.942 784.121,618.547 780.758,618.547C777.391,618.547 774.695,620.942 774.695,623.891Z" style="fill-rule:nonzero;"/>
                </g>
                <g transform="matrix(1,0,0,-1,0.23105,1380.48)">
                    <path d="M793.891,696.254C790.887,696.254 789.305,693.051 788.477,689.848C787.648,686.645 787.578,683.442 787.578,683.442L786.047,683.422C786.047,683.422 785.758,696.254 779.75,696.254L793.891,696.254Z" style="fill-rule:nonzero;"/>
                </g>
                <g transform="matrix(1,0,0,-1,0.23105,1403.67)">
                    <path d="M798.984,706.613C798.965,700.371 789.594,695.836 786.84,690.906C784.086,695.855 774.711,700.39 774.695,706.613C774.695,709.566 777.41,711.961 780.773,711.961C784.121,711.961 786.84,709.566 786.84,706.613C786.84,709.566 789.555,711.961 792.922,711.961C796.285,711.961 798.984,709.566 798.984,706.613Z" style="fill-rule:nonzero;"/>
                </g>
                <g transform="matrix(1,0,0,-1,0.23105,1166.77)">
                    <path d="M839.656,576.57C842.66,576.57 844.246,579.773 845.074,582.976C845.898,586.179 845.973,589.382 845.973,589.382L847.5,589.402C847.5,589.402 847.789,576.57 853.801,576.57L839.656,576.57Z" style="fill-rule:nonzero;"/>
                </g>
                <g transform="matrix(1,0,0,-1,0.23105,1143.58)">
                    <path d="M834.562,566.207C834.582,572.449 843.957,576.984 846.711,581.914C849.465,576.965 858.836,572.433 858.855,566.207C858.855,563.254 856.137,560.863 852.773,560.863C849.426,560.863 846.711,563.254 846.711,566.207C846.711,563.254 843.992,560.863 840.629,560.863C837.262,560.863 834.562,563.254 834.562,566.207Z" style="fill-rule:nonzero;"/>
                </g>
                <g transform="matrix(1,0,0,-1,0.23105,1282.15)">
                    <path d="M839.656,634.258C842.66,634.258 844.246,637.461 845.074,640.664C845.898,643.867 845.973,647.071 845.973,647.071L847.5,647.086C847.5,647.086 847.789,634.258 853.801,634.258L839.656,634.258Z" style="fill-rule:nonzero;"/>
                </g>
                <g transform="matrix(1,0,0,-1,0.23105,1258.95)">
                    <path d="M834.562,623.891C834.582,630.137 843.957,634.672 846.711,639.602C849.465,634.653 858.836,630.118 858.855,623.891C858.855,620.942 856.137,618.547 852.773,618.547C849.426,618.547 846.711,620.942 846.711,623.891C846.711,620.942 843.992,618.547 840.629,618.547C837.262,618.547 834.562,620.942 834.562,623.891Z" style="fill-rule:nonzero;"/>
                </g>
                <g transform="matrix(1,0,0,-1,0.23105,1380.48)">
                    <path d="M853.762,696.254C850.758,696.254 849.176,693.051 848.348,689.848C847.52,686.645 847.449,683.442 847.449,683.442L845.918,683.422C845.918,683.422 845.629,696.254 839.621,696.254L853.762,696.254Z" style="fill-rule:nonzero;"/>
                </g>
                <g transform="matrix(1,0,0,-1,0.23105,1403.67)">
                    <path d="M858.855,706.613C858.836,700.371 849.461,695.836 846.711,690.906C843.957,695.855 834.582,700.39 834.562,706.613C834.562,709.566 837.281,711.961 840.645,711.961C843.992,711.961 846.711,709.566 846.711,706.613C846.711,709.566 849.426,711.961 852.793,711.961C856.156,711.961 858.855,709.566 858.855,706.613Z" style="fill-rule:nonzero;"/>
                </g>
                <g transform="matrix(1,0,0,-1,0.23105,1247.98)">
                    <path d="M809.723,617.172C812.727,617.172 814.309,620.375 815.137,623.578C815.965,626.781 816.035,629.985 816.035,629.985L817.566,630.004C817.566,630.004 817.855,617.172 823.863,617.172L809.723,617.172Z" style="fill-rule:nonzero;"/>
                </g>
                <g transform="matrix(1,0,0,-1,0.23105,1224.78)">
                    <path d="M804.629,606.809C804.648,613.051 814.02,617.586 816.773,622.516C819.527,617.567 828.902,613.032 828.922,606.809C828.922,603.856 826.203,601.465 822.84,601.465C819.492,601.465 816.773,603.856 816.773,606.809C816.773,603.856 814.059,601.465 810.691,601.465C807.328,601.465 804.629,603.856 804.629,606.809Z" style="fill-rule:nonzero;"/>
                </g>
                <g transform="matrix(0.53388,0,0,1,353.883,550.523)">
                    <g transform="matrix(34.0888,0,0,34.0888,756.956,25.9905)">
                        <path d="M0.177,0.014L0.357,-0.533L0.22,-0.533C0.167,-0.533 0.126,-0.526 0.099,-0.512C0.08,-0.502 0.065,-0.484 0.052,-0.457L0.034,-0.457L0.082,-0.662L0.476,-0.662L0.254,0.014L0.177,0.014Z" style="fill-rule:nonzero;"/>
                    </g>
                </g>
                <g transform="matrix(-0.53388,0,0,-1,407.983,-1.51912)">
                    <g transform="matrix(34.0888,0,0,34.0888,-876.589,-703.089)">
                        <path d="M0.177,0.014L0.357,-0.533L0.22,-0.533C0.167,-0.533 0.126,-0.526 0.099,-0.512C0.08,-0.502 0.065,-0.484 0.052,-0.457L0.034,-0.457L0.082,-0.662L0.476,-0.662L0.254,0.014L0.177,0.014Z" style="fill-rule:nonzero;"/>
                    </g>
                </g>
            </g>
        </g>
    </g>
</svg>
