<?xml version="1.0" encoding="UTF-8" standalone="no"?>
<!DOCTYPE svg PUBLIC "-//W3C//DTD SVG 1.1//EN" "http://www.w3.org/Graphics/SVG/1.1/DTD/svg11.dtd">
<svg width="100%" height="100%" viewBox="0 0 133 190" version="1.1" xmlns="http://www.w3.org/2000/svg" xmlns:xlink="http://www.w3.org/1999/xlink" xml:space="preserve" xmlns:serif="http://www.serif.com/" style="fill-rule:evenodd;clip-rule:evenodd;">
    <g transform="matrix(1,0,0,1,-402,-1695)">
        <g id="pikvier" transform="matrix(1.0231,0,0,0.854373,402.006,870.203)">
            <rect x="0" y="965.48" width="129.704" height="221.683" style="fill:none;"/>
            <g transform="matrix(0.977423,0,0,1.17045,-364.948,328.236)">
                <g transform="matrix(1,0,0,-1,0.23105,1277.49)">
                    <path d="M377.055,552.722C377.055,549.89 379.371,547.574 382.203,547.574L496.797,547.574C499.621,547.574 501.938,549.89 501.938,552.722L501.938,723.96C501.938,726.792 499.621,729.109 496.797,729.109L382.203,729.109C379.371,729.109 377.055,726.792 377.055,723.96L377.055,552.722Z" style="fill:white;fill-rule:nonzero;stroke:black;stroke-width:1px;"/>
                </g>
                <g transform="matrix(1,0,0,-1,0.23105,1177.69)">
                    <path d="M384.348,585.773C385.602,585.773 386.262,587.105 386.605,588.441C386.949,589.777 386.98,591.109 386.98,591.109L387.617,591.117C387.617,591.117 387.738,585.773 390.242,585.773L384.348,585.773Z" style="fill-rule:nonzero;"/>
                </g>
                <g transform="matrix(1,0,0,-1,0.23105,1168.03)">
                    <path d="M382.227,581.454C382.234,584.055 386.141,585.946 387.289,588C388.434,585.938 392.34,584.047 392.348,581.454C392.348,580.223 391.215,579.227 389.812,579.227C388.418,579.227 387.289,580.223 387.289,581.454C387.289,580.223 386.156,579.227 384.754,579.227C383.352,579.227 382.227,580.223 382.227,581.454Z" style="fill-rule:nonzero;"/>
                </g>
                <g transform="matrix(1,0,0,-1,0.23105,1375.78)">
                    <path d="M495.395,690.16C494.141,690.16 493.48,688.824 493.137,687.492C492.793,686.156 492.762,684.82 492.762,684.82L492.125,684.816C492.125,684.816 492.004,690.16 489.5,690.16L495.395,690.16Z" style="fill-rule:nonzero;"/>
                </g>
                <g transform="matrix(1,0,0,-1,0.23105,1385.44)">
                    <path d="M497.516,694.481C497.508,691.879 493.602,689.989 492.453,687.934C491.309,689.996 487.402,691.883 487.395,694.481C487.395,695.707 488.527,696.707 489.93,696.707C491.324,696.707 492.453,695.707 492.453,694.481C492.453,695.707 493.586,696.707 494.988,696.707C496.391,696.707 497.516,695.707 497.516,694.481Z" style="fill-rule:nonzero;"/>
                </g>
                <g transform="matrix(1,0,0,-1,0.23105,1166.77)">
                    <path d="M402.883,576.57C405.887,576.57 407.469,579.773 408.297,582.976C409.125,586.179 409.195,589.382 409.195,589.382L410.727,589.402C410.727,589.402 411.016,576.57 417.023,576.57L402.883,576.57Z" style="fill-rule:nonzero;"/>
                </g>
                <g transform="matrix(1,0,0,-1,0.23105,1143.58)">
                    <path d="M397.789,566.207C397.809,572.449 407.184,576.984 409.934,581.914C412.688,576.965 422.062,572.433 422.082,566.207C422.082,563.254 419.363,560.863 416,560.863C412.652,560.863 409.934,563.254 409.934,566.207C409.934,563.254 407.219,560.863 403.852,560.863C400.488,560.863 397.789,563.254 397.789,566.207Z" style="fill-rule:nonzero;"/>
                </g>
                <g transform="matrix(1,0,0,-1,0.23105,1380.48)">
                    <path d="M416.988,696.254C413.984,696.254 412.398,693.051 411.574,689.848C410.746,686.645 410.672,683.442 410.672,683.442L409.145,683.422C409.145,683.422 408.855,696.254 402.844,696.254L416.988,696.254Z" style="fill-rule:nonzero;"/>
                </g>
                <g transform="matrix(1,0,0,-1,0.23105,1403.67)">
                    <path d="M422.082,706.613C422.062,700.371 412.688,695.836 409.934,690.906C407.184,695.855 397.809,700.39 397.789,706.613C397.789,709.566 400.508,711.961 403.871,711.961C407.219,711.961 409.934,709.566 409.934,706.613C409.934,709.566 412.652,711.961 416.016,711.961C419.383,711.961 422.082,709.566 422.082,706.613Z" style="fill-rule:nonzero;"/>
                </g>
                <g transform="matrix(1,0,0,-1,0.23105,1166.77)">
                    <path d="M462.754,576.57C465.758,576.57 467.34,579.773 468.168,582.976C468.996,586.179 469.066,589.382 469.066,589.382L470.598,589.402C470.598,589.402 470.887,576.57 476.895,576.57L462.754,576.57Z" style="fill-rule:nonzero;"/>
                </g>
                <g transform="matrix(1,0,0,-1,0.23105,1143.58)">
                    <path d="M457.66,566.207C457.68,572.449 467.055,576.984 469.805,581.914C472.559,576.965 481.934,572.433 481.953,566.207C481.953,563.254 479.234,560.863 475.871,560.863C472.523,560.863 469.805,563.254 469.805,566.207C469.805,563.254 467.09,560.863 463.723,560.863C460.359,560.863 457.66,563.254 457.66,566.207Z" style="fill-rule:nonzero;"/>
                </g>
                <g transform="matrix(1,0,0,-1,0.23105,1380.48)">
                    <path d="M476.859,696.254C473.855,696.254 472.27,693.051 471.441,689.848C470.617,686.645 470.543,683.442 470.543,683.442L469.016,683.422C469.016,683.422 468.727,696.254 462.715,696.254L476.859,696.254Z" style="fill-rule:nonzero;"/>
                </g>
                <g transform="matrix(1,0,0,-1,0.23105,1403.67)">
                    <path d="M481.953,706.613C481.934,700.371 472.559,695.836 469.805,690.906C467.055,695.855 457.68,700.39 457.66,706.613C457.66,709.566 460.379,711.961 463.742,711.961C467.09,711.961 469.805,709.566 469.805,706.613C469.805,709.566 472.523,711.961 475.887,711.961C479.254,711.961 481.953,709.566 481.953,706.613Z" style="fill-rule:nonzero;"/>
                </g>
                <g transform="matrix(0.53388,0,0,1,178.201,550.523)">
                    <g transform="matrix(34.0888,0,0,34.0888,380.052,25.9905)">
                        <path d="M0.025,-0.25L0.339,-0.676L0.399,-0.676L0.399,-0.25L0.459,-0.25L0.459,-0.148L0.399,-0.148L0.399,0L0.265,0L0.265,-0.148L0.025,-0.148L0.025,-0.25ZM0.072,-0.25L0.265,-0.25L0.265,-0.511L0.072,-0.25Z" style="fill-rule:nonzero;"/>
                    </g>
                </g>
                <g transform="matrix(-0.53388,0,0,-1,232.302,-1.51912)">
                    <g transform="matrix(34.0888,0,0,34.0888,-499.689,-703.089)">
                        <path d="M0.025,-0.25L0.339,-0.676L0.399,-0.676L0.399,-0.25L0.459,-0.25L0.459,-0.148L0.399,-0.148L0.399,0L0.265,0L0.265,-0.148L0.025,-0.148L0.025,-0.25ZM0.072,-0.25L0.265,-0.25L0.265,-0.511L0.072,-0.25Z" style="fill-rule:nonzero;"/>
                    </g>
                </g>
            </g>
        </g>
    </g>
</svg>
