<?xml version="1.0" encoding="UTF-8" standalone="no"?>
<!DOCTYPE svg PUBLIC "-//W3C//DTD SVG 1.1//EN" "http://www.w3.org/Graphics/SVG/1.1/DTD/svg11.dtd">
<svg width="100%" height="100%" viewBox="0 0 133 190" version="1.1" xmlns="http://www.w3.org/2000/svg" xmlns:xlink="http://www.w3.org/1999/xlink" xml:space="preserve" xmlns:serif="http://www.serif.com/" style="fill-rule:evenodd;clip-rule:evenodd;">
    <g transform="matrix(1,0,0,1,-1198,-1437)">
        <g id="herzzehn" transform="matrix(1.0231,0,0,0.854373,1198.21,612.581)">
            <rect x="0" y="965.48" width="129.704" height="221.683" style="fill:none;"/>
            <g transform="matrix(0.977423,0,0,1.17045,-1101.73,541.591)">
                <g transform="matrix(1,0,0,-1,0.23105,912.915)">
                    <path d="M1130.86,370.437C1130.86,367.605 1133.17,365.289 1136.01,365.289L1250.6,365.289C1253.43,365.289 1255.74,367.605 1255.74,370.437L1255.74,541.675C1255.74,544.508 1253.43,546.824 1250.6,546.824L1136.01,546.824C1133.17,546.824 1130.86,544.508 1130.86,541.675L1130.86,370.437Z" style="fill:white;fill-rule:nonzero;stroke:black;stroke-width:1px;"/>
                </g>
                <g transform="matrix(1,0,0,-1,0.23105,806.568)">
                    <path d="M1146.85,405.825C1146.84,402.293 1142.42,399.723 1141.12,396.926C1139.81,399.715 1135.38,402.262 1135.35,405.793C1135.34,407.457 1136.63,408.817 1138.21,408.817C1139.8,408.817 1141.1,407.473 1141.1,405.809C1141.1,407.481 1142.38,408.832 1143.96,408.832C1145.55,408.84 1146.84,407.489 1146.85,405.825Z" style="fill:rgb(230,24,10);fill-rule:nonzero;"/>
                </g>
                <g transform="matrix(1,0,0,-1,0.23105,1017.76)">
                    <path d="M1240.51,505.539C1240.52,509.07 1244.94,511.641 1246.24,514.438C1247.55,511.649 1251.98,509.098 1252.01,505.566C1252.02,503.902 1250.73,502.547 1249.15,502.547C1247.56,502.547 1246.26,503.887 1246.26,505.555C1246.26,503.883 1244.98,502.531 1243.4,502.531C1241.81,502.523 1240.52,503.875 1240.51,505.539Z" style="fill:rgb(230,24,10);fill-rule:nonzero;"/>
                </g>
                <g transform="matrix(0.940004,0,0,-0.940004,71.6887,763.767)">
                    <path d="M1177.54,399.899C1177.53,391.426 1166.91,385.254 1163.8,378.543C1160.65,385.235 1150.02,391.352 1149.94,399.828C1149.93,403.824 1153.02,407.078 1156.82,407.078C1160.63,407.078 1163.74,403.86 1163.74,399.864C1163.74,403.875 1166.82,407.117 1170.62,407.117C1174.43,407.133 1177.53,403.895 1177.54,399.899Z" style="fill:rgb(230,24,10);fill-rule:nonzero;"/>
                </g>
                <g transform="matrix(0.940004,0,0,-0.940004,71.6887,842.534)">
                    <path d="M1177.54,440.5C1177.53,432.027 1166.91,425.856 1163.8,419.145C1160.65,425.836 1150.02,431.953 1149.94,440.43C1149.93,444.422 1153.02,447.68 1156.82,447.68C1160.63,447.68 1163.74,444.461 1163.74,440.465C1163.74,444.477 1166.82,447.715 1170.62,447.715C1174.43,447.734 1177.53,444.496 1177.54,440.5Z" style="fill:rgb(230,24,10);fill-rule:nonzero;"/>
                </g>
                <g transform="matrix(0.940007,0,0,-0.940007,71.6863,921.088)">
                    <path d="M1149.94,467.754C1149.96,476.227 1160.58,482.399 1163.69,489.109C1166.84,482.418 1177.47,476.301 1177.54,467.824C1177.56,463.832 1174.47,460.574 1170.67,460.574C1166.86,460.574 1163.74,463.793 1163.74,467.789C1163.74,463.777 1160.67,460.539 1156.87,460.539C1153.06,460.52 1149.96,463.758 1149.94,467.754Z" style="fill:rgb(230,24,10);fill-rule:nonzero;"/>
                </g>
                <g transform="matrix(0.940007,0,0,-0.940007,71.6863,999.855)">
                    <path d="M1149.94,508.355C1149.96,516.828 1160.58,523 1163.69,529.711C1166.84,523.02 1177.47,516.902 1177.54,508.426C1177.56,504.43 1174.47,501.176 1170.67,501.176C1166.86,501.176 1163.74,504.394 1163.74,508.391C1163.74,504.379 1160.67,501.137 1156.87,501.137C1153.06,501.121 1149.96,504.359 1149.94,508.355Z" style="fill:rgb(230,24,10);fill-rule:nonzero;"/>
                </g>
                <g transform="matrix(0.940004,0,0,-0.940004,72.2868,763.767)">
                    <path d="M1237.41,399.899C1237.4,391.426 1226.78,385.254 1223.67,378.543C1220.52,385.235 1209.89,391.352 1209.81,399.828C1209.8,403.824 1212.89,407.078 1216.69,407.078C1220.5,407.078 1223.61,403.86 1223.61,399.864C1223.61,403.875 1226.69,407.117 1230.49,407.117C1234.3,407.133 1237.4,403.895 1237.41,399.899Z" style="fill:rgb(230,24,10);fill-rule:nonzero;"/>
                </g>
                <g transform="matrix(0.940004,0,0,-0.940004,72.2868,840.82)">
                    <path d="M1237.41,440.5C1237.4,432.027 1226.78,425.856 1223.67,419.145C1220.52,425.836 1209.89,431.953 1209.81,440.43C1209.8,444.422 1212.89,447.68 1216.69,447.68C1220.5,447.68 1223.61,444.461 1223.61,440.465C1223.61,444.477 1226.69,447.715 1230.49,447.715C1234.3,447.734 1237.4,444.496 1237.41,440.5Z" style="fill:rgb(230,24,10);fill-rule:nonzero;"/>
                </g>
                <g transform="matrix(0.940001,0,0,-0.940001,72.2909,921.085)">
                    <path d="M1209.81,467.754C1209.83,476.227 1220.44,482.399 1223.56,489.109C1226.71,482.418 1237.34,476.301 1237.41,467.824C1237.43,463.832 1234.34,460.574 1230.54,460.574C1226.73,460.574 1223.61,463.793 1223.61,467.789C1223.61,463.777 1220.54,460.539 1216.74,460.539C1212.93,460.52 1209.83,463.758 1209.81,467.754Z" style="fill:rgb(230,24,10);fill-rule:nonzero;"/>
                </g>
                <g transform="matrix(0.940001,0,0,-0.940001,72.2909,999.852)">
                    <path d="M1209.81,508.355C1209.83,516.828 1220.44,523 1223.56,529.711C1226.71,523.02 1237.34,516.902 1237.41,508.426C1237.43,504.43 1234.34,501.176 1230.54,501.176C1226.73,501.176 1223.61,504.394 1223.61,508.391C1223.61,504.379 1220.54,501.137 1216.74,501.137C1212.93,501.121 1209.83,504.359 1209.81,508.355Z" style="fill:rgb(230,24,10);fill-rule:nonzero;"/>
                </g>
                <g transform="matrix(1,0,0,-1,0.23105,827.084)">
                    <path d="M1207.48,420.204C1207.46,411.731 1196.84,405.559 1193.73,398.844C1190.58,405.54 1179.95,411.657 1179.88,420.134C1179.86,424.126 1182.95,427.384 1186.75,427.384C1190.57,427.384 1193.68,424.165 1193.68,420.169C1193.68,424.18 1196.75,427.419 1200.55,427.419C1204.37,427.438 1207.46,424.2 1207.48,420.204Z" style="fill:rgb(230,24,10);fill-rule:nonzero;"/>
                </g>
                <g transform="matrix(1,0,0,-1,0.23105,991.028)">
                    <path d="M1179.88,488.05C1179.89,496.523 1190.51,502.695 1193.63,509.41C1196.77,502.714 1207.41,496.597 1207.48,488.121C1207.5,484.128 1204.4,480.871 1200.61,480.871C1196.79,480.871 1193.68,484.093 1193.68,488.085C1193.68,484.074 1190.6,480.835 1186.81,480.835C1182.99,480.816 1179.89,484.054 1179.88,488.05Z" style="fill:rgb(230,24,10);fill-rule:nonzero;"/>
                </g>
                <g transform="matrix(-1.35179,6.71052e-17,8.34817e-17,-1,-440.264,-0.187086)">
                    <g transform="matrix(12.9372,0,0,34.0888,-1253.5,-520.804)">
                        <path d="M0.326,-0.676L0.326,-0.134C0.326,-0.094 0.327,-0.068 0.331,-0.056C0.335,-0.045 0.342,-0.036 0.354,-0.029C0.365,-0.022 0.383,-0.018 0.408,-0.018L0.423,-0.018L0.423,0L0.075,0L0.075,-0.018L0.092,-0.018C0.121,-0.018 0.141,-0.021 0.153,-0.028C0.165,-0.034 0.173,-0.043 0.177,-0.055C0.181,-0.066 0.184,-0.093 0.184,-0.134L0.184,-0.478C0.184,-0.508 0.182,-0.527 0.179,-0.535C0.176,-0.543 0.171,-0.549 0.163,-0.554C0.155,-0.56 0.146,-0.563 0.135,-0.563C0.119,-0.563 0.098,-0.557 0.075,-0.547L0.066,-0.564L0.31,-0.676L0.326,-0.676Z" style="fill:rgb(230,24,10);fill-rule:nonzero;"/>
                    </g>
                    <g transform="matrix(12.9372,0,0,34.0888,-1247.03,-520.804)">
                        <path d="M0.463,-0.331C0.463,-0.265 0.454,-0.203 0.436,-0.146C0.424,-0.111 0.41,-0.082 0.391,-0.06C0.372,-0.037 0.351,-0.019 0.327,-0.006C0.303,0.007 0.278,0.014 0.25,0.014C0.218,0.014 0.189,0.006 0.163,-0.011C0.137,-0.027 0.115,-0.05 0.095,-0.081C0.08,-0.103 0.068,-0.132 0.057,-0.169C0.043,-0.219 0.036,-0.27 0.036,-0.323C0.036,-0.395 0.046,-0.461 0.066,-0.521C0.083,-0.571 0.108,-0.609 0.142,-0.636C0.176,-0.663 0.212,-0.676 0.25,-0.676C0.288,-0.676 0.324,-0.663 0.357,-0.636C0.391,-0.61 0.415,-0.575 0.431,-0.531C0.452,-0.47 0.463,-0.403 0.463,-0.331ZM0.313,-0.332C0.313,-0.448 0.312,-0.515 0.311,-0.535C0.308,-0.58 0.3,-0.611 0.288,-0.626C0.279,-0.637 0.266,-0.642 0.248,-0.642C0.234,-0.642 0.223,-0.638 0.215,-0.63C0.203,-0.619 0.195,-0.599 0.19,-0.57C0.186,-0.541 0.184,-0.441 0.184,-0.269C0.184,-0.175 0.187,-0.112 0.194,-0.08C0.199,-0.057 0.206,-0.042 0.215,-0.034C0.224,-0.026 0.236,-0.022 0.251,-0.022C0.267,-0.022 0.279,-0.027 0.288,-0.038C0.301,-0.056 0.309,-0.084 0.311,-0.122L0.313,-0.332Z" style="fill:rgb(230,24,10);fill-rule:nonzero;"/>
                    </g>
                </g>
                <g transform="matrix(-1.35179,6.71052e-17,8.34817e-17,-1,-440.264,-0.187086)">
                    <g transform="matrix(12.9372,0,0,34.0888,-1253.5,-520.804)">
                        <path d="M0.326,-0.676L0.326,-0.134C0.326,-0.094 0.327,-0.068 0.331,-0.056C0.335,-0.045 0.342,-0.036 0.354,-0.029C0.365,-0.022 0.383,-0.018 0.408,-0.018L0.423,-0.018L0.423,0L0.075,0L0.075,-0.018L0.092,-0.018C0.121,-0.018 0.141,-0.021 0.153,-0.028C0.165,-0.034 0.173,-0.043 0.177,-0.055C0.181,-0.066 0.184,-0.093 0.184,-0.134L0.184,-0.478C0.184,-0.508 0.182,-0.527 0.179,-0.535C0.176,-0.543 0.171,-0.549 0.163,-0.554C0.155,-0.56 0.146,-0.563 0.135,-0.563C0.119,-0.563 0.098,-0.557 0.075,-0.547L0.066,-0.564L0.31,-0.676L0.326,-0.676Z" style="fill:rgb(230,24,10);fill-rule:nonzero;"/>
                    </g>
                    <g transform="matrix(12.9372,0,0,34.0888,-1247.03,-520.804)">
                        <path d="M0.463,-0.331C0.463,-0.265 0.454,-0.203 0.436,-0.146C0.424,-0.111 0.41,-0.082 0.391,-0.06C0.372,-0.037 0.351,-0.019 0.327,-0.006C0.303,0.007 0.278,0.014 0.25,0.014C0.218,0.014 0.189,0.006 0.163,-0.011C0.137,-0.027 0.115,-0.05 0.095,-0.081C0.08,-0.103 0.068,-0.132 0.057,-0.169C0.043,-0.219 0.036,-0.27 0.036,-0.323C0.036,-0.395 0.046,-0.461 0.066,-0.521C0.083,-0.571 0.108,-0.609 0.142,-0.636C0.176,-0.663 0.212,-0.676 0.25,-0.676C0.288,-0.676 0.324,-0.663 0.357,-0.636C0.391,-0.61 0.415,-0.575 0.431,-0.531C0.452,-0.47 0.463,-0.403 0.463,-0.331ZM0.313,-0.332C0.313,-0.448 0.312,-0.515 0.311,-0.535C0.308,-0.58 0.3,-0.611 0.288,-0.626C0.279,-0.637 0.266,-0.642 0.248,-0.642C0.234,-0.642 0.223,-0.638 0.215,-0.63C0.203,-0.619 0.195,-0.599 0.19,-0.57C0.186,-0.541 0.184,-0.441 0.184,-0.269C0.184,-0.175 0.187,-0.112 0.194,-0.08C0.199,-0.057 0.206,-0.042 0.215,-0.034C0.224,-0.026 0.236,-0.022 0.251,-0.022C0.267,-0.022 0.279,-0.027 0.288,-0.038C0.301,-0.056 0.309,-0.084 0.311,-0.122L0.313,-0.332Z" style="fill:rgb(230,24,10);fill-rule:nonzero;"/>
                    </g>
                </g>
                <g transform="matrix(1.35179,9.84409e-17,-2.05946e-16,1,2827.77,913.972)">
                    <g transform="matrix(12.9372,0,0,34.0888,-1253.5,-520.804)">
                        <path d="M0.326,-0.676L0.326,-0.134C0.326,-0.094 0.327,-0.068 0.331,-0.056C0.335,-0.045 0.342,-0.036 0.354,-0.029C0.365,-0.022 0.383,-0.018 0.408,-0.018L0.423,-0.018L0.423,0L0.075,0L0.075,-0.018L0.092,-0.018C0.121,-0.018 0.141,-0.021 0.153,-0.028C0.165,-0.034 0.173,-0.043 0.177,-0.055C0.181,-0.066 0.184,-0.093 0.184,-0.134L0.184,-0.478C0.184,-0.508 0.182,-0.527 0.179,-0.535C0.176,-0.543 0.171,-0.549 0.163,-0.554C0.155,-0.56 0.146,-0.563 0.135,-0.563C0.119,-0.563 0.098,-0.557 0.075,-0.547L0.066,-0.564L0.31,-0.676L0.326,-0.676Z" style="fill:rgb(230,24,10);fill-rule:nonzero;"/>
                    </g>
                    <g transform="matrix(12.9372,0,0,34.0888,-1247.03,-520.804)">
                        <path d="M0.463,-0.331C0.463,-0.265 0.454,-0.203 0.436,-0.146C0.424,-0.111 0.41,-0.082 0.391,-0.06C0.372,-0.037 0.351,-0.019 0.327,-0.006C0.303,0.007 0.278,0.014 0.25,0.014C0.218,0.014 0.189,0.006 0.163,-0.011C0.137,-0.027 0.115,-0.05 0.095,-0.081C0.08,-0.103 0.068,-0.132 0.057,-0.169C0.043,-0.219 0.036,-0.27 0.036,-0.323C0.036,-0.395 0.046,-0.461 0.066,-0.521C0.083,-0.571 0.108,-0.609 0.142,-0.636C0.176,-0.663 0.212,-0.676 0.25,-0.676C0.288,-0.676 0.324,-0.663 0.357,-0.636C0.391,-0.61 0.415,-0.575 0.431,-0.531C0.452,-0.47 0.463,-0.403 0.463,-0.331ZM0.313,-0.332C0.313,-0.448 0.312,-0.515 0.311,-0.535C0.308,-0.58 0.3,-0.611 0.288,-0.626C0.279,-0.637 0.266,-0.642 0.248,-0.642C0.234,-0.642 0.223,-0.638 0.215,-0.63C0.203,-0.619 0.195,-0.599 0.19,-0.57C0.186,-0.541 0.184,-0.441 0.184,-0.269C0.184,-0.175 0.187,-0.112 0.194,-0.08C0.199,-0.057 0.206,-0.042 0.215,-0.034C0.224,-0.026 0.236,-0.022 0.251,-0.022C0.267,-0.022 0.279,-0.027 0.288,-0.038C0.301,-0.056 0.309,-0.084 0.311,-0.122L0.313,-0.332Z" style="fill:rgb(230,24,10);fill-rule:nonzero;"/>
                    </g>
                </g>
            </g>
        </g>
    </g>
</svg>
