<?xml version="1.0" encoding="UTF-8" standalone="no"?>
<!DOCTYPE svg PUBLIC "-//W3C//DTD SVG 1.1//EN" "http://www.w3.org/Graphics/SVG/1.1/DTD/svg11.dtd">
<svg width="100%" height="100%" viewBox="0 0 133 190" version="1.1" xmlns="http://www.w3.org/2000/svg" xmlns:xlink="http://www.w3.org/1999/xlink" xml:space="preserve" xmlns:serif="http://www.serif.com/" style="fill-rule:evenodd;clip-rule:evenodd;">
    <g transform="matrix(1,0,0,1,-402,-1437)">
        <g id="herzvier" transform="matrix(1.0231,0,0,0.854373,402.007,612.581)">
            <rect x="0" y="965.48" width="129.704" height="221.683" style="fill:none;"/>
            <g transform="matrix(0.977423,0,0,1.17045,-364.948,541.591)">
                <g transform="matrix(1,0,0,-1,0.23105,912.915)">
                    <path d="M377.055,370.437C377.055,367.605 379.371,365.289 382.203,365.289L496.797,365.289C499.621,365.289 501.938,367.605 501.938,370.437L501.938,541.675C501.938,544.508 499.621,546.824 496.797,546.824L382.203,546.824C379.371,546.824 377.055,544.508 377.055,541.675L377.055,370.437Z" style="fill:white;fill-rule:nonzero;stroke:black;stroke-width:1px;"/>
                </g>
                <g transform="matrix(1,0,0,-1,0.23105,806.568)">
                    <path d="M393.039,405.825C393.031,402.293 388.605,399.723 387.309,396.926C385.996,399.715 381.566,402.262 381.535,405.793C381.531,407.457 382.82,408.817 384.402,408.817C385.988,408.817 387.289,407.473 387.289,405.809C387.289,407.481 388.57,408.832 390.152,408.832C391.742,408.84 393.031,407.489 393.039,405.825Z" style="fill:rgb(230,24,10);fill-rule:nonzero;"/>
                </g>
                <g transform="matrix(1,0,0,-1,0.23105,1017.76)">
                    <path d="M486.703,505.539C486.711,509.07 491.137,511.641 492.434,514.438C493.742,511.649 498.176,509.098 498.203,505.566C498.211,503.902 496.922,502.547 495.34,502.547C493.75,502.547 492.453,503.887 492.453,505.555C492.453,503.883 491.172,502.531 489.59,502.531C488,502.523 486.711,503.875 486.703,505.539Z" style="fill:rgb(230,24,10);fill-rule:nonzero;"/>
                </g>
                <g transform="matrix(0.53388,0,0,1,178.563,2.5544)">
                    <g transform="matrix(34.0888,0,0,34.0888,380.052,390.56)">
                        <path d="M0.025,-0.25L0.339,-0.676L0.399,-0.676L0.399,-0.25L0.459,-0.25L0.459,-0.148L0.399,-0.148L0.399,0L0.265,0L0.265,-0.148L0.025,-0.148L0.025,-0.25ZM0.072,-0.25L0.265,-0.25L0.265,-0.511L0.072,-0.25Z" style="fill:rgb(230,24,10);fill-rule:nonzero;"/>
                    </g>
                </g>
                <g transform="matrix(1,0,0,-1,0.23105,786.478)">
                    <path d="M423.734,399.899C423.719,391.426 413.102,385.254 409.988,378.543C406.84,385.235 396.207,391.352 396.133,399.828C396.117,403.824 399.211,407.078 403.008,407.078C406.82,407.078 409.934,403.86 409.934,399.864C409.934,403.875 413.012,407.117 416.809,407.117C420.621,407.133 423.719,403.895 423.734,399.899Z" style="fill:rgb(230,24,10);fill-rule:nonzero;"/>
                </g>
                <g transform="matrix(1,0,0,-1,0.23105,1031.63)">
                    <path d="M396.133,508.355C396.152,516.828 406.77,523 409.883,529.711C413.031,523.02 423.664,516.902 423.734,508.426C423.754,504.43 420.66,501.176 416.863,501.176C413.047,501.176 409.934,504.394 409.934,508.391C409.934,504.379 406.859,501.137 403.062,501.137C399.246,501.121 396.152,504.359 396.133,508.355Z" style="fill:rgb(230,24,10);fill-rule:nonzero;"/>
                </g>
                <g transform="matrix(1,0,0,-1,0.23105,786.478)">
                    <path d="M483.605,399.899C483.59,391.426 472.973,385.254 469.859,378.543C466.711,385.235 456.078,391.352 456.004,399.828C455.988,403.824 459.082,407.078 462.879,407.078C466.691,407.078 469.805,403.86 469.805,399.864C469.805,403.875 472.883,407.117 476.68,407.117C480.492,407.133 483.59,403.895 483.605,399.899Z" style="fill:rgb(230,24,10);fill-rule:nonzero;"/>
                </g>
                <g transform="matrix(1,0,0,-1,0.23105,1031.63)">
                    <path d="M456.004,508.355C456.023,516.828 466.641,523 469.75,529.711C472.902,523.02 483.535,516.902 483.605,508.426C483.625,504.43 480.531,501.176 476.734,501.176C472.918,501.176 469.805,504.394 469.805,508.391C469.805,504.379 466.73,501.137 462.934,501.137C459.117,501.121 456.023,504.359 456.004,508.355Z" style="fill:rgb(230,24,10);fill-rule:nonzero;"/>
                </g>
                <g transform="matrix(-0.53388,0,0,-1,231.663,-0.444624)">
                    <g transform="matrix(34.0888,0,0,34.0888,-499.689,-520.804)">
                        <path d="M0.025,-0.25L0.339,-0.676L0.399,-0.676L0.399,-0.25L0.459,-0.25L0.459,-0.148L0.399,-0.148L0.399,0L0.265,0L0.265,-0.148L0.025,-0.148L0.025,-0.25ZM0.072,-0.25L0.265,-0.25L0.265,-0.511L0.072,-0.25Z" style="fill:rgb(230,24,10);fill-rule:nonzero;"/>
                    </g>
                </g>
            </g>
        </g>
    </g>
</svg>
