<?xml version="1.0" encoding="UTF-8" standalone="no"?>
<!DOCTYPE svg PUBLIC "-//W3C//DTD SVG 1.1//EN" "http://www.w3.org/Graphics/SVG/1.1/DTD/svg11.dtd">
<svg width="100%" height="100%" viewBox="0 0 134 190" version="1.1" xmlns="http://www.w3.org/2000/svg" xmlns:xlink="http://www.w3.org/1999/xlink" xml:space="preserve" xmlns:serif="http://www.serif.com/" style="fill-rule:evenodd;clip-rule:evenodd;">
    <g transform="matrix(1,0,0,1,-3,-1437)">
        <g id="herzass" transform="matrix(1.0231,0,0,0.854373,3.9065,612.581)">
            <rect x="0" y="965.48" width="129.704" height="221.683" style="fill:none;"/>
            <g transform="matrix(0.977423,0,0,1.17045,3.44781,541.591)">
                <g transform="matrix(1,0,0,-1,0.23105,912.915)">
                    <path d="M0.148,370.437C0.148,367.605 2.465,365.289 5.301,365.289L119.891,365.289C122.719,365.289 125.035,367.605 125.035,370.437L125.035,541.675C125.035,544.508 122.719,546.824 119.891,546.824L5.301,546.824C2.465,546.824 0.148,544.508 0.148,541.675L0.148,370.437Z" style="fill:white;fill-rule:nonzero;stroke:black;stroke-width:1px;"/>
                </g>
                <g transform="matrix(1,0,0,-1,0.23105,806.568)">
                    <path d="M16.133,405.825C16.125,402.293 11.703,399.723 10.406,396.926C9.094,399.715 4.664,402.262 4.633,405.793C4.625,407.457 5.914,408.817 7.496,408.817C9.086,408.817 10.383,407.473 10.383,405.809C10.383,407.481 11.664,408.832 13.246,408.832C14.836,408.84 16.125,407.489 16.133,405.825Z" style="fill:rgb(230,24,10);fill-rule:nonzero;"/>
                </g>
                <g transform="matrix(1,0,0,-1,0.23105,1017.76)">
                    <path d="M109.801,505.539C109.809,509.07 114.23,511.641 115.527,514.438C116.84,511.649 121.27,509.098 121.301,505.566C121.309,503.902 120.02,502.547 118.438,502.547C116.848,502.547 115.551,503.887 115.551,505.555C115.551,503.883 114.27,502.531 112.688,502.531C111.098,502.523 109.809,503.875 109.801,505.539Z" style="fill:rgb(230,24,10);fill-rule:nonzero;"/>
                </g>
                <g transform="matrix(1,0,0,-1,0.23105,901.849)">
                    <path d="M76.77,457.586C76.75,449.113 66.133,442.942 63.02,436.227C59.871,442.922 49.238,449.039 49.168,457.516C49.148,461.508 52.242,464.766 56.039,464.766C59.855,464.766 62.969,461.547 62.969,457.551C62.969,461.563 66.043,464.801 69.84,464.801C73.656,464.82 76.75,461.582 76.77,457.586Z" style="fill:rgb(230,24,10);fill-rule:nonzero;"/>
                </g>
                <g transform="matrix(0.53388,0,0,1,2.88047,2.5544)">
                    <g transform="matrix(34.0888,0,0,34.0888,3.14883,390.56)">
                        <path d="M0.416,-0.188L0.182,-0.188L0.154,-0.124C0.145,-0.103 0.141,-0.085 0.141,-0.071C0.141,-0.052 0.148,-0.039 0.163,-0.03C0.172,-0.025 0.194,-0.021 0.228,-0.018L0.228,0L0.008,0L0.008,-0.018C0.032,-0.022 0.051,-0.031 0.066,-0.048C0.082,-0.064 0.101,-0.097 0.123,-0.147L0.36,-0.676L0.369,-0.676L0.608,-0.133C0.631,-0.081 0.649,-0.049 0.664,-0.036C0.675,-0.026 0.691,-0.02 0.711,-0.018L0.711,0L0.391,0L0.391,-0.018L0.404,-0.018C0.43,-0.018 0.448,-0.022 0.458,-0.029C0.465,-0.034 0.469,-0.042 0.469,-0.051C0.469,-0.057 0.468,-0.063 0.466,-0.069C0.465,-0.072 0.46,-0.084 0.451,-0.106L0.416,-0.188ZM0.399,-0.225L0.301,-0.453L0.199,-0.225L0.399,-0.225Z" style="fill:rgb(230,24,10);fill-rule:nonzero;"/>
                    </g>
                </g>
                <g transform="matrix(-0.53388,0,0,-1,55.9809,-0.444624)">
                    <g transform="matrix(34.0888,0,0,34.0888,-122.786,-520.804)">
                        <path d="M0.416,-0.188L0.182,-0.188L0.154,-0.124C0.145,-0.103 0.141,-0.085 0.141,-0.071C0.141,-0.052 0.148,-0.039 0.163,-0.03C0.172,-0.025 0.194,-0.021 0.228,-0.018L0.228,0L0.008,0L0.008,-0.018C0.032,-0.022 0.051,-0.031 0.066,-0.048C0.082,-0.064 0.101,-0.097 0.123,-0.147L0.36,-0.676L0.369,-0.676L0.608,-0.133C0.631,-0.081 0.649,-0.049 0.664,-0.036C0.675,-0.026 0.691,-0.02 0.711,-0.018L0.711,0L0.391,0L0.391,-0.018L0.404,-0.018C0.43,-0.018 0.448,-0.022 0.458,-0.029C0.465,-0.034 0.469,-0.042 0.469,-0.051C0.469,-0.057 0.468,-0.063 0.466,-0.069C0.465,-0.072 0.46,-0.084 0.451,-0.106L0.416,-0.188ZM0.399,-0.225L0.301,-0.453L0.199,-0.225L0.399,-0.225Z" style="fill:rgb(230,24,10);fill-rule:nonzero;"/>
                    </g>
                </g>
            </g>
        </g>
    </g>
</svg>
