<?xml version="1.0" encoding="UTF-8" standalone="no"?>
<!DOCTYPE svg PUBLIC "-//W3C//DTD SVG 1.1//EN" "http://www.w3.org/Graphics/SVG/1.1/DTD/svg11.dtd">
<svg width="100%" height="100%" viewBox="0 0 133 190" version="1.1" xmlns="http://www.w3.org/2000/svg" xmlns:xlink="http://www.w3.org/1999/xlink" xml:space="preserve" xmlns:serif="http://www.serif.com/" style="fill-rule:evenodd;clip-rule:evenodd;">
    <g transform="matrix(1,0,0,1,-800,-1437)">
        <g id="herzsieben" transform="matrix(1.0231,0,0,0.854373,800.107,612.581)">
            <rect x="0" y="965.48" width="129.704" height="221.683" style="fill:none;"/>
            <g transform="matrix(0.977423,0,0,1.17045,-733.343,541.591)">
                <g transform="matrix(1,0,0,-1,0.23105,912.915)">
                    <path d="M753.957,370.437C753.957,367.605 756.273,365.289 759.109,365.289L873.699,365.289C876.523,365.289 878.844,367.605 878.844,370.437L878.844,541.675C878.844,544.508 876.523,546.824 873.699,546.824L759.109,546.824C756.273,546.824 753.957,544.508 753.957,541.675L753.957,370.437Z" style="fill:white;fill-rule:nonzero;stroke:black;stroke-width:1px;"/>
                </g>
                <g transform="matrix(1,0,0,-1,0.23105,806.568)">
                    <path d="M769.941,405.825C769.934,402.293 765.512,399.723 764.215,396.926C762.902,399.715 758.469,402.262 758.441,405.793C758.434,407.457 759.723,408.817 761.305,408.817C762.895,408.817 764.191,407.473 764.191,405.809C764.191,407.481 765.473,408.832 767.055,408.832C768.645,408.84 769.934,407.489 769.941,405.825Z" style="fill:rgb(230,24,10);fill-rule:nonzero;"/>
                </g>
                <g transform="matrix(1,0,0,-1,0.23105,1017.76)">
                    <path d="M863.605,505.539C863.609,509.07 868.035,511.641 869.332,514.438C870.645,511.649 875.074,509.098 875.105,505.566C875.113,503.902 873.824,502.547 872.242,502.547C870.652,502.547 869.355,503.887 869.355,505.555C869.355,503.883 868.07,502.531 866.492,502.531C864.902,502.523 863.609,503.875 863.605,505.539Z" style="fill:rgb(230,24,10);fill-rule:nonzero;"/>
                </g>
                <g transform="matrix(0.53388,0,0,1,354.245,2.5544)">
                    <g transform="matrix(34.0888,0,0,34.0888,756.956,390.56)">
                        <path d="M0.177,0.014L0.357,-0.533L0.22,-0.533C0.167,-0.533 0.126,-0.526 0.099,-0.512C0.08,-0.502 0.065,-0.484 0.052,-0.457L0.034,-0.457L0.082,-0.662L0.476,-0.662L0.254,0.014L0.177,0.014Z" style="fill:rgb(230,24,10);fill-rule:nonzero;"/>
                    </g>
                </g>
                <g transform="matrix(1,0,0,-1,0.23105,786.478)">
                    <path d="M800.641,399.899C800.621,391.426 790.004,385.254 786.895,378.543C783.742,385.235 773.109,391.352 773.039,399.828C773.02,403.824 776.113,407.078 779.91,407.078C783.727,407.078 786.84,403.86 786.84,399.864C786.84,403.875 789.914,407.117 793.711,407.117C797.527,407.133 800.621,403.895 800.641,399.899Z" style="fill:rgb(230,24,10);fill-rule:nonzero;"/>
                </g>
                <g transform="matrix(1,0,0,-1,0.23105,901.849)">
                    <path d="M800.641,457.586C800.621,449.113 790.004,442.942 786.895,436.227C783.742,442.922 773.109,449.039 773.039,457.516C773.02,461.508 776.113,464.766 779.91,464.766C783.727,464.766 786.84,461.547 786.84,457.551C786.84,461.563 789.914,464.801 793.711,464.801C797.527,464.82 800.621,461.582 800.641,457.586Z" style="fill:rgb(230,24,10);fill-rule:nonzero;"/>
                </g>
                <g transform="matrix(1,0,0,-1,0.23105,1031.63)">
                    <path d="M773.039,508.355C773.055,516.828 783.672,523 786.785,529.711C789.934,523.02 800.566,516.902 800.641,508.426C800.656,504.43 797.562,501.176 793.766,501.176C789.953,501.176 786.84,504.394 786.84,508.391C786.84,504.379 783.762,501.137 779.965,501.137C776.152,501.121 773.055,504.359 773.039,508.355Z" style="fill:rgb(230,24,10);fill-rule:nonzero;"/>
                </g>
                <g transform="matrix(1,0,0,-1,0.23105,786.478)">
                    <path d="M860.512,399.899C860.492,391.426 849.875,385.254 846.766,378.543C843.613,385.235 832.98,391.352 832.91,399.828C832.891,403.824 835.984,407.078 839.781,407.078C843.598,407.078 846.711,403.86 846.711,399.864C846.711,403.875 849.785,407.117 853.582,407.117C857.398,407.133 860.492,403.895 860.512,399.899Z" style="fill:rgb(230,24,10);fill-rule:nonzero;"/>
                </g>
                <g transform="matrix(1,0,0,-1,0.23105,901.849)">
                    <path d="M860.512,457.586C860.492,449.113 849.875,442.942 846.766,436.227C843.613,442.922 832.98,449.039 832.91,457.516C832.891,461.508 835.984,464.766 839.781,464.766C843.598,464.766 846.711,461.547 846.711,457.551C846.711,461.563 849.785,464.801 853.582,464.801C857.398,464.82 860.492,461.582 860.512,457.586Z" style="fill:rgb(230,24,10);fill-rule:nonzero;"/>
                </g>
                <g transform="matrix(1,0,0,-1,0.23105,1031.63)">
                    <path d="M832.91,508.355C832.926,516.828 843.543,523 846.656,529.711C849.805,523.02 860.438,516.902 860.512,508.426C860.527,504.43 857.434,501.176 853.637,501.176C849.824,501.176 846.711,504.394 846.711,508.391C846.711,504.379 843.633,501.137 839.836,501.137C836.023,501.121 832.926,504.359 832.91,508.355Z" style="fill:rgb(230,24,10);fill-rule:nonzero;"/>
                </g>
                <g transform="matrix(1,0,0,-1,0.23105,867.681)">
                    <path d="M830.574,440.5C830.559,432.027 819.941,425.856 816.828,419.145C813.68,425.836 803.047,431.953 802.973,440.43C802.957,444.422 806.051,447.68 809.848,447.68C813.66,447.68 816.773,444.461 816.773,440.465C816.773,444.477 819.852,447.715 823.648,447.715C827.461,447.734 830.559,444.496 830.574,440.5Z" style="fill:rgb(230,24,10);fill-rule:nonzero;"/>
                </g>
                <g transform="matrix(-0.53388,0,0,-1,407.344,-0.444624)">
                    <g transform="matrix(34.0888,0,0,34.0888,-876.589,-520.804)">
                        <path d="M0.177,0.014L0.357,-0.533L0.22,-0.533C0.167,-0.533 0.126,-0.526 0.099,-0.512C0.08,-0.502 0.065,-0.484 0.052,-0.457L0.034,-0.457L0.082,-0.662L0.476,-0.662L0.254,0.014L0.177,0.014Z" style="fill:rgb(230,24,10);fill-rule:nonzero;"/>
                    </g>
                </g>
            </g>
        </g>
    </g>
</svg>
