<?xml version="1.0" encoding="UTF-8" standalone="no"?>
<!DOCTYPE svg PUBLIC "-//W3C//DTD SVG 1.1//EN" "http://www.w3.org/Graphics/SVG/1.1/DTD/svg11.dtd">
<svg width="100%" height="100%" viewBox="0 0 134 190" version="1.1" xmlns="http://www.w3.org/2000/svg" xmlns:xlink="http://www.w3.org/1999/xlink" xml:space="preserve" xmlns:serif="http://www.serif.com/" style="fill-rule:evenodd;clip-rule:evenodd;">
    <g transform="matrix(1,0,0,1,-1065,-1437)">
        <g id="herzneun" transform="matrix(1.0231,0,0,0.854373,1065.51,612.581)">
            <rect x="0" y="965.48" width="129.704" height="221.683" style="fill:none;"/>
            <g transform="matrix(0.977423,0,0,1.17045,-978.937,541.591)">
                <g transform="matrix(1,0,0,-1,0.23105,912.915)">
                    <path d="M1005.23,370.437C1005.23,367.605 1007.54,365.289 1010.38,365.289L1124.97,365.289C1127.79,365.289 1130.11,367.605 1130.11,370.437L1130.11,541.675C1130.11,544.508 1127.79,546.824 1124.97,546.824L1010.38,546.824C1007.54,546.824 1005.23,544.508 1005.23,541.675L1005.23,370.437Z" style="fill:white;fill-rule:nonzero;stroke:black;stroke-width:1px;"/>
                </g>
                <g transform="matrix(1,0,0,-1,0.23105,806.568)">
                    <path d="M1021.21,405.825C1021.2,402.293 1016.78,399.723 1015.48,396.926C1014.17,399.715 1009.74,402.262 1009.71,405.793C1009.7,407.457 1010.99,408.817 1012.57,408.817C1014.16,408.817 1015.46,407.473 1015.46,405.809C1015.46,407.481 1016.74,408.832 1018.32,408.832C1019.91,408.84 1021.2,407.489 1021.21,405.825Z" style="fill:rgb(230,24,10);fill-rule:nonzero;"/>
                </g>
                <g transform="matrix(1,0,0,-1,0.23105,1017.76)">
                    <path d="M1114.87,505.539C1114.88,509.07 1119.31,511.641 1120.6,514.438C1121.91,511.649 1126.34,509.098 1126.38,505.566C1126.38,503.902 1125.09,502.547 1123.51,502.547C1121.92,502.547 1120.63,503.887 1120.63,505.555C1120.63,503.883 1119.34,502.531 1117.76,502.531C1116.17,502.523 1114.88,503.875 1114.87,505.539Z" style="fill:rgb(230,24,10);fill-rule:nonzero;"/>
                </g>
                <g transform="matrix(0.53388,0,0,1,471.367,2.5544)">
                    <g transform="matrix(34.0888,0,0,34.0888,1008.23,390.56)">
                        <path d="M0.031,0.014L0.031,0C0.085,-0.012 0.131,-0.031 0.168,-0.055C0.206,-0.079 0.236,-0.109 0.258,-0.144C0.28,-0.18 0.295,-0.22 0.304,-0.267C0.284,-0.256 0.266,-0.249 0.252,-0.245C0.238,-0.241 0.223,-0.239 0.208,-0.239C0.157,-0.239 0.116,-0.257 0.082,-0.293C0.049,-0.329 0.032,-0.379 0.032,-0.441C0.032,-0.485 0.041,-0.525 0.059,-0.561C0.077,-0.598 0.103,-0.626 0.137,-0.646C0.17,-0.666 0.205,-0.676 0.241,-0.676C0.28,-0.676 0.317,-0.665 0.351,-0.643C0.386,-0.62 0.413,-0.588 0.434,-0.546C0.454,-0.504 0.464,-0.457 0.464,-0.403C0.464,-0.333 0.448,-0.266 0.414,-0.203C0.381,-0.139 0.331,-0.088 0.265,-0.049C0.199,-0.01 0.121,0.01 0.031,0.014ZM0.311,-0.308C0.314,-0.344 0.316,-0.376 0.316,-0.404C0.316,-0.463 0.309,-0.518 0.295,-0.569C0.288,-0.598 0.276,-0.618 0.261,-0.632C0.253,-0.639 0.242,-0.643 0.229,-0.643C0.213,-0.643 0.2,-0.636 0.191,-0.622C0.178,-0.602 0.172,-0.566 0.172,-0.512C0.172,-0.422 0.183,-0.359 0.204,-0.325C0.218,-0.303 0.237,-0.292 0.261,-0.292C0.273,-0.292 0.29,-0.297 0.311,-0.308Z" style="fill:rgb(230,24,10);fill-rule:nonzero;"/>
                    </g>
                </g>
                <g transform="matrix(1,0,0,-1,0.23105,786.478)">
                    <path d="M1051.91,399.899C1051.89,391.426 1041.27,385.254 1038.16,378.543C1035.01,385.235 1024.38,391.352 1024.31,399.828C1024.29,403.824 1027.38,407.078 1031.18,407.078C1035,407.078 1038.11,403.86 1038.11,399.864C1038.11,403.875 1041.18,407.117 1044.98,407.117C1048.8,407.133 1051.89,403.895 1051.91,399.899Z" style="fill:rgb(230,24,10);fill-rule:nonzero;"/>
                </g>
                <g transform="matrix(1,0,0,-1,0.23105,867.681)">
                    <path d="M1051.91,440.5C1051.89,432.027 1041.27,425.856 1038.16,419.145C1035.01,425.836 1024.38,431.953 1024.31,440.43C1024.29,444.422 1027.38,447.68 1031.18,447.68C1035,447.68 1038.11,444.461 1038.11,440.465C1038.11,444.477 1041.18,447.715 1044.98,447.715C1048.8,447.734 1051.89,444.496 1051.91,440.5Z" style="fill:rgb(230,24,10);fill-rule:nonzero;"/>
                </g>
                <g transform="matrix(1,0,0,-1,0.23105,950.431)">
                    <path d="M1024.31,467.754C1024.32,476.227 1034.94,482.399 1038.06,489.109C1041.2,482.418 1051.84,476.301 1051.91,467.824C1051.93,463.832 1048.83,460.574 1045.04,460.574C1041.22,460.574 1038.11,463.793 1038.11,467.789C1038.11,463.777 1035.03,460.539 1031.23,460.539C1027.42,460.52 1024.32,463.758 1024.31,467.754Z" style="fill:rgb(230,24,10);fill-rule:nonzero;"/>
                </g>
                <g transform="matrix(1,0,0,-1,0.23105,1031.63)">
                    <path d="M1024.31,508.355C1024.32,516.828 1034.94,523 1038.06,529.711C1041.2,523.02 1051.84,516.902 1051.91,508.426C1051.93,504.43 1048.83,501.176 1045.04,501.176C1041.22,501.176 1038.11,504.394 1038.11,508.391C1038.11,504.379 1035.03,501.137 1031.23,501.137C1027.42,501.121 1024.32,504.359 1024.31,508.355Z" style="fill:rgb(230,24,10);fill-rule:nonzero;"/>
                </g>
                <g transform="matrix(1,0,0,-1,0.23105,786.478)">
                    <path d="M1111.78,399.899C1111.76,391.426 1101.14,385.254 1098.04,378.543C1094.88,385.235 1084.25,391.352 1084.18,399.828C1084.16,403.824 1087.25,407.078 1091.05,407.078C1094.87,407.078 1097.98,403.86 1097.98,399.864C1097.98,403.875 1101.06,407.117 1104.85,407.117C1108.67,407.133 1111.76,403.895 1111.78,399.899Z" style="fill:rgb(230,24,10);fill-rule:nonzero;"/>
                </g>
                <g transform="matrix(1,0,0,-1,0.23105,867.681)">
                    <path d="M1111.78,440.5C1111.76,432.027 1101.14,425.856 1098.04,419.145C1094.88,425.836 1084.25,431.953 1084.18,440.43C1084.16,444.422 1087.25,447.68 1091.05,447.68C1094.87,447.68 1097.98,444.461 1097.98,440.465C1097.98,444.477 1101.06,447.715 1104.85,447.715C1108.67,447.734 1111.76,444.496 1111.78,440.5Z" style="fill:rgb(230,24,10);fill-rule:nonzero;"/>
                </g>
                <g transform="matrix(1,0,0,-1,0.23105,950.431)">
                    <path d="M1084.18,467.754C1084.19,476.227 1094.81,482.399 1097.93,489.109C1101.07,482.418 1111.71,476.301 1111.78,467.824C1111.8,463.832 1108.7,460.574 1104.91,460.574C1101.09,460.574 1097.98,463.793 1097.98,467.789C1097.98,463.777 1094.9,460.539 1091.11,460.539C1087.29,460.52 1084.19,463.758 1084.18,467.754Z" style="fill:rgb(230,24,10);fill-rule:nonzero;"/>
                </g>
                <g transform="matrix(1,0,0,-1,0.23105,1031.63)">
                    <path d="M1084.18,508.355C1084.19,516.828 1094.81,523 1097.93,529.711C1101.07,523.02 1111.71,516.902 1111.78,508.426C1111.8,504.43 1108.7,501.176 1104.91,501.176C1101.09,501.176 1097.98,504.394 1097.98,508.391C1097.98,504.379 1094.9,501.137 1091.11,501.137C1087.29,501.121 1084.19,504.359 1084.18,508.355Z" style="fill:rgb(230,24,10);fill-rule:nonzero;"/>
                </g>
                <g transform="matrix(1,0,0,-1,0.23105,827.084)">
                    <path d="M1081.84,420.204C1081.83,411.731 1071.21,405.559 1068.1,398.844C1064.95,405.54 1054.32,411.657 1054.24,420.134C1054.23,424.126 1057.32,427.384 1061.12,427.384C1064.93,427.384 1068.04,424.165 1068.04,420.169C1068.04,424.18 1071.12,427.419 1074.92,427.419C1078.73,427.438 1081.83,424.2 1081.84,420.204Z" style="fill:rgb(230,24,10);fill-rule:nonzero;"/>
                </g>
                <g transform="matrix(-0.53388,0,0,-1,524.465,-0.444624)">
                    <g transform="matrix(34.0888,0,0,34.0888,-1127.86,-520.804)">
                        <path d="M0.031,0.014L0.031,0C0.085,-0.012 0.131,-0.031 0.168,-0.055C0.206,-0.079 0.236,-0.109 0.258,-0.144C0.28,-0.18 0.295,-0.22 0.304,-0.267C0.284,-0.256 0.266,-0.249 0.252,-0.245C0.238,-0.241 0.223,-0.239 0.208,-0.239C0.157,-0.239 0.116,-0.257 0.082,-0.293C0.049,-0.329 0.032,-0.379 0.032,-0.441C0.032,-0.485 0.041,-0.525 0.059,-0.561C0.077,-0.598 0.103,-0.626 0.137,-0.646C0.17,-0.666 0.205,-0.676 0.241,-0.676C0.28,-0.676 0.317,-0.665 0.351,-0.643C0.386,-0.62 0.413,-0.588 0.434,-0.546C0.454,-0.504 0.464,-0.457 0.464,-0.403C0.464,-0.333 0.448,-0.266 0.414,-0.203C0.381,-0.139 0.331,-0.088 0.265,-0.049C0.199,-0.01 0.121,0.01 0.031,0.014ZM0.311,-0.308C0.314,-0.344 0.316,-0.376 0.316,-0.404C0.316,-0.463 0.309,-0.518 0.295,-0.569C0.288,-0.598 0.276,-0.618 0.261,-0.632C0.253,-0.639 0.242,-0.643 0.229,-0.643C0.213,-0.643 0.2,-0.636 0.191,-0.622C0.178,-0.602 0.172,-0.566 0.172,-0.512C0.172,-0.422 0.183,-0.359 0.204,-0.325C0.218,-0.303 0.237,-0.292 0.261,-0.292C0.273,-0.292 0.29,-0.297 0.311,-0.308Z" style="fill:rgb(230,24,10);fill-rule:nonzero;"/>
                    </g>
                </g>
            </g>
        </g>
    </g>
</svg>
