<?xml version="1.0" encoding="UTF-8" standalone="no"?>
<!DOCTYPE svg PUBLIC "-//W3C//DTD SVG 1.1//EN" "http://www.w3.org/Graphics/SVG/1.1/DTD/svg11.dtd">
<svg width="100%" height="100%" viewBox="0 0 134 190" version="1.1" xmlns="http://www.w3.org/2000/svg" xmlns:xlink="http://www.w3.org/1999/xlink" xml:space="preserve" xmlns:serif="http://www.serif.com/" style="fill-rule:evenodd;clip-rule:evenodd;">
    <g transform="matrix(1,0,0,1,-667,-1437)">
        <g id="herzsechs" transform="matrix(1.0231,0,0,0.854373,667.407,612.581)">
            <rect x="0" y="965.48" width="129.704" height="221.683" style="fill:none;"/>
            <g transform="matrix(0.977423,0,0,1.17045,-610.544,541.591)">
                <g transform="matrix(1,0,0,-1,0.23105,912.915)">
                    <path d="M628.324,370.437C628.324,367.605 630.641,365.289 633.473,365.289L748.063,365.289C750.891,365.289 753.207,367.605 753.207,370.437L753.207,541.675C753.207,544.508 750.891,546.824 748.063,546.824L633.473,546.824C630.641,546.824 628.324,544.508 628.324,541.675L628.324,370.437Z" style="fill:white;fill-rule:nonzero;stroke:black;stroke-width:1px;"/>
                </g>
                <g transform="matrix(1,0,0,-1,0.23105,806.568)">
                    <path d="M644.305,405.825C644.301,402.293 639.875,399.723 638.578,396.926C637.266,399.715 632.836,402.262 632.805,405.793C632.797,407.457 634.09,408.817 635.668,408.817C637.258,408.817 638.555,407.473 638.555,405.809C638.555,407.481 639.84,408.832 641.422,408.832C643.008,408.84 644.301,407.489 644.305,405.825Z" style="fill:rgb(230,24,10);fill-rule:nonzero;"/>
                </g>
                <g transform="matrix(1,0,0,-1,0.23105,1017.76)">
                    <path d="M737.973,505.539C737.98,509.07 742.402,511.641 743.699,514.438C745.012,511.649 749.445,509.098 749.473,505.566C749.48,503.902 748.191,502.547 746.609,502.547C745.02,502.547 743.723,503.887 743.723,505.555C743.723,503.883 742.441,502.531 740.859,502.531C739.27,502.523 737.98,503.875 737.973,505.539Z" style="fill:rgb(230,24,10);fill-rule:nonzero;"/>
                </g>
                <g transform="matrix(0.53388,0,0,1,295.684,2.5544)">
                    <g transform="matrix(34.0888,0,0,34.0888,631.321,390.56)">
                        <path d="M0.47,-0.676L0.47,-0.662C0.411,-0.647 0.364,-0.628 0.328,-0.604C0.292,-0.581 0.264,-0.552 0.243,-0.518C0.223,-0.485 0.207,-0.443 0.195,-0.393C0.21,-0.403 0.222,-0.409 0.231,-0.412C0.252,-0.419 0.273,-0.422 0.295,-0.422C0.344,-0.422 0.386,-0.404 0.419,-0.368C0.452,-0.332 0.468,-0.283 0.468,-0.221C0.468,-0.177 0.459,-0.137 0.441,-0.101C0.424,-0.064 0.398,-0.036 0.365,-0.016C0.332,0.004 0.297,0.014 0.26,0.014C0.219,0.014 0.181,0.003 0.147,-0.02C0.112,-0.042 0.086,-0.075 0.066,-0.118C0.047,-0.161 0.037,-0.207 0.037,-0.258C0.037,-0.332 0.055,-0.401 0.091,-0.465C0.126,-0.529 0.177,-0.58 0.242,-0.618C0.308,-0.656 0.384,-0.675 0.47,-0.676ZM0.189,-0.354C0.186,-0.309 0.185,-0.276 0.185,-0.255C0.185,-0.21 0.189,-0.167 0.198,-0.125C0.207,-0.083 0.218,-0.053 0.233,-0.036C0.244,-0.024 0.257,-0.018 0.271,-0.018C0.286,-0.018 0.3,-0.027 0.312,-0.044C0.323,-0.062 0.329,-0.097 0.329,-0.15C0.329,-0.24 0.318,-0.302 0.296,-0.336C0.282,-0.359 0.264,-0.37 0.24,-0.37C0.227,-0.37 0.21,-0.364 0.189,-0.354Z" style="fill:rgb(230,24,10);fill-rule:nonzero;"/>
                    </g>
                </g>
                <g transform="matrix(1,0,0,-1,0.23105,786.478)">
                    <path d="M675.004,399.899C674.988,391.426 664.371,385.254 661.258,378.543C658.109,385.235 647.477,391.352 647.402,399.828C647.387,403.824 650.48,407.078 654.277,407.078C658.09,407.078 661.203,403.86 661.203,399.864C661.203,403.875 664.281,407.117 668.078,407.117C671.891,407.133 674.988,403.895 675.004,399.899Z" style="fill:rgb(230,24,10);fill-rule:nonzero;"/>
                </g>
                <g transform="matrix(1,0,0,-1,0.23105,901.849)">
                    <path d="M675.004,457.586C674.988,449.113 664.371,442.942 661.258,436.227C658.109,442.922 647.477,449.039 647.402,457.516C647.387,461.508 650.48,464.766 654.277,464.766C658.09,464.766 661.203,461.547 661.203,457.551C661.203,461.563 664.281,464.801 668.078,464.801C671.891,464.82 674.988,461.582 675.004,457.586Z" style="fill:rgb(230,24,10);fill-rule:nonzero;"/>
                </g>
                <g transform="matrix(1,0,0,-1,0.23105,1031.63)">
                    <path d="M647.402,508.355C647.422,516.828 658.039,523 661.148,529.711C664.301,523.02 674.934,516.902 675.004,508.426C675.023,504.43 671.93,501.176 668.133,501.176C664.316,501.176 661.203,504.394 661.203,508.391C661.203,504.379 658.129,501.137 654.332,501.137C650.516,501.121 647.422,504.359 647.402,508.355Z" style="fill:rgb(230,24,10);fill-rule:nonzero;"/>
                </g>
                <g transform="matrix(1,0,0,-1,0.23105,786.478)">
                    <path d="M734.875,399.899C734.859,391.426 724.242,385.254 721.129,378.543C717.98,385.235 707.348,391.352 707.273,399.828C707.258,403.824 710.352,407.078 714.148,407.078C717.961,407.078 721.074,403.86 721.074,399.864C721.074,403.875 724.152,407.117 727.949,407.117C731.762,407.133 734.859,403.895 734.875,399.899Z" style="fill:rgb(230,24,10);fill-rule:nonzero;"/>
                </g>
                <g transform="matrix(1,0,0,-1,0.23105,901.849)">
                    <path d="M734.875,457.586C734.859,449.113 724.242,442.942 721.129,436.227C717.98,442.922 707.348,449.039 707.273,457.516C707.258,461.508 710.352,464.766 714.148,464.766C717.961,464.766 721.074,461.547 721.074,457.551C721.074,461.563 724.152,464.801 727.949,464.801C731.762,464.82 734.859,461.582 734.875,457.586Z" style="fill:rgb(230,24,10);fill-rule:nonzero;"/>
                </g>
                <g transform="matrix(1,0,0,-1,0.23105,1031.63)">
                    <path d="M707.273,508.355C707.293,516.828 717.91,523 721.02,529.711C724.172,523.02 734.805,516.902 734.875,508.426C734.895,504.43 731.801,501.176 728.004,501.176C724.188,501.176 721.074,504.394 721.074,508.391C721.074,504.379 718,501.137 714.203,501.137C710.387,501.121 707.293,504.359 707.273,508.355Z" style="fill:rgb(230,24,10);fill-rule:nonzero;"/>
                </g>
                <g transform="matrix(-0.53388,0,0,-1,348.785,-0.444624)">
                    <g transform="matrix(34.0888,0,0,34.0888,-750.958,-520.804)">
                        <path d="M0.47,-0.676L0.47,-0.662C0.411,-0.647 0.364,-0.628 0.328,-0.604C0.292,-0.581 0.264,-0.552 0.243,-0.518C0.223,-0.485 0.207,-0.443 0.195,-0.393C0.21,-0.403 0.222,-0.409 0.231,-0.412C0.252,-0.419 0.273,-0.422 0.295,-0.422C0.344,-0.422 0.386,-0.404 0.419,-0.368C0.452,-0.332 0.468,-0.283 0.468,-0.221C0.468,-0.177 0.459,-0.137 0.441,-0.101C0.424,-0.064 0.398,-0.036 0.365,-0.016C0.332,0.004 0.297,0.014 0.26,0.014C0.219,0.014 0.181,0.003 0.147,-0.02C0.112,-0.042 0.086,-0.075 0.066,-0.118C0.047,-0.161 0.037,-0.207 0.037,-0.258C0.037,-0.332 0.055,-0.401 0.091,-0.465C0.126,-0.529 0.177,-0.58 0.242,-0.618C0.308,-0.656 0.384,-0.675 0.47,-0.676ZM0.189,-0.354C0.186,-0.309 0.185,-0.276 0.185,-0.255C0.185,-0.21 0.189,-0.167 0.198,-0.125C0.207,-0.083 0.218,-0.053 0.233,-0.036C0.244,-0.024 0.257,-0.018 0.271,-0.018C0.286,-0.018 0.3,-0.027 0.312,-0.044C0.323,-0.062 0.329,-0.097 0.329,-0.15C0.329,-0.24 0.318,-0.302 0.296,-0.336C0.282,-0.359 0.264,-0.37 0.24,-0.37C0.227,-0.37 0.21,-0.364 0.189,-0.354Z" style="fill:rgb(230,24,10);fill-rule:nonzero;"/>
                    </g>
                </g>
            </g>
        </g>
    </g>
</svg>
