<?xml version="1.0" encoding="UTF-8" standalone="no"?>
<!DOCTYPE svg PUBLIC "-//W3C//DTD SVG 1.1//EN" "http://www.w3.org/Graphics/SVG/1.1/DTD/svg11.dtd">
<svg width="100%" height="100%" viewBox="0 0 133 191" version="1.1" xmlns="http://www.w3.org/2000/svg" xmlns:xlink="http://www.w3.org/1999/xlink" xml:space="preserve" xmlns:serif="http://www.serif.com/" style="fill-rule:evenodd;clip-rule:evenodd;">
    <g transform="matrix(1,0,0,1,-800,-1197)">
        <g id="karosieben" transform="matrix(1.0231,0,0,0.854373,800.107,373.015)">
            <rect x="0" y="965.48" width="129.704" height="221.683" style="fill:none;"/>
            <g transform="matrix(0.977423,0,0,1.17045,-733.343,754.949)">
                <g transform="matrix(1,0,0,-1,0.23105,548.341)">
                    <path d="M753.957,188.148C753.957,185.316 756.273,183 759.109,183L873.699,183C876.523,183 878.844,185.316 878.844,188.148L878.844,359.387C878.844,362.219 876.523,364.539 873.699,364.539L759.109,364.539C756.273,364.539 753.957,362.219 753.957,359.387L753.957,188.148Z" style="fill:white;fill-rule:nonzero;stroke:black;stroke-width:1px;"/>
                </g>
                <g transform="matrix(1,0,0,-1,0.23105,442.005)">
                    <path d="M764.191,220.601L769.949,220.601C769.293,220.629 768.734,221.055 768.207,221.406C767.023,222.297 765.914,223.32 765.039,224.519C764.633,225.121 764.203,225.801 764.191,226.555M769.949,220.601C769.117,220.574 768.406,220.043 767.77,219.555C766.652,218.617 765.68,217.496 764.863,216.285C764.562,215.781 764.207,215.25 764.191,214.648L764.191,220.601M764.191,214.648C764.164,215.535 763.621,216.301 763.113,216.988C762.203,218.117 761.129,219.121 759.941,219.957C759.484,220.246 758.992,220.586 758.434,220.601L764.191,220.601M758.434,220.601C759.266,220.625 759.977,221.156 760.609,221.644C761.73,222.586 762.699,223.707 763.52,224.918C763.82,225.418 764.176,225.949 764.191,226.555L764.191,220.601" style="fill:rgb(230,24,10);fill-rule:nonzero;"/>
                </g>
                <g transform="matrix(-1,-1.22465e-16,-1.22465e-16,1,1528.61,0.80205)">
                    <path d="M764.191,220.601L769.949,220.601C769.293,220.629 768.734,221.055 768.207,221.406C767.023,222.297 765.914,223.32 765.039,224.519C764.633,225.121 764.203,225.801 764.191,226.555M769.949,220.601C769.117,220.574 768.406,220.043 767.77,219.555C766.652,218.617 765.68,217.496 764.863,216.285C764.562,215.781 764.207,215.25 764.191,214.648L764.191,220.601M764.191,214.648C764.164,215.535 763.621,216.301 763.113,216.988C762.203,218.117 761.129,219.121 759.941,219.957C759.484,220.246 758.992,220.586 758.434,220.601L764.191,220.601M758.434,220.601C759.266,220.625 759.977,221.156 760.609,221.644C761.73,222.586 762.699,223.707 763.52,224.918C763.82,225.418 764.176,225.949 764.191,226.555L764.191,220.601" style="fill:rgb(230,24,10);fill-rule:nonzero;"/>
                </g>
                <g transform="matrix(1,0,0,-1,0.23105,653.185)">
                    <path d="M869.355,326.192L863.598,326.192C864.254,326.164 864.809,325.738 865.336,325.387C866.52,324.496 867.629,323.469 868.504,322.274C868.914,321.668 869.344,320.992 869.355,320.238M863.598,326.192C864.43,326.219 865.141,326.746 865.773,327.235C866.895,328.176 867.863,329.297 868.684,330.508C868.984,331.008 869.336,331.543 869.355,332.145L869.355,326.192M869.355,332.145C869.383,331.258 869.922,330.492 870.434,329.805C871.34,328.672 872.418,327.672 873.602,326.836C874.062,326.547 874.551,326.207 875.113,326.192L869.355,326.192M875.113,326.192C874.281,326.164 873.57,325.637 872.934,325.149C871.812,324.207 870.844,323.086 870.023,321.875C869.723,321.375 869.371,320.844 869.355,320.238L869.355,326.192" style="fill:rgb(230,24,10);fill-rule:nonzero;"/>
                </g>
                <g transform="matrix(-1,-1.22465e-16,-1.22465e-16,1,1738.94,0.80205)">
                    <path d="M869.355,326.192L863.598,326.192C864.254,326.164 864.809,325.738 865.336,325.387C866.52,324.496 867.629,323.469 868.504,322.274C868.914,321.668 869.344,320.992 869.355,320.238M863.598,326.192C864.43,326.219 865.141,326.746 865.773,327.235C866.895,328.176 867.863,329.297 868.684,330.508C868.984,331.008 869.336,331.543 869.355,332.145L869.355,326.192M869.355,332.145C869.383,331.258 869.922,330.492 870.434,329.805C871.34,328.672 872.418,327.672 873.602,326.836C874.062,326.547 874.551,326.207 875.113,326.192L869.355,326.192M875.113,326.192C874.281,326.164 873.57,325.637 872.934,325.149C871.812,324.207 870.844,323.086 870.023,321.875C869.723,321.375 869.371,320.844 869.355,320.238L869.355,326.192" style="fill:rgb(230,24,10);fill-rule:nonzero;"/>
                </g>
                <g transform="matrix(1,0,0,-1,0.23105,421.923)">
                    <path d="M786.84,210.559L800.656,210.559C799.082,210.629 797.746,211.648 796.48,212.488C793.637,214.633 790.977,217.09 788.875,219.965C787.895,221.414 786.863,223.039 786.84,224.848M800.656,210.559C798.66,210.496 796.953,209.226 795.434,208.051C792.742,205.793 790.414,203.109 788.449,200.199C787.727,198.996 786.879,197.723 786.84,196.273L786.84,210.559M786.84,196.273C786.77,198.398 785.477,200.242 784.25,201.887C782.07,204.601 779.488,207.008 776.645,209.016C775.539,209.707 774.367,210.527 773.02,210.559L786.84,210.559M773.02,210.559C775.016,210.621 776.723,211.891 778.246,213.062C780.934,215.324 783.266,218.012 785.23,220.918C785.949,222.121 786.797,223.398 786.84,224.848L786.84,210.559" style="fill:rgb(230,24,10);fill-rule:nonzero;"/>
                </g>
                <g transform="matrix(-1,-1.22465e-16,-1.22465e-16,1,1573.91,0.80205)">
                    <path d="M786.84,210.559L800.656,210.559C799.082,210.629 797.746,211.648 796.48,212.488C793.637,214.633 790.977,217.09 788.875,219.965C787.895,221.414 786.863,223.039 786.84,224.848M800.656,210.559C798.66,210.496 796.953,209.226 795.434,208.051C792.742,205.793 790.414,203.109 788.449,200.199C787.727,198.996 786.879,197.723 786.84,196.273L786.84,210.559M786.84,196.273C786.77,198.398 785.477,200.242 784.25,201.887C782.07,204.601 779.488,207.008 776.645,209.016C775.539,209.707 774.367,210.527 773.02,210.559L786.84,210.559M773.02,210.559C775.016,210.621 776.723,211.891 778.246,213.062C780.934,215.324 783.266,218.012 785.23,220.918C785.949,222.121 786.797,223.398 786.84,224.848L786.84,210.559" style="fill:rgb(230,24,10);fill-rule:nonzero;"/>
                </g>
                <g transform="matrix(1,0,0,-1,0.23105,537.294)">
                    <path d="M786.84,268.246L800.656,268.246C799.082,268.316 797.746,269.336 796.48,270.176C793.637,272.32 790.977,274.777 788.875,277.652C787.895,279.097 786.863,280.726 786.84,282.531M800.656,268.246C798.66,268.183 796.953,266.91 795.434,265.738C792.742,263.48 790.414,260.793 788.449,257.887C787.727,256.683 786.879,255.406 786.84,253.961L786.84,268.246M786.84,253.961C786.77,256.086 785.477,257.93 784.25,259.574C782.07,262.289 779.488,264.695 776.645,266.703C775.539,267.394 774.367,268.211 773.02,268.246L786.84,268.246M773.02,268.246C775.016,268.308 776.723,269.578 778.246,270.75C780.934,273.012 783.266,275.695 785.23,278.605C785.949,279.808 786.797,281.086 786.84,282.531L786.84,268.246" style="fill:rgb(230,24,10);fill-rule:nonzero;"/>
                </g>
                <g transform="matrix(-1,-1.22465e-16,-1.22465e-16,1,1573.91,0.80205)">
                    <path d="M786.84,268.246L800.656,268.246C799.082,268.316 797.746,269.336 796.48,270.176C793.637,272.32 790.977,274.777 788.875,277.652C787.895,279.097 786.863,280.726 786.84,282.531M800.656,268.246C798.66,268.183 796.953,266.91 795.434,265.738C792.742,263.48 790.414,260.793 788.449,257.887C787.727,256.683 786.879,255.406 786.84,253.961L786.84,268.246M786.84,253.961C786.77,256.086 785.477,257.93 784.25,259.574C782.07,262.289 779.488,264.695 776.645,266.703C775.539,267.394 774.367,268.211 773.02,268.246L786.84,268.246M773.02,268.246C775.016,268.308 776.723,269.578 778.246,270.75C780.934,273.012 783.266,275.695 785.23,278.605C785.949,279.808 786.797,281.086 786.84,282.531L786.84,268.246" style="fill:rgb(230,24,10);fill-rule:nonzero;"/>
                </g>
                <g transform="matrix(1,0,0,-1,0.23105,667.04)">
                    <path d="M786.84,333.117L773.02,333.117C774.594,333.047 775.934,332.027 777.199,331.187C780.039,329.043 782.699,326.586 784.801,323.711C785.781,322.265 786.812,320.636 786.84,318.832M773.02,333.117C775.016,333.179 776.723,334.453 778.246,335.625C780.934,337.883 783.266,340.57 785.23,343.476C785.949,344.679 786.801,345.957 786.84,347.406L786.84,333.117M786.84,347.406C786.906,345.277 788.203,343.433 789.426,341.789C791.605,339.074 794.191,336.668 797.035,334.66C798.141,333.968 799.312,333.152 800.656,333.117L786.84,333.117M800.656,333.117C798.66,333.054 796.953,331.785 795.434,330.613C792.742,328.351 790.414,325.668 788.449,322.758C787.727,321.554 786.879,320.281 786.84,318.832L786.84,333.117" style="fill:rgb(230,24,10);fill-rule:nonzero;"/>
                </g>
                <g transform="matrix(-1,-1.22465e-16,-1.22465e-16,1,1573.91,0.80205)">
                    <path d="M786.84,333.117L773.02,333.117C774.594,333.047 775.934,332.027 777.199,331.187C780.039,329.043 782.699,326.586 784.801,323.711C785.781,322.265 786.812,320.636 786.84,318.832M773.02,333.117C775.016,333.179 776.723,334.453 778.246,335.625C780.934,337.883 783.266,340.57 785.23,343.476C785.949,344.679 786.801,345.957 786.84,347.406L786.84,333.117M786.84,347.406C786.906,345.277 788.203,343.433 789.426,341.789C791.605,339.074 794.191,336.668 797.035,334.66C798.141,333.968 799.312,333.152 800.656,333.117L786.84,333.117M800.656,333.117C798.66,333.054 796.953,331.785 795.434,330.613C792.742,328.351 790.414,325.668 788.449,322.758C787.727,321.554 786.879,320.281 786.84,318.832L786.84,333.117" style="fill:rgb(230,24,10);fill-rule:nonzero;"/>
                </g>
                <g transform="matrix(1,0,0,-1,0.23105,421.923)">
                    <path d="M846.711,210.559L860.527,210.559C858.953,210.629 857.617,211.648 856.352,212.488C853.508,214.633 850.848,217.09 848.746,219.965C847.766,221.414 846.734,223.039 846.711,224.848M860.527,210.559C858.531,210.496 856.824,209.226 855.305,208.051C852.613,205.793 850.285,203.109 848.32,200.199C847.598,198.996 846.75,197.723 846.711,196.273L846.711,210.559M846.711,196.273C846.641,198.398 845.348,200.242 844.121,201.887C841.941,204.601 839.359,207.008 836.516,209.016C835.41,209.707 834.238,210.527 832.891,210.559L846.711,210.559M832.891,210.559C834.887,210.621 836.594,211.891 838.117,213.062C840.805,215.324 843.133,218.012 845.098,220.918C845.82,222.121 846.668,223.398 846.711,224.848L846.711,210.559" style="fill:rgb(230,24,10);fill-rule:nonzero;"/>
                </g>
                <g transform="matrix(-1,-1.22465e-16,-1.22465e-16,1,1693.65,0.80205)">
                    <path d="M846.711,210.559L860.527,210.559C858.953,210.629 857.617,211.648 856.352,212.488C853.508,214.633 850.848,217.09 848.746,219.965C847.766,221.414 846.734,223.039 846.711,224.848M860.527,210.559C858.531,210.496 856.824,209.226 855.305,208.051C852.613,205.793 850.285,203.109 848.32,200.199C847.598,198.996 846.75,197.723 846.711,196.273L846.711,210.559M846.711,196.273C846.641,198.398 845.348,200.242 844.121,201.887C841.941,204.601 839.359,207.008 836.516,209.016C835.41,209.707 834.238,210.527 832.891,210.559L846.711,210.559M832.891,210.559C834.887,210.621 836.594,211.891 838.117,213.062C840.805,215.324 843.133,218.012 845.098,220.918C845.82,222.121 846.668,223.398 846.711,224.848L846.711,210.559" style="fill:rgb(230,24,10);fill-rule:nonzero;"/>
                </g>
                <g transform="matrix(1,0,0,-1,0.23105,537.294)">
                    <path d="M846.711,268.246L860.527,268.246C858.953,268.316 857.617,269.336 856.352,270.176C853.508,272.32 850.848,274.777 848.746,277.652C847.766,279.097 846.734,280.726 846.711,282.531M860.527,268.246C858.531,268.183 856.824,266.91 855.305,265.738C852.613,263.48 850.285,260.793 848.32,257.887C847.598,256.683 846.75,255.406 846.711,253.961L846.711,268.246M846.711,253.961C846.641,256.086 845.348,257.93 844.121,259.574C841.941,262.289 839.359,264.695 836.516,266.703C835.41,267.394 834.238,268.211 832.891,268.246L846.711,268.246M832.891,268.246C834.887,268.308 836.594,269.578 838.117,270.75C840.805,273.012 843.133,275.695 845.098,278.605C845.82,279.808 846.668,281.086 846.711,282.531L846.711,268.246" style="fill:rgb(230,24,10);fill-rule:nonzero;"/>
                </g>
                <g transform="matrix(-1,-1.22465e-16,-1.22465e-16,1,1693.65,0.80205)">
                    <path d="M846.711,268.246L860.527,268.246C858.953,268.316 857.617,269.336 856.352,270.176C853.508,272.32 850.848,274.777 848.746,277.652C847.766,279.097 846.734,280.726 846.711,282.531M860.527,268.246C858.531,268.183 856.824,266.91 855.305,265.738C852.613,263.48 850.285,260.793 848.32,257.887C847.598,256.683 846.75,255.406 846.711,253.961L846.711,268.246M846.711,253.961C846.641,256.086 845.348,257.93 844.121,259.574C841.941,262.289 839.359,264.695 836.516,266.703C835.41,267.394 834.238,268.211 832.891,268.246L846.711,268.246M832.891,268.246C834.887,268.308 836.594,269.578 838.117,270.75C840.805,273.012 843.133,275.695 845.098,278.605C845.82,279.808 846.668,281.086 846.711,282.531L846.711,268.246" style="fill:rgb(230,24,10);fill-rule:nonzero;"/>
                </g>
                <g transform="matrix(1,0,0,-1,0.23105,667.04)">
                    <path d="M846.711,333.117L832.891,333.117C834.465,333.047 835.805,332.027 837.07,331.187C839.91,329.043 842.57,326.586 844.672,323.711C845.652,322.265 846.684,320.636 846.711,318.832M832.891,333.117C834.887,333.179 836.594,334.453 838.117,335.625C840.805,337.883 843.133,340.57 845.098,343.476C845.82,344.679 846.672,345.957 846.711,347.406L846.711,333.117M846.711,347.406C846.777,345.277 848.074,343.433 849.297,341.789C851.477,339.074 854.062,336.668 856.906,334.66C858.008,333.968 859.184,333.152 860.527,333.117L846.711,333.117M860.527,333.117C858.531,333.054 856.824,331.785 855.305,330.613C852.613,328.351 850.285,325.668 848.32,322.758C847.598,321.554 846.75,320.281 846.711,318.832L846.711,333.117" style="fill:rgb(230,24,10);fill-rule:nonzero;"/>
                </g>
                <g transform="matrix(-1,-1.22465e-16,-1.22465e-16,1,1693.65,0.80205)">
                    <path d="M846.711,333.117L832.891,333.117C834.465,333.047 835.805,332.027 837.07,331.187C839.91,329.043 842.57,326.586 844.672,323.711C845.652,322.265 846.684,320.636 846.711,318.832M832.891,333.117C834.887,333.179 836.594,334.453 838.117,335.625C840.805,337.883 843.133,340.57 845.098,343.476C845.82,344.679 846.672,345.957 846.711,347.406L846.711,333.117M846.711,347.406C846.777,345.277 848.074,343.433 849.297,341.789C851.477,339.074 854.062,336.668 856.906,334.66C858.008,333.968 859.184,333.152 860.527,333.117L846.711,333.117M860.527,333.117C858.531,333.054 856.824,331.785 855.305,330.613C852.613,328.351 850.285,325.668 848.32,322.758C847.598,321.554 846.75,320.281 846.711,318.832L846.711,333.117" style="fill:rgb(230,24,10);fill-rule:nonzero;"/>
                </g>
                <g transform="matrix(1,0,0,-1,0.23105,503.13)">
                    <path d="M816.773,251.164L830.594,251.164C829.02,251.234 827.68,252.254 826.414,253.094C823.574,255.238 820.914,257.695 818.812,260.57C817.832,262.019 816.801,263.644 816.773,265.449M830.594,251.164C828.598,251.101 826.891,249.832 825.367,248.656C822.68,246.398 820.352,243.715 818.387,240.805C817.664,239.601 816.812,238.324 816.773,236.879L816.773,251.164M816.773,236.879C816.707,239.004 815.41,240.848 814.188,242.492C812.008,245.207 809.422,247.613 806.578,249.621C805.477,250.312 804.301,251.129 802.957,251.164L816.773,251.164M802.957,251.164C804.953,251.226 806.66,252.496 808.18,253.668C810.871,255.93 813.199,258.613 815.164,261.523C815.887,262.726 816.734,264.004 816.773,265.449L816.773,251.164" style="fill:rgb(230,24,10);fill-rule:nonzero;"/>
                </g>
                <g transform="matrix(-1,-1.22465e-16,-1.22465e-16,1,1633.78,0.80205)">
                    <path d="M816.773,251.164L830.594,251.164C829.02,251.234 827.68,252.254 826.414,253.094C823.574,255.238 820.914,257.695 818.812,260.57C817.832,262.019 816.801,263.644 816.773,265.449M830.594,251.164C828.598,251.101 826.891,249.832 825.367,248.656C822.68,246.398 820.352,243.715 818.387,240.805C817.664,239.601 816.812,238.324 816.773,236.879L816.773,251.164M816.773,236.879C816.707,239.004 815.41,240.848 814.188,242.492C812.008,245.207 809.422,247.613 806.578,249.621C805.477,250.312 804.301,251.129 802.957,251.164L816.773,251.164M802.957,251.164C804.953,251.226 806.66,252.496 808.18,253.668C810.871,255.93 813.199,258.613 815.164,261.523C815.887,262.726 816.734,264.004 816.773,265.449L816.773,251.164" style="fill:rgb(230,24,10);fill-rule:nonzero;"/>
                </g>
                <g transform="matrix(0.53388,0,0,1,353.476,2.8564)">
                    <g transform="matrix(34.0888,0,0,34.0888,756.956,208.276)">
                        <path d="M0.177,0.014L0.357,-0.533L0.22,-0.533C0.167,-0.533 0.126,-0.526 0.099,-0.512C0.08,-0.502 0.065,-0.484 0.052,-0.457L0.034,-0.457L0.082,-0.662L0.476,-0.662L0.254,0.014L0.177,0.014Z" style="fill:rgb(230,24,10);fill-rule:nonzero;"/>
                    </g>
                </g>
                <g transform="matrix(-0.53388,0,0,-1,407.772,-1.94116)">
                    <g transform="matrix(34.0888,0,0,34.0888,-876.589,-338.518)">
                        <path d="M0.177,0.014L0.357,-0.533L0.22,-0.533C0.167,-0.533 0.126,-0.526 0.099,-0.512C0.08,-0.502 0.065,-0.484 0.052,-0.457L0.034,-0.457L0.082,-0.662L0.476,-0.662L0.254,0.014L0.177,0.014Z" style="fill:rgb(230,24,10);fill-rule:nonzero;"/>
                    </g>
                </g>
            </g>
        </g>
    </g>
</svg>
