<?xml version="1.0" encoding="UTF-8" standalone="no"?>
<!DOCTYPE svg PUBLIC "-//W3C//DTD SVG 1.1//EN" "http://www.w3.org/Graphics/SVG/1.1/DTD/svg11.dtd">
<svg width="100%" height="100%" viewBox="0 0 133 191" version="1.1" xmlns="http://www.w3.org/2000/svg" xmlns:xlink="http://www.w3.org/1999/xlink" xml:space="preserve" xmlns:serif="http://www.serif.com/" style="fill-rule:evenodd;clip-rule:evenodd;">
    <g transform="matrix(1,0,0,1,-402,-1197)">
        <g id="karovier" transform="matrix(1.0231,0,0,0.854373,402.007,373.015)">
            <rect x="0" y="965.48" width="129.704" height="221.683" style="fill:none;"/>
            <g transform="matrix(0.977423,0,0,1.17045,-364.948,754.949)">
                <g transform="matrix(1,0,0,-1,0.23105,548.341)">
                    <path d="M377.055,188.148C377.055,185.316 379.371,183 382.203,183L496.797,183C499.621,183 501.938,185.316 501.938,188.148L501.938,359.387C501.938,362.219 499.621,364.539 496.797,364.539L382.203,364.539C379.371,364.539 377.055,362.219 377.055,359.387L377.055,188.148Z" style="fill:white;fill-rule:nonzero;stroke:black;stroke-width:1px;"/>
                </g>
                <g transform="matrix(1,0,0,-1,0.23105,442.005)">
                    <path d="M387.289,220.601L393.047,220.601C392.391,220.629 391.832,221.055 391.305,221.406C390.121,222.297 389.012,223.32 388.137,224.519C387.727,225.121 387.297,225.801 387.289,226.555M393.047,220.601C392.211,220.574 391.504,220.043 390.867,219.555C389.746,218.617 388.777,217.496 387.957,216.285C387.656,215.781 387.305,215.25 387.289,214.648L387.289,220.601M387.289,214.648C387.258,215.535 386.719,216.301 386.211,216.988C385.301,218.117 384.223,219.121 383.039,219.957C382.578,220.246 382.09,220.586 381.531,220.601L387.289,220.601M381.531,220.601C382.363,220.625 383.074,221.156 383.707,221.644C384.828,222.586 385.797,223.707 386.617,224.918C386.918,225.418 387.27,225.949 387.289,226.555L387.289,220.601" style="fill:rgb(230,24,10);fill-rule:nonzero;"/>
                </g>
                <g transform="matrix(-1,-1.22465e-16,-1.22465e-16,1,774.809,0.80205)">
                    <path d="M387.289,220.601L393.047,220.601C392.391,220.629 391.832,221.055 391.305,221.406C390.121,222.297 389.012,223.32 388.137,224.519C387.727,225.121 387.297,225.801 387.289,226.555M393.047,220.601C392.211,220.574 391.504,220.043 390.867,219.555C389.746,218.617 388.777,217.496 387.957,216.285C387.656,215.781 387.305,215.25 387.289,214.648L387.289,220.601M387.289,214.648C387.258,215.535 386.719,216.301 386.211,216.988C385.301,218.117 384.223,219.121 383.039,219.957C382.578,220.246 382.09,220.586 381.531,220.601L387.289,220.601M381.531,220.601C382.363,220.625 383.074,221.156 383.707,221.644C384.828,222.586 385.797,223.707 386.617,224.918C386.918,225.418 387.27,225.949 387.289,226.555L387.289,220.601" style="fill:rgb(230,24,10);fill-rule:nonzero;"/>
                </g>
                <g transform="matrix(1,0,0,-1,0.23105,653.185)">
                    <path d="M492.453,326.192L486.695,326.192C487.352,326.164 487.91,325.738 488.438,325.387C489.621,324.496 490.73,323.469 491.605,322.274C492.016,321.668 492.445,320.992 492.453,320.238M486.695,326.192C487.527,326.219 488.238,326.746 488.875,327.235C489.996,328.176 490.965,329.297 491.785,330.508C492.086,331.008 492.438,331.543 492.453,332.145L492.453,326.192M492.453,332.145C492.484,331.258 493.023,330.492 493.531,329.805C494.441,328.672 495.52,327.672 496.703,326.836C497.164,326.547 497.652,326.207 498.211,326.192L492.453,326.192M498.211,326.192C497.379,326.164 496.668,325.637 496.035,325.149C494.914,324.207 493.945,323.086 493.125,321.875C492.824,321.375 492.473,320.844 492.453,320.238L492.453,326.192" style="fill:rgb(230,24,10);fill-rule:nonzero;"/>
                </g>
                <g transform="matrix(-1,-1.22465e-16,-1.22465e-16,1,985.137,0.80205)">
                    <path d="M492.453,326.192L486.695,326.192C487.352,326.164 487.91,325.738 488.438,325.387C489.621,324.496 490.73,323.469 491.605,322.274C492.016,321.668 492.445,320.992 492.453,320.238M486.695,326.192C487.527,326.219 488.238,326.746 488.875,327.235C489.996,328.176 490.965,329.297 491.785,330.508C492.086,331.008 492.438,331.543 492.453,332.145L492.453,326.192M492.453,332.145C492.484,331.258 493.023,330.492 493.531,329.805C494.441,328.672 495.52,327.672 496.703,326.836C497.164,326.547 497.652,326.207 498.211,326.192L492.453,326.192M498.211,326.192C497.379,326.164 496.668,325.637 496.035,325.149C494.914,324.207 493.945,323.086 493.125,321.875C492.824,321.375 492.473,320.844 492.453,320.238L492.453,326.192" style="fill:rgb(230,24,10);fill-rule:nonzero;"/>
                </g>
                <g transform="matrix(1,0,0,-1,0.23105,421.923)">
                    <path d="M409.934,210.559L423.754,210.559C422.18,210.629 420.84,211.648 419.574,212.488C416.734,214.633 414.074,217.09 411.973,219.965C410.992,221.414 409.961,223.039 409.934,224.848M423.754,210.559C421.758,210.496 420.051,209.226 418.527,208.051C415.84,205.793 413.512,203.109 411.547,200.199C410.824,198.996 409.973,197.723 409.934,196.273L409.934,210.559M409.934,196.273C409.867,198.398 408.57,200.242 407.348,201.887C405.168,204.601 402.582,207.008 399.738,209.016C398.637,209.707 397.461,210.527 396.117,210.559L409.934,210.559M396.117,210.559C398.113,210.621 399.82,211.891 401.34,213.062C404.031,215.324 406.359,218.012 408.324,220.918C409.047,222.121 409.895,223.398 409.934,224.848L409.934,210.559" style="fill:rgb(230,24,10);fill-rule:nonzero;"/>
                </g>
                <g transform="matrix(-1,-1.22465e-16,-1.22465e-16,1,820.102,0.80205)">
                    <path d="M409.934,210.559L423.754,210.559C422.18,210.629 420.84,211.648 419.574,212.488C416.734,214.633 414.074,217.09 411.973,219.965C410.992,221.414 409.961,223.039 409.934,224.848M423.754,210.559C421.758,210.496 420.051,209.226 418.527,208.051C415.84,205.793 413.512,203.109 411.547,200.199C410.824,198.996 409.973,197.723 409.934,196.273L409.934,210.559M409.934,196.273C409.867,198.398 408.57,200.242 407.348,201.887C405.168,204.601 402.582,207.008 399.738,209.016C398.637,209.707 397.461,210.527 396.117,210.559L409.934,210.559M396.117,210.559C398.113,210.621 399.82,211.891 401.34,213.062C404.031,215.324 406.359,218.012 408.324,220.918C409.047,222.121 409.895,223.398 409.934,224.848L409.934,210.559" style="fill:rgb(230,24,10);fill-rule:nonzero;"/>
                </g>
                <g transform="matrix(1,0,0,-1,0.23105,667.04)">
                    <path d="M409.934,333.117L396.117,333.117C397.691,333.047 399.027,332.027 400.293,331.187C403.137,329.043 405.797,326.586 407.898,323.711C408.879,322.265 409.91,320.636 409.934,318.832M396.117,333.117C398.113,333.179 399.82,334.453 401.34,335.625C404.031,337.883 406.359,340.57 408.324,343.476C409.047,344.679 409.895,345.957 409.934,347.406L409.934,333.117M409.934,347.406C410.004,345.277 411.301,343.433 412.523,341.789C414.703,339.074 417.285,336.668 420.129,334.66C421.234,333.968 422.406,333.152 423.754,333.117L409.934,333.117M423.754,333.117C421.758,333.054 420.051,331.785 418.527,330.613C415.84,328.351 413.512,325.668 411.547,322.758C410.824,321.554 409.977,320.281 409.934,318.832L409.934,333.117" style="fill:rgb(230,24,10);fill-rule:nonzero;"/>
                </g>
                <g transform="matrix(-1,-1.22465e-16,-1.22465e-16,1,820.102,0.80205)">
                    <path d="M409.934,333.117L396.117,333.117C397.691,333.047 399.027,332.027 400.293,331.187C403.137,329.043 405.797,326.586 407.898,323.711C408.879,322.265 409.91,320.636 409.934,318.832M396.117,333.117C398.113,333.179 399.82,334.453 401.34,335.625C404.031,337.883 406.359,340.57 408.324,343.476C409.047,344.679 409.895,345.957 409.934,347.406L409.934,333.117M409.934,347.406C410.004,345.277 411.301,343.433 412.523,341.789C414.703,339.074 417.285,336.668 420.129,334.66C421.234,333.968 422.406,333.152 423.754,333.117L409.934,333.117M423.754,333.117C421.758,333.054 420.051,331.785 418.527,330.613C415.84,328.351 413.512,325.668 411.547,322.758C410.824,321.554 409.977,320.281 409.934,318.832L409.934,333.117" style="fill:rgb(230,24,10);fill-rule:nonzero;"/>
                </g>
                <g transform="matrix(1,0,0,-1,0.23105,421.923)">
                    <path d="M469.805,210.559L483.625,210.559C482.051,210.629 480.711,211.648 479.445,212.488C476.605,214.633 473.945,217.09 471.844,219.965C470.863,221.414 469.832,223.039 469.805,224.848M483.625,210.559C481.629,210.496 479.922,209.226 478.398,208.051C475.711,205.793 473.383,203.109 471.418,200.199C470.695,198.996 469.844,197.723 469.805,196.273L469.805,210.559M469.805,196.273C469.738,198.398 468.441,200.242 467.219,201.887C465.039,204.601 462.453,207.008 459.609,209.016C458.508,209.707 457.332,210.527 455.988,210.559L469.805,210.559M455.988,210.559C457.984,210.621 459.691,211.891 461.211,213.062C463.902,215.324 466.23,218.012 468.195,220.918C468.918,222.121 469.766,223.398 469.805,224.848L469.805,210.559" style="fill:rgb(230,24,10);fill-rule:nonzero;"/>
                </g>
                <g transform="matrix(-1,-1.22465e-16,-1.22465e-16,1,939.844,0.80205)">
                    <path d="M469.805,210.559L483.625,210.559C482.051,210.629 480.711,211.648 479.445,212.488C476.605,214.633 473.945,217.09 471.844,219.965C470.863,221.414 469.832,223.039 469.805,224.848M483.625,210.559C481.629,210.496 479.922,209.226 478.398,208.051C475.711,205.793 473.383,203.109 471.418,200.199C470.695,198.996 469.844,197.723 469.805,196.273L469.805,210.559M469.805,196.273C469.738,198.398 468.441,200.242 467.219,201.887C465.039,204.601 462.453,207.008 459.609,209.016C458.508,209.707 457.332,210.527 455.988,210.559L469.805,210.559M455.988,210.559C457.984,210.621 459.691,211.891 461.211,213.062C463.902,215.324 466.23,218.012 468.195,220.918C468.918,222.121 469.766,223.398 469.805,224.848L469.805,210.559" style="fill:rgb(230,24,10);fill-rule:nonzero;"/>
                </g>
                <g transform="matrix(1,0,0,-1,0.23105,667.04)">
                    <path d="M469.805,333.117L455.988,333.117C457.562,333.047 458.898,332.027 460.164,331.187C463.008,329.043 465.668,326.586 467.77,323.711C468.75,322.265 469.781,320.636 469.805,318.832M455.988,333.117C457.984,333.179 459.691,334.453 461.211,335.625C463.902,337.883 466.23,340.57 468.195,343.476C468.918,344.679 469.766,345.957 469.805,347.406L469.805,333.117M469.805,347.406C469.875,345.277 471.168,343.433 472.395,341.789C474.574,339.074 477.156,336.668 480,334.66C481.105,333.968 482.277,333.152 483.625,333.117L469.805,333.117M483.625,333.117C481.629,333.054 479.922,331.785 478.398,330.613C475.711,328.351 473.383,325.668 471.418,322.758C470.695,321.554 469.848,320.281 469.805,318.832L469.805,333.117" style="fill:rgb(230,24,10);fill-rule:nonzero;"/>
                </g>
                <g transform="matrix(-1,-1.22465e-16,-1.22465e-16,1,939.844,0.80205)">
                    <path d="M469.805,333.117L455.988,333.117C457.562,333.047 458.898,332.027 460.164,331.187C463.008,329.043 465.668,326.586 467.77,323.711C468.75,322.265 469.781,320.636 469.805,318.832M455.988,333.117C457.984,333.179 459.691,334.453 461.211,335.625C463.902,337.883 466.23,340.57 468.195,343.476C468.918,344.679 469.766,345.957 469.805,347.406L469.805,333.117M469.805,347.406C469.875,345.277 471.168,343.433 472.395,341.789C474.574,339.074 477.156,336.668 480,334.66C481.105,333.968 482.277,333.152 483.625,333.117L469.805,333.117M483.625,333.117C481.629,333.054 479.922,331.785 478.398,330.613C475.711,328.351 473.383,325.668 471.418,322.758C470.695,321.554 469.848,320.281 469.805,318.832L469.805,333.117" style="fill:rgb(230,24,10);fill-rule:nonzero;"/>
                </g>
                <g transform="matrix(0.53388,0,0,1,177.793,2.8564)">
                    <g transform="matrix(34.0888,0,0,34.0888,380.052,208.276)">
                        <path d="M0.025,-0.25L0.339,-0.676L0.399,-0.676L0.399,-0.25L0.459,-0.25L0.459,-0.148L0.399,-0.148L0.399,0L0.265,0L0.265,-0.148L0.025,-0.148L0.025,-0.25ZM0.072,-0.25L0.265,-0.25L0.265,-0.511L0.072,-0.25Z" style="fill:rgb(230,24,10);fill-rule:nonzero;"/>
                    </g>
                </g>
                <g transform="matrix(-0.53388,0,0,-1,232.091,-1.94116)">
                    <g transform="matrix(34.0888,0,0,34.0888,-499.689,-338.518)">
                        <path d="M0.025,-0.25L0.339,-0.676L0.399,-0.676L0.399,-0.25L0.459,-0.25L0.459,-0.148L0.399,-0.148L0.399,0L0.265,0L0.265,-0.148L0.025,-0.148L0.025,-0.25ZM0.072,-0.25L0.265,-0.25L0.265,-0.511L0.072,-0.25Z" style="fill:rgb(230,24,10);fill-rule:nonzero;"/>
                    </g>
                </g>
            </g>
        </g>
    </g>
</svg>
