<?xml version="1.0" encoding="UTF-8" standalone="no"?>
<!DOCTYPE svg PUBLIC "-//W3C//DTD SVG 1.1//EN" "http://www.w3.org/Graphics/SVG/1.1/DTD/svg11.dtd">
<svg width="100%" height="100%" viewBox="0 0 134 191" version="1.1" xmlns="http://www.w3.org/2000/svg" xmlns:xlink="http://www.w3.org/1999/xlink" xml:space="preserve" xmlns:serif="http://www.serif.com/" style="fill-rule:evenodd;clip-rule:evenodd;">
    <g transform="matrix(1,0,0,1,-1065,-1197)">
        <g id="karoneun" transform="matrix(1.0231,0,0,0.854373,1065.51,373.015)">
            <rect x="0" y="965.48" width="129.704" height="221.683" style="fill:none;"/>
            <g transform="matrix(0.977423,0,0,1.17045,-978.937,754.949)">
                <g transform="matrix(1,0,0,-1,0.23105,548.341)">
                    <path d="M1005.23,188.148C1005.23,185.316 1007.54,183 1010.38,183L1124.97,183C1127.79,183 1130.11,185.316 1130.11,188.148L1130.11,359.387C1130.11,362.219 1127.79,364.539 1124.97,364.539L1010.38,364.539C1007.54,364.539 1005.23,362.219 1005.23,359.387L1005.23,188.148Z" style="fill:white;fill-rule:nonzero;stroke:black;stroke-width:1px;"/>
                </g>
                <g transform="matrix(1,0,0,-1,0.23105,442.005)">
                    <path d="M1015.46,220.601L1021.22,220.601C1020.56,220.629 1020,221.055 1019.48,221.406C1018.29,222.297 1017.18,223.32 1016.31,224.519C1015.9,225.121 1015.47,225.801 1015.46,226.555M1021.22,220.601C1020.39,220.574 1019.68,220.043 1019.04,219.555C1017.92,218.617 1016.95,217.496 1016.13,216.285C1015.83,215.781 1015.48,215.25 1015.46,214.648L1015.46,220.601M1015.46,214.648C1015.43,215.535 1014.89,216.301 1014.38,216.988C1013.47,218.117 1012.4,219.121 1011.21,219.957C1010.75,220.246 1010.26,220.586 1009.7,220.601L1015.46,220.601M1009.7,220.601C1010.53,220.625 1011.25,221.156 1011.88,221.644C1013,222.586 1013.97,223.707 1014.79,224.918C1015.09,225.418 1015.44,225.949 1015.46,226.555L1015.46,220.601" style="fill:rgb(230,24,10);fill-rule:nonzero;"/>
                </g>
                <g transform="matrix(-1,-1.22465e-16,-1.22465e-16,1,2031.15,0.80205)">
                    <path d="M1015.46,220.601L1021.22,220.601C1020.56,220.629 1020,221.055 1019.48,221.406C1018.29,222.297 1017.18,223.32 1016.31,224.519C1015.9,225.121 1015.47,225.801 1015.46,226.555M1021.22,220.601C1020.39,220.574 1019.68,220.043 1019.04,219.555C1017.92,218.617 1016.95,217.496 1016.13,216.285C1015.83,215.781 1015.48,215.25 1015.46,214.648L1015.46,220.601M1015.46,214.648C1015.43,215.535 1014.89,216.301 1014.38,216.988C1013.47,218.117 1012.4,219.121 1011.21,219.957C1010.75,220.246 1010.26,220.586 1009.7,220.601L1015.46,220.601M1009.7,220.601C1010.53,220.625 1011.25,221.156 1011.88,221.644C1013,222.586 1013.97,223.707 1014.79,224.918C1015.09,225.418 1015.44,225.949 1015.46,226.555L1015.46,220.601" style="fill:rgb(230,24,10);fill-rule:nonzero;"/>
                </g>
                <g transform="matrix(1,0,0,-1,0.23105,653.185)">
                    <path d="M1120.63,326.192L1114.87,326.192C1115.52,326.164 1116.08,325.738 1116.61,325.387C1117.79,324.496 1118.9,323.469 1119.77,322.274C1120.18,321.668 1120.61,320.992 1120.63,320.238M1114.87,326.192C1115.7,326.219 1116.41,326.746 1117.04,327.235C1118.16,328.176 1119.13,329.297 1119.95,330.508C1120.25,331.008 1120.61,331.543 1120.63,332.145L1120.63,326.192M1120.63,332.145C1120.65,331.258 1121.19,330.492 1121.7,329.805C1122.61,328.672 1123.69,327.672 1124.87,326.836C1125.33,326.547 1125.82,326.207 1126.38,326.192L1120.63,326.192M1126.38,326.192C1125.55,326.164 1124.84,325.637 1124.2,325.149C1123.08,324.207 1122.11,323.086 1121.29,321.875C1120.99,321.375 1120.64,320.844 1120.63,320.238L1120.63,326.192" style="fill:rgb(230,24,10);fill-rule:nonzero;"/>
                </g>
                <g transform="matrix(-1,-1.22465e-16,-1.22465e-16,1,2241.48,0.80205)">
                    <path d="M1120.63,326.192L1114.87,326.192C1115.52,326.164 1116.08,325.738 1116.61,325.387C1117.79,324.496 1118.9,323.469 1119.77,322.274C1120.18,321.668 1120.61,320.992 1120.63,320.238M1114.87,326.192C1115.7,326.219 1116.41,326.746 1117.04,327.235C1118.16,328.176 1119.13,329.297 1119.95,330.508C1120.25,331.008 1120.61,331.543 1120.63,332.145L1120.63,326.192M1120.63,332.145C1120.65,331.258 1121.19,330.492 1121.7,329.805C1122.61,328.672 1123.69,327.672 1124.87,326.836C1125.33,326.547 1125.82,326.207 1126.38,326.192L1120.63,326.192M1126.38,326.192C1125.55,326.164 1124.84,325.637 1124.2,325.149C1123.08,324.207 1122.11,323.086 1121.29,321.875C1120.99,321.375 1120.64,320.844 1120.63,320.238L1120.63,326.192" style="fill:rgb(230,24,10);fill-rule:nonzero;"/>
                </g>
                <g transform="matrix(1,0,0,-1,0.23105,421.923)">
                    <path d="M1038.11,210.559L1051.93,210.559C1050.35,210.629 1049.02,211.648 1047.75,212.488C1044.91,214.633 1042.25,217.09 1040.14,219.965C1039.16,221.414 1038.13,223.039 1038.11,224.848M1051.93,210.559C1049.93,210.496 1048.22,209.226 1046.7,208.051C1044.01,205.793 1041.68,203.109 1039.72,200.199C1039,198.996 1038.15,197.723 1038.11,196.273L1038.11,210.559M1038.11,196.273C1038.04,198.398 1036.75,200.242 1035.52,201.887C1033.34,204.601 1030.76,207.008 1027.91,209.016C1026.81,209.707 1025.64,210.527 1024.29,210.559L1038.11,210.559M1024.29,210.559C1026.29,210.621 1027.99,211.891 1029.52,213.062C1032.2,215.324 1034.53,218.012 1036.5,220.918C1037.22,222.121 1038.07,223.398 1038.11,224.848L1038.11,210.559" style="fill:rgb(230,24,10);fill-rule:nonzero;"/>
                </g>
                <g transform="matrix(-1,-1.22465e-16,-1.22465e-16,1,2076.45,0.80205)">
                    <path d="M1038.11,210.559L1051.93,210.559C1050.35,210.629 1049.02,211.648 1047.75,212.488C1044.91,214.633 1042.25,217.09 1040.14,219.965C1039.16,221.414 1038.13,223.039 1038.11,224.848M1051.93,210.559C1049.93,210.496 1048.22,209.226 1046.7,208.051C1044.01,205.793 1041.68,203.109 1039.72,200.199C1039,198.996 1038.15,197.723 1038.11,196.273L1038.11,210.559M1038.11,196.273C1038.04,198.398 1036.75,200.242 1035.52,201.887C1033.34,204.601 1030.76,207.008 1027.91,209.016C1026.81,209.707 1025.64,210.527 1024.29,210.559L1038.11,210.559M1024.29,210.559C1026.29,210.621 1027.99,211.891 1029.52,213.062C1032.2,215.324 1034.53,218.012 1036.5,220.918C1037.22,222.121 1038.07,223.398 1038.11,224.848L1038.11,210.559" style="fill:rgb(230,24,10);fill-rule:nonzero;"/>
                </g>
                <g transform="matrix(1,0,0,-1,0.23105,503.13)">
                    <path d="M1038.11,251.164L1051.93,251.164C1050.35,251.234 1049.02,252.254 1047.75,253.094C1044.91,255.238 1042.25,257.695 1040.14,260.57C1039.16,262.019 1038.13,263.644 1038.11,265.449M1051.93,251.164C1049.93,251.101 1048.22,249.832 1046.7,248.656C1044.01,246.398 1041.68,243.715 1039.72,240.805C1039,239.601 1038.15,238.324 1038.11,236.879L1038.11,251.164M1038.11,236.879C1038.04,239.004 1036.75,240.848 1035.52,242.492C1033.34,245.207 1030.76,247.613 1027.91,249.621C1026.81,250.312 1025.64,251.129 1024.29,251.164L1038.11,251.164M1024.29,251.164C1026.29,251.226 1027.99,252.496 1029.52,253.668C1032.2,255.93 1034.53,258.613 1036.5,261.523C1037.22,262.726 1038.07,264.004 1038.11,265.449L1038.11,251.164" style="fill:rgb(230,24,10);fill-rule:nonzero;"/>
                </g>
                <g transform="matrix(-1,-1.22465e-16,-1.22465e-16,1,2076.45,0.80205)">
                    <path d="M1038.11,251.164L1051.93,251.164C1050.35,251.234 1049.02,252.254 1047.75,253.094C1044.91,255.238 1042.25,257.695 1040.14,260.57C1039.16,262.019 1038.13,263.644 1038.11,265.449M1051.93,251.164C1049.93,251.101 1048.22,249.832 1046.7,248.656C1044.01,246.398 1041.68,243.715 1039.72,240.805C1039,239.601 1038.15,238.324 1038.11,236.879L1038.11,251.164M1038.11,236.879C1038.04,239.004 1036.75,240.848 1035.52,242.492C1033.34,245.207 1030.76,247.613 1027.91,249.621C1026.81,250.312 1025.64,251.129 1024.29,251.164L1038.11,251.164M1024.29,251.164C1026.29,251.226 1027.99,252.496 1029.52,253.668C1032.2,255.93 1034.53,258.613 1036.5,261.523C1037.22,262.726 1038.07,264.004 1038.11,265.449L1038.11,251.164" style="fill:rgb(230,24,10);fill-rule:nonzero;"/>
                </g>
                <g transform="matrix(1,0,0,-1,0.23105,585.837)">
                    <path d="M1038.11,292.515L1024.29,292.515C1025.86,292.445 1027.2,291.43 1028.47,290.586C1031.31,288.441 1033.97,285.984 1036.07,283.109C1037.05,281.664 1038.08,280.035 1038.11,278.23M1024.29,292.515C1026.29,292.578 1027.99,293.851 1029.52,295.023C1032.2,297.281 1034.53,299.969 1036.5,302.875C1037.22,304.078 1038.07,305.355 1038.11,306.805L1038.11,292.515M1038.11,306.805C1038.18,304.676 1039.47,302.832 1040.69,301.187C1042.88,298.473 1045.46,296.07 1048.31,294.058C1049.41,293.371 1050.58,292.551 1051.93,292.515L1038.11,292.515M1051.93,292.515C1049.93,292.453 1048.22,291.183 1046.7,290.012C1044.01,287.754 1041.68,285.066 1039.72,282.156C1039,280.953 1038.15,279.68 1038.11,278.23L1038.11,292.515" style="fill:rgb(230,24,10);fill-rule:nonzero;"/>
                </g>
                <g transform="matrix(-1,-1.22465e-16,-1.22465e-16,1,2076.45,0.80205)">
                    <path d="M1038.11,292.515L1024.29,292.515C1025.86,292.445 1027.2,291.43 1028.47,290.586C1031.31,288.441 1033.97,285.984 1036.07,283.109C1037.05,281.664 1038.08,280.035 1038.11,278.23M1024.29,292.515C1026.29,292.578 1027.99,293.851 1029.52,295.023C1032.2,297.281 1034.53,299.969 1036.5,302.875C1037.22,304.078 1038.07,305.355 1038.11,306.805L1038.11,292.515M1038.11,306.805C1038.18,304.676 1039.47,302.832 1040.69,301.187C1042.88,298.473 1045.46,296.07 1048.31,294.058C1049.41,293.371 1050.58,292.551 1051.93,292.515L1038.11,292.515M1051.93,292.515C1049.93,292.453 1048.22,291.183 1046.7,290.012C1044.01,287.754 1041.68,285.066 1039.72,282.156C1039,280.953 1038.15,279.68 1038.11,278.23L1038.11,292.515" style="fill:rgb(230,24,10);fill-rule:nonzero;"/>
                </g>
                <g transform="matrix(1,0,0,-1,0.23105,667.04)">
                    <path d="M1038.11,333.117L1024.29,333.117C1025.86,333.047 1027.2,332.027 1028.47,331.187C1031.31,329.043 1033.97,326.586 1036.07,323.711C1037.05,322.265 1038.08,320.636 1038.11,318.832M1024.29,333.117C1026.29,333.179 1027.99,334.453 1029.52,335.625C1032.2,337.883 1034.53,340.57 1036.5,343.476C1037.22,344.679 1038.07,345.957 1038.11,347.406L1038.11,333.117M1038.11,347.406C1038.18,345.277 1039.47,343.433 1040.69,341.789C1042.88,339.074 1045.46,336.668 1048.31,334.66C1049.41,333.968 1050.58,333.152 1051.93,333.117L1038.11,333.117M1051.93,333.117C1049.93,333.054 1048.22,331.785 1046.7,330.613C1044.01,328.351 1041.68,325.668 1039.72,322.758C1039,321.554 1038.15,320.281 1038.11,318.832L1038.11,333.117" style="fill:rgb(230,24,10);fill-rule:nonzero;"/>
                </g>
                <g transform="matrix(-1,-1.22465e-16,-1.22465e-16,1,2076.45,0.80205)">
                    <path d="M1038.11,333.117L1024.29,333.117C1025.86,333.047 1027.2,332.027 1028.47,331.187C1031.31,329.043 1033.97,326.586 1036.07,323.711C1037.05,322.265 1038.08,320.636 1038.11,318.832M1024.29,333.117C1026.29,333.179 1027.99,334.453 1029.52,335.625C1032.2,337.883 1034.53,340.57 1036.5,343.476C1037.22,344.679 1038.07,345.957 1038.11,347.406L1038.11,333.117M1038.11,347.406C1038.18,345.277 1039.47,343.433 1040.69,341.789C1042.88,339.074 1045.46,336.668 1048.31,334.66C1049.41,333.968 1050.58,333.152 1051.93,333.117L1038.11,333.117M1051.93,333.117C1049.93,333.054 1048.22,331.785 1046.7,330.613C1044.01,328.351 1041.68,325.668 1039.72,322.758C1039,321.554 1038.15,320.281 1038.11,318.832L1038.11,333.117" style="fill:rgb(230,24,10);fill-rule:nonzero;"/>
                </g>
                <g transform="matrix(1,0,0,-1,0.23105,421.923)">
                    <path d="M1097.98,210.559L1111.8,210.559C1110.22,210.629 1108.89,211.648 1107.62,212.488C1104.78,214.633 1102.12,217.09 1100.02,219.965C1099.04,221.414 1098,223.039 1097.98,224.848M1111.8,210.559C1109.8,210.496 1108.09,209.226 1106.57,208.051C1103.88,205.793 1101.56,203.109 1099.59,200.199C1098.87,198.996 1098.02,197.723 1097.98,196.273L1097.98,210.559M1097.98,196.273C1097.91,198.398 1096.62,200.242 1095.39,201.887C1093.21,204.601 1090.63,207.008 1087.79,209.016C1086.68,209.707 1085.51,210.527 1084.16,210.559L1097.98,210.559M1084.16,210.559C1086.16,210.621 1087.86,211.891 1089.39,213.062C1092.07,215.324 1094.4,218.012 1096.37,220.918C1097.09,222.121 1097.94,223.398 1097.98,224.848L1097.98,210.559" style="fill:rgb(230,24,10);fill-rule:nonzero;"/>
                </g>
                <g transform="matrix(-1,-1.22465e-16,-1.22465e-16,1,2196.19,0.80205)">
                    <path d="M1097.98,210.559L1111.8,210.559C1110.22,210.629 1108.89,211.648 1107.62,212.488C1104.78,214.633 1102.12,217.09 1100.02,219.965C1099.04,221.414 1098,223.039 1097.98,224.848M1111.8,210.559C1109.8,210.496 1108.09,209.226 1106.57,208.051C1103.88,205.793 1101.56,203.109 1099.59,200.199C1098.87,198.996 1098.02,197.723 1097.98,196.273L1097.98,210.559M1097.98,196.273C1097.91,198.398 1096.62,200.242 1095.39,201.887C1093.21,204.601 1090.63,207.008 1087.79,209.016C1086.68,209.707 1085.51,210.527 1084.16,210.559L1097.98,210.559M1084.16,210.559C1086.16,210.621 1087.86,211.891 1089.39,213.062C1092.07,215.324 1094.4,218.012 1096.37,220.918C1097.09,222.121 1097.94,223.398 1097.98,224.848L1097.98,210.559" style="fill:rgb(230,24,10);fill-rule:nonzero;"/>
                </g>
                <g transform="matrix(1,0,0,-1,0.23105,503.13)">
                    <path d="M1097.98,251.164L1111.8,251.164C1110.22,251.234 1108.89,252.254 1107.62,253.094C1104.78,255.238 1102.12,257.695 1100.02,260.57C1099.04,262.019 1098,263.644 1097.98,265.449M1111.8,251.164C1109.8,251.101 1108.09,249.832 1106.57,248.656C1103.88,246.398 1101.56,243.715 1099.59,240.805C1098.87,239.601 1098.02,238.324 1097.98,236.879L1097.98,251.164M1097.98,236.879C1097.91,239.004 1096.62,240.848 1095.39,242.492C1093.21,245.207 1090.63,247.613 1087.79,249.621C1086.68,250.312 1085.51,251.129 1084.16,251.164L1097.98,251.164M1084.16,251.164C1086.16,251.226 1087.86,252.496 1089.39,253.668C1092.07,255.93 1094.4,258.613 1096.37,261.523C1097.09,262.726 1097.94,264.004 1097.98,265.449L1097.98,251.164" style="fill:rgb(230,24,10);fill-rule:nonzero;"/>
                </g>
                <g transform="matrix(-1,-1.22465e-16,-1.22465e-16,1,2196.19,0.80205)">
                    <path d="M1097.98,251.164L1111.8,251.164C1110.22,251.234 1108.89,252.254 1107.62,253.094C1104.78,255.238 1102.12,257.695 1100.02,260.57C1099.04,262.019 1098,263.644 1097.98,265.449M1111.8,251.164C1109.8,251.101 1108.09,249.832 1106.57,248.656C1103.88,246.398 1101.56,243.715 1099.59,240.805C1098.87,239.601 1098.02,238.324 1097.98,236.879L1097.98,251.164M1097.98,236.879C1097.91,239.004 1096.62,240.848 1095.39,242.492C1093.21,245.207 1090.63,247.613 1087.79,249.621C1086.68,250.312 1085.51,251.129 1084.16,251.164L1097.98,251.164M1084.16,251.164C1086.16,251.226 1087.86,252.496 1089.39,253.668C1092.07,255.93 1094.4,258.613 1096.37,261.523C1097.09,262.726 1097.94,264.004 1097.98,265.449L1097.98,251.164" style="fill:rgb(230,24,10);fill-rule:nonzero;"/>
                </g>
                <g transform="matrix(1,0,0,-1,0.23105,585.837)">
                    <path d="M1097.98,292.515L1084.16,292.515C1085.73,292.445 1087.07,291.43 1088.34,290.586C1091.18,288.441 1093.84,285.984 1095.94,283.109C1096.92,281.664 1097.95,280.035 1097.98,278.23M1084.16,292.515C1086.16,292.578 1087.86,293.851 1089.39,295.023C1092.07,297.281 1094.4,299.969 1096.37,302.875C1097.09,304.078 1097.94,305.355 1097.98,306.805L1097.98,292.515M1097.98,306.805C1098.05,304.676 1099.34,302.832 1100.57,301.187C1102.75,298.473 1105.33,296.07 1108.18,294.058C1109.28,293.371 1110.45,292.551 1111.8,292.515L1097.98,292.515M1111.8,292.515C1109.8,292.453 1108.09,291.183 1106.57,290.012C1103.88,287.754 1101.56,285.066 1099.59,282.156C1098.87,280.953 1098.02,279.68 1097.98,278.23L1097.98,292.515" style="fill:rgb(230,24,10);fill-rule:nonzero;"/>
                </g>
                <g transform="matrix(-1,-1.22465e-16,-1.22465e-16,1,2196.19,0.80205)">
                    <path d="M1097.98,292.515L1084.16,292.515C1085.73,292.445 1087.07,291.43 1088.34,290.586C1091.18,288.441 1093.84,285.984 1095.94,283.109C1096.92,281.664 1097.95,280.035 1097.98,278.23M1084.16,292.515C1086.16,292.578 1087.86,293.851 1089.39,295.023C1092.07,297.281 1094.4,299.969 1096.37,302.875C1097.09,304.078 1097.94,305.355 1097.98,306.805L1097.98,292.515M1097.98,306.805C1098.05,304.676 1099.34,302.832 1100.57,301.187C1102.75,298.473 1105.33,296.07 1108.18,294.058C1109.28,293.371 1110.45,292.551 1111.8,292.515L1097.98,292.515M1111.8,292.515C1109.8,292.453 1108.09,291.183 1106.57,290.012C1103.88,287.754 1101.56,285.066 1099.59,282.156C1098.87,280.953 1098.02,279.68 1097.98,278.23L1097.98,292.515" style="fill:rgb(230,24,10);fill-rule:nonzero;"/>
                </g>
                <g transform="matrix(1,0,0,-1,0.23105,667.04)">
                    <path d="M1097.98,333.117L1084.16,333.117C1085.73,333.047 1087.07,332.027 1088.34,331.187C1091.18,329.043 1093.84,326.586 1095.94,323.711C1096.92,322.265 1097.95,320.636 1097.98,318.832M1084.16,333.117C1086.16,333.179 1087.86,334.453 1089.39,335.625C1092.07,337.883 1094.4,340.57 1096.37,343.476C1097.09,344.679 1097.94,345.957 1097.98,347.406L1097.98,333.117M1097.98,347.406C1098.05,345.277 1099.34,343.433 1100.57,341.789C1102.75,339.074 1105.33,336.668 1108.18,334.66C1109.28,333.968 1110.45,333.152 1111.8,333.117L1097.98,333.117M1111.8,333.117C1109.8,333.054 1108.09,331.785 1106.57,330.613C1103.88,328.351 1101.56,325.668 1099.59,322.758C1098.87,321.554 1098.02,320.281 1097.98,318.832L1097.98,333.117" style="fill:rgb(230,24,10);fill-rule:nonzero;"/>
                </g>
                <g transform="matrix(-1,-1.22465e-16,-1.22465e-16,1,2196.19,0.80205)">
                    <path d="M1097.98,333.117L1084.16,333.117C1085.73,333.047 1087.07,332.027 1088.34,331.187C1091.18,329.043 1093.84,326.586 1095.94,323.711C1096.92,322.265 1097.95,320.636 1097.98,318.832M1084.16,333.117C1086.16,333.179 1087.86,334.453 1089.39,335.625C1092.07,337.883 1094.4,340.57 1096.37,343.476C1097.09,344.679 1097.94,345.957 1097.98,347.406L1097.98,333.117M1097.98,347.406C1098.05,345.277 1099.34,343.433 1100.57,341.789C1102.75,339.074 1105.33,336.668 1108.18,334.66C1109.28,333.968 1110.45,333.152 1111.8,333.117L1097.98,333.117M1111.8,333.117C1109.8,333.054 1108.09,331.785 1106.57,330.613C1103.88,328.351 1101.56,325.668 1099.59,322.758C1098.87,321.554 1098.02,320.281 1097.98,318.832L1097.98,333.117" style="fill:rgb(230,24,10);fill-rule:nonzero;"/>
                </g>
                <g transform="matrix(1,0,0,-1,0.23105,462.528)">
                    <path d="M1068.04,230.863L1081.86,230.863C1080.29,230.933 1078.95,231.953 1077.68,232.792C1074.84,234.937 1072.18,237.394 1070.08,240.269C1069.1,241.718 1068.07,243.343 1068.04,245.148M1081.86,230.863C1079.87,230.8 1078.16,229.531 1076.64,228.355C1073.95,226.097 1071.62,223.414 1069.65,220.503C1068.93,219.3 1068.08,218.027 1068.04,216.578L1068.04,230.863M1068.04,216.578C1067.98,218.703 1066.68,220.546 1065.46,222.191C1063.28,224.906 1060.69,227.312 1057.85,229.32C1056.74,230.011 1055.57,230.831 1054.23,230.863L1068.04,230.863M1054.23,230.863C1056.22,230.925 1057.93,232.195 1059.45,233.367C1062.14,235.628 1064.47,238.316 1066.43,241.222C1067.16,242.425 1068,243.703 1068.04,245.148L1068.04,230.863" style="fill:rgb(230,24,10);fill-rule:nonzero;"/>
                </g>
                <g transform="matrix(-1,-1.22465e-16,-1.22465e-16,1,2136.32,0.80205)">
                    <path d="M1068.04,230.863L1081.86,230.863C1080.29,230.933 1078.95,231.953 1077.68,232.792C1074.84,234.937 1072.18,237.394 1070.08,240.269C1069.1,241.718 1068.07,243.343 1068.04,245.148M1081.86,230.863C1079.87,230.8 1078.16,229.531 1076.64,228.355C1073.95,226.097 1071.62,223.414 1069.65,220.503C1068.93,219.3 1068.08,218.027 1068.04,216.578L1068.04,230.863M1068.04,216.578C1067.98,218.703 1066.68,220.546 1065.46,222.191C1063.28,224.906 1060.69,227.312 1057.85,229.32C1056.74,230.011 1055.57,230.831 1054.23,230.863L1068.04,230.863M1054.23,230.863C1056.22,230.925 1057.93,232.195 1059.45,233.367C1062.14,235.628 1064.47,238.316 1066.43,241.222C1067.16,242.425 1068,243.703 1068.04,245.148L1068.04,230.863" style="fill:rgb(230,24,10);fill-rule:nonzero;"/>
                </g>
                <g transform="matrix(0.53388,0,0,1,470.597,2.8564)">
                    <g transform="matrix(34.0888,0,0,34.0888,1008.23,208.276)">
                        <path d="M0.031,0.014L0.031,0C0.085,-0.012 0.131,-0.031 0.168,-0.055C0.206,-0.079 0.236,-0.109 0.258,-0.144C0.28,-0.18 0.295,-0.22 0.304,-0.267C0.284,-0.256 0.266,-0.249 0.252,-0.245C0.238,-0.241 0.223,-0.239 0.208,-0.239C0.157,-0.239 0.116,-0.257 0.082,-0.293C0.049,-0.329 0.032,-0.379 0.032,-0.441C0.032,-0.485 0.041,-0.525 0.059,-0.561C0.077,-0.598 0.103,-0.626 0.137,-0.646C0.17,-0.666 0.205,-0.676 0.241,-0.676C0.28,-0.676 0.317,-0.665 0.351,-0.643C0.386,-0.62 0.413,-0.588 0.434,-0.546C0.454,-0.504 0.464,-0.457 0.464,-0.403C0.464,-0.333 0.448,-0.266 0.414,-0.203C0.381,-0.139 0.331,-0.088 0.265,-0.049C0.199,-0.01 0.121,0.01 0.031,0.014ZM0.311,-0.308C0.314,-0.344 0.316,-0.376 0.316,-0.404C0.316,-0.463 0.309,-0.518 0.295,-0.569C0.288,-0.598 0.276,-0.618 0.261,-0.632C0.253,-0.639 0.242,-0.643 0.229,-0.643C0.213,-0.643 0.2,-0.636 0.191,-0.622C0.178,-0.602 0.172,-0.566 0.172,-0.512C0.172,-0.422 0.183,-0.359 0.204,-0.325C0.218,-0.303 0.237,-0.292 0.261,-0.292C0.273,-0.292 0.29,-0.297 0.311,-0.308Z" style="fill:rgb(230,24,10);fill-rule:nonzero;"/>
                    </g>
                </g>
                <g transform="matrix(-0.53388,0,0,-1,524.893,-1.94116)">
                    <g transform="matrix(34.0888,0,0,34.0888,-1127.86,-338.518)">
                        <path d="M0.031,0.014L0.031,0C0.085,-0.012 0.131,-0.031 0.168,-0.055C0.206,-0.079 0.236,-0.109 0.258,-0.144C0.28,-0.18 0.295,-0.22 0.304,-0.267C0.284,-0.256 0.266,-0.249 0.252,-0.245C0.238,-0.241 0.223,-0.239 0.208,-0.239C0.157,-0.239 0.116,-0.257 0.082,-0.293C0.049,-0.329 0.032,-0.379 0.032,-0.441C0.032,-0.485 0.041,-0.525 0.059,-0.561C0.077,-0.598 0.103,-0.626 0.137,-0.646C0.17,-0.666 0.205,-0.676 0.241,-0.676C0.28,-0.676 0.317,-0.665 0.351,-0.643C0.386,-0.62 0.413,-0.588 0.434,-0.546C0.454,-0.504 0.464,-0.457 0.464,-0.403C0.464,-0.333 0.448,-0.266 0.414,-0.203C0.381,-0.139 0.331,-0.088 0.265,-0.049C0.199,-0.01 0.121,0.01 0.031,0.014ZM0.311,-0.308C0.314,-0.344 0.316,-0.376 0.316,-0.404C0.316,-0.463 0.309,-0.518 0.295,-0.569C0.288,-0.598 0.276,-0.618 0.261,-0.632C0.253,-0.639 0.242,-0.643 0.229,-0.643C0.213,-0.643 0.2,-0.636 0.191,-0.622C0.178,-0.602 0.172,-0.566 0.172,-0.512C0.172,-0.422 0.183,-0.359 0.204,-0.325C0.218,-0.303 0.237,-0.292 0.261,-0.292C0.273,-0.292 0.29,-0.297 0.311,-0.308Z" style="fill:rgb(230,24,10);fill-rule:nonzero;"/>
                    </g>
                </g>
            </g>
        </g>
    </g>
</svg>
