<?xml version="1.0" encoding="UTF-8" standalone="no"?>
<!DOCTYPE svg PUBLIC "-//W3C//DTD SVG 1.1//EN" "http://www.w3.org/Graphics/SVG/1.1/DTD/svg11.dtd">
<svg width="100%" height="100%" viewBox="0 0 134 191" version="1.1" xmlns="http://www.w3.org/2000/svg" xmlns:xlink="http://www.w3.org/1999/xlink" xml:space="preserve" xmlns:serif="http://www.serif.com/" style="fill-rule:evenodd;clip-rule:evenodd;">
    <g transform="matrix(1,0,0,1,-3,-1197)">
        <g id="karoass" transform="matrix(1.0231,0,0,0.854373,3.9065,373.015)">
            <rect x="0" y="965.48" width="129.704" height="221.683" style="fill:none;"/>
            <g transform="matrix(0.977423,0,0,1.17045,3.44781,754.947)">
                <g transform="matrix(1,0,0,-1,0.23105,548.341)">
                    <path d="M0.148,188.148C0.148,185.316 2.465,183 5.301,183L119.891,183C122.719,183 125.035,185.316 125.035,188.148L125.035,359.387C125.035,362.219 122.719,364.539 119.891,364.539L5.301,364.539C2.465,364.539 0.148,362.219 0.148,359.387L0.148,188.148Z" style="fill:white;fill-rule:nonzero;stroke:black;stroke-width:1px;"/>
                </g>
                <g transform="matrix(1,0,0,-1,0.23105,442.005)">
                    <path d="M10.383,220.601L16.141,220.601C15.484,220.629 14.926,221.055 14.402,221.406C13.219,222.297 12.109,223.32 11.23,224.519C10.824,225.121 10.395,225.801 10.383,226.555M16.141,220.601C15.309,220.574 14.598,220.043 13.965,219.555C12.844,218.617 11.875,217.496 11.055,216.285C10.754,215.781 10.398,215.25 10.383,214.648L10.383,220.601M10.383,214.648C10.355,215.535 9.816,216.301 9.305,216.988C8.398,218.117 7.32,219.121 6.137,219.957C5.676,220.246 5.188,220.586 4.625,220.601L10.383,220.601M4.625,220.601C5.457,220.625 6.168,221.156 6.805,221.644C7.922,222.586 8.895,223.707 9.711,224.918C10.012,225.418 10.367,225.949 10.383,226.555L10.383,220.601" style="fill:rgb(230,24,10);fill-rule:nonzero;"/>
                </g>
                <g transform="matrix(-1,-1.22465e-16,-1.22465e-16,1,20.997,0.80205)">
                    <path d="M10.383,220.601L16.141,220.601C15.484,220.629 14.926,221.055 14.402,221.406C13.219,222.297 12.109,223.32 11.23,224.519C10.824,225.121 10.395,225.801 10.383,226.555M16.141,220.601C15.309,220.574 14.598,220.043 13.965,219.555C12.844,218.617 11.875,217.496 11.055,216.285C10.754,215.781 10.398,215.25 10.383,214.648L10.383,220.601M10.383,214.648C10.355,215.535 9.816,216.301 9.305,216.988C8.398,218.117 7.32,219.121 6.137,219.957C5.676,220.246 5.188,220.586 4.625,220.601L10.383,220.601M4.625,220.601C5.457,220.625 6.168,221.156 6.805,221.644C7.922,222.586 8.895,223.707 9.711,224.918C10.012,225.418 10.367,225.949 10.383,226.555L10.383,220.601" style="fill:rgb(230,24,10);fill-rule:nonzero;"/>
                </g>
                <g transform="matrix(1,0,0,-1,0.23105,653.185)">
                    <path d="M115.551,326.192L109.793,326.192C110.449,326.164 111.008,325.738 111.535,325.387C112.719,324.496 113.828,323.469 114.703,322.274C115.109,321.668 115.539,320.992 115.551,320.238M109.793,326.192C110.625,326.219 111.336,326.746 111.969,327.235C113.09,328.176 114.062,329.297 114.879,330.508C115.18,331.008 115.535,331.543 115.551,332.145L115.551,326.192M115.551,332.145C115.578,331.258 116.117,330.492 116.629,329.805C117.539,328.672 118.613,327.672 119.797,326.836C120.258,326.547 120.746,326.207 121.309,326.192L115.551,326.192M121.309,326.192C120.477,326.164 119.766,325.637 119.133,325.149C118.012,324.207 117.039,323.086 116.223,321.875C115.922,321.375 115.566,320.844 115.551,320.238L115.551,326.192" style="fill:rgb(230,24,10);fill-rule:nonzero;"/>
                </g>
                <g transform="matrix(-1,-1.22465e-16,-1.22465e-16,1,231.333,0.80205)">
                    <path d="M115.551,326.192L109.793,326.192C110.449,326.164 111.008,325.738 111.535,325.387C112.719,324.496 113.828,323.469 114.703,322.274C115.109,321.668 115.539,320.992 115.551,320.238M109.793,326.192C110.625,326.219 111.336,326.746 111.969,327.235C113.09,328.176 114.062,329.297 114.879,330.508C115.18,331.008 115.535,331.543 115.551,332.145L115.551,326.192M115.551,332.145C115.578,331.258 116.117,330.492 116.629,329.805C117.539,328.672 118.613,327.672 119.797,326.836C120.258,326.547 120.746,326.207 121.309,326.192L115.551,326.192M121.309,326.192C120.477,326.164 119.766,325.637 119.133,325.149C118.012,324.207 117.039,323.086 116.223,321.875C115.922,321.375 115.566,320.844 115.551,320.238L115.551,326.192" style="fill:rgb(230,24,10);fill-rule:nonzero;"/>
                </g>
                <g transform="matrix(1,0,0,-1,0.23105,537.294)">
                    <path d="M62.969,268.246L76.785,268.246C75.211,268.316 73.871,269.336 72.609,270.176C69.766,272.32 67.105,274.777 65.004,277.652C64.023,279.097 62.992,280.726 62.969,282.531M76.785,268.246C74.789,268.183 73.082,266.91 71.562,265.738C68.871,263.48 66.543,260.793 64.578,257.887C63.855,256.683 63.008,255.406 62.969,253.961L62.969,268.246M62.969,253.961C62.898,256.086 61.602,257.93 60.379,259.574C58.199,262.289 55.613,264.695 52.773,266.703C51.668,267.394 50.496,268.211 49.148,268.246L62.969,268.246M49.148,268.246C51.145,268.308 52.852,269.578 54.375,270.75C57.062,273.012 59.391,275.695 61.355,278.605C62.078,279.808 62.926,281.086 62.969,282.531L62.969,268.246" style="fill:rgb(230,24,10);fill-rule:nonzero;"/>
                </g>
                <g transform="matrix(-1,-1.22465e-16,-1.22465e-16,1,126.164,0.80205)">
                    <path d="M62.969,268.246L76.785,268.246C75.211,268.316 73.871,269.336 72.609,270.176C69.766,272.32 67.105,274.777 65.004,277.652C64.023,279.097 62.992,280.726 62.969,282.531M76.785,268.246C74.789,268.183 73.082,266.91 71.562,265.738C68.871,263.48 66.543,260.793 64.578,257.887C63.855,256.683 63.008,255.406 62.969,253.961L62.969,268.246M62.969,253.961C62.898,256.086 61.602,257.93 60.379,259.574C58.199,262.289 55.613,264.695 52.773,266.703C51.668,267.394 50.496,268.211 49.148,268.246L62.969,268.246M49.148,268.246C51.145,268.308 52.852,269.578 54.375,270.75C57.062,273.012 59.391,275.695 61.355,278.605C62.078,279.808 62.926,281.086 62.969,282.531L62.969,268.246" style="fill:rgb(230,24,10);fill-rule:nonzero;"/>
                </g>
                <g transform="matrix(0.53388,0,0,1,2.11092,2.8564)">
                    <g transform="matrix(34.0888,0,0,34.0888,3.14883,208.276)">
                        <path d="M0.416,-0.188L0.182,-0.188L0.154,-0.124C0.145,-0.103 0.141,-0.085 0.141,-0.071C0.141,-0.052 0.148,-0.039 0.163,-0.03C0.172,-0.025 0.194,-0.021 0.228,-0.018L0.228,0L0.008,0L0.008,-0.018C0.032,-0.022 0.051,-0.031 0.066,-0.048C0.082,-0.064 0.101,-0.097 0.123,-0.147L0.36,-0.676L0.369,-0.676L0.608,-0.133C0.631,-0.081 0.649,-0.049 0.664,-0.036C0.675,-0.026 0.691,-0.02 0.711,-0.018L0.711,0L0.391,0L0.391,-0.018L0.404,-0.018C0.43,-0.018 0.448,-0.022 0.458,-0.029C0.465,-0.034 0.469,-0.042 0.469,-0.051C0.469,-0.057 0.468,-0.063 0.466,-0.069C0.465,-0.072 0.46,-0.084 0.451,-0.106L0.416,-0.188ZM0.399,-0.225L0.301,-0.453L0.199,-0.225L0.399,-0.225Z" style="fill:rgb(230,24,10);fill-rule:nonzero;"/>
                    </g>
                </g>
                <g transform="matrix(-0.53388,0,0,-1,56.4088,-1.94116)">
                    <g transform="matrix(34.0888,0,0,34.0888,-122.786,-338.518)">
                        <path d="M0.416,-0.188L0.182,-0.188L0.154,-0.124C0.145,-0.103 0.141,-0.085 0.141,-0.071C0.141,-0.052 0.148,-0.039 0.163,-0.03C0.172,-0.025 0.194,-0.021 0.228,-0.018L0.228,0L0.008,0L0.008,-0.018C0.032,-0.022 0.051,-0.031 0.066,-0.048C0.082,-0.064 0.101,-0.097 0.123,-0.147L0.36,-0.676L0.369,-0.676L0.608,-0.133C0.631,-0.081 0.649,-0.049 0.664,-0.036C0.675,-0.026 0.691,-0.02 0.711,-0.018L0.711,0L0.391,0L0.391,-0.018L0.404,-0.018C0.43,-0.018 0.448,-0.022 0.458,-0.029C0.465,-0.034 0.469,-0.042 0.469,-0.051C0.469,-0.057 0.468,-0.063 0.466,-0.069C0.465,-0.072 0.46,-0.084 0.451,-0.106L0.416,-0.188ZM0.399,-0.225L0.301,-0.453L0.199,-0.225L0.399,-0.225Z" style="fill:rgb(230,24,10);fill-rule:nonzero;"/>
                    </g>
                </g>
            </g>
        </g>
    </g>
</svg>
