<?xml version="1.0" encoding="UTF-8" standalone="no"?>
<!DOCTYPE svg PUBLIC "-//W3C//DTD SVG 1.1//EN" "http://www.w3.org/Graphics/SVG/1.1/DTD/svg11.dtd">
<svg width="100%" height="100%" viewBox="0 0 134 190" version="1.1" xmlns="http://www.w3.org/2000/svg" xmlns:xlink="http://www.w3.org/1999/xlink" xml:space="preserve" xmlns:serif="http://www.serif.com/" style="fill-rule:evenodd;clip-rule:evenodd;">
    <g transform="matrix(1,0,0,1,-1210,-965)">
        <g id="kreuzzehn" transform="matrix(1.0231,0,0,0.854373,1210.53,140.12)">
            <rect x="0" y="965.48" width="129.704" height="221.683" style="fill:none;"/>
            <g transform="matrix(0.977423,0,0,1.17045,-1101.51,969.241)">
                <g transform="matrix(1,0,0,-1,0,182.973)">
                    <path d="M1130.86,5.868C1130.86,3.035 1133.17,0.719 1136.01,0.719L1250.6,0.719C1253.43,0.719 1255.74,3.035 1255.74,5.868L1255.74,177.106C1255.74,179.938 1253.43,182.254 1250.6,182.254L1136.01,182.254C1133.17,182.254 1130.86,179.938 1130.86,177.106L1130.86,5.868Z" style="fill:white;fill-rule:nonzero;stroke:black;stroke-width:1px;"/>
                </g>
                <g transform="matrix(0,-1,1,0,1106.3,1175.94)">
                    <ellipse cx="1141.12" cy="34.822" rx="2.459" ry="2.535"/>
                </g>
                <g transform="matrix(0,-1,1,0,1098.37,1177.33)">
                    <ellipse cx="1137.85" cy="39.479" rx="2.459" ry="2.535"/>
                </g>
                <g transform="matrix(1,0,0,-1,0,78.988)">
                    <path d="M1141.81,39.492C1141.81,39 1141.96,38.535 1142.22,38.144C1142.67,37.476 1143.46,37.035 1144.34,37.035C1145.75,37.035 1146.88,38.136 1146.88,39.492C1146.88,40.851 1145.75,41.953 1144.34,41.953C1142.94,41.953 1141.81,40.851 1141.81,39.492Z" style="fill-rule:nonzero;"/>
                </g>
                <g transform="matrix(1,0,0,-1,0,84.461)">
                    <path d="M1138.14,40.191C1139.39,40.191 1140.06,41.211 1140.4,42.231C1140.75,43.25 1140.78,44.27 1140.78,44.27L1141.42,44.27C1141.42,44.27 1141.54,40.199 1144.04,40.191L1138.14,40.191Z" style="fill-rule:nonzero;"/>
                </g>
                <g transform="matrix(1,0,0,-1,0,76.828)">
                    <path d="M1142.84,40.199C1141.41,38.773 1141.41,36.637 1141.41,36.637L1140.78,36.629C1140.78,36.629 1140.78,38.808 1139.39,40.199" style="fill-rule:nonzero;"/>
                </g>
                <g transform="matrix(1,0,0,-1,0,78.957)">
                    <path d="M1142.55,37.754C1141.13,39.176 1138.99,39.176 1138.99,39.176L1138.99,39.816C1138.99,39.816 1141.17,39.816 1142.56,41.203" style="fill-rule:nonzero;"/>
                </g>
                <g transform="matrix(1,0,0,-1,0,78.973)">
                    <path d="M1139.69,37.762C1141.12,39.188 1143.26,39.188 1143.26,39.188L1143.26,39.825C1143.26,39.825 1141.07,39.825 1139.69,41.211" style="fill-rule:nonzero;"/>
                </g>
                <g transform="matrix(0,1,-1,0,1393.64,-1098.84)">
                    <ellipse cx="1246.24" cy="147.4" rx="2.459" ry="2.535"/>
                </g>
                <g transform="matrix(0,1,-1,0,1392.25,-1106.76)">
                    <ellipse cx="1249.51" cy="142.744" rx="2.459" ry="2.535"/>
                </g>
                <g transform="matrix(1,0,0,-1,0,285.458)">
                    <path d="M1245.55,142.728C1245.55,143.224 1245.4,143.688 1245.14,144.079C1244.69,144.747 1243.9,145.188 1243.02,145.188C1241.61,145.188 1240.48,144.087 1240.48,142.728C1240.48,141.372 1241.61,140.27 1243.02,140.27C1244.42,140.27 1245.55,141.372 1245.55,142.728Z" style="fill-rule:nonzero;"/>
                </g>
                <g transform="matrix(1,0,0,-1,0,279.984)">
                    <path d="M1249.21,142.031C1247.96,142.031 1247.31,141.011 1246.96,139.992C1246.61,138.972 1246.58,137.953 1246.58,137.953L1245.94,137.953C1245.94,137.953 1245.82,142.023 1243.32,142.031L1249.21,142.031Z" style="fill-rule:nonzero;"/>
                </g>
                <g transform="matrix(1,0,0,-1,0,287.617)">
                    <path d="M1244.52,142.023C1245.94,143.449 1245.94,145.586 1245.94,145.586L1246.58,145.594C1246.58,145.594 1246.58,143.41 1247.97,142.023" style="fill-rule:nonzero;"/>
                </g>
                <g transform="matrix(1,0,0,-1,0,285.489)">
                    <path d="M1244.81,144.469C1246.23,143.044 1248.37,143.044 1248.37,143.044L1248.37,142.407C1248.37,142.407 1246.19,142.407 1244.8,141.02" style="fill-rule:nonzero;"/>
                </g>
                <g transform="matrix(1,0,0,-1,0,285.473)">
                    <path d="M1247.66,144.461C1246.24,143.035 1244.1,143.035 1244.1,143.035L1244.1,142.399C1244.1,142.399 1246.29,142.399 1247.67,141.012" style="fill-rule:nonzero;"/>
                </g>
                <g transform="matrix(0,-1,1,0,1143.91,1183.69)">
                    <ellipse cx="1163.8" cy="19.89" rx="5.902" ry="6.082"/>
                </g>
                <g transform="matrix(0,-1,1,0,1124.89,1187.02)">
                    <ellipse cx="1155.95" cy="31.066" rx="5.903" ry="6.082"/>
                </g>
                <g transform="matrix(1,0,0,-1,0,62.203)">
                    <path d="M1165.45,31.101C1165.45,29.914 1165.81,28.797 1166.44,27.863C1167.52,26.262 1169.41,25.199 1171.54,25.199C1174.9,25.199 1177.62,27.844 1177.62,31.101C1177.62,34.359 1174.9,37.004 1171.54,37.004C1168.17,37.004 1165.45,34.359 1165.45,31.101Z" style="fill-rule:nonzero;"/>
                </g>
                <g transform="matrix(1,0,0,-1,0,75.335)">
                    <path d="M1156.65,32.773C1159.66,32.773 1161.24,35.218 1162.07,37.667C1162.9,40.112 1162.97,42.562 1162.97,42.562L1164.52,42.562C1164.52,42.562 1164.81,32.788 1170.81,32.773L1156.65,32.773Z" style="fill-rule:nonzero;"/>
                </g>
                <g transform="matrix(1,0,0,-1,0,57.02)">
                    <path d="M1167.92,32.793C1164.5,29.372 1164.5,24.247 1164.5,24.247L1162.97,24.227C1162.97,24.227 1162.97,29.461 1159.64,32.793" style="fill-rule:nonzero;"/>
                </g>
                <g transform="matrix(1,0,0,-1,0,62.129)">
                    <path d="M1167.23,26.926C1163.82,30.344 1158.69,30.344 1158.69,30.344L1158.69,31.875C1158.69,31.875 1163.92,31.875 1167.25,35.203" style="fill-rule:nonzero;"/>
                </g>
                <g transform="matrix(1,0,0,-1,0,62.168)">
                    <path d="M1160.38,26.945C1163.8,30.363 1168.93,30.363 1168.93,30.363L1168.93,31.895C1168.93,31.895 1163.69,31.895 1160.36,35.223" style="fill-rule:nonzero;"/>
                </g>
                <g transform="matrix(0,-1,1,0,1103.3,1224.29)">
                    <ellipse cx="1163.8" cy="60.495" rx="5.9" ry="6.082"/>
                </g>
                <g transform="matrix(0,-1,1,0,1084.28,1227.62)">
                    <ellipse cx="1155.95" cy="71.668" rx="5.902" ry="6.082"/>
                </g>
                <g transform="matrix(1,0,0,-1,0,143.406)">
                    <path d="M1165.45,71.703C1165.45,70.515 1165.81,69.398 1166.44,68.465C1167.52,66.863 1169.41,65.801 1171.54,65.801C1174.9,65.801 1177.62,68.445 1177.62,71.703C1177.62,74.961 1174.9,77.605 1171.54,77.605C1168.17,77.605 1165.45,74.961 1165.45,71.703Z" style="fill-rule:nonzero;"/>
                </g>
                <g transform="matrix(1,0,0,-1,0,156.543)">
                    <path d="M1156.65,73.379C1159.66,73.379 1161.24,75.824 1162.07,78.273C1162.9,80.719 1162.97,83.164 1162.97,83.164L1164.52,83.164C1164.52,83.164 1164.81,73.395 1170.81,73.379L1156.65,73.379Z" style="fill-rule:nonzero;"/>
                </g>
                <g transform="matrix(1,0,0,-1,0,138.227)">
                    <path d="M1167.92,73.395C1164.5,69.977 1164.5,64.848 1164.5,64.848L1162.97,64.832C1162.97,64.832 1162.97,70.067 1159.64,73.395" style="fill-rule:nonzero;"/>
                </g>
                <g transform="matrix(1,0,0,-1,0,143.332)">
                    <path d="M1167.23,67.527C1163.82,70.945 1158.69,70.945 1158.69,70.945L1158.69,72.473C1158.69,72.473 1163.92,72.473 1167.25,75.805" style="fill-rule:nonzero;"/>
                </g>
                <g transform="matrix(1,0,0,-1,0,143.371)">
                    <path d="M1160.38,67.547C1163.8,70.965 1168.93,70.965 1168.93,70.965L1168.93,72.496C1168.93,72.496 1163.69,72.496 1160.36,75.824" style="fill-rule:nonzero;"/>
                </g>
                <g transform="matrix(0,1,-1,0,1282.31,-1045.07)">
                    <ellipse cx="1163.69" cy="118.618" rx="5.903" ry="6.082"/>
                </g>
                <g transform="matrix(0,1,-1,0,1278.98,-1064.09)">
                    <ellipse cx="1171.54" cy="107.445" rx="5.903" ry="6.082"/>
                </g>
                <g transform="matrix(1,0,0,-1,0,214.817)">
                    <path d="M1162.04,107.407C1162.04,108.594 1161.67,109.712 1161.04,110.649C1159.96,112.251 1158.07,113.309 1155.95,113.309C1152.59,113.309 1149.87,110.665 1149.87,107.407C1149.87,104.153 1152.59,101.508 1155.95,101.508C1159.32,101.508 1162.04,104.153 1162.04,107.407Z" style="fill-rule:nonzero;"/>
                </g>
                <g transform="matrix(1,0,0,-1,0,201.679)">
                    <path d="M1170.83,105.734C1167.83,105.734 1166.24,103.284 1165.42,100.839C1164.59,98.39 1164.52,95.945 1164.52,95.945L1162.97,95.945C1162.97,95.945 1162.68,105.714 1156.67,105.734L1170.83,105.734Z" style="fill-rule:nonzero;"/>
                </g>
                <g transform="matrix(1,0,0,-1,0,220)">
                    <path d="M1159.57,105.719C1162.99,109.137 1162.99,114.266 1162.99,114.266L1164.52,114.281C1164.52,114.281 1164.52,109.047 1167.84,105.719" style="fill-rule:nonzero;"/>
                </g>
                <g transform="matrix(1,0,0,-1,0,214.887)">
                    <path d="M1160.25,111.582C1163.67,108.164 1168.8,108.164 1168.8,108.164L1168.8,106.633C1168.8,106.633 1163.56,106.633 1160.23,103.305" style="fill-rule:nonzero;"/>
                </g>
                <g transform="matrix(1,0,0,-1,0,214.855)">
                    <path d="M1167.11,111.566C1163.69,108.148 1158.56,108.148 1158.56,108.148L1158.56,106.621C1158.56,106.621 1163.8,106.621 1167.13,103.289" style="fill-rule:nonzero;"/>
                </g>
                <g transform="matrix(0,1,-1,0,1322.91,-1004.47)">
                    <ellipse cx="1163.69" cy="159.22" rx="5.9" ry="6.082"/>
                </g>
                <g transform="matrix(0,1,-1,0,1319.58,-1023.49)">
                    <ellipse cx="1171.54" cy="148.047" rx="5.902" ry="6.082"/>
                </g>
                <g transform="matrix(1,0,0,-1,0,296.023)">
                    <path d="M1162.04,148.011C1162.04,149.199 1161.67,150.316 1161.04,151.25C1159.96,152.851 1158.07,153.914 1155.95,153.914C1152.59,153.914 1149.87,151.269 1149.87,148.011C1149.87,144.757 1152.59,142.109 1155.95,142.109C1159.32,142.109 1162.04,144.757 1162.04,148.011Z" style="fill-rule:nonzero;"/>
                </g>
                <g transform="matrix(1,0,0,-1,0,282.883)">
                    <path d="M1170.83,146.336C1167.83,146.336 1166.24,143.887 1165.42,141.442C1164.59,138.992 1164.52,136.547 1164.52,136.547L1162.97,136.547C1162.97,136.547 1162.68,146.317 1156.67,146.336L1170.83,146.336Z" style="fill-rule:nonzero;"/>
                </g>
                <g transform="matrix(1,0,0,-1,0,301.203)">
                    <path d="M1159.57,146.32C1162.99,149.738 1162.99,154.867 1162.99,154.867L1164.52,154.883C1164.52,154.883 1164.52,149.648 1167.84,146.32" style="fill-rule:nonzero;"/>
                </g>
                <g transform="matrix(1,0,0,-1,0,296.09)">
                    <path d="M1160.25,152.184C1163.67,148.762 1168.8,148.762 1168.8,148.762L1168.8,147.235C1168.8,147.235 1163.56,147.235 1160.23,143.906" style="fill-rule:nonzero;"/>
                </g>
                <g transform="matrix(1,0,0,-1,0,296.059)">
                    <path d="M1167.11,152.168C1163.69,148.75 1158.56,148.75 1158.56,148.75L1158.56,147.219C1158.56,147.219 1163.8,147.219 1167.13,143.891" style="fill-rule:nonzero;"/>
                </g>
                <g transform="matrix(0,-1,1,0,1203.78,1243.56)">
                    <ellipse cx="1223.67" cy="19.89" rx="5.902" ry="6.082"/>
                </g>
                <g transform="matrix(0,-1,1,0,1184.76,1246.89)">
                    <ellipse cx="1215.82" cy="31.066" rx="5.903" ry="6.082"/>
                </g>
                <g transform="matrix(1,0,0,-1,0,62.203)">
                    <path d="M1225.32,31.101C1225.32,29.914 1225.68,28.797 1226.31,27.863C1227.39,26.262 1229.28,25.199 1231.41,25.199C1234.77,25.199 1237.49,27.844 1237.49,31.101C1237.49,34.359 1234.77,37.004 1231.41,37.004C1228.04,37.004 1225.32,34.359 1225.32,31.101Z" style="fill-rule:nonzero;"/>
                </g>
                <g transform="matrix(1,0,0,-1,0,75.335)">
                    <path d="M1216.52,32.773C1219.53,32.773 1221.11,35.218 1221.94,37.667C1222.77,40.112 1222.84,42.562 1222.84,42.562L1224.39,42.562C1224.39,42.562 1224.68,32.788 1230.68,32.773L1216.52,32.773Z" style="fill-rule:nonzero;"/>
                </g>
                <g transform="matrix(1,0,0,-1,0,57.02)">
                    <path d="M1227.79,32.793C1224.37,29.372 1224.37,24.247 1224.37,24.247L1222.84,24.227C1222.84,24.227 1222.84,29.461 1219.51,32.793" style="fill-rule:nonzero;"/>
                </g>
                <g transform="matrix(1,0,0,-1,0,62.129)">
                    <path d="M1227.11,26.926C1223.69,30.344 1218.56,30.344 1218.56,30.344L1218.56,31.875C1218.56,31.875 1223.79,31.875 1227.12,35.203" style="fill-rule:nonzero;"/>
                </g>
                <g transform="matrix(1,0,0,-1,0,62.168)">
                    <path d="M1220.25,26.945C1223.67,30.363 1228.8,30.363 1228.8,30.363L1228.8,31.895C1228.8,31.895 1223.56,31.895 1220.23,35.223" style="fill-rule:nonzero;"/>
                </g>
                <g transform="matrix(0,-1,1,0,1163.17,1284.16)">
                    <ellipse cx="1223.67" cy="60.494" rx="5.9" ry="6.082"/>
                </g>
                <g transform="matrix(0,-1,1,0,1144.16,1287.49)">
                    <ellipse cx="1215.82" cy="71.668" rx="5.902" ry="6.082"/>
                </g>
                <g transform="matrix(1,0,0,-1,0,143.406)">
                    <path d="M1225.32,71.703C1225.32,70.515 1225.68,69.398 1226.31,68.465C1227.39,66.863 1229.28,65.801 1231.41,65.801C1234.77,65.801 1237.49,68.445 1237.49,71.703C1237.49,74.961 1234.77,77.605 1231.41,77.605C1228.04,77.605 1225.32,74.961 1225.32,71.703Z" style="fill-rule:nonzero;"/>
                </g>
                <g transform="matrix(1,0,0,-1,0,156.543)">
                    <path d="M1216.52,73.379C1219.53,73.379 1221.11,75.824 1221.94,78.273C1222.77,80.719 1222.84,83.164 1222.84,83.164L1224.39,83.164C1224.39,83.164 1224.68,73.395 1230.68,73.379L1216.52,73.379Z" style="fill-rule:nonzero;"/>
                </g>
                <g transform="matrix(1,0,0,-1,0,138.227)">
                    <path d="M1227.79,73.395C1224.37,69.977 1224.37,64.848 1224.37,64.848L1222.84,64.832C1222.84,64.832 1222.84,70.067 1219.51,73.395" style="fill-rule:nonzero;"/>
                </g>
                <g transform="matrix(1,0,0,-1,0,143.332)">
                    <path d="M1227.11,67.527C1223.69,70.945 1218.56,70.945 1218.56,70.945L1218.56,72.473C1218.56,72.473 1223.79,72.473 1227.12,75.805" style="fill-rule:nonzero;"/>
                </g>
                <g transform="matrix(1,0,0,-1,0,143.371)">
                    <path d="M1220.25,67.547C1223.67,70.965 1228.8,70.965 1228.8,70.965L1228.8,72.496C1228.8,72.496 1223.56,72.496 1220.23,75.824" style="fill-rule:nonzero;"/>
                </g>
                <g transform="matrix(0,1,-1,0,1342.18,-1104.94)">
                    <ellipse cx="1223.56" cy="118.618" rx="5.903" ry="6.082"/>
                </g>
                <g transform="matrix(0,1,-1,0,1338.85,-1123.96)">
                    <ellipse cx="1231.41" cy="107.446" rx="5.903" ry="6.082"/>
                </g>
                <g transform="matrix(1,0,0,-1,0,214.817)">
                    <path d="M1221.91,107.407C1221.91,108.594 1221.54,109.712 1220.91,110.649C1219.84,112.251 1217.94,113.309 1215.82,113.309C1212.46,113.309 1209.74,110.665 1209.74,107.407C1209.74,104.153 1212.46,101.508 1215.82,101.508C1219.19,101.508 1221.91,104.153 1221.91,107.407Z" style="fill-rule:nonzero;"/>
                </g>
                <g transform="matrix(1,0,0,-1,0,201.679)">
                    <path d="M1230.7,105.734C1227.7,105.734 1226.11,103.284 1225.29,100.839C1224.46,98.39 1224.39,95.945 1224.39,95.945L1222.84,95.945C1222.84,95.945 1222.55,105.714 1216.54,105.734L1230.7,105.734Z" style="fill-rule:nonzero;"/>
                </g>
                <g transform="matrix(1,0,0,-1,0,220)">
                    <path d="M1219.44,105.719C1222.86,109.137 1222.86,114.266 1222.86,114.266L1224.39,114.281C1224.39,114.281 1224.39,109.047 1227.71,105.719" style="fill-rule:nonzero;"/>
                </g>
                <g transform="matrix(1,0,0,-1,0,214.887)">
                    <path d="M1220.13,111.582C1223.54,108.164 1228.67,108.164 1228.67,108.164L1228.67,106.633C1228.67,106.633 1223.43,106.633 1220.11,103.305" style="fill-rule:nonzero;"/>
                </g>
                <g transform="matrix(1,0,0,-1,0,214.855)">
                    <path d="M1226.98,111.566C1223.56,108.148 1218.43,108.148 1218.43,108.148L1218.43,106.621C1218.43,106.621 1223.67,106.621 1227,103.289" style="fill-rule:nonzero;"/>
                </g>
                <g transform="matrix(0,1,-1,0,1382.78,-1064.34)">
                    <ellipse cx="1223.56" cy="159.221" rx="5.901" ry="6.082"/>
                </g>
                <g transform="matrix(0,1,-1,0,1379.45,-1083.36)">
                    <ellipse cx="1231.41" cy="148.047" rx="5.902" ry="6.082"/>
                </g>
                <g transform="matrix(1,0,0,-1,0,296.023)">
                    <path d="M1221.91,148.011C1221.91,149.199 1221.54,150.316 1220.91,151.25C1219.84,152.851 1217.94,153.914 1215.82,153.914C1212.46,153.914 1209.74,151.269 1209.74,148.011C1209.74,144.757 1212.46,142.109 1215.82,142.109C1219.19,142.109 1221.91,144.757 1221.91,148.011Z" style="fill-rule:nonzero;"/>
                </g>
                <g transform="matrix(1,0,0,-1,0,282.883)">
                    <path d="M1230.7,146.336C1227.7,146.336 1226.11,143.887 1225.29,141.442C1224.46,138.992 1224.39,136.547 1224.39,136.547L1222.84,136.547C1222.84,136.547 1222.55,146.317 1216.54,146.336L1230.7,146.336Z" style="fill-rule:nonzero;"/>
                </g>
                <g transform="matrix(1,0,0,-1,0,301.203)">
                    <path d="M1219.44,146.32C1222.86,149.738 1222.86,154.867 1222.86,154.867L1224.39,154.883C1224.39,154.883 1224.39,149.648 1227.71,146.32" style="fill-rule:nonzero;"/>
                </g>
                <g transform="matrix(1,0,0,-1,0,296.09)">
                    <path d="M1220.13,152.184C1223.54,148.762 1228.67,148.762 1228.67,148.762L1228.67,147.235C1228.67,147.235 1223.43,147.235 1220.11,143.906" style="fill-rule:nonzero;"/>
                </g>
                <g transform="matrix(1,0,0,-1,0,296.059)">
                    <path d="M1226.98,152.168C1223.56,148.75 1218.43,148.75 1218.43,148.75L1218.43,147.219C1218.43,147.219 1223.67,147.219 1227,143.891" style="fill-rule:nonzero;"/>
                </g>
                <g transform="matrix(0,-1,1,0,1153.54,1233.93)">
                    <ellipse cx="1193.73" cy="40.193" rx="5.901" ry="6.08"/>
                </g>
                <g transform="matrix(0,-1,1,0,1134.52,1237.25)">
                    <ellipse cx="1185.89" cy="51.367" rx="5.903" ry="6.082"/>
                </g>
                <g transform="matrix(1,0,0,-1,0,102.805)">
                    <path d="M1195.39,51.403C1195.39,50.215 1195.75,49.098 1196.38,48.164C1197.46,46.563 1199.35,45.5 1201.47,45.5C1204.84,45.5 1207.55,48.145 1207.55,51.403C1207.55,54.66 1204.84,57.305 1201.47,57.305C1198.11,57.305 1195.39,54.66 1195.39,51.403Z" style="fill-rule:nonzero;"/>
                </g>
                <g transform="matrix(1,0,0,-1,0,115.937)">
                    <path d="M1186.59,53.074C1189.59,53.074 1191.18,55.519 1192,57.968C1192.83,60.414 1192.91,62.863 1192.91,62.863L1194.45,62.863C1194.45,62.863 1194.74,53.089 1200.75,53.074L1186.59,53.074Z" style="fill-rule:nonzero;"/>
                </g>
                <g transform="matrix(1,0,0,-1,0,97.621)">
                    <path d="M1197.85,53.094C1194.43,49.672 1194.43,44.547 1194.43,44.547L1192.91,44.527C1192.91,44.527 1192.91,49.762 1189.57,53.094" style="fill-rule:nonzero;"/>
                </g>
                <g transform="matrix(1,0,0,-1,0,102.731)">
                    <path d="M1197.17,47.227C1193.75,50.645 1188.62,50.645 1188.62,50.645L1188.62,52.172C1188.62,52.172 1193.86,52.172 1197.19,55.504" style="fill-rule:nonzero;"/>
                </g>
                <g transform="matrix(1,0,0,-1,0,102.769)">
                    <path d="M1190.31,47.246C1193.73,50.664 1198.86,50.664 1198.86,50.664L1198.86,52.195C1198.86,52.195 1193.63,52.195 1190.3,55.523" style="fill-rule:nonzero;"/>
                </g>
                <g transform="matrix(0,1,-1,0,1332.54,-1054.71)">
                    <ellipse cx="1193.63" cy="138.918" rx="5.902" ry="6.082"/>
                </g>
                <g transform="matrix(0,1,-1,0,1329.22,-1073.72)">
                    <ellipse cx="1201.47" cy="127.746" rx="5.902" ry="6.082"/>
                </g>
                <g transform="matrix(1,0,0,-1,0,255.418)">
                    <path d="M1191.97,127.707C1191.97,128.895 1191.61,130.012 1190.98,130.949C1189.9,132.547 1188.01,133.609 1185.89,133.609C1182.52,133.609 1179.81,130.965 1179.81,127.707C1179.81,124.453 1182.52,121.809 1185.89,121.809C1189.25,121.809 1191.97,124.453 1191.97,127.707Z" style="fill-rule:nonzero;"/>
                </g>
                <g transform="matrix(1,0,0,-1,0,242.281)">
                    <path d="M1200.77,126.035C1197.76,126.035 1196.18,123.586 1195.35,121.14C1194.52,118.691 1194.45,116.246 1194.45,116.246L1192.91,116.246C1192.91,116.246 1192.62,126.015 1186.61,126.035L1200.77,126.035Z" style="fill-rule:nonzero;"/>
                </g>
                <g transform="matrix(1,0,0,-1,0,260.602)">
                    <path d="M1189.5,126.02C1192.92,129.438 1192.92,134.567 1192.92,134.567L1194.45,134.582C1194.45,134.582 1194.45,129.348 1197.78,126.02" style="fill-rule:nonzero;"/>
                </g>
                <g transform="matrix(1,0,0,-1,0,255.488)">
                    <path d="M1190.19,131.883C1193.61,128.461 1198.73,128.461 1198.73,128.461L1198.73,126.933C1198.73,126.933 1193.5,126.933 1190.17,123.605" style="fill-rule:nonzero;"/>
                </g>
                <g transform="matrix(1,0,0,-1,0,255.457)">
                    <path d="M1197.04,131.867C1193.63,128.449 1188.5,128.449 1188.5,128.449L1188.5,126.922C1188.5,126.922 1193.73,126.922 1197.06,123.59" style="fill-rule:nonzero;"/>
                </g>
                <g transform="matrix(-1.37178,6.95535e-17,8.65275e-17,-1,-465.539,8.88178e-14)">
                    <g transform="matrix(12.9372,0,0,34.0888,-1253.5,-156.233)">
                        <path d="M0.326,-0.676L0.326,-0.134C0.326,-0.094 0.327,-0.068 0.331,-0.056C0.335,-0.045 0.342,-0.036 0.354,-0.029C0.365,-0.022 0.383,-0.018 0.408,-0.018L0.423,-0.018L0.423,0L0.075,0L0.075,-0.018L0.092,-0.018C0.121,-0.018 0.141,-0.021 0.153,-0.028C0.165,-0.034 0.173,-0.043 0.177,-0.055C0.181,-0.066 0.184,-0.093 0.184,-0.134L0.184,-0.478C0.184,-0.508 0.182,-0.527 0.179,-0.535C0.176,-0.543 0.171,-0.549 0.163,-0.554C0.155,-0.56 0.146,-0.563 0.135,-0.563C0.119,-0.563 0.098,-0.557 0.075,-0.547L0.066,-0.564L0.31,-0.676L0.326,-0.676Z" style="fill-rule:nonzero;"/>
                    </g>
                    <g transform="matrix(12.9372,0,0,34.0888,-1247.03,-156.233)">
                        <path d="M0.463,-0.331C0.463,-0.265 0.454,-0.203 0.436,-0.146C0.424,-0.111 0.41,-0.082 0.391,-0.06C0.372,-0.037 0.351,-0.019 0.327,-0.006C0.303,0.007 0.278,0.014 0.25,0.014C0.218,0.014 0.189,0.006 0.163,-0.011C0.137,-0.027 0.115,-0.05 0.095,-0.081C0.08,-0.103 0.068,-0.132 0.057,-0.169C0.043,-0.219 0.036,-0.27 0.036,-0.323C0.036,-0.395 0.046,-0.461 0.066,-0.521C0.083,-0.571 0.108,-0.609 0.142,-0.636C0.176,-0.663 0.212,-0.676 0.25,-0.676C0.288,-0.676 0.324,-0.663 0.357,-0.636C0.391,-0.61 0.415,-0.575 0.431,-0.531C0.452,-0.47 0.463,-0.403 0.463,-0.331ZM0.313,-0.332C0.313,-0.448 0.312,-0.515 0.311,-0.535C0.308,-0.58 0.3,-0.611 0.288,-0.626C0.279,-0.637 0.266,-0.642 0.248,-0.642C0.234,-0.642 0.223,-0.638 0.215,-0.63C0.203,-0.619 0.195,-0.599 0.19,-0.57C0.186,-0.541 0.184,-0.441 0.184,-0.269C0.184,-0.175 0.187,-0.112 0.194,-0.08C0.199,-0.057 0.206,-0.042 0.215,-0.034C0.224,-0.026 0.236,-0.022 0.251,-0.022C0.267,-0.022 0.279,-0.027 0.288,-0.038C0.301,-0.056 0.309,-0.084 0.311,-0.122L0.313,-0.332Z" style="fill-rule:nonzero;"/>
                    </g>
                </g>
                <g transform="matrix(-1.37178,6.95535e-17,8.65275e-17,-1,-465.539,8.88178e-14)">
                    <g transform="matrix(12.9372,0,0,34.0888,-1253.5,-156.233)">
                        <path d="M0.326,-0.676L0.326,-0.134C0.326,-0.094 0.327,-0.068 0.331,-0.056C0.335,-0.045 0.342,-0.036 0.354,-0.029C0.365,-0.022 0.383,-0.018 0.408,-0.018L0.423,-0.018L0.423,0L0.075,0L0.075,-0.018L0.092,-0.018C0.121,-0.018 0.141,-0.021 0.153,-0.028C0.165,-0.034 0.173,-0.043 0.177,-0.055C0.181,-0.066 0.184,-0.093 0.184,-0.134L0.184,-0.478C0.184,-0.508 0.182,-0.527 0.179,-0.535C0.176,-0.543 0.171,-0.549 0.163,-0.554C0.155,-0.56 0.146,-0.563 0.135,-0.563C0.119,-0.563 0.098,-0.557 0.075,-0.547L0.066,-0.564L0.31,-0.676L0.326,-0.676Z" style="fill-rule:nonzero;"/>
                    </g>
                    <g transform="matrix(12.9372,0,0,34.0888,-1247.03,-156.233)">
                        <path d="M0.463,-0.331C0.463,-0.265 0.454,-0.203 0.436,-0.146C0.424,-0.111 0.41,-0.082 0.391,-0.06C0.372,-0.037 0.351,-0.019 0.327,-0.006C0.303,0.007 0.278,0.014 0.25,0.014C0.218,0.014 0.189,0.006 0.163,-0.011C0.137,-0.027 0.115,-0.05 0.095,-0.081C0.08,-0.103 0.068,-0.132 0.057,-0.169C0.043,-0.219 0.036,-0.27 0.036,-0.323C0.036,-0.395 0.046,-0.461 0.066,-0.521C0.083,-0.571 0.108,-0.609 0.142,-0.636C0.176,-0.663 0.212,-0.676 0.25,-0.676C0.288,-0.676 0.324,-0.663 0.357,-0.636C0.391,-0.61 0.415,-0.575 0.431,-0.531C0.452,-0.47 0.463,-0.403 0.463,-0.331ZM0.313,-0.332C0.313,-0.448 0.312,-0.515 0.311,-0.535C0.308,-0.58 0.3,-0.611 0.288,-0.626C0.279,-0.637 0.266,-0.642 0.248,-0.642C0.234,-0.642 0.223,-0.638 0.215,-0.63C0.203,-0.619 0.195,-0.599 0.19,-0.57C0.186,-0.541 0.184,-0.441 0.184,-0.269C0.184,-0.175 0.187,-0.112 0.194,-0.08C0.199,-0.057 0.206,-0.042 0.215,-0.034C0.224,-0.026 0.236,-0.022 0.251,-0.022C0.267,-0.022 0.279,-0.027 0.288,-0.038C0.301,-0.056 0.309,-0.084 0.311,-0.122L0.313,-0.332Z" style="fill-rule:nonzero;"/>
                    </g>
                </g>
                <g transform="matrix(1.37178,9.84409e-17,-2.08992e-16,1,2852.36,184.198)">
                    <g transform="matrix(12.9372,0,0,34.0888,-1253.5,-156.233)">
                        <path d="M0.326,-0.676L0.326,-0.134C0.326,-0.094 0.327,-0.068 0.331,-0.056C0.335,-0.045 0.342,-0.036 0.354,-0.029C0.365,-0.022 0.383,-0.018 0.408,-0.018L0.423,-0.018L0.423,0L0.075,0L0.075,-0.018L0.092,-0.018C0.121,-0.018 0.141,-0.021 0.153,-0.028C0.165,-0.034 0.173,-0.043 0.177,-0.055C0.181,-0.066 0.184,-0.093 0.184,-0.134L0.184,-0.478C0.184,-0.508 0.182,-0.527 0.179,-0.535C0.176,-0.543 0.171,-0.549 0.163,-0.554C0.155,-0.56 0.146,-0.563 0.135,-0.563C0.119,-0.563 0.098,-0.557 0.075,-0.547L0.066,-0.564L0.31,-0.676L0.326,-0.676Z" style="fill-rule:nonzero;"/>
                    </g>
                    <g transform="matrix(12.9372,0,0,34.0888,-1247.03,-156.233)">
                        <path d="M0.463,-0.331C0.463,-0.265 0.454,-0.203 0.436,-0.146C0.424,-0.111 0.41,-0.082 0.391,-0.06C0.372,-0.037 0.351,-0.019 0.327,-0.006C0.303,0.007 0.278,0.014 0.25,0.014C0.218,0.014 0.189,0.006 0.163,-0.011C0.137,-0.027 0.115,-0.05 0.095,-0.081C0.08,-0.103 0.068,-0.132 0.057,-0.169C0.043,-0.219 0.036,-0.27 0.036,-0.323C0.036,-0.395 0.046,-0.461 0.066,-0.521C0.083,-0.571 0.108,-0.609 0.142,-0.636C0.176,-0.663 0.212,-0.676 0.25,-0.676C0.288,-0.676 0.324,-0.663 0.357,-0.636C0.391,-0.61 0.415,-0.575 0.431,-0.531C0.452,-0.47 0.463,-0.403 0.463,-0.331ZM0.313,-0.332C0.313,-0.448 0.312,-0.515 0.311,-0.535C0.308,-0.58 0.3,-0.611 0.288,-0.626C0.279,-0.637 0.266,-0.642 0.248,-0.642C0.234,-0.642 0.223,-0.638 0.215,-0.63C0.203,-0.619 0.195,-0.599 0.19,-0.57C0.186,-0.541 0.184,-0.441 0.184,-0.269C0.184,-0.175 0.187,-0.112 0.194,-0.08C0.199,-0.057 0.206,-0.042 0.215,-0.034C0.224,-0.026 0.236,-0.022 0.251,-0.022C0.267,-0.022 0.279,-0.027 0.288,-0.038C0.301,-0.056 0.309,-0.084 0.311,-0.122L0.313,-0.332Z" style="fill-rule:nonzero;"/>
                    </g>
                </g>
            </g>
        </g>
    </g>
</svg>
