<?xml version="1.0" encoding="UTF-8" standalone="no"?>
<!DOCTYPE svg PUBLIC "-//W3C//DTD SVG 1.1//EN" "http://www.w3.org/Graphics/SVG/1.1/DTD/svg11.dtd">
<svg width="100%" height="100%" viewBox="0 0 134 190" version="1.1" xmlns="http://www.w3.org/2000/svg" xmlns:xlink="http://www.w3.org/1999/xlink" xml:space="preserve" xmlns:serif="http://www.serif.com/" style="fill-rule:evenodd;clip-rule:evenodd;">
    <g transform="matrix(1,0,0,1,-148,-965)">
        <g id="kreuzzwei" transform="matrix(1.0231,0,0,0.854373,148.93,140.12)">
            <rect x="0" y="965.48" width="129.704" height="221.683" style="fill:none;"/>
            <g id="kreuzzwei1" serif:id="kreuzzwei" transform="matrix(0.977423,0,0,1.17045,-119.125,969.241)">
                <g transform="matrix(1,0,0,-1,0,182.973)">
                    <path d="M125.785,5.868C125.785,3.035 128.102,0.719 130.934,0.719L245.527,0.719C248.352,0.719 250.668,3.035 250.668,5.868L250.668,177.106C250.668,179.938 248.352,182.254 245.527,182.254L130.934,182.254C128.102,182.254 125.785,179.938 125.785,177.106L125.785,5.868Z" style="fill:white;fill-rule:nonzero;stroke:black;stroke-width:1px;"/>
                </g>
                <g transform="matrix(0,-1,1,0,101.219,170.863)">
                    <ellipse cx="136.041" cy="34.822" rx="2.459" ry="2.533"/>
                </g>
                <g transform="matrix(0,-1,1,0,93.2925,172.25)">
                    <ellipse cx="132.772" cy="39.479" rx="2.459" ry="2.534"/>
                </g>
                <g transform="matrix(1,0,0,-1,0,78.988)">
                    <path d="M136.73,39.492C136.73,39 136.879,38.535 137.145,38.144C137.594,37.476 138.379,37.035 139.266,37.035C140.668,37.035 141.797,38.136 141.797,39.492C141.797,40.851 140.668,41.953 139.266,41.953C137.863,41.953 136.73,40.851 136.73,39.492Z" style="fill-rule:nonzero;"/>
                </g>
                <g transform="matrix(1,0,0,-1,0,84.461)">
                    <path d="M133.062,40.191C134.316,40.191 134.977,41.211 135.32,42.231C135.664,43.25 135.695,44.27 135.695,44.27L136.34,44.27C136.34,44.27 136.461,40.199 138.965,40.191L133.062,40.191Z" style="fill-rule:nonzero;"/>
                </g>
                <g transform="matrix(1,0,0,-1,0,76.828)">
                    <path d="M137.758,40.199C136.332,38.773 136.332,36.637 136.332,36.637L135.695,36.629C135.695,36.629 135.695,38.808 134.309,40.199" style="fill-rule:nonzero;"/>
                </g>
                <g transform="matrix(1,0,0,-1,0,78.957)">
                    <path d="M137.473,37.754C136.047,39.176 133.91,39.176 133.91,39.176L133.91,39.816C133.91,39.816 136.094,39.816 137.48,41.203" style="fill-rule:nonzero;"/>
                </g>
                <g transform="matrix(1,0,0,-1,0,78.973)">
                    <path d="M134.617,37.762C136.039,39.188 138.176,39.188 138.176,39.188L138.176,39.825C138.176,39.825 135.996,39.825 134.609,41.211" style="fill-rule:nonzero;"/>
                </g>
                <g transform="matrix(0,1,-1,0,388.562,-93.762)">
                    <ellipse cx="241.162" cy="147.4" rx="2.459" ry="2.533"/>
                </g>
                <g transform="matrix(0,1,-1,0,387.175,-101.688)">
                    <ellipse cx="244.432" cy="142.744" rx="2.459" ry="2.533"/>
                </g>
                <g transform="matrix(1,0,0,-1,0,285.458)">
                    <path d="M240.473,142.728C240.473,143.224 240.324,143.688 240.062,144.079C239.609,144.747 238.824,145.188 237.938,145.188C236.535,145.188 235.406,144.087 235.406,142.728C235.406,141.372 236.535,140.27 237.938,140.27C239.34,140.27 240.473,141.372 240.473,142.728Z" style="fill-rule:nonzero;"/>
                </g>
                <g transform="matrix(1,0,0,-1,0,279.984)">
                    <path d="M244.141,142.031C242.887,142.031 242.227,141.011 241.883,139.992C241.539,138.972 241.508,137.953 241.508,137.953L240.863,137.953C240.863,137.953 240.742,142.023 238.238,142.031L244.141,142.031Z" style="fill-rule:nonzero;"/>
                </g>
                <g transform="matrix(1,0,0,-1,0,287.617)">
                    <path d="M239.445,142.023C240.871,143.449 240.871,145.586 240.871,145.586L241.508,145.594C241.508,145.594 241.508,143.41 242.895,142.023" style="fill-rule:nonzero;"/>
                </g>
                <g transform="matrix(1,0,0,-1,0,285.489)">
                    <path d="M239.73,144.469C241.156,143.044 243.293,143.044 243.293,143.044L243.293,142.407C243.293,142.407 241.109,142.407 239.723,141.02" style="fill-rule:nonzero;"/>
                </g>
                <g transform="matrix(1,0,0,-1,0,285.473)">
                    <path d="M242.586,144.461C241.164,143.035 239.027,143.035 239.027,143.035L239.027,142.399C239.027,142.399 241.207,142.399 242.594,141.012" style="fill-rule:nonzero;"/>
                </g>
                <g transform="matrix(0,1,-1,0,347.768,-29.3265)">
                    <ellipse cx="188.547" cy="159.221" rx="5.9" ry="6.082"/>
                </g>
                <g transform="matrix(0,1,-1,0,344.438,-48.344)">
                    <ellipse cx="196.391" cy="148.047" rx="5.902" ry="6.082"/>
                </g>
                <g transform="matrix(1,0,0,-1,0,296.023)">
                    <path d="M186.891,148.011C186.891,149.199 186.531,150.316 185.902,151.25C184.824,152.851 182.934,153.914 180.809,153.914C177.445,153.914 174.727,151.269 174.727,148.011C174.727,144.757 177.445,142.109 180.809,142.109C184.176,142.109 186.891,144.757 186.891,148.011Z" style="fill-rule:nonzero;"/>
                </g>
                <g transform="matrix(1,0,0,-1,0,282.883)">
                    <path d="M195.691,146.336C192.684,146.336 191.102,143.887 190.273,141.442C189.445,138.992 189.375,136.547 189.375,136.547L187.828,136.547C187.828,136.547 187.539,146.317 181.531,146.336L195.691,146.336Z" style="fill-rule:nonzero;"/>
                </g>
                <g transform="matrix(1,0,0,-1,0,301.203)">
                    <path d="M184.426,146.32C187.844,149.738 187.844,154.867 187.844,154.867L189.375,154.883C189.375,154.883 189.375,149.648 192.703,146.32" style="fill-rule:nonzero;"/>
                </g>
                <g transform="matrix(1,0,0,-1,0,296.09)">
                    <path d="M185.109,152.184C188.527,148.762 193.656,148.762 193.656,148.762L193.656,147.235C193.656,147.235 188.422,147.235 185.094,143.906" style="fill-rule:nonzero;"/>
                </g>
                <g transform="matrix(1,0,0,-1,0,296.059)">
                    <path d="M191.965,152.168C188.547,148.75 183.418,148.75 183.418,148.75L183.418,147.219C183.418,147.219 188.656,147.219 191.984,143.891" style="fill-rule:nonzero;"/>
                </g>
                <g transform="matrix(0,-1,1,0,168.766,208.547)">
                    <ellipse cx="188.656" cy="19.89" rx="5.903" ry="6.082"/>
                </g>
                <g transform="matrix(0,-1,1,0,149.743,211.876)">
                    <ellipse cx="180.809" cy="31.066" rx="5.902" ry="6.082"/>
                </g>
                <g transform="matrix(1,0,0,-1,0,62.203)">
                    <path d="M190.309,31.101C190.309,29.914 190.672,28.797 191.301,27.863C192.379,26.262 194.27,25.199 196.391,25.199C199.758,25.199 202.473,27.844 202.473,31.101C202.473,34.359 199.758,37.004 196.391,37.004C193.027,37.004 190.309,34.359 190.309,31.101Z" style="fill-rule:nonzero;"/>
                </g>
                <g transform="matrix(1,0,0,-1,0,75.335)">
                    <path d="M181.512,32.773C184.516,32.773 186.102,35.218 186.926,37.667C187.754,40.112 187.828,42.562 187.828,42.562L189.375,42.562C189.375,42.562 189.664,32.788 195.672,32.773L181.512,32.773Z" style="fill-rule:nonzero;"/>
                </g>
                <g transform="matrix(1,0,0,-1,0,57.02)">
                    <path d="M192.777,32.793C189.355,29.372 189.355,24.247 189.355,24.247L187.828,24.227C187.828,24.227 187.828,29.461 184.5,32.793" style="fill-rule:nonzero;"/>
                </g>
                <g transform="matrix(1,0,0,-1,0,62.129)">
                    <path d="M192.09,26.926C188.672,30.344 183.547,30.344 183.547,30.344L183.547,31.875C183.547,31.875 188.781,31.875 192.109,35.203" style="fill-rule:nonzero;"/>
                </g>
                <g transform="matrix(1,0,0,-1,0,62.168)">
                    <path d="M185.234,26.945C188.656,30.363 193.781,30.363 193.781,30.363L193.781,31.895C193.781,31.895 188.547,31.895 185.219,35.223" style="fill-rule:nonzero;"/>
                </g>
                <g transform="matrix(0.53388,0,0,1,60.4406,1.18169)">
                    <g transform="matrix(34.0888,0,0,34.0888,128.783,25.9905)">
                        <path d="M0.414,0L0.024,0L0.024,-0.011C0.144,-0.153 0.216,-0.249 0.242,-0.298C0.267,-0.347 0.28,-0.395 0.28,-0.442C0.28,-0.476 0.27,-0.504 0.249,-0.527C0.227,-0.55 0.201,-0.561 0.171,-0.561C0.121,-0.561 0.082,-0.536 0.054,-0.486L0.036,-0.492C0.054,-0.555 0.08,-0.601 0.116,-0.631C0.152,-0.661 0.193,-0.676 0.24,-0.676C0.274,-0.676 0.304,-0.668 0.332,-0.652C0.36,-0.637 0.381,-0.615 0.397,-0.588C0.413,-0.561 0.42,-0.535 0.42,-0.512C0.42,-0.468 0.408,-0.424 0.384,-0.38C0.351,-0.32 0.28,-0.236 0.169,-0.128L0.312,-0.128C0.347,-0.128 0.37,-0.129 0.381,-0.132C0.391,-0.135 0.4,-0.14 0.407,-0.147C0.414,-0.154 0.423,-0.169 0.434,-0.191L0.451,-0.191L0.414,0Z" style="fill-rule:nonzero;"/>
                    </g>
                </g>
                <g transform="matrix(-0.53388,0,0,-1,115.326,-1.95443)">
                    <g transform="matrix(34.0888,0,0,34.0888,-248.42,-156.233)">
                        <path d="M0.414,0L0.024,0L0.024,-0.011C0.144,-0.153 0.216,-0.249 0.242,-0.298C0.267,-0.347 0.28,-0.395 0.28,-0.442C0.28,-0.476 0.27,-0.504 0.249,-0.527C0.227,-0.55 0.201,-0.561 0.171,-0.561C0.121,-0.561 0.082,-0.536 0.054,-0.486L0.036,-0.492C0.054,-0.555 0.08,-0.601 0.116,-0.631C0.152,-0.661 0.193,-0.676 0.24,-0.676C0.274,-0.676 0.304,-0.668 0.332,-0.652C0.36,-0.637 0.381,-0.615 0.397,-0.588C0.413,-0.561 0.42,-0.535 0.42,-0.512C0.42,-0.468 0.408,-0.424 0.384,-0.38C0.351,-0.32 0.28,-0.236 0.169,-0.128L0.312,-0.128C0.347,-0.128 0.37,-0.129 0.381,-0.132C0.391,-0.135 0.4,-0.14 0.407,-0.147C0.414,-0.154 0.423,-0.169 0.434,-0.191L0.451,-0.191L0.414,0Z" style="fill-rule:nonzero;"/>
                    </g>
                </g>
            </g>
        </g>
    </g>
</svg>
