<?xml version="1.0" encoding="UTF-8" standalone="no"?>
<!DOCTYPE svg PUBLIC "-//W3C//DTD SVG 1.1//EN" "http://www.w3.org/Graphics/SVG/1.1/DTD/svg11.dtd">
<svg width="100%" height="100%" viewBox="0 0 134 190" version="1.1" xmlns="http://www.w3.org/2000/svg" xmlns:xlink="http://www.w3.org/1999/xlink" xml:space="preserve" xmlns:serif="http://www.serif.com/" style="fill-rule:evenodd;clip-rule:evenodd;">
    <g transform="matrix(1,0,0,1,-3,-1695)">
        <g id="pikass" transform="matrix(1.0231,0,0,0.854373,3.9065,870.203)">
            <rect x="0" y="965.48" width="129.704" height="221.683" style="fill:none;"/>
            <g transform="matrix(0.977423,0,0,1.17045,3.44781,328.236)">
                <g transform="matrix(1,0,0,-1,0.23105,1277.49)">
                    <path d="M0.148,552.722C0.148,549.89 2.465,547.574 5.301,547.574L119.891,547.574C122.719,547.574 125.035,549.89 125.035,552.722L125.035,723.96C125.035,726.792 122.719,729.109 119.891,729.109L5.301,729.109C2.465,729.109 0.148,726.792 0.148,723.96L0.148,552.722Z" style="fill:white;fill-rule:nonzero;stroke:black;stroke-width:1px;"/>
                </g>
                <g transform="matrix(1,0,0,-1,0.23105,1177.69)">
                    <path d="M7.445,585.773C8.695,585.773 9.355,587.105 9.703,588.441C10.047,589.777 10.078,591.109 10.078,591.109L10.715,591.117C10.715,591.117 10.832,585.773 13.336,585.773L7.445,585.773Z" style="fill-rule:nonzero;"/>
                </g>
                <g transform="matrix(1,0,0,-1,0.23105,1168.03)">
                    <path d="M5.324,581.454C5.332,584.055 9.238,585.946 10.383,588C11.531,585.938 15.438,584.047 15.445,581.454C15.445,580.223 14.312,579.227 12.91,579.227C11.516,579.227 10.383,580.223 10.383,581.454C10.383,580.223 9.25,579.227 7.848,579.227C6.449,579.227 5.324,580.223 5.324,581.454Z" style="fill-rule:nonzero;"/>
                </g>
                <g transform="matrix(1,0,0,-1,0.23105,1375.78)">
                    <path d="M118.488,690.16C117.238,690.16 116.578,688.824 116.234,687.492C115.887,686.156 115.859,684.82 115.859,684.82L115.223,684.816C115.223,684.816 115.102,690.16 112.598,690.16L118.488,690.16Z" style="fill-rule:nonzero;"/>
                </g>
                <g transform="matrix(1,0,0,-1,0.23105,1385.44)">
                    <path d="M120.613,694.481C120.605,691.879 116.699,689.989 115.551,687.934C114.402,689.996 110.496,691.883 110.488,694.481C110.488,695.707 111.621,696.707 113.023,696.707C114.418,696.707 115.551,695.707 115.551,694.481C115.551,695.707 116.684,696.707 118.086,696.707C119.488,696.707 120.613,695.707 120.613,694.481Z" style="fill-rule:nonzero;"/>
                </g>
                <g transform="matrix(1,0,0,-1,0.23105,1282.15)">
                    <path d="M55.914,634.258C58.918,634.258 60.504,637.461 61.328,640.664C62.156,643.867 62.23,647.071 62.23,647.071L63.758,647.086C63.758,647.086 64.047,634.258 70.059,634.258L55.914,634.258Z" style="fill-rule:nonzero;"/>
                </g>
                <g transform="matrix(1,0,0,-1,0.23105,1258.95)">
                    <path d="M50.82,623.891C50.84,630.137 60.215,634.672 62.969,639.602C65.719,634.653 75.094,630.118 75.113,623.891C75.113,620.942 72.395,618.547 69.031,618.547C65.684,618.547 62.969,620.942 62.969,623.891C62.969,620.942 60.25,618.547 56.887,618.547C53.52,618.547 50.82,620.942 50.82,623.891Z" style="fill-rule:nonzero;"/>
                </g>
                <g transform="matrix(0.53388,0,0,1,2.51854,550.523)">
                    <g transform="matrix(34.0888,0,0,34.0888,3.14883,25.9905)">
                        <path d="M0.416,-0.188L0.182,-0.188L0.154,-0.124C0.145,-0.103 0.141,-0.085 0.141,-0.071C0.141,-0.052 0.148,-0.039 0.163,-0.03C0.172,-0.025 0.194,-0.021 0.228,-0.018L0.228,0L0.008,0L0.008,-0.018C0.032,-0.022 0.051,-0.031 0.066,-0.048C0.082,-0.064 0.101,-0.097 0.123,-0.147L0.36,-0.676L0.369,-0.676L0.608,-0.133C0.631,-0.081 0.649,-0.049 0.664,-0.036C0.675,-0.026 0.691,-0.02 0.711,-0.018L0.711,0L0.391,0L0.391,-0.018L0.404,-0.018C0.43,-0.018 0.448,-0.022 0.458,-0.029C0.465,-0.034 0.469,-0.042 0.469,-0.051C0.469,-0.057 0.468,-0.063 0.466,-0.069C0.465,-0.072 0.46,-0.084 0.451,-0.106L0.416,-0.188ZM0.399,-0.225L0.301,-0.453L0.199,-0.225L0.399,-0.225Z" style="fill-rule:nonzero;"/>
                    </g>
                </g>
                <g transform="matrix(-0.53388,0,0,-1,56.6198,-1.51912)">
                    <g transform="matrix(34.0888,0,0,34.0888,-122.786,-703.089)">
                        <path d="M0.416,-0.188L0.182,-0.188L0.154,-0.124C0.145,-0.103 0.141,-0.085 0.141,-0.071C0.141,-0.052 0.148,-0.039 0.163,-0.03C0.172,-0.025 0.194,-0.021 0.228,-0.018L0.228,0L0.008,0L0.008,-0.018C0.032,-0.022 0.051,-0.031 0.066,-0.048C0.082,-0.064 0.101,-0.097 0.123,-0.147L0.36,-0.676L0.369,-0.676L0.608,-0.133C0.631,-0.081 0.649,-0.049 0.664,-0.036C0.675,-0.026 0.691,-0.02 0.711,-0.018L0.711,0L0.391,0L0.391,-0.018L0.404,-0.018C0.43,-0.018 0.448,-0.022 0.458,-0.029C0.465,-0.034 0.469,-0.042 0.469,-0.051C0.469,-0.057 0.468,-0.063 0.466,-0.069C0.465,-0.072 0.46,-0.084 0.451,-0.106L0.416,-0.188ZM0.399,-0.225L0.301,-0.453L0.199,-0.225L0.399,-0.225Z" style="fill-rule:nonzero;"/>
                    </g>
                </g>
            </g>
        </g>
    </g>
</svg>
