<?xml version="1.0" encoding="UTF-8" standalone="no"?>
<!DOCTYPE svg PUBLIC "-//W3C//DTD SVG 1.1//EN" "http://www.w3.org/Graphics/SVG/1.1/DTD/svg11.dtd">
<svg width="100%" height="100%" viewBox="0 0 134 190" version="1.1" xmlns="http://www.w3.org/2000/svg" xmlns:xlink="http://www.w3.org/1999/xlink" xml:space="preserve" xmlns:serif="http://www.serif.com/" style="fill-rule:evenodd;clip-rule:evenodd;">
    <g transform="matrix(1,0,0,1,-1065,-1695)">
        <g id="pikneun" transform="matrix(1.0231,0,0,0.854373,1065.51,870.203)">
            <rect x="0" y="965.48" width="129.704" height="221.683" style="fill:none;"/>
            <g transform="matrix(0.977423,0,0,1.17045,-978.937,328.236)">
                <g transform="matrix(1,0,0,-1,0.23105,1277.49)">
                    <path d="M1005.23,552.722C1005.23,549.89 1007.54,547.574 1010.38,547.574L1124.97,547.574C1127.79,547.574 1130.11,549.89 1130.11,552.722L1130.11,723.96C1130.11,726.792 1127.79,729.109 1124.97,729.109L1010.38,729.109C1007.54,729.109 1005.23,726.792 1005.23,723.96L1005.23,552.722Z" style="fill:white;fill-rule:nonzero;stroke:black;stroke-width:1px;"/>
                </g>
                <g transform="matrix(1,0,0,-1,0.23105,1177.69)">
                    <path d="M1012.52,585.773C1013.77,585.773 1014.43,587.105 1014.78,588.441C1015.12,589.777 1015.15,591.109 1015.15,591.109L1015.79,591.117C1015.79,591.117 1015.91,585.773 1018.41,585.773L1012.52,585.773Z" style="fill-rule:nonzero;"/>
                </g>
                <g transform="matrix(1,0,0,-1,0.23105,1168.03)">
                    <path d="M1010.4,581.454C1010.41,584.055 1014.31,585.946 1015.46,588C1016.61,585.938 1020.51,584.047 1020.52,581.454C1020.52,580.223 1019.39,579.227 1017.99,579.227C1016.59,579.227 1015.46,580.223 1015.46,581.454C1015.46,580.223 1014.33,579.227 1012.93,579.227C1011.52,579.227 1010.4,580.223 1010.4,581.454Z" style="fill-rule:nonzero;"/>
                </g>
                <g transform="matrix(1,0,0,-1,0.23105,1375.78)">
                    <path d="M1123.56,690.16C1122.31,690.16 1121.65,688.824 1121.31,687.492C1120.96,686.156 1120.93,684.82 1120.93,684.82L1120.29,684.816C1120.29,684.816 1120.17,690.16 1117.67,690.16L1123.56,690.16Z" style="fill-rule:nonzero;"/>
                </g>
                <g transform="matrix(1,0,0,-1,0.23105,1385.44)">
                    <path d="M1125.68,694.481C1125.68,691.879 1121.77,689.989 1120.63,687.934C1119.48,689.996 1115.57,691.883 1115.56,694.481C1115.56,695.707 1116.69,696.707 1118.1,696.707C1119.49,696.707 1120.63,695.707 1120.63,694.481C1120.63,695.707 1121.75,696.707 1123.16,696.707C1124.56,696.707 1125.68,695.707 1125.68,694.481Z" style="fill-rule:nonzero;"/>
                </g>
                <g transform="matrix(1,0,0,-1,0.23105,1166.77)">
                    <path d="M1031.06,576.57C1034.06,576.57 1035.64,579.773 1036.47,582.976C1037.3,586.179 1037.37,589.382 1037.37,589.382L1038.9,589.402C1038.9,589.402 1039.19,576.57 1045.2,576.57L1031.06,576.57Z" style="fill-rule:nonzero;"/>
                </g>
                <g transform="matrix(1,0,0,-1,0.23105,1143.58)">
                    <path d="M1025.96,566.207C1025.98,572.449 1035.36,576.984 1038.11,581.914C1040.86,576.965 1050.23,572.433 1050.25,566.207C1050.25,563.254 1047.54,560.863 1044.17,560.863C1040.82,560.863 1038.11,563.254 1038.11,566.207C1038.11,563.254 1035.39,560.863 1032.03,560.863C1028.66,560.863 1025.96,563.254 1025.96,566.207Z" style="fill-rule:nonzero;"/>
                </g>
                <g transform="matrix(1,0,0,-1,0.23105,1247.98)">
                    <path d="M1031.06,617.172C1034.06,617.172 1035.64,620.375 1036.47,623.578C1037.3,626.781 1037.37,629.985 1037.37,629.985L1038.9,630.004C1038.9,630.004 1039.19,617.172 1045.2,617.172L1031.06,617.172Z" style="fill-rule:nonzero;"/>
                </g>
                <g transform="matrix(1,0,0,-1,0.23105,1224.78)">
                    <path d="M1025.96,606.809C1025.98,613.051 1035.36,617.586 1038.11,622.516C1040.86,617.567 1050.23,613.032 1050.25,606.809C1050.25,603.856 1047.54,601.465 1044.17,601.465C1040.82,601.465 1038.11,603.856 1038.11,606.809C1038.11,603.856 1035.39,601.465 1032.03,601.465C1028.66,601.465 1025.96,603.856 1025.96,606.809Z" style="fill-rule:nonzero;"/>
                </g>
                <g transform="matrix(1,0,0,-1,0.23105,1299.27)">
                    <path d="M1045.16,655.648C1042.16,655.648 1040.57,652.445 1039.75,649.241C1038.92,646.038 1038.85,642.835 1038.85,642.835L1037.32,642.82C1037.32,642.82 1037.03,655.648 1031.02,655.648L1045.16,655.648Z" style="fill-rule:nonzero;"/>
                </g>
                <g transform="matrix(1,0,0,-1,0.23105,1322.47)">
                    <path d="M1050.25,666.016C1050.23,659.769 1040.86,655.234 1038.11,650.305C1035.36,655.254 1025.98,659.789 1025.96,666.016C1025.96,668.965 1028.68,671.359 1032.04,671.359C1035.39,671.359 1038.11,668.965 1038.11,666.016C1038.11,668.965 1040.82,671.359 1044.19,671.359C1047.56,671.359 1050.25,668.965 1050.25,666.016Z" style="fill-rule:nonzero;"/>
                </g>
                <g transform="matrix(1,0,0,-1,0.23105,1380.48)">
                    <path d="M1045.16,696.254C1042.16,696.254 1040.57,693.051 1039.75,689.848C1038.92,686.645 1038.85,683.442 1038.85,683.442L1037.32,683.422C1037.32,683.422 1037.03,696.254 1031.02,696.254L1045.16,696.254Z" style="fill-rule:nonzero;"/>
                </g>
                <g transform="matrix(1,0,0,-1,0.23105,1403.67)">
                    <path d="M1050.25,706.613C1050.23,700.371 1040.86,695.836 1038.11,690.906C1035.36,695.855 1025.98,700.39 1025.96,706.613C1025.96,709.566 1028.68,711.961 1032.04,711.961C1035.39,711.961 1038.11,709.566 1038.11,706.613C1038.11,709.566 1040.82,711.961 1044.19,711.961C1047.56,711.961 1050.25,709.566 1050.25,706.613Z" style="fill-rule:nonzero;"/>
                </g>
                <g transform="matrix(1,0,0,-1,0.23105,1166.77)">
                    <path d="M1090.93,576.57C1093.93,576.57 1095.52,579.773 1096.34,582.976C1097.17,586.179 1097.24,589.382 1097.24,589.382L1098.77,589.402C1098.77,589.402 1099.06,576.57 1105.07,576.57L1090.93,576.57Z" style="fill-rule:nonzero;"/>
                </g>
                <g transform="matrix(1,0,0,-1,0.23105,1143.58)">
                    <path d="M1085.83,566.207C1085.85,572.449 1095.23,576.984 1097.98,581.914C1100.73,576.965 1110.11,572.433 1110.13,566.207C1110.13,563.254 1107.41,560.863 1104.04,560.863C1100.69,560.863 1097.98,563.254 1097.98,566.207C1097.98,563.254 1095.26,560.863 1091.9,560.863C1088.53,560.863 1085.83,563.254 1085.83,566.207Z" style="fill-rule:nonzero;"/>
                </g>
                <g transform="matrix(1,0,0,-1,0.23105,1247.98)">
                    <path d="M1090.93,617.172C1093.93,617.172 1095.52,620.375 1096.34,623.578C1097.17,626.781 1097.24,629.985 1097.24,629.985L1098.77,630.004C1098.77,630.004 1099.06,617.172 1105.07,617.172L1090.93,617.172Z" style="fill-rule:nonzero;"/>
                </g>
                <g transform="matrix(1,0,0,-1,0.23105,1224.78)">
                    <path d="M1085.83,606.809C1085.85,613.051 1095.23,617.586 1097.98,622.516C1100.73,617.567 1110.11,613.032 1110.13,606.809C1110.13,603.856 1107.41,601.465 1104.04,601.465C1100.69,601.465 1097.98,603.856 1097.98,606.809C1097.98,603.856 1095.26,601.465 1091.9,601.465C1088.53,601.465 1085.83,603.856 1085.83,606.809Z" style="fill-rule:nonzero;"/>
                </g>
                <g transform="matrix(1,0,0,-1,0.23105,1299.27)">
                    <path d="M1105.03,655.648C1102.03,655.648 1100.44,652.445 1099.62,649.241C1098.79,646.038 1098.72,642.835 1098.72,642.835L1097.19,642.82C1097.19,642.82 1096.9,655.648 1090.89,655.648L1105.03,655.648Z" style="fill-rule:nonzero;"/>
                </g>
                <g transform="matrix(1,0,0,-1,0.23105,1322.47)">
                    <path d="M1110.13,666.016C1110.11,659.769 1100.73,655.234 1097.98,650.305C1095.23,655.254 1085.85,659.789 1085.83,666.016C1085.83,668.965 1088.55,671.359 1091.91,671.359C1095.26,671.359 1097.98,668.965 1097.98,666.016C1097.98,668.965 1100.69,671.359 1104.06,671.359C1107.43,671.359 1110.13,668.965 1110.13,666.016Z" style="fill-rule:nonzero;"/>
                </g>
                <g transform="matrix(1,0,0,-1,0.23105,1380.48)">
                    <path d="M1105.03,696.254C1102.03,696.254 1100.44,693.051 1099.62,689.848C1098.79,686.645 1098.72,683.442 1098.72,683.442L1097.19,683.422C1097.19,683.422 1096.9,696.254 1090.89,696.254L1105.03,696.254Z" style="fill-rule:nonzero;"/>
                </g>
                <g transform="matrix(1,0,0,-1,0.23105,1403.67)">
                    <path d="M1110.13,706.613C1110.11,700.371 1100.73,695.836 1097.98,690.906C1095.23,695.855 1085.85,700.39 1085.83,706.613C1085.83,709.566 1088.55,711.961 1091.91,711.961C1095.26,711.961 1097.98,709.566 1097.98,706.613C1097.98,709.566 1100.69,711.961 1104.06,711.961C1107.43,711.961 1110.13,709.566 1110.13,706.613Z" style="fill-rule:nonzero;"/>
                </g>
                <g transform="matrix(1,0,0,-1,0.23105,1207.38)">
                    <path d="M1060.99,596.875C1064,596.875 1065.58,600.078 1066.41,603.281C1067.23,606.484 1067.31,609.687 1067.31,609.687L1068.84,609.703C1068.84,609.703 1069.13,596.875 1075.13,596.875L1060.99,596.875Z" style="fill-rule:nonzero;"/>
                </g>
                <g transform="matrix(1,0,0,-1,0.23105,1184.19)">
                    <path d="M1055.9,586.508C1055.92,592.754 1065.29,597.289 1068.04,602.219C1070.8,597.27 1080.17,592.735 1080.19,586.508C1080.19,583.559 1077.47,581.164 1074.11,581.164C1070.76,581.164 1068.04,583.559 1068.04,586.508C1068.04,583.559 1065.33,581.164 1061.96,581.164C1058.6,581.164 1055.9,583.559 1055.9,586.508Z" style="fill-rule:nonzero;"/>
                </g>
                <g transform="matrix(0.53388,0,0,1,471.005,550.523)">
                    <g transform="matrix(34.0888,0,0,34.0888,1008.23,25.9905)">
                        <path d="M0.031,0.014L0.031,0C0.085,-0.012 0.131,-0.031 0.168,-0.055C0.206,-0.079 0.236,-0.109 0.258,-0.144C0.28,-0.18 0.295,-0.22 0.304,-0.267C0.284,-0.256 0.266,-0.249 0.252,-0.245C0.238,-0.241 0.223,-0.239 0.208,-0.239C0.157,-0.239 0.116,-0.257 0.082,-0.293C0.049,-0.329 0.032,-0.379 0.032,-0.441C0.032,-0.485 0.041,-0.525 0.059,-0.561C0.077,-0.598 0.103,-0.626 0.137,-0.646C0.17,-0.666 0.205,-0.676 0.241,-0.676C0.28,-0.676 0.317,-0.665 0.351,-0.643C0.386,-0.62 0.413,-0.588 0.434,-0.546C0.454,-0.504 0.464,-0.457 0.464,-0.403C0.464,-0.333 0.448,-0.266 0.414,-0.203C0.381,-0.139 0.331,-0.088 0.265,-0.049C0.199,-0.01 0.121,0.01 0.031,0.014ZM0.311,-0.308C0.314,-0.344 0.316,-0.376 0.316,-0.404C0.316,-0.463 0.309,-0.518 0.295,-0.569C0.288,-0.598 0.276,-0.618 0.261,-0.632C0.253,-0.639 0.242,-0.643 0.229,-0.643C0.213,-0.643 0.2,-0.636 0.191,-0.622C0.178,-0.602 0.172,-0.566 0.172,-0.512C0.172,-0.422 0.183,-0.359 0.204,-0.325C0.218,-0.303 0.237,-0.292 0.261,-0.292C0.273,-0.292 0.29,-0.297 0.311,-0.308Z" style="fill-rule:nonzero;"/>
                    </g>
                </g>
                <g transform="matrix(-0.53388,0,0,-1,525.104,-1.51912)">
                    <g transform="matrix(34.0888,0,0,34.0888,-1127.86,-703.089)">
                        <path d="M0.031,0.014L0.031,0C0.085,-0.012 0.131,-0.031 0.168,-0.055C0.206,-0.079 0.236,-0.109 0.258,-0.144C0.28,-0.18 0.295,-0.22 0.304,-0.267C0.284,-0.256 0.266,-0.249 0.252,-0.245C0.238,-0.241 0.223,-0.239 0.208,-0.239C0.157,-0.239 0.116,-0.257 0.082,-0.293C0.049,-0.329 0.032,-0.379 0.032,-0.441C0.032,-0.485 0.041,-0.525 0.059,-0.561C0.077,-0.598 0.103,-0.626 0.137,-0.646C0.17,-0.666 0.205,-0.676 0.241,-0.676C0.28,-0.676 0.317,-0.665 0.351,-0.643C0.386,-0.62 0.413,-0.588 0.434,-0.546C0.454,-0.504 0.464,-0.457 0.464,-0.403C0.464,-0.333 0.448,-0.266 0.414,-0.203C0.381,-0.139 0.331,-0.088 0.265,-0.049C0.199,-0.01 0.121,0.01 0.031,0.014ZM0.311,-0.308C0.314,-0.344 0.316,-0.376 0.316,-0.404C0.316,-0.463 0.309,-0.518 0.295,-0.569C0.288,-0.598 0.276,-0.618 0.261,-0.632C0.253,-0.639 0.242,-0.643 0.229,-0.643C0.213,-0.643 0.2,-0.636 0.191,-0.622C0.178,-0.602 0.172,-0.566 0.172,-0.512C0.172,-0.422 0.183,-0.359 0.204,-0.325C0.218,-0.303 0.237,-0.292 0.261,-0.292C0.273,-0.292 0.29,-0.297 0.311,-0.308Z" style="fill-rule:nonzero;"/>
                    </g>
                </g>
            </g>
        </g>
    </g>
</svg>
