<?xml version="1.0" encoding="UTF-8" standalone="no"?>
<!DOCTYPE svg PUBLIC "-//W3C//DTD SVG 1.1//EN" "http://www.w3.org/Graphics/SVG/1.1/DTD/svg11.dtd">
<svg width="100%" height="100%" viewBox="0 0 133 190" version="1.1" xmlns="http://www.w3.org/2000/svg" xmlns:xlink="http://www.w3.org/1999/xlink" xml:space="preserve" xmlns:serif="http://www.serif.com/" style="fill-rule:evenodd;clip-rule:evenodd;">
    <g transform="matrix(1,0,0,1,-1198,-1695)">
        <g id="pikzehn" transform="matrix(1.0231,0,0,0.854373,1198.21,870.203)">
            <rect x="0" y="965.48" width="129.704" height="221.683" style="fill:none;"/>
            <g transform="matrix(0.977423,0,0,1.17045,-1101.73,328.236)">
                <g transform="matrix(1,0,0,-1,0.23105,1277.49)">
                    <path d="M1130.86,552.722C1130.86,549.89 1133.17,547.574 1136.01,547.574L1250.6,547.574C1253.43,547.574 1255.74,549.89 1255.74,552.722L1255.74,723.96C1255.74,726.792 1253.43,729.109 1250.6,729.109L1136.01,729.109C1133.17,729.109 1130.86,726.792 1130.86,723.96L1130.86,552.722Z" style="fill:white;fill-rule:nonzero;stroke:black;stroke-width:1px;"/>
                </g>
                <g transform="matrix(1,0,0,-1,0.23105,1177.69)">
                    <path d="M1138.16,585.773C1139.41,585.773 1140.07,587.105 1140.41,588.441C1140.76,589.777 1140.79,591.109 1140.79,591.109L1141.43,591.117C1141.43,591.117 1141.55,585.773 1144.05,585.773L1138.16,585.773Z" style="fill-rule:nonzero;"/>
                </g>
                <g transform="matrix(1,0,0,-1,0.23105,1168.03)">
                    <path d="M1136.04,581.454C1136.05,584.055 1139.95,585.946 1141.1,588C1142.25,585.938 1146.15,584.047 1146.16,581.454C1146.16,580.223 1145.03,579.227 1143.63,579.227C1142.23,579.227 1141.1,580.223 1141.1,581.454C1141.1,580.223 1139.96,579.227 1138.56,579.227C1137.16,579.227 1136.04,580.223 1136.04,581.454Z" style="fill-rule:nonzero;"/>
                </g>
                <g transform="matrix(1,0,0,-1,0.23105,1375.78)">
                    <path d="M1249.2,690.16C1247.95,690.16 1247.29,688.824 1246.94,687.492C1246.6,686.156 1246.57,684.82 1246.57,684.82L1245.93,684.816C1245.93,684.816 1245.81,690.16 1243.31,690.16L1249.2,690.16Z" style="fill-rule:nonzero;"/>
                </g>
                <g transform="matrix(1,0,0,-1,0.23105,1385.44)">
                    <path d="M1251.32,694.481C1251.32,691.879 1247.41,689.989 1246.26,687.934C1245.11,689.996 1241.21,691.883 1241.2,694.481C1241.2,695.707 1242.33,696.707 1243.73,696.707C1245.13,696.707 1246.26,695.707 1246.26,694.481C1246.26,695.707 1247.39,696.707 1248.8,696.707C1250.2,696.707 1251.32,695.707 1251.32,694.481Z" style="fill-rule:nonzero;"/>
                </g>
                <g transform="matrix(1,0,0,-1,0.23105,1166.77)">
                    <path d="M1156.69,576.57C1159.69,576.57 1161.28,579.773 1162.11,582.976C1162.93,586.179 1163,589.382 1163,589.382L1164.54,589.402C1164.54,589.402 1164.82,576.57 1170.83,576.57L1156.69,576.57Z" style="fill-rule:nonzero;"/>
                </g>
                <g transform="matrix(1,0,0,-1,0.23105,1143.58)">
                    <path d="M1151.6,566.207C1151.62,572.449 1160.99,576.984 1163.74,581.914C1166.5,576.965 1175.87,572.433 1175.89,566.207C1175.89,563.254 1173.17,560.863 1169.81,560.863C1166.46,560.863 1163.74,563.254 1163.74,566.207C1163.74,563.254 1161.03,560.863 1157.66,560.863C1154.3,560.863 1151.6,563.254 1151.6,566.207Z" style="fill-rule:nonzero;"/>
                </g>
                <g transform="matrix(1,0,0,-1,0.23105,1247.98)">
                    <path d="M1156.69,617.172C1159.69,617.172 1161.28,620.375 1162.11,623.578C1162.93,626.781 1163,629.985 1163,629.985L1164.54,630.004C1164.54,630.004 1164.82,617.172 1170.83,617.172L1156.69,617.172Z" style="fill-rule:nonzero;"/>
                </g>
                <g transform="matrix(1,0,0,-1,0.23105,1224.78)">
                    <path d="M1151.6,606.809C1151.62,613.051 1160.99,617.586 1163.74,622.516C1166.5,617.567 1175.87,613.032 1175.89,606.809C1175.89,603.856 1173.17,601.465 1169.81,601.465C1166.46,601.465 1163.74,603.856 1163.74,606.809C1163.74,603.856 1161.03,601.465 1157.66,601.465C1154.3,601.465 1151.6,603.856 1151.6,606.809Z" style="fill-rule:nonzero;"/>
                </g>
                <g transform="matrix(1,0,0,-1,0.23105,1299.27)">
                    <path d="M1170.8,655.648C1167.79,655.648 1166.21,652.445 1165.38,649.241C1164.56,646.038 1164.48,642.835 1164.48,642.835L1162.95,642.82C1162.95,642.82 1162.66,655.648 1156.65,655.648L1170.8,655.648Z" style="fill-rule:nonzero;"/>
                </g>
                <g transform="matrix(1,0,0,-1,0.23105,1322.47)">
                    <path d="M1175.89,666.016C1175.87,659.769 1166.5,655.234 1163.74,650.305C1160.99,655.254 1151.62,659.789 1151.6,666.016C1151.6,668.965 1154.32,671.359 1157.68,671.359C1161.03,671.359 1163.74,668.965 1163.74,666.016C1163.74,668.965 1166.46,671.359 1169.82,671.359C1173.19,671.359 1175.89,668.965 1175.89,666.016Z" style="fill-rule:nonzero;"/>
                </g>
                <g transform="matrix(1,0,0,-1,0.23105,1380.48)">
                    <path d="M1170.8,696.254C1167.79,696.254 1166.21,693.051 1165.38,689.848C1164.56,686.645 1164.48,683.442 1164.48,683.442L1162.95,683.422C1162.95,683.422 1162.66,696.254 1156.65,696.254L1170.8,696.254Z" style="fill-rule:nonzero;"/>
                </g>
                <g transform="matrix(1,0,0,-1,0.23105,1403.67)">
                    <path d="M1175.89,706.613C1175.87,700.371 1166.5,695.836 1163.74,690.906C1160.99,695.855 1151.62,700.39 1151.6,706.613C1151.6,709.566 1154.32,711.961 1157.68,711.961C1161.03,711.961 1163.74,709.566 1163.74,706.613C1163.74,709.566 1166.46,711.961 1169.82,711.961C1173.19,711.961 1175.89,709.566 1175.89,706.613Z" style="fill-rule:nonzero;"/>
                </g>
                <g transform="matrix(1,0,0,-1,0.23105,1166.77)">
                    <path d="M1216.56,576.57C1219.57,576.57 1221.15,579.773 1221.98,582.976C1222.81,586.179 1222.88,589.382 1222.88,589.382L1224.41,589.402C1224.41,589.402 1224.69,576.57 1230.7,576.57L1216.56,576.57Z" style="fill-rule:nonzero;"/>
                </g>
                <g transform="matrix(1,0,0,-1,0.23105,1143.58)">
                    <path d="M1211.47,566.207C1211.49,572.449 1220.86,576.984 1223.61,581.914C1226.37,576.965 1235.74,572.433 1235.76,566.207C1235.76,563.254 1233.04,560.863 1229.68,560.863C1226.33,560.863 1223.61,563.254 1223.61,566.207C1223.61,563.254 1220.9,560.863 1217.53,560.863C1214.17,560.863 1211.47,563.254 1211.47,566.207Z" style="fill-rule:nonzero;"/>
                </g>
                <g transform="matrix(1,0,0,-1,0.23105,1247.98)">
                    <path d="M1216.56,617.172C1219.57,617.172 1221.15,620.375 1221.98,623.578C1222.81,626.781 1222.88,629.985 1222.88,629.985L1224.41,630.004C1224.41,630.004 1224.69,617.172 1230.7,617.172L1216.56,617.172Z" style="fill-rule:nonzero;"/>
                </g>
                <g transform="matrix(1,0,0,-1,0.23105,1224.78)">
                    <path d="M1211.47,606.809C1211.49,613.051 1220.86,617.586 1223.61,622.516C1226.37,617.567 1235.74,613.032 1235.76,606.809C1235.76,603.856 1233.04,601.465 1229.68,601.465C1226.33,601.465 1223.61,603.856 1223.61,606.809C1223.61,603.856 1220.9,601.465 1217.53,601.465C1214.17,601.465 1211.47,603.856 1211.47,606.809Z" style="fill-rule:nonzero;"/>
                </g>
                <g transform="matrix(1,0,0,-1,0.23105,1299.27)">
                    <path d="M1230.67,655.648C1227.66,655.648 1226.08,652.445 1225.25,649.241C1224.42,646.038 1224.35,642.835 1224.35,642.835L1222.82,642.82C1222.82,642.82 1222.54,655.648 1216.52,655.648L1230.67,655.648Z" style="fill-rule:nonzero;"/>
                </g>
                <g transform="matrix(1,0,0,-1,0.23105,1322.47)">
                    <path d="M1235.76,666.016C1235.74,659.769 1226.37,655.234 1223.61,650.305C1220.86,655.254 1211.49,659.789 1211.47,666.016C1211.47,668.965 1214.18,671.359 1217.55,671.359C1220.9,671.359 1223.61,668.965 1223.61,666.016C1223.61,668.965 1226.33,671.359 1229.69,671.359C1233.06,671.359 1235.76,668.965 1235.76,666.016Z" style="fill-rule:nonzero;"/>
                </g>
                <g transform="matrix(1,0,0,-1,0.23105,1380.48)">
                    <path d="M1230.67,696.254C1227.66,696.254 1226.08,693.051 1225.25,689.848C1224.42,686.645 1224.35,683.442 1224.35,683.442L1222.82,683.422C1222.82,683.422 1222.54,696.254 1216.52,696.254L1230.67,696.254Z" style="fill-rule:nonzero;"/>
                </g>
                <g transform="matrix(1,0,0,-1,0.23105,1403.67)">
                    <path d="M1235.76,706.613C1235.74,700.371 1226.37,695.836 1223.61,690.906C1220.86,695.855 1211.49,700.39 1211.47,706.613C1211.47,709.566 1214.18,711.961 1217.55,711.961C1220.9,711.961 1223.61,709.566 1223.61,706.613C1223.61,709.566 1226.33,711.961 1229.69,711.961C1233.06,711.961 1235.76,709.566 1235.76,706.613Z" style="fill-rule:nonzero;"/>
                </g>
                <g transform="matrix(1,0,0,-1,0.23105,1207.38)">
                    <path d="M1186.63,596.875C1189.63,596.875 1191.21,600.078 1192.04,603.281C1192.87,606.484 1192.94,609.687 1192.94,609.687L1194.47,609.703C1194.47,609.703 1194.76,596.875 1200.77,596.875L1186.63,596.875Z" style="fill-rule:nonzero;"/>
                </g>
                <g transform="matrix(1,0,0,-1,0.23105,1184.19)">
                    <path d="M1181.53,586.508C1181.55,592.754 1190.93,597.289 1193.68,602.219C1196.43,597.27 1205.81,592.735 1205.82,586.508C1205.82,583.559 1203.11,581.164 1199.74,581.164C1196.39,581.164 1193.68,583.559 1193.68,586.508C1193.68,583.559 1190.96,581.164 1187.6,581.164C1184.23,581.164 1181.53,583.559 1181.53,586.508Z" style="fill-rule:nonzero;"/>
                </g>
                <g transform="matrix(1,0,0,-1,0.23105,1339.87)">
                    <path d="M1200.73,675.949C1197.73,675.949 1196.14,672.746 1195.32,669.543C1194.49,666.34 1194.42,663.136 1194.42,663.136L1192.89,663.121C1192.89,663.121 1192.6,675.949 1186.59,675.949L1200.73,675.949Z" style="fill-rule:nonzero;"/>
                </g>
                <g transform="matrix(1,0,0,-1,0.23105,1363.07)">
                    <path d="M1205.82,686.316C1205.81,680.07 1196.43,675.538 1193.68,670.605C1190.93,675.554 1181.55,680.089 1181.53,686.316C1181.53,689.265 1184.25,691.66 1187.61,691.66C1190.96,691.66 1193.68,689.265 1193.68,686.316C1193.68,689.265 1196.39,691.66 1199.76,691.66C1203.13,691.66 1205.82,689.265 1205.82,686.316Z" style="fill-rule:nonzero;"/>
                </g>
                <g transform="matrix(-1.37567,7.00301e-17,8.71204e-17,-1,-471.262,-0.494431)">
                    <g transform="matrix(12.9372,0,0,34.0888,-1253.5,-703.089)">
                        <path d="M0.326,-0.676L0.326,-0.134C0.326,-0.094 0.327,-0.068 0.331,-0.056C0.335,-0.045 0.342,-0.036 0.354,-0.029C0.365,-0.022 0.383,-0.018 0.408,-0.018L0.423,-0.018L0.423,0L0.075,0L0.075,-0.018L0.092,-0.018C0.121,-0.018 0.141,-0.021 0.153,-0.028C0.165,-0.034 0.173,-0.043 0.177,-0.055C0.181,-0.066 0.184,-0.093 0.184,-0.134L0.184,-0.478C0.184,-0.508 0.182,-0.527 0.179,-0.535C0.176,-0.543 0.171,-0.549 0.163,-0.554C0.155,-0.56 0.146,-0.563 0.135,-0.563C0.119,-0.563 0.098,-0.557 0.075,-0.547L0.066,-0.564L0.31,-0.676L0.326,-0.676Z" style="fill-rule:nonzero;"/>
                    </g>
                    <g transform="matrix(12.9372,-4.38525e-29,-1.78995e-28,34.0888,-1247.03,-703.089)">
                        <path d="M0.463,-0.331C0.463,-0.265 0.454,-0.203 0.436,-0.146C0.424,-0.111 0.41,-0.082 0.391,-0.06C0.372,-0.037 0.351,-0.019 0.327,-0.006C0.303,0.007 0.278,0.014 0.25,0.014C0.218,0.014 0.189,0.006 0.163,-0.011C0.137,-0.027 0.115,-0.05 0.095,-0.081C0.08,-0.103 0.068,-0.132 0.057,-0.169C0.043,-0.219 0.036,-0.27 0.036,-0.323C0.036,-0.395 0.046,-0.461 0.066,-0.521C0.083,-0.571 0.108,-0.609 0.142,-0.636C0.176,-0.663 0.212,-0.676 0.25,-0.676C0.288,-0.676 0.324,-0.663 0.357,-0.636C0.391,-0.61 0.415,-0.575 0.431,-0.531C0.452,-0.47 0.463,-0.403 0.463,-0.331ZM0.313,-0.332C0.313,-0.448 0.312,-0.515 0.311,-0.535C0.308,-0.58 0.3,-0.611 0.288,-0.626C0.279,-0.637 0.266,-0.642 0.248,-0.642C0.234,-0.642 0.223,-0.638 0.215,-0.63C0.203,-0.619 0.195,-0.599 0.19,-0.57C0.186,-0.541 0.184,-0.441 0.184,-0.269C0.184,-0.175 0.187,-0.112 0.194,-0.08C0.199,-0.057 0.206,-0.042 0.215,-0.034C0.224,-0.026 0.236,-0.022 0.251,-0.022C0.267,-0.022 0.279,-0.027 0.288,-0.038C0.301,-0.056 0.309,-0.084 0.311,-0.122L0.313,-0.332Z" style="fill-rule:nonzero;"/>
                    </g>
                </g>
                <g transform="matrix(-1.37567,7.00301e-17,8.71204e-17,-1,-471.262,-0.494431)">
                    <g transform="matrix(12.9372,0,0,34.0888,-1253.5,-703.089)">
                        <path d="M0.326,-0.676L0.326,-0.134C0.326,-0.094 0.327,-0.068 0.331,-0.056C0.335,-0.045 0.342,-0.036 0.354,-0.029C0.365,-0.022 0.383,-0.018 0.408,-0.018L0.423,-0.018L0.423,0L0.075,0L0.075,-0.018L0.092,-0.018C0.121,-0.018 0.141,-0.021 0.153,-0.028C0.165,-0.034 0.173,-0.043 0.177,-0.055C0.181,-0.066 0.184,-0.093 0.184,-0.134L0.184,-0.478C0.184,-0.508 0.182,-0.527 0.179,-0.535C0.176,-0.543 0.171,-0.549 0.163,-0.554C0.155,-0.56 0.146,-0.563 0.135,-0.563C0.119,-0.563 0.098,-0.557 0.075,-0.547L0.066,-0.564L0.31,-0.676L0.326,-0.676Z" style="fill-rule:nonzero;"/>
                    </g>
                    <g transform="matrix(12.9372,-4.38525e-29,-1.78995e-28,34.0888,-1247.03,-703.089)">
                        <path d="M0.463,-0.331C0.463,-0.265 0.454,-0.203 0.436,-0.146C0.424,-0.111 0.41,-0.082 0.391,-0.06C0.372,-0.037 0.351,-0.019 0.327,-0.006C0.303,0.007 0.278,0.014 0.25,0.014C0.218,0.014 0.189,0.006 0.163,-0.011C0.137,-0.027 0.115,-0.05 0.095,-0.081C0.08,-0.103 0.068,-0.132 0.057,-0.169C0.043,-0.219 0.036,-0.27 0.036,-0.323C0.036,-0.395 0.046,-0.461 0.066,-0.521C0.083,-0.571 0.108,-0.609 0.142,-0.636C0.176,-0.663 0.212,-0.676 0.25,-0.676C0.288,-0.676 0.324,-0.663 0.357,-0.636C0.391,-0.61 0.415,-0.575 0.431,-0.531C0.452,-0.47 0.463,-0.403 0.463,-0.331ZM0.313,-0.332C0.313,-0.448 0.312,-0.515 0.311,-0.535C0.308,-0.58 0.3,-0.611 0.288,-0.626C0.279,-0.637 0.266,-0.642 0.248,-0.642C0.234,-0.642 0.223,-0.638 0.215,-0.63C0.203,-0.619 0.195,-0.599 0.19,-0.57C0.186,-0.541 0.184,-0.441 0.184,-0.269C0.184,-0.175 0.187,-0.112 0.194,-0.08C0.199,-0.057 0.206,-0.042 0.215,-0.034C0.224,-0.026 0.236,-0.022 0.251,-0.022C0.267,-0.022 0.279,-0.027 0.288,-0.038C0.301,-0.056 0.309,-0.084 0.311,-0.122L0.313,-0.332Z" style="fill-rule:nonzero;"/>
                    </g>
                </g>
                <g transform="matrix(1.37567,9.84409e-17,-2.09585e-16,1,2857.4,1279.99)">
                    <g transform="matrix(12.9372,0,0,34.0888,-1253.5,-703.089)">
                        <path d="M0.326,-0.676L0.326,-0.134C0.326,-0.094 0.327,-0.068 0.331,-0.056C0.335,-0.045 0.342,-0.036 0.354,-0.029C0.365,-0.022 0.383,-0.018 0.408,-0.018L0.423,-0.018L0.423,0L0.075,0L0.075,-0.018L0.092,-0.018C0.121,-0.018 0.141,-0.021 0.153,-0.028C0.165,-0.034 0.173,-0.043 0.177,-0.055C0.181,-0.066 0.184,-0.093 0.184,-0.134L0.184,-0.478C0.184,-0.508 0.182,-0.527 0.179,-0.535C0.176,-0.543 0.171,-0.549 0.163,-0.554C0.155,-0.56 0.146,-0.563 0.135,-0.563C0.119,-0.563 0.098,-0.557 0.075,-0.547L0.066,-0.564L0.31,-0.676L0.326,-0.676Z" style="fill-rule:nonzero;"/>
                    </g>
                    <g transform="matrix(12.9372,-4.38525e-29,-1.78995e-28,34.0888,-1247.03,-703.089)">
                        <path d="M0.463,-0.331C0.463,-0.265 0.454,-0.203 0.436,-0.146C0.424,-0.111 0.41,-0.082 0.391,-0.06C0.372,-0.037 0.351,-0.019 0.327,-0.006C0.303,0.007 0.278,0.014 0.25,0.014C0.218,0.014 0.189,0.006 0.163,-0.011C0.137,-0.027 0.115,-0.05 0.095,-0.081C0.08,-0.103 0.068,-0.132 0.057,-0.169C0.043,-0.219 0.036,-0.27 0.036,-0.323C0.036,-0.395 0.046,-0.461 0.066,-0.521C0.083,-0.571 0.108,-0.609 0.142,-0.636C0.176,-0.663 0.212,-0.676 0.25,-0.676C0.288,-0.676 0.324,-0.663 0.357,-0.636C0.391,-0.61 0.415,-0.575 0.431,-0.531C0.452,-0.47 0.463,-0.403 0.463,-0.331ZM0.313,-0.332C0.313,-0.448 0.312,-0.515 0.311,-0.535C0.308,-0.58 0.3,-0.611 0.288,-0.626C0.279,-0.637 0.266,-0.642 0.248,-0.642C0.234,-0.642 0.223,-0.638 0.215,-0.63C0.203,-0.619 0.195,-0.599 0.19,-0.57C0.186,-0.541 0.184,-0.441 0.184,-0.269C0.184,-0.175 0.187,-0.112 0.194,-0.08C0.199,-0.057 0.206,-0.042 0.215,-0.034C0.224,-0.026 0.236,-0.022 0.251,-0.022C0.267,-0.022 0.279,-0.027 0.288,-0.038C0.301,-0.056 0.309,-0.084 0.311,-0.122L0.313,-0.332Z" style="fill-rule:nonzero;"/>
                    </g>
                </g>
            </g>
        </g>
    </g>
</svg>
