<?xml version="1.0" encoding="UTF-8" standalone="no"?>
<!DOCTYPE svg PUBLIC "-//W3C//DTD SVG 1.1//EN" "http://www.w3.org/Graphics/SVG/1.1/DTD/svg11.dtd">
<svg width="100%" height="100%" viewBox="0 0 134 190" version="1.1" xmlns="http://www.w3.org/2000/svg" xmlns:xlink="http://www.w3.org/1999/xlink" xml:space="preserve" xmlns:serif="http://www.serif.com/" style="fill-rule:evenodd;clip-rule:evenodd;">
    <g transform="matrix(1,0,0,1,-136,-1695)">
        <g id="pikzwei" transform="matrix(1.0231,0,0,0.854373,136.606,870.203)">
            <rect x="0" y="965.48" width="129.704" height="221.683" style="fill:none;"/>
            <g transform="matrix(0.977423,0,0,1.17045,-119.351,328.236)">
                <g transform="matrix(1,0,0,-1,0.23105,1277.49)">
                    <path d="M125.785,552.722C125.785,549.89 128.102,547.574 130.934,547.574L245.527,547.574C248.352,547.574 250.668,549.89 250.668,552.722L250.668,723.96C250.668,726.792 248.352,729.109 245.527,729.109L130.934,729.109C128.102,729.109 125.785,726.792 125.785,723.96L125.785,552.722Z" style="fill:white;fill-rule:nonzero;stroke:black;stroke-width:1px;"/>
                </g>
                <g transform="matrix(1,0,0,-1,0.23105,1177.69)">
                    <path d="M133.078,585.773C134.332,585.773 134.992,587.105 135.336,588.441C135.68,589.777 135.711,591.109 135.711,591.109L136.348,591.117C136.348,591.117 136.469,585.773 138.973,585.773L133.078,585.773Z" style="fill-rule:nonzero;"/>
                </g>
                <g transform="matrix(1,0,0,-1,0.23105,1168.03)">
                    <path d="M130.957,581.454C130.965,584.055 134.871,585.946 136.02,588C137.164,585.938 141.07,584.047 141.078,581.454C141.078,580.223 139.945,579.227 138.543,579.227C137.148,579.227 136.02,580.223 136.02,581.454C136.02,580.223 134.887,579.227 133.484,579.227C132.082,579.227 130.957,580.223 130.957,581.454Z" style="fill-rule:nonzero;"/>
                </g>
                <g transform="matrix(1,0,0,-1,0.23105,1375.78)">
                    <path d="M244.125,690.16C242.871,690.16 242.211,688.824 241.867,687.492C241.523,686.156 241.492,684.82 241.492,684.82L240.855,684.816C240.855,684.816 240.734,690.16 238.23,690.16L244.125,690.16Z" style="fill-rule:nonzero;"/>
                </g>
                <g transform="matrix(1,0,0,-1,0.23105,1385.44)">
                    <path d="M246.246,694.481C246.238,691.879 242.332,689.989 241.184,687.934C240.039,689.996 236.133,691.883 236.125,694.481C236.125,695.707 237.258,696.707 238.66,696.707C240.055,696.707 241.184,695.707 241.184,694.481C241.184,695.707 242.316,696.707 243.719,696.707C245.121,696.707 246.246,695.707 246.246,694.481Z" style="fill-rule:nonzero;"/>
                </g>
                <g transform="matrix(1,0,0,-1,0.23105,1380.48)">
                    <path d="M195.656,696.254C192.648,696.254 191.066,693.051 190.238,689.848C189.41,686.645 189.34,683.442 189.34,683.442L187.809,683.422C187.809,683.422 187.52,696.254 181.512,696.254L195.656,696.254Z" style="fill-rule:nonzero;"/>
                </g>
                <g transform="matrix(1,0,0,-1,0.23105,1403.67)">
                    <path d="M200.746,706.613C200.73,700.371 191.355,695.836 188.602,690.906C185.848,695.855 176.473,700.39 176.457,706.613C176.457,709.566 179.172,711.961 182.539,711.961C185.883,711.961 188.602,709.566 188.602,706.613C188.602,709.566 191.316,711.961 194.684,711.961C198.047,711.961 200.746,709.566 200.746,706.613Z" style="fill-rule:nonzero;"/>
                </g>
                <g transform="matrix(1,0,0,-1,0.23105,1166.77)">
                    <path d="M181.547,576.57C184.551,576.57 186.137,579.773 186.965,582.976C187.793,586.179 187.863,589.382 187.863,589.382L189.395,589.402C189.395,589.402 189.68,576.57 195.691,576.57L181.547,576.57Z" style="fill-rule:nonzero;"/>
                </g>
                <g transform="matrix(1,0,0,-1,0.23105,1143.58)">
                    <path d="M176.457,566.207C176.473,572.449 185.848,576.984 188.602,581.914C191.355,576.965 200.73,572.433 200.746,566.207C200.746,563.254 198.031,560.863 194.664,560.863C191.316,560.863 188.602,563.254 188.602,566.207C188.602,563.254 185.883,560.863 182.52,560.863C179.156,560.863 176.457,563.254 176.457,566.207Z" style="fill-rule:nonzero;"/>
                </g>
                <g transform="matrix(0.53388,0,0,1,61.0793,550.523)">
                    <g transform="matrix(34.0888,0,0,34.0888,128.783,25.9905)">
                        <path d="M0.414,0L0.024,0L0.024,-0.011C0.144,-0.153 0.216,-0.249 0.242,-0.298C0.267,-0.347 0.28,-0.395 0.28,-0.442C0.28,-0.476 0.27,-0.504 0.249,-0.527C0.227,-0.55 0.201,-0.561 0.171,-0.561C0.121,-0.561 0.082,-0.536 0.054,-0.486L0.036,-0.492C0.054,-0.555 0.08,-0.601 0.116,-0.631C0.152,-0.661 0.193,-0.676 0.24,-0.676C0.274,-0.676 0.304,-0.668 0.332,-0.652C0.36,-0.637 0.381,-0.615 0.397,-0.588C0.413,-0.561 0.42,-0.535 0.42,-0.512C0.42,-0.468 0.408,-0.424 0.384,-0.38C0.351,-0.32 0.28,-0.236 0.169,-0.128L0.312,-0.128C0.347,-0.128 0.37,-0.129 0.381,-0.132C0.391,-0.135 0.4,-0.14 0.407,-0.147C0.414,-0.154 0.423,-0.169 0.434,-0.191L0.451,-0.191L0.414,0Z" style="fill-rule:nonzero;"/>
                    </g>
                </g>
                <g transform="matrix(-0.53388,0,0,-1,115.181,-1.51912)">
                    <g transform="matrix(34.0888,0,0,34.0888,-248.42,-703.089)">
                        <path d="M0.414,0L0.024,0L0.024,-0.011C0.144,-0.153 0.216,-0.249 0.242,-0.298C0.267,-0.347 0.28,-0.395 0.28,-0.442C0.28,-0.476 0.27,-0.504 0.249,-0.527C0.227,-0.55 0.201,-0.561 0.171,-0.561C0.121,-0.561 0.082,-0.536 0.054,-0.486L0.036,-0.492C0.054,-0.555 0.08,-0.601 0.116,-0.631C0.152,-0.661 0.193,-0.676 0.24,-0.676C0.274,-0.676 0.304,-0.668 0.332,-0.652C0.36,-0.637 0.381,-0.615 0.397,-0.588C0.413,-0.561 0.42,-0.535 0.42,-0.512C0.42,-0.468 0.408,-0.424 0.384,-0.38C0.351,-0.32 0.28,-0.236 0.169,-0.128L0.312,-0.128C0.347,-0.128 0.37,-0.129 0.381,-0.132C0.391,-0.135 0.4,-0.14 0.407,-0.147C0.414,-0.154 0.423,-0.169 0.434,-0.191L0.451,-0.191L0.414,0Z" style="fill-rule:nonzero;"/>
                    </g>
                </g>
            </g>
        </g>
    </g>
</svg>
